<svg width="55" height="61" viewBox="0 0 55 61" fill="none" xmlns="http://www.w3.org/2000/svg">
<path d="M5.12466 15.25H36.3872V21.35H18.4684V61H12.3684V42.7H5.88713V61H0.168406C0.0413229 48.8 -0.136594 23.5612 0.168406 20.2062C0.473406 16.8513 3.59966 15.5042 5.12466 15.25Z" fill="#D7263D"/>
<path d="M21.8996 8.76875V3.43125H51.2559C53.0859 3.43125 54.3059 5.71875 54.6871 6.8625V39.2687C54.6871 41.0988 52.3996 42.3187 51.2559 42.7H38.2934L46.2996 61H39.4371L31.4309 42.7H24.9496V36.9812H48.9684V8.76875H21.8996Z" fill="#D7263D"/>
<path d="M15.4184 6.1C15.4184 9.46894 12.6873 12.2 9.31838 12.2C5.94944 12.2 3.21838 9.46894 3.21838 6.1C3.21838 2.73106 5.94944 0 9.31838 0C12.6873 0 15.4184 2.73106 15.4184 6.1Z" fill="#D7263D"/>
</svg>
