<svg width="725" height="134" viewBox="0 0 725 134" fill="none" xmlns="http://www.w3.org/2000/svg">
<path d="M50.3565 6.21333L49.2708 8.46525L49.2872 8.47317L49.3038 8.48085L50.3565 6.21333ZM63.3043 17.6556L61.1606 18.9418L61.17 18.9574L61.1796 18.9729L63.3043 17.6556ZM66.0143 48.67L68.3974 49.4256L68.4 49.4174L68.4025 49.4092L66.0143 48.67ZM59.691 59.9617L57.7889 58.3393L57.7847 58.3442L59.691 59.9617ZM15.5782 70.9522V68.4522H13.0782V70.9522H15.5782ZM15.5782 111V113.5H18.0782V111H15.5782ZM0.974307 111H-1.52569V113.5H0.974307V111ZM0.974307 2.14832V-0.351675H-1.52569V2.14832H0.974307ZM48.851 49.5733L50.8396 51.0884L50.8564 51.0663L50.8728 51.0438L48.851 49.5733ZM52.3138 42.6478L49.9138 41.9478L49.9138 41.9478L52.3138 42.6478ZM52.3138 29.3989L49.9138 30.0989L49.9178 30.1129L49.9221 30.1268L52.3138 29.3989ZM48.7004 22.925L46.7483 24.4867L46.7913 24.5406L46.8373 24.592L48.7004 22.925ZM42.2265 18.1072L41.1085 20.3433L41.1593 20.3687L41.2112 20.3917L42.2265 18.1072ZM15.5782 16.15V13.65H13.0782V16.15H15.5782ZM15.5782 56.9506H13.0782V59.4506H15.5782V56.9506ZM30.0315 4.64832C37.6835 4.64832 44.0676 5.95656 49.2708 8.46525L51.4423 3.9614C45.404 1.05009 38.2381 -0.351675 30.0315 -0.351675V4.64832ZM49.3038 8.48085C54.499 10.8929 58.4223 14.378 61.1606 18.9418L65.448 16.3693C62.1641 10.8961 57.4555 6.75297 51.4093 3.9458L49.3038 8.48085ZM61.1796 18.9729C63.9993 23.5209 65.4715 29.1151 65.4715 35.8728H70.4715C70.4715 28.3778 68.8323 21.8273 65.4291 16.3382L61.1796 18.9729ZM65.4715 35.8728C65.4715 39.9325 64.8585 43.9492 63.6261 47.9308L68.4025 49.4092C69.7798 44.9597 70.4715 40.4449 70.4715 35.8728H65.4715ZM63.6312 47.9144C62.4312 51.699 60.4917 55.1705 57.7889 58.3393L61.5931 61.584C64.7118 57.9276 66.9878 53.8713 68.3974 49.4256L63.6312 47.9144ZM57.7847 58.3442C55.2584 61.3217 51.875 63.7693 47.553 65.6484L49.5467 70.2338C54.4588 68.0981 58.5029 65.2261 61.5972 61.5791L57.7847 58.3442ZM47.553 65.6484C43.333 67.4832 38.0722 68.4522 31.6876 68.4522V73.4522C38.552 73.4522 44.5326 72.4138 49.5467 70.2338L47.553 65.6484ZM31.6876 68.4522H15.5782V73.4522H31.6876V68.4522ZM13.0782 70.9522V111H18.0782V70.9522H13.0782ZM15.5782 108.5H0.974307V113.5H15.5782V108.5ZM3.47431 111V2.14832H-1.52569V111H3.47431ZM0.974307 4.64832H30.0315V-0.351675H0.974307V4.64832ZM31.5371 59.4506C36.104 59.4506 40.0823 58.71 43.3446 57.0788L41.1085 52.6067C38.7501 53.7859 35.6021 54.4506 31.5371 54.4506V59.4506ZM43.3446 57.0788C46.4334 55.5344 48.9631 53.5512 50.8396 51.0884L46.8624 48.0582C45.527 49.811 43.6404 51.3408 41.1085 52.6067L43.3446 57.0788ZM50.8728 51.0438C52.6333 48.6231 53.9236 46.0567 54.7138 43.3478L49.9138 41.9478C49.2987 44.0566 48.2805 46.1073 46.8291 48.1029L50.8728 51.0438ZM54.7138 43.3478C55.4631 40.7787 55.8676 38.3789 55.8676 36.1739H50.8676C50.8676 37.7829 50.5696 39.6991 49.9138 41.9478L54.7138 43.3478ZM55.8676 36.1739C55.8676 33.6973 55.4732 31.1937 54.7054 28.671L49.9221 30.1268C50.5595 32.2211 50.8676 34.2341 50.8676 36.1739H55.8676ZM54.7138 28.6989C53.9045 25.9244 52.5136 23.4376 50.5635 21.258L46.8373 24.592C48.2998 26.2265 49.3178 28.0556 49.9138 30.0989L54.7138 28.6989ZM50.6526 21.3633C48.7608 18.9986 46.2611 17.1646 43.2419 15.8227L41.2112 20.3917C43.612 21.4588 45.4282 22.8366 46.7483 24.4867L50.6526 21.3633ZM43.3446 15.8711C40.29 14.3439 36.6165 13.65 32.4404 13.65V18.65C36.0932 18.65 38.9438 19.2609 41.1085 20.3433L43.3446 15.8711ZM32.4404 13.65H15.5782V18.65H32.4404V13.65ZM13.0782 16.15V56.9506H18.0782V16.15H13.0782ZM15.5782 59.4506H31.5371V54.4506H15.5782V59.4506ZM134.626 4.40666L133.851 6.78349L133.882 6.79345L133.913 6.80263L134.626 4.40666ZM146.821 10.8806L145.199 12.7826L145.229 12.8082L145.26 12.8327L146.821 10.8806ZM154.951 21.4194L152.674 22.4499L152.689 22.4829L152.705 22.5155L154.951 21.4194ZM156.005 48.5194L153.622 47.7638L153.614 47.7904L153.606 47.8172L156.005 48.5194ZM149.833 59.8111L151.711 61.4614L151.723 61.4475L151.735 61.4335L149.833 59.8111ZM138.39 67.9411L139.387 70.2338L139.399 70.2288L139.41 70.2236L138.39 67.9411ZM105.118 70.9522V68.4522H102.618V70.9522H105.118ZM105.118 111V113.5H107.618V111H105.118ZM90.5137 111H88.0137V113.5H90.5137V111ZM90.5137 2.14832V-0.351675H88.0137V2.14832H90.5137ZM131.615 54.9933L130.593 52.7121L130.578 52.7188L130.563 52.7258L131.615 54.9933ZM138.39 50.025L140.343 51.5867L140.361 51.5636L140.379 51.5401L138.39 50.025ZM141.853 43.25L144.253 43.95L144.253 43.95L141.853 43.25ZM141.703 29.7L139.303 30.4L139.32 30.4611L139.341 30.5213L141.703 29.7ZM138.089 23.0755L136.137 24.6373L136.16 24.6663L136.184 24.6947L138.089 23.0755ZM131.615 18.1072L130.497 20.3433L130.514 20.3516L130.531 20.3597L131.615 18.1072ZM105.118 16.15V13.65H102.618V16.15H105.118ZM105.118 56.9506H102.618V59.4506H105.118V56.9506ZM138.842 65.2311L140.965 63.9111L140.209 62.6946L138.777 62.732L138.842 65.2311ZM167.297 111V113.5H171.795L169.42 109.68L167.297 111ZM150.435 111L148.327 112.344L149.064 113.5H150.435V111ZM121.528 65.6828L121.463 63.1836L117.042 63.2989L119.42 67.0272L121.528 65.6828ZM119.42 4.64832C124.713 4.64832 129.516 5.36984 133.851 6.78349L135.402 2.02984C130.503 0.432374 125.169 -0.351675 119.42 -0.351675V4.64832ZM133.913 6.80263C138.329 8.11809 142.077 10.1193 145.199 12.7826L148.444 8.97847C144.741 5.82036 140.359 3.50561 135.34 2.0107L133.913 6.80263ZM145.26 12.8327C148.456 15.3895 150.924 18.5832 152.674 22.4499L157.229 20.389C155.164 15.8246 152.213 11.9924 148.383 8.92838L145.26 12.8327ZM152.705 22.5155C154.515 26.2262 155.463 30.6552 155.463 35.8728H160.463C160.463 30.0496 159.403 24.843 157.198 20.3234L152.705 22.5155ZM155.463 35.8728C155.463 39.9323 154.85 43.893 153.622 47.7638L158.388 49.2751C159.771 44.9155 160.463 40.4451 160.463 35.8728H155.463ZM153.606 47.8172C152.505 51.5785 150.623 55.0317 147.931 58.1887L151.735 61.4335C154.863 57.7653 157.097 53.6908 158.405 49.2217L153.606 47.8172ZM147.955 58.1608C145.319 61.1606 141.816 63.6725 137.371 65.6586L139.41 70.2236C144.4 67.9942 148.525 65.0861 151.711 61.4614L147.955 58.1608ZM137.394 65.6484C133.182 67.4797 127.824 68.4522 121.227 68.4522V73.4522C128.28 73.4522 134.365 72.4173 139.387 70.2338L137.394 65.6484ZM121.227 68.4522H105.118V73.4522H121.227V68.4522ZM102.618 70.9522V111H107.618V70.9522H102.618ZM105.118 108.5H90.5137V113.5H105.118V108.5ZM93.0137 111V2.14832H88.0137V111H93.0137ZM90.5137 4.64832H119.42V-0.351675H90.5137V4.64832ZM120.926 59.4506C125.472 59.4506 129.425 58.7666 132.668 57.2609L130.563 52.7258C128.185 53.8297 125.012 54.4506 120.926 54.4506V59.4506ZM132.638 57.2746C135.826 55.8456 138.436 53.9703 140.343 51.5867L136.438 48.4633C135.133 50.0945 133.227 51.5314 130.593 52.7121L132.638 57.2746ZM140.379 51.5401C142.16 49.202 143.46 46.6698 144.253 43.95L139.453 42.55C138.841 44.648 137.832 46.6324 136.402 48.5099L140.379 51.5401ZM144.253 43.95C145.01 41.3556 145.407 38.8597 145.407 36.475H140.407C140.407 38.3059 140.102 40.3266 139.453 42.55L144.253 43.95ZM145.407 36.475C145.407 33.959 144.949 31.4232 144.064 28.8787L139.341 30.5213C140.062 32.5938 140.407 34.5747 140.407 36.475H145.407ZM144.103 29C143.297 26.2365 141.917 23.7183 139.994 21.4564L136.184 24.6947C137.674 26.4476 138.703 28.3457 139.303 30.4L144.103 29ZM140.041 21.5138C138.165 19.1684 135.69 17.2945 132.7 15.8547L130.531 20.3597C132.961 21.5296 134.802 22.9679 136.137 24.6373L140.041 21.5138ZM132.733 15.8711C129.687 14.3478 126.067 13.65 121.98 13.65V18.65C125.521 18.65 128.325 19.257 130.497 20.3433L132.733 15.8711ZM121.98 13.65H105.118V18.65H121.98V13.65ZM102.618 16.15V56.9506H107.618V16.15H102.618ZM105.118 59.4506H120.926V54.4506H105.118V59.4506ZM136.719 66.5511L165.174 112.32L169.42 109.68L140.965 63.9111L136.719 66.5511ZM167.297 108.5H150.435V113.5H167.297V108.5ZM152.543 109.656L123.636 64.3383L119.42 67.0272L148.327 112.344L152.543 109.656ZM121.593 68.1819L138.907 67.7303L138.777 62.732L121.463 63.1836L121.593 68.1819ZM184.845 35.4211L182.551 34.428L182.547 34.4364L182.544 34.4447L184.845 35.4211ZM196.889 17.6556L198.657 19.4233L198.666 19.4147L198.674 19.4061L196.889 17.6556ZM214.504 5.46055L215.51 7.74935L215.518 7.74583L215.526 7.74226L214.504 5.46055ZM257.563 5.46055L256.529 7.73647L256.549 7.74585L256.57 7.75485L257.563 5.46055ZM275.329 17.6556L273.544 19.4061L273.561 19.4234L273.578 19.4404L275.329 17.6556ZM287.524 35.4211L285.23 36.4142L285.235 36.4268L287.524 35.4211ZM287.524 78.3294L289.818 79.3225L289.818 79.3225L287.524 78.3294ZM275.329 96.095L277.079 97.8802L277.079 97.8798L275.329 96.095ZM257.563 107.989L258.54 110.29L258.548 110.287L258.556 110.283L257.563 107.989ZM214.504 107.989L213.528 110.29L213.54 110.296L214.504 107.989ZM196.889 96.2456L198.64 94.4604L198.64 94.4604L196.889 96.2456ZM184.845 78.6306L182.538 79.5945L182.544 79.6091L182.551 79.6236L184.845 78.6306ZM198.847 72.9094L196.542 73.8775L196.545 73.8859L196.549 73.8942L198.847 72.9094ZM220.527 95.0411L219.503 97.3218L219.522 97.3305L219.542 97.339L220.527 95.0411ZM252.294 95.0411L253.279 97.339L253.298 97.3305L253.318 97.3218L252.294 95.0411ZM265.091 86.0078L263.276 84.2884L263.276 84.2884L265.091 86.0078ZM273.673 72.9094L275.971 73.8942L275.974 73.8859L275.978 73.8775L273.673 72.9094ZM273.673 40.54L271.361 41.4919L271.364 41.5L271.368 41.5081L273.673 40.54ZM251.993 18.2578L250.969 20.5384L250.988 20.5472L251.008 20.5556L251.993 18.2578ZM220.226 18.2578L219.202 15.9771L219.202 15.9771L220.226 18.2578ZM207.278 27.2911L205.487 25.5471L205.487 25.5471L207.278 27.2911ZM198.696 40.6906L201.017 41.619L201.02 41.6112L201.024 41.6033L198.696 40.6906ZM183.129 56.6494C183.129 49.4414 184.473 42.6989 187.146 36.3975L182.544 34.4447C179.596 41.3922 178.129 48.8019 178.129 56.6494H183.129ZM187.139 36.4142C189.926 29.9748 193.764 24.3167 198.657 19.4233L195.122 15.8878C189.777 21.2322 185.585 27.4178 182.551 34.428L187.139 36.4142ZM198.674 19.4061C203.572 14.4118 209.18 10.5306 215.51 7.74935L213.499 3.17175C206.58 6.21199 200.444 10.4608 195.105 15.905L198.674 19.4061ZM215.526 7.74226C221.914 4.88207 228.79 3.44389 236.184 3.44389V-1.55611C228.121 -1.55611 220.545 0.0168084 213.483 3.17884L215.526 7.74226ZM236.184 3.44389C243.473 3.44389 250.245 4.88016 256.529 7.73647L258.598 3.18463C251.633 0.018724 244.152 -1.55611 236.184 -1.55611V3.44389ZM256.57 7.75485C262.999 10.5375 268.652 14.4181 273.544 19.4061L277.114 15.905C271.768 10.4545 265.577 6.20505 258.556 3.16624L256.57 7.75485ZM273.578 19.4404C278.566 24.3324 282.447 29.9852 285.23 36.4142L289.818 34.428C286.779 27.4074 282.53 21.2164 277.079 15.8707L273.578 19.4404ZM285.235 36.4268C288.001 42.7214 289.39 49.4536 289.39 56.6494H294.39C294.39 48.7897 292.868 41.3697 289.813 34.4154L285.235 36.4268ZM289.39 56.6494C289.39 64.0554 287.997 70.9421 285.23 77.3364L289.818 79.3225C292.872 72.2672 294.39 64.7005 294.39 56.6494H289.39ZM285.23 77.3364C282.447 83.7653 278.566 89.4181 273.578 94.3102L277.079 97.8798C282.53 92.5341 286.779 86.3432 289.818 79.3225L285.23 77.3364ZM273.579 94.3098C268.684 99.1088 263.02 102.903 256.57 105.695L258.556 110.283C265.556 107.253 271.736 103.118 277.079 97.8802L273.579 94.3098ZM256.587 105.687C250.29 108.359 243.498 109.704 236.184 109.704V114.704C244.128 114.704 251.588 113.239 258.54 110.29L256.587 105.687ZM236.184 109.704C228.767 109.704 221.87 108.357 215.468 105.682L213.54 110.296C220.589 113.241 228.145 114.704 236.184 114.704V109.704ZM215.481 105.687C209.143 102.999 203.534 99.2591 198.64 94.4604L195.139 98.0307C200.482 103.269 206.617 107.358 213.528 110.29L215.481 105.687ZM198.64 94.4604C193.757 89.6733 189.924 84.0723 187.139 77.6375L182.551 79.6236C185.587 86.6384 189.784 92.7808 195.139 98.0307L198.64 94.4604ZM187.152 77.6666C184.48 71.2731 183.129 64.2771 183.129 56.6494H178.129C178.129 64.8803 179.589 72.5384 182.538 79.5945L187.152 77.6666ZM193.185 56.8C193.185 62.8363 194.299 68.537 196.542 73.8775L201.152 71.9414C199.179 67.2449 198.185 62.2059 198.185 56.8H193.185ZM196.549 73.8942C198.777 79.0929 201.859 83.7167 205.788 87.7518L209.37 84.2637C205.872 80.6707 203.132 76.5622 201.145 71.9246L196.549 73.8942ZM205.788 87.7518C209.724 91.7944 214.301 94.9863 219.503 97.3218L221.551 92.7604C216.916 90.6796 212.861 87.8493 209.37 84.2637L205.788 87.7518ZM219.542 97.339C224.792 99.5892 230.45 100.703 236.486 100.703V95.7028C231.079 95.7028 226.097 94.7086 221.511 92.7432L219.542 97.339ZM236.486 100.703C242.427 100.703 248.034 99.5868 253.279 97.339L251.309 92.7432C246.718 94.711 241.785 95.7028 236.486 95.7028V100.703ZM253.318 97.3218C258.526 94.9835 263.062 91.7844 266.906 87.7271L263.276 84.2884C259.893 87.8593 255.898 90.6824 251.27 92.7604L253.318 97.3218ZM266.906 87.7271C270.726 83.6947 273.749 79.0787 275.971 73.8942L271.375 71.9246C269.381 76.5764 266.683 80.6927 263.276 84.2884L266.906 87.7271ZM275.978 73.8775C278.223 68.5316 279.334 62.78 279.334 56.6494H274.334C274.334 62.1619 273.338 67.2502 271.368 71.9414L275.978 73.8775ZM279.334 56.6494C279.334 50.6131 278.221 44.9125 275.978 39.5719L271.368 41.5081C273.34 46.2046 274.334 51.2435 274.334 56.6494H279.334ZM275.984 39.5881C273.76 34.1864 270.677 29.4481 266.732 25.3965L263.149 28.8846C266.632 32.4611 269.37 36.6558 271.361 41.4919L275.984 39.5881ZM266.732 25.3965C262.787 21.3453 258.197 18.1967 252.978 15.9599L251.008 20.5556C255.625 22.5344 259.667 25.3077 263.149 28.8846L266.732 25.3965ZM253.017 15.9771C247.763 13.6182 242.143 12.4456 236.184 12.4456V17.4456C241.468 17.4456 246.386 18.481 250.969 20.5384L253.017 15.9771ZM236.184 12.4456C230.132 12.4456 224.461 13.6156 219.202 15.9771L221.25 20.5384C225.826 18.4836 230.794 17.4456 236.184 17.4456V12.4456ZM219.202 15.9771C214 18.3125 209.423 21.5045 205.487 25.5471L209.069 29.0351C212.56 25.4496 216.615 22.6193 221.25 20.5384L219.202 15.9771ZM205.487 25.5471C201.533 29.6076 198.494 34.3593 196.369 39.7778L201.024 41.6033C202.913 36.784 205.595 32.6027 209.069 29.0351L205.487 25.5471ZM196.375 39.7621C194.243 45.0929 193.185 50.7797 193.185 56.8H198.185C198.185 51.3781 199.135 46.3253 201.017 41.619L196.375 39.7621ZM335.012 113.861L332.82 112.658L332.813 112.672L332.806 112.686L335.012 113.861ZM321.312 128.013L320.104 125.824L320.09 125.832L320.076 125.84L321.312 128.013ZM301.288 133.433H298.788V136.035L301.388 135.931L301.288 133.433ZM301.288 119.281L301.145 116.785L298.788 116.919V119.281H301.288ZM318.602 111.753L316.854 109.966L316.834 109.985L316.815 110.005L318.602 111.753ZM325.527 2.14832V-0.351675H323.027V2.14832H325.527ZM340.131 2.14832H342.631V-0.351675H340.131V2.14832ZM337.631 91.2772C337.631 99.7908 335.987 106.884 332.82 112.658L337.204 115.063C340.863 108.392 342.631 100.429 342.631 91.2772H337.631ZM332.806 112.686C329.707 118.508 325.475 122.86 320.104 125.824L322.52 130.202C328.791 126.741 333.694 121.659 337.219 115.035L332.806 112.686ZM320.076 125.84C314.643 128.931 308.367 130.648 301.188 130.935L301.388 135.931C309.265 135.616 316.338 133.719 322.548 130.186L320.076 125.84ZM303.788 133.433V119.281H298.788V133.433H303.788ZM301.431 121.776C309.018 121.343 315.396 118.605 320.389 113.501L316.815 110.005C312.775 114.135 307.61 116.415 301.145 116.785L301.431 121.776ZM320.35 113.54C325.632 108.373 328.027 100.622 328.027 90.8256H323.027C323.027 99.8983 320.806 106.099 316.854 109.966L320.35 113.54ZM328.027 90.8256V2.14832H323.027V90.8256H328.027ZM325.527 4.64832H340.131V-0.351675H325.527V4.64832ZM337.631 2.14832V91.2772H342.631V2.14832H337.631ZM371.482 2.14832V-0.351675H368.982V2.14832H371.482ZM442.243 2.14832H444.743V-0.351675H442.243V2.14832ZM442.243 16.15V18.65H444.743V16.15H442.243ZM386.086 16.15V13.65H383.586V16.15H386.086ZM386.086 49.2722H383.586V51.7722H386.086V49.2722ZM436.221 49.2722H438.721V46.7722H436.221V49.2722ZM436.221 63.2739V65.7739H438.721V63.2739H436.221ZM386.086 63.2739V60.7739H383.586V63.2739H386.086ZM386.086 96.9983H383.586V99.4983H386.086V96.9983ZM444.351 96.9983H446.851V94.4983H444.351V96.9983ZM444.351 111V113.5H446.851V111H444.351ZM371.482 111H368.982V113.5H371.482V111ZM371.482 4.64832H442.243V-0.351675H371.482V4.64832ZM439.743 2.14832V16.15H444.743V2.14832H439.743ZM442.243 13.65H386.086V18.65H442.243V13.65ZM383.586 16.15V49.2722H388.586V16.15H383.586ZM386.086 51.7722H436.221V46.7722H386.086V51.7722ZM433.721 49.2722V63.2739H438.721V49.2722H433.721ZM436.221 60.7739H386.086V65.7739H436.221V60.7739ZM383.586 63.2739V96.9983H388.586V63.2739H383.586ZM386.086 99.4983H444.351V94.4983H386.086V99.4983ZM441.851 96.9983V111H446.851V96.9983H441.851ZM444.351 108.5H371.482V113.5H444.351V108.5ZM373.982 111V2.14832H368.982V111H373.982ZM549.641 102.87L551.028 104.95L552.83 103.749L551.898 101.794L549.641 102.87ZM542.264 106.935L543.353 109.185L543.353 109.185L542.264 106.935ZM531.273 110.699L530.694 108.267L530.681 108.27L531.273 110.699ZM517.723 112.204L517.694 114.704L517.708 114.704H517.723V112.204ZM494.839 107.688L493.846 109.982L493.858 109.987L494.839 107.688ZM477.676 95.7939L475.854 97.5062L475.854 97.5062L477.676 95.7939ZM466.685 78.48L464.347 79.3656L464.355 79.3871L464.364 79.4085L466.685 78.48ZM466.836 34.9694L464.507 34.0584L464.504 34.0675L464.5 34.0766L466.836 34.9694ZM478.127 17.0533L479.931 18.7847L479.939 18.7757L479.948 18.7667L478.127 17.0533ZM495.14 5.15944L494.164 2.85795L494.151 2.86341L495.14 5.15944ZM534.586 3.65388L533.782 6.02108L533.802 6.02792L533.822 6.03442L534.586 3.65388ZM548.286 9.82666L550.58 10.8207L551.431 8.8562L549.621 7.71293L548.286 9.82666ZM542.414 23.3767L541.028 25.4568L543.518 27.1171L544.708 24.3707L542.414 23.3767ZM531.424 17.6556L530.439 19.9534L530.449 19.9576L530.459 19.9617L531.424 17.6556ZM502.216 18.1072L501.196 15.8247L501.196 15.8247L502.216 18.1072ZM489.72 26.99L491.535 28.7094L491.535 28.7094L489.72 26.99ZM481.138 40.3894L478.827 39.4376L478.822 39.4492L478.817 39.461L481.138 40.3894ZM480.837 73.2106L478.48 74.0426L478.49 74.0707L478.5 74.0986L480.837 73.2106ZM488.817 86.3089L486.976 88.0005L486.988 88.0138L487 88.0269L488.817 86.3089ZM501.463 95.0411L502.448 92.7432L502.448 92.7432L501.463 95.0411ZM532.779 95.6433L531.86 93.3184L531.86 93.3184L532.779 95.6433ZM543.468 89.9222L545.725 88.8464L544.411 86.0902L541.968 87.9222L543.468 89.9222ZM548.254 100.79C546.582 101.905 544.236 103.203 541.175 104.685L543.353 109.185C546.515 107.655 549.087 106.244 551.028 104.95L548.254 100.79ZM541.175 104.685C538.261 106.094 534.776 107.295 530.694 108.267L531.852 113.131C536.202 112.095 540.044 110.787 543.353 109.185L541.175 104.685ZM530.681 108.27C526.788 109.22 522.473 109.704 517.723 109.704V114.704C522.81 114.704 527.528 114.186 531.866 113.128L530.681 108.27ZM517.753 109.705C509.605 109.608 502.306 108.154 495.82 105.388L493.858 109.987C501.022 113.043 508.98 114.601 517.694 114.704L517.753 109.705ZM495.832 105.393C489.4 102.609 483.966 98.836 479.497 94.0816L475.854 97.5062C480.82 102.789 486.828 106.945 493.846 109.982L495.832 105.393ZM479.497 94.0816C474.998 89.2955 471.502 83.7914 469.006 77.5515L464.364 79.4085C467.087 86.2168 470.918 92.2553 475.854 97.5062L479.497 94.0816ZM469.023 77.5944C466.626 71.2665 465.421 64.5419 465.421 57.4022H460.421C460.421 65.1173 461.726 72.4446 464.347 79.3656L469.023 77.5944ZM465.421 57.4022C465.421 49.5431 466.682 42.3721 469.171 35.8623L464.5 34.0766C461.77 41.2172 460.421 49.0013 460.421 57.4022H465.421ZM469.164 35.8804C471.763 29.2388 475.355 23.5508 479.931 18.7847L476.324 15.322C471.264 20.5929 467.329 26.849 464.507 34.0584L469.164 35.8804ZM479.948 18.7667C484.529 13.8996 489.916 10.132 496.129 7.45547L494.151 2.86341C487.316 5.80761 481.361 9.96931 476.307 15.3399L479.948 18.7667ZM496.116 7.4609C502.406 4.79269 509.297 3.44389 516.82 3.44389V-1.55611C508.685 -1.55611 501.123 -0.094546 494.164 2.85799L496.116 7.4609ZM516.82 3.44389C523.114 3.44389 528.759 4.31525 533.782 6.02108L535.39 1.28667C529.773 -0.620812 523.574 -1.55611 516.82 -1.55611V3.44389ZM533.822 6.03442C538.986 7.69089 543.352 9.6672 546.951 11.9404L549.621 7.71293C545.592 5.16834 540.824 3.02946 535.349 1.27334L533.822 6.03442ZM545.992 8.83264L540.121 22.3826L544.708 24.3707L550.58 10.8207L545.992 8.83264ZM543.801 21.2965C540.625 19.1792 536.812 17.2009 532.389 15.3494L530.459 19.9617C534.667 21.7235 538.182 23.5593 541.028 25.4568L543.801 21.2965ZM532.409 15.3577C527.842 13.4005 522.783 12.4456 517.272 12.4456V17.4456C522.199 17.4456 526.575 18.2973 530.439 19.9534L532.409 15.3577ZM517.272 12.4456C511.611 12.4456 506.244 13.5693 501.196 15.8247L503.236 20.3897C507.623 18.4296 512.293 17.4456 517.272 17.4456V12.4456ZM501.196 15.8247C496.174 18.0685 491.74 21.2226 487.905 25.2706L491.535 28.7094C494.927 25.1292 498.823 22.3615 503.236 20.3897L501.196 15.8247ZM487.905 25.2706C484.069 29.3196 481.045 34.0499 478.827 39.4376L483.45 41.3413C485.447 36.4912 488.144 32.2885 491.535 28.7094L487.905 25.2706ZM478.817 39.461C476.683 44.7969 475.627 50.5346 475.627 56.6494H480.627C480.627 51.1213 481.579 46.019 483.46 41.3179L478.817 39.461ZM475.627 56.6494C475.627 62.829 476.571 68.6332 478.48 74.0426L483.195 72.3785C481.491 67.5501 480.627 62.3136 480.627 56.6494H475.627ZM478.5 74.0986C480.513 79.3947 483.335 84.0381 486.976 88.0005L490.657 84.6173C487.473 81.1523 484.976 77.0635 483.174 72.3225L478.5 74.0986ZM487 88.0269C490.759 92.0002 495.262 95.1031 500.479 97.339L502.448 92.7432C497.829 90.7636 493.9 88.045 490.633 84.5909L487 88.0269ZM500.479 97.339C505.75 99.598 511.612 100.703 518.024 100.703V95.7028C512.192 95.7028 507.013 94.6998 502.448 92.7432L500.479 97.339ZM518.024 100.703C523.801 100.703 529.04 99.8099 533.698 97.9682L531.86 93.3184C527.886 94.8894 523.288 95.7028 518.024 95.7028V100.703ZM533.698 97.9682C538.159 96.2046 541.933 94.1986 544.968 91.9222L541.968 87.9222C539.383 89.8614 536.031 91.6695 531.86 93.3184L533.698 97.9682ZM541.212 90.9981L547.384 103.946L551.898 101.794L545.725 88.8464L541.212 90.9981ZM566.253 2.14832V-0.351675H563.753V2.14832H566.253ZM638.519 2.14832H641.019V-0.351675H638.519V2.14832ZM638.519 16.15V18.65H641.019V16.15H638.519ZM609.312 16.15V13.65H606.812V16.15H609.312ZM609.312 111V113.5H611.812V111H609.312ZM594.708 111H592.208V113.5H594.708V111ZM594.708 16.15H597.208V13.65H594.708V16.15ZM566.253 16.15H563.753V18.65H566.253V16.15ZM566.253 4.64832H638.519V-0.351675H566.253V4.64832ZM636.019 2.14832V16.15H641.019V2.14832H636.019ZM638.519 13.65H609.312V18.65H638.519V13.65ZM606.812 16.15V111H611.812V16.15H606.812ZM609.312 108.5H594.708V113.5H609.312V108.5ZM597.208 111V16.15H592.208V111H597.208ZM594.708 13.65H566.253V18.65H594.708V13.65ZM568.753 16.15V2.14832H563.753V16.15H568.753ZM718.021 21.57L716.879 23.7939L719.127 24.9483L720.257 22.688L718.021 21.57ZM678.877 18.5589L677.35 16.5794L677.336 16.5902L677.322 16.6011L678.877 18.5589ZM677.07 38.1311L675.227 39.8204L675.245 39.84L675.263 39.8592L677.07 38.1311ZM685.802 44.1533L686.87 41.8927L686.87 41.8927L685.802 44.1533ZM697.094 48.9711L696.196 51.3045L696.201 51.3062L697.094 48.9711ZM716.064 59.3594L714.368 61.1964L714.385 61.2124L714.403 61.228L716.064 59.3594ZM722.387 68.2422L720.089 69.227L720.101 69.2545L720.113 69.2816L722.387 68.2422ZM720.43 96.9983L718.302 95.6856L718.292 95.7021L718.282 95.7188L720.43 96.9983ZM708.235 108.139L709.37 110.367L708.235 108.139ZM675.414 110.548L674.794 112.97L674.807 112.974L675.414 110.548ZM663.369 106.333L662.276 108.581L662.301 108.593L662.326 108.604L663.369 106.333ZM653.433 100.762L651.257 99.5311L650.103 101.57L652.063 102.853L653.433 100.762ZM659.907 89.32L661.352 87.2799L659.093 85.6804L657.731 88.0889L659.907 89.32ZM668.187 94.2883L667.041 96.5099L667.069 96.5247L667.098 96.5387L668.187 94.2883ZM677.973 98.0522L677.268 100.451L677.301 100.46L677.334 100.469L677.973 98.0522ZM697.997 97.6006L698.852 99.95L698.871 99.943L698.89 99.9357L697.997 97.6006ZM706.428 91.7289L708.337 93.3437L708.337 93.3437L706.428 91.7289ZM706.729 72.1567L704.739 73.6694L704.773 73.714L704.809 73.7571L706.729 72.1567ZM699.051 65.8333L697.825 68.0123L697.852 68.027L697.878 68.0411L699.051 65.8333ZM688.813 61.0156L689.719 58.6855L689.713 58.683L689.706 58.6804L688.813 61.0156ZM678.425 56.8L677.386 59.0737L677.413 59.0861L677.44 59.0979L678.425 56.8ZM668.639 51.0789L667.118 53.0629L667.139 53.0791L667.16 53.0949L668.639 51.0789ZM662.767 15.6983L660.672 14.3341L660.668 14.3403L660.664 14.3464L662.767 15.6983ZM674.209 5.6111L675.327 7.84717L675.346 7.83793L675.364 7.82839L674.209 5.6111ZM690.77 1.5461V-0.953899H690.73L690.69 -0.952599L690.77 1.5461ZM709.289 4.10555L708.525 6.48612L708.538 6.49017L709.289 4.10555ZM723.592 10.4289L725.828 11.5469L726.856 9.49103L724.893 8.29439L723.592 10.4289ZM719.163 19.3461C715.313 17.3692 711.118 15.6621 706.584 14.2193L705.068 18.984C709.366 20.3516 713.301 21.9567 716.879 23.7939L719.163 19.3461ZM706.584 14.2193C701.947 12.7439 697.375 11.9939 692.878 11.9939V16.9939C696.812 16.9939 700.873 17.6491 705.068 18.984L706.584 14.2193ZM692.878 11.9939C686.677 11.9939 681.42 13.4397 677.35 16.5794L680.404 20.5383C683.36 18.258 687.437 16.9939 692.878 16.9939V11.9939ZM677.322 16.6011C673.287 19.8051 671.258 24.1519 671.258 29.3989H676.258C676.258 25.6125 677.641 22.7327 680.431 20.5167L677.322 16.6011ZM671.258 29.3989C671.258 33.4065 672.576 36.9285 675.227 39.8204L678.913 36.4418C677.147 34.516 676.258 32.2165 676.258 29.3989H671.258ZM675.263 39.8592C677.729 42.4367 680.911 44.6084 684.735 46.4139L686.87 41.8927C683.466 40.2856 680.827 38.4425 678.877 36.403L675.263 39.8592ZM684.735 46.4139C688.406 48.1478 692.227 49.7779 696.196 51.3045L697.991 46.6377C694.132 45.1532 690.425 43.5714 686.87 41.8927L684.735 46.4139ZM696.201 51.3062C699.546 52.5852 702.842 54.012 706.09 55.5868L708.272 51.0877C704.895 49.4506 701.467 47.9667 697.987 46.636L696.201 51.3062ZM706.09 55.5868C709.19 57.0895 711.945 58.96 714.368 61.1964L717.76 57.5224C714.963 54.9411 711.797 52.7967 708.272 51.0877L706.09 55.5868ZM714.403 61.228C716.823 63.3795 718.72 66.0332 720.089 69.227L724.685 67.2574C723.043 63.4253 720.724 60.1571 717.725 57.4909L714.403 61.228ZM720.113 69.2816C721.528 72.375 722.296 76.3608 722.296 81.3406H727.296C727.296 75.8818 726.459 71.1353 724.661 67.2028L720.113 69.2816ZM722.296 81.3406C722.296 86.6137 720.962 91.3759 718.302 95.6856L722.558 98.3111C725.72 93.186 727.296 87.5097 727.296 81.3406H722.296ZM718.282 95.7188C715.734 99.9957 712.038 103.397 707.1 105.912L709.37 110.367C715.072 107.462 719.505 103.436 722.578 98.2778L718.282 95.7188ZM707.1 105.912C702.203 108.407 696.286 109.704 689.265 109.704V114.704C696.898 114.704 703.628 113.292 709.37 110.367L707.1 105.912ZM689.265 109.704C684.64 109.704 680.227 109.175 676.02 108.123L674.807 112.974C679.433 114.13 684.255 114.704 689.265 114.704V109.704ZM676.033 108.126C671.85 107.056 667.979 105.699 664.413 104.061L662.326 108.604C666.187 110.379 670.346 111.832 674.794 112.97L676.033 108.126ZM664.463 104.085C660.828 102.316 657.61 100.51 654.803 98.6711L652.063 102.853C655.077 104.828 658.484 106.736 662.276 108.581L664.463 104.085ZM655.609 101.993L662.082 90.5511L657.731 88.0889L651.257 99.5311L655.609 101.993ZM658.462 91.3601C660.981 93.1448 663.844 94.86 667.041 96.5099L669.334 92.0668C666.307 90.5048 663.65 88.9078 661.352 87.2799L658.462 91.3601ZM667.098 96.5387C670.337 98.1058 673.727 99.4093 677.268 100.451L678.679 95.6538C675.394 94.6877 672.26 93.482 669.276 92.0379L667.098 96.5387ZM677.334 100.469C680.934 101.422 684.462 101.907 687.91 101.907V96.9072C684.934 96.9072 681.837 96.4889 678.613 95.6355L677.334 100.469ZM687.91 101.907C691.623 101.907 695.275 101.251 698.852 99.95L697.143 95.2511C694.095 96.3592 691.022 96.9072 687.91 96.9072V101.907ZM698.89 99.9357C702.669 98.491 705.838 96.2974 708.337 93.3437L704.52 90.114C702.603 92.3797 700.151 94.1005 697.104 95.2654L698.89 99.9357ZM708.337 93.3437C711.019 90.1743 712.24 86.0883 712.24 81.3406H707.24C707.24 85.2247 706.254 88.0642 704.52 90.114L708.337 93.3437ZM712.24 81.3406C712.24 77.1548 711.098 73.494 708.65 70.5562L704.809 73.7571C706.375 75.6371 707.24 78.0989 707.24 81.3406H712.24ZM708.72 70.644C706.562 67.8054 703.706 65.4756 700.224 63.6255L697.878 68.0411C700.819 69.6037 703.082 71.4894 704.739 73.6694L708.72 70.644ZM700.277 63.6544C696.957 61.787 693.437 60.1313 689.719 58.6855L687.907 63.3456C691.416 64.7102 694.722 66.2663 697.825 68.0123L700.277 63.6544ZM689.706 58.6804C686.326 57.3879 682.894 55.9953 679.41 54.5021L677.44 59.0979C680.982 60.6158 684.476 62.0335 687.92 63.3507L689.706 58.6804ZM679.464 54.5263C676.101 52.9887 672.987 51.167 670.117 49.0629L667.16 53.0949C670.313 55.4071 673.723 57.3995 677.386 59.0737L679.464 54.5263ZM670.16 49.0949C667.424 46.9975 665.245 44.4546 663.607 41.4506L659.217 43.8449C661.192 47.4654 663.831 50.5432 667.118 53.0629L670.16 49.0949ZM663.607 41.4506C662.045 38.5865 661.202 35.0054 661.202 30.6033H656.202C656.202 35.6361 657.166 40.0846 659.217 43.8449L663.607 41.4506ZM661.202 30.6033C661.202 25.2919 662.455 20.8077 664.87 17.0502L660.664 14.3464C657.66 19.0201 656.202 24.4725 656.202 30.6033H661.202ZM664.862 17.0625C667.419 13.1363 670.888 10.0669 675.327 7.84717L673.091 3.37503C667.895 5.97309 663.736 9.62855 660.672 14.3341L664.862 17.0625ZM675.364 7.82839C679.804 5.51595 684.948 4.23523 690.851 4.0448L690.69 -0.952599C684.147 -0.741538 678.25 0.687742 673.055 3.39382L675.364 7.82839ZM690.77 4.0461C697.601 4.0461 703.506 4.87629 708.525 6.48609L710.052 1.72501C704.432 -0.0777935 697.992 -0.953899 690.77 -0.953899V4.0461ZM708.538 6.49017C713.798 8.1462 718.375 10.1763 722.29 12.5634L724.893 8.29439C720.578 5.66299 715.619 3.47749 710.04 1.72093L708.538 6.49017ZM721.356 9.31085L715.785 20.452L720.257 22.688L725.828 11.5469L721.356 9.31085Z" fill="white"/>
</svg>
