<svg width="725" height="134" viewBox="0 0 725 134" fill="none" xmlns="http://www.w3.org/2000/svg">
<path d="M30.0315 2.14832C37.9608 2.14832 44.7358 3.50333 50.3565 6.21333C55.9773 8.82296 60.2932 12.637 63.3043 17.6556C66.4158 22.6741 67.9715 28.7465 67.9715 35.8728C67.9715 40.1887 67.3191 44.4544 66.0143 48.67C64.7095 52.7852 62.6017 56.5491 59.691 59.9617C56.8806 63.2739 53.1669 65.9337 48.5499 67.9411C43.9328 69.9485 38.3121 70.9522 31.6876 70.9522H15.5782V111H0.974307V2.14832H30.0315ZM31.5371 56.9506C35.853 56.9506 39.4162 56.248 42.2265 54.8428C45.0369 53.4376 47.2451 51.6811 48.851 49.5733C50.4569 47.3652 51.6112 45.0567 52.3138 42.6478C53.0163 40.2389 53.3676 38.0809 53.3676 36.1739C53.3676 33.9657 53.0163 31.7074 52.3138 29.3989C51.6112 26.99 50.4067 24.832 48.7004 22.925C47.0945 20.9176 44.9365 19.3117 42.2265 18.1072C39.6169 16.8024 36.3549 16.15 32.4404 16.15H15.5782V56.9506H31.5371ZM119.42 2.14832C124.941 2.14832 130.009 2.9011 134.626 4.40666C139.344 5.81185 143.409 7.96981 146.821 10.8806C150.334 13.6909 153.044 17.2039 154.951 21.4194C156.959 25.5346 157.963 30.3524 157.963 35.8728C157.963 40.1887 157.31 44.4043 156.005 48.5194C154.801 52.6346 152.743 56.3985 149.833 59.8111C146.922 63.1233 143.108 65.8333 138.39 67.9411C133.773 69.9485 128.052 70.9522 121.227 70.9522H105.118V111H90.5137V2.14832H119.42ZM120.926 56.9506C125.242 56.9506 128.805 56.2981 131.615 54.9933C134.526 53.6885 136.784 52.0324 138.39 50.025C139.996 47.9172 141.151 45.6589 141.853 43.25C142.556 40.8411 142.907 38.5828 142.907 36.475C142.907 34.2668 142.506 32.0085 141.703 29.7C141 27.2911 139.796 25.083 138.089 23.0755C136.483 21.0681 134.325 19.412 131.615 18.1072C129.006 16.8024 125.794 16.15 121.98 16.15H105.118V56.9506H120.926ZM138.842 65.2311L167.297 111H150.435L121.528 65.6828L138.842 65.2311ZM180.629 56.6494C180.629 49.1217 182.035 42.0456 184.845 35.4211C187.756 28.6963 191.771 22.7744 196.889 17.6556C202.008 12.4363 207.88 8.37129 214.504 5.46055C221.229 2.44944 228.456 0.943887 236.184 0.943887C243.813 0.943887 250.939 2.44944 257.563 5.46055C264.288 8.37129 270.21 12.4363 275.329 17.6556C280.548 22.7744 284.613 28.6963 287.524 35.4211C290.435 42.0456 291.89 49.1217 291.89 56.6494C291.89 64.378 290.435 71.6046 287.524 78.3294C284.613 85.0543 280.548 90.9761 275.329 96.095C270.21 101.114 264.288 105.078 257.563 107.989C250.939 110.799 243.813 112.204 236.184 112.204C228.456 112.204 221.229 110.799 214.504 107.989C207.88 105.179 202.008 101.264 196.889 96.2456C191.771 91.227 187.756 85.3554 184.845 78.6306C182.035 71.9057 180.629 64.5787 180.629 56.6494ZM195.685 56.8C195.685 62.5211 196.739 67.8909 198.847 72.9094C200.954 77.8276 203.865 82.1937 207.579 86.0078C211.293 89.8219 215.608 92.833 220.527 95.0411C225.445 97.1489 230.764 98.2028 236.486 98.2028C242.106 98.2028 247.376 97.1489 252.294 95.0411C257.212 92.833 261.478 89.8219 265.091 86.0078C268.704 82.1937 271.565 77.8276 273.673 72.9094C275.781 67.8909 276.834 62.4709 276.834 56.6494C276.834 50.9283 275.781 45.5585 273.673 40.54C271.565 35.4211 268.654 30.9546 264.941 27.1405C261.227 23.3265 256.911 20.3655 251.993 18.2578C247.075 16.0496 241.805 14.9456 236.184 14.9456C230.463 14.9456 225.144 16.0496 220.226 18.2578C215.307 20.4659 210.991 23.477 207.278 27.2911C203.564 31.1052 200.703 35.5717 198.696 40.6906C196.689 45.7091 195.685 51.0789 195.685 56.8ZM340.131 91.2772C340.131 100.11 338.425 107.638 335.012 113.861C331.7 120.084 327.133 124.801 321.312 128.013C315.49 131.325 308.816 133.132 301.288 133.433V119.281C308.314 118.879 314.085 116.37 318.602 111.753C323.219 107.236 325.527 100.26 325.527 90.8256V2.14832H340.131V91.2772ZM371.482 2.14832H442.243V16.15H386.086V49.2722H436.221V63.2739H386.086V96.9983H444.351V111H371.482V2.14832ZM549.641 102.87C547.834 104.074 545.375 105.429 542.264 106.935C539.152 108.441 535.489 109.695 531.273 110.699C527.158 111.703 522.641 112.204 517.723 112.204C509.292 112.104 501.664 110.599 494.839 107.688C488.114 104.777 482.393 100.812 477.676 95.7939C472.958 90.7754 469.295 85.0041 466.685 78.48C464.176 71.8556 462.921 64.8296 462.921 57.4022C462.921 49.2722 464.226 41.7946 466.836 34.9694C469.546 28.0439 473.309 22.0719 478.127 17.0533C482.945 11.9344 488.616 7.96981 495.14 5.15944C501.764 2.34907 508.991 0.943887 516.82 0.943887C523.344 0.943887 529.266 1.84722 534.586 3.65388C539.905 5.36018 544.472 7.41777 548.286 9.82666L542.414 23.3767C539.403 21.3693 535.74 19.4622 531.424 17.6556C527.208 15.8489 522.491 14.9456 517.272 14.9456C511.952 14.9456 506.934 15.9994 502.216 18.1072C497.499 20.215 493.333 23.1759 489.72 26.99C486.107 30.8041 483.246 35.2706 481.138 40.3894C479.131 45.408 478.127 50.828 478.127 56.6494C478.127 62.5713 479.031 68.0917 480.837 73.2106C482.744 78.2291 485.404 82.5952 488.817 86.3089C492.33 90.0226 496.545 92.9333 501.463 95.0411C506.381 97.1489 511.902 98.2028 518.024 98.2028C523.545 98.2028 528.463 97.3496 532.779 95.6433C537.095 93.937 540.658 92.03 543.468 89.9222L549.641 102.87ZM566.253 2.14832H638.519V16.15H609.312V111H594.708V16.15H566.253V2.14832ZM718.021 21.57C714.307 19.663 710.242 18.0068 705.826 16.6017C701.41 15.1965 697.094 14.4939 692.878 14.4939C687.057 14.4939 682.39 15.8489 678.877 18.5589C675.464 21.2689 673.758 24.8822 673.758 29.3989C673.758 32.8115 674.862 35.7222 677.07 38.1311C679.278 40.4396 682.189 42.447 685.802 44.1533C689.415 45.8596 693.179 47.4656 697.094 48.9711C700.506 50.2759 703.869 51.7313 707.181 53.3372C710.493 54.9431 713.454 56.9506 716.064 59.3594C718.774 61.7683 720.882 64.7293 722.387 68.2422C723.993 71.7552 724.796 76.1213 724.796 81.3406C724.796 87.0617 723.341 92.2809 720.43 96.9983C717.62 101.716 713.555 105.429 708.235 108.139C702.915 110.849 696.592 112.204 689.265 112.204C684.447 112.204 679.83 111.652 675.414 110.548C671.098 109.444 667.083 108.039 663.369 106.333C659.656 104.526 656.343 102.669 653.433 100.762L659.907 89.32C662.315 91.0263 665.076 92.6824 668.187 94.2883C671.299 95.7939 674.561 97.0485 677.973 98.0522C681.386 98.9556 684.698 99.4072 687.91 99.4072C691.323 99.4072 694.685 98.805 697.997 97.6006C701.41 96.2957 704.22 94.3385 706.428 91.7289C708.636 89.1193 709.74 85.6565 709.74 81.3406C709.74 77.6268 708.737 74.5656 706.729 72.1567C704.822 69.6474 702.263 67.5396 699.051 65.8333C695.839 64.0267 692.427 62.4207 688.813 61.0156C685.401 59.7107 681.938 58.3056 678.425 56.8C674.912 55.1941 671.65 53.287 668.639 51.0789C665.628 48.7704 663.219 45.96 661.412 42.6478C659.605 39.3356 658.702 35.3207 658.702 30.6033C658.702 24.8822 660.057 19.9139 662.767 15.6983C665.578 11.3824 669.392 8.01999 674.209 5.6111C679.027 3.10185 684.548 1.74685 690.77 1.5461C697.796 1.5461 703.969 2.39925 709.289 4.10555C714.709 5.81185 719.476 7.91962 723.592 10.4289L718.021 21.57Z" fill="white"/>
</svg>
