<svg width="514" height="116" viewBox="0 0 514 116" fill="none" xmlns="http://www.w3.org/2000/svg">
<mask id="path-1-outside-1_612_17" maskUnits="userSpaceOnUse" x="-5" y="-3" width="522" height="122" fill="black">
<rect fill="white" x="-5" y="-3" width="522" height="122"/>
<path d="M0.146594 114L47.7236 0.628319H48.6269L96.0533 114H79.3412L43.809 23.5134L54.1976 16.7382L14.4498 114H0.146594ZM28.0002 72.7466H68.5008L73.3188 85.3936H23.7845L28.0002 72.7466ZM144.56 5.14511C155.5 5.14511 164.082 7.40352 170.305 11.9203C176.629 16.3367 179.791 23.2625 179.791 32.6976C179.791 38.4189 178.486 43.3874 175.876 47.603C173.266 51.8187 169.603 55.131 164.885 57.54C160.268 59.949 154.798 61.304 148.474 61.6051L146.366 54.0771C153.693 54.2779 160.268 55.5827 166.09 57.9917C171.911 60.4006 176.528 63.7631 179.941 68.0792C183.354 72.3953 185.06 77.5143 185.06 83.4363C185.06 88.8565 184.056 93.5238 182.049 97.4384C180.041 101.253 177.331 104.414 173.919 106.924C170.506 109.333 166.642 111.139 162.326 112.344C158.01 113.448 153.543 114 148.926 114H116.555V5.14511H144.56ZM147.571 52.8726C153.593 52.8726 157.959 51.2165 160.669 47.9042C163.38 44.4915 164.735 40.3762 164.735 35.5582C164.735 29.837 162.978 25.6715 159.465 23.0618C155.952 20.452 151.234 19.1472 145.312 19.1472H131.16V52.8726H147.571ZM148.173 100.45C152.188 100.45 155.852 99.8474 159.164 98.6429C162.577 97.4384 165.236 95.5815 167.144 93.0722C169.151 90.5628 170.155 87.4011 170.155 83.5869C170.155 79.3712 169 76.0589 166.692 73.6499C164.484 71.241 161.623 69.5346 158.11 68.5309C154.597 67.4268 150.983 66.8747 147.27 66.8747H131.16V100.45H148.173ZM202.851 59.6478C202.851 52.1198 204.256 45.0435 207.067 38.4189C209.977 31.6939 213.992 25.7718 219.111 20.6528C224.23 15.4334 230.102 11.3683 236.727 8.45744C243.452 5.44624 250.679 3.94064 258.408 3.94064C266.036 3.94064 273.162 5.44624 279.787 8.45744C286.512 11.3683 292.434 15.4334 297.553 20.6528C302.773 25.7718 306.838 31.6939 309.749 38.4189C312.659 45.0435 314.115 52.1198 314.115 59.6478C314.115 67.3766 312.659 74.6035 309.749 81.3285C306.838 88.0535 302.773 93.9755 297.553 99.0946C292.434 104.113 286.512 108.078 279.787 110.989C273.162 113.799 266.036 115.204 258.408 115.204C250.679 115.204 243.452 113.799 236.727 110.989C230.102 108.178 224.23 104.264 219.111 99.2451C213.992 94.2265 209.977 88.3546 207.067 81.6296C204.256 74.9046 202.851 67.5773 202.851 59.6478ZM217.907 59.7984C217.907 65.5197 218.961 70.8897 221.069 75.9083C223.177 80.8266 226.087 85.1929 229.801 89.007C233.515 92.8212 237.831 95.8324 242.749 98.0406C247.668 100.148 252.987 101.202 258.709 101.202C264.33 101.202 269.599 100.148 274.517 98.0406C279.436 95.8324 283.702 92.8212 287.315 89.007C290.929 85.1929 293.789 80.8266 295.897 75.9083C298.005 70.8897 299.059 65.4695 299.059 59.6478C299.059 53.9266 298.005 48.5566 295.897 43.5379C293.789 38.4189 290.878 33.9523 287.165 30.1381C283.451 26.3239 279.135 23.3629 274.216 21.255C269.298 19.0468 264.028 17.9427 258.408 17.9427C252.686 17.9427 247.367 19.0468 242.448 21.255C237.53 23.4632 233.214 26.4744 229.5 30.2886C225.786 34.1028 222.926 38.5694 220.918 43.6885C218.911 48.7071 217.907 54.0771 217.907 59.7984ZM351.818 75.4566C351.818 80.3749 352.973 84.7914 355.281 88.7059C357.69 92.5201 360.852 95.5313 364.766 97.7395C368.681 99.9477 373.097 101.052 378.016 101.052C383.135 101.052 387.702 99.9477 391.717 97.7395C395.732 95.5313 398.893 92.5201 401.202 88.7059C403.511 84.7914 404.665 80.3749 404.665 75.4566V5.14511H418.968V75.9083C418.968 83.8378 417.111 90.7636 413.397 96.6856C409.784 102.608 404.866 107.175 398.642 110.387C392.52 113.599 385.644 115.204 378.016 115.204C370.387 115.204 363.512 113.599 357.389 110.387C351.266 107.175 346.398 102.608 342.785 96.6856C339.171 90.7636 337.365 83.8378 337.365 75.9083V5.14511H351.818V75.4566ZM440.866 5.14511H513.135V19.1472H483.926V114H469.322V19.1472H440.866V5.14511Z"/>
</mask>
<path d="M0.146594 114L-2.61969 112.839L-4.36583 117H0.146594V114ZM47.7236 0.628319V-2.37168H45.7291L44.9573 -0.532567L47.7236 0.628319ZM48.6269 0.628319L51.3945 -0.529441L50.6239 -2.37168H48.6269V0.628319ZM96.0533 114V117H100.56L98.8209 112.842L96.0533 114ZM79.3412 114L76.5487 115.097L77.2962 117H79.3412V114ZM43.809 23.5134L42.1702 21.0006L40.1234 22.3355L41.0166 24.61L43.809 23.5134ZM54.1976 16.7382L56.9747 17.8731L60.6117 8.97356L52.5588 14.2254L54.1976 16.7382ZM14.4498 114V117H16.4646L17.2268 115.135L14.4498 114ZM28.0002 72.7466V69.7466H25.8379L25.1541 71.7979L28.0002 72.7466ZM68.5008 72.7466L71.3043 71.6786L70.5683 69.7466H68.5008V72.7466ZM73.3188 85.3936V88.3936H77.6719L76.1222 84.3256L73.3188 85.3936ZM23.7845 85.3936L20.9385 84.4449L19.6222 88.3936H23.7845V85.3936ZM2.91288 115.161L50.4898 1.7892L44.9573 -0.532567L-2.61969 112.839L2.91288 115.161ZM47.7236 3.62832H48.6269V-2.37168H47.7236V3.62832ZM45.8593 1.78608L93.2857 115.158L98.8209 112.842L51.3945 -0.529441L45.8593 1.78608ZM96.0533 111H79.3412V117H96.0533V111ZM82.1336 112.903L46.6014 22.4169L41.0166 24.61L76.5487 115.097L82.1336 112.903ZM45.4478 26.0263L55.8364 19.2511L52.5588 14.2254L42.1702 21.0006L45.4478 26.0263ZM51.4206 15.6033L11.6727 112.865L17.2268 115.135L56.9747 17.8731L51.4206 15.6033ZM14.4498 111H0.146594V117H14.4498V111ZM28.0002 75.7466H68.5008V69.7466H28.0002V75.7466ZM65.6974 73.8145L70.5153 86.4616L76.1222 84.3256L71.3043 71.6786L65.6974 73.8145ZM73.3188 82.3936H23.7845V88.3936H73.3188V82.3936ZM26.6306 86.3423L30.8462 73.6952L25.1541 71.7979L20.9385 84.4449L26.6306 86.3423ZM170.305 11.9203L168.543 14.3482L168.565 14.3642L168.588 14.3798L170.305 11.9203ZM175.876 47.603L173.325 46.024L173.325 46.024L175.876 47.603ZM164.885 57.54L163.521 54.8682L163.509 54.8742L163.497 54.8802L164.885 57.54ZM148.474 61.6051L145.585 62.414L146.23 64.7154L148.617 64.6017L148.474 61.6051ZM146.366 54.0771L146.448 51.0782L142.38 50.9668L143.477 54.886L146.366 54.0771ZM166.09 57.9917L164.943 60.7637L164.943 60.7637L166.09 57.9917ZM179.941 68.0792L182.294 66.2185L182.294 66.2185L179.941 68.0792ZM182.049 97.4384L184.704 98.8356L184.711 98.8215L184.718 98.8073L182.049 97.4384ZM173.919 106.924L175.649 109.375L175.672 109.358L175.696 109.341L173.919 106.924ZM162.326 112.344L163.069 115.25L163.101 115.242L163.132 115.233L162.326 112.344ZM116.555 114H113.555V117H116.555V114ZM116.555 5.14511V2.14511H113.555V5.14511H116.555ZM160.669 47.9042L162.991 49.8039L163.005 49.7869L163.019 49.7698L160.669 47.9042ZM159.465 23.0618L161.254 20.6535L161.254 20.6535L159.465 23.0618ZM131.16 19.1472V16.1472H128.16V19.1472H131.16ZM131.16 52.8726H128.16V55.8726H131.16V52.8726ZM159.164 98.6429L158.165 95.8139L158.152 95.8186L158.139 95.8235L159.164 98.6429ZM167.144 93.0722L164.801 91.1981L164.778 91.2272L164.755 91.2569L167.144 93.0722ZM166.692 73.6499L164.48 75.6771L164.503 75.7016L164.526 75.7256L166.692 73.6499ZM158.11 68.5309L157.21 71.3929L157.248 71.4046L157.286 71.4155L158.11 68.5309ZM131.16 66.8747V63.8747H128.16V66.8747H131.16ZM131.16 100.45H128.16V103.45H131.16V100.45ZM144.56 8.14511C155.126 8.14511 163.008 10.3308 168.543 14.3482L172.067 9.49242C165.156 4.47622 155.875 2.14511 144.56 2.14511V8.14511ZM168.588 14.3798C173.924 18.1068 176.791 23.9949 176.791 32.6976H182.791C182.791 22.5301 179.334 14.5667 172.023 9.46079L168.588 14.3798ZM176.791 32.6976C176.791 37.9485 175.598 42.3519 173.325 46.024L178.427 49.1821C181.373 44.4228 182.791 38.8892 182.791 32.6976H176.791ZM173.325 46.024C171.024 49.7419 167.785 52.6906 163.521 54.8682L166.249 60.2118C171.42 57.5715 175.509 53.8956 178.427 49.1821L173.325 46.024ZM163.497 54.8802C159.34 57.0494 154.312 58.3237 148.331 58.6085L148.617 64.6017C155.283 64.2843 161.196 62.8485 166.273 60.1998L163.497 54.8802ZM151.363 60.7962L149.255 53.2682L143.477 54.886L145.585 62.414L151.363 60.7962ZM146.284 57.076C153.304 57.2683 159.509 58.5156 164.943 60.7637L167.237 55.2196C161.026 52.6499 154.083 51.2874 146.448 51.0782L146.284 57.076ZM164.943 60.7637C170.36 63.0056 174.536 66.0808 177.588 69.9399L182.294 66.2185C178.52 61.4455 173.462 57.7957 167.237 55.2196L164.943 60.7637ZM177.588 69.9399C180.549 73.6846 182.06 78.1346 182.06 83.4363H188.06C188.06 76.894 186.159 71.1059 182.294 66.2185L177.588 69.9399ZM182.06 83.4363C182.06 88.489 181.125 92.6656 179.38 96.0695L184.718 98.8073C186.988 94.3821 188.06 89.2239 188.06 83.4363H182.06ZM179.394 96.0412C177.594 99.4607 175.182 102.271 172.142 104.507L175.696 109.341C179.481 106.557 182.489 103.044 184.704 98.8356L179.394 96.0412ZM172.189 104.473C169.076 106.67 165.529 108.335 161.519 109.454L163.132 115.233C167.755 113.943 171.936 111.996 175.649 109.375L172.189 104.473ZM161.582 109.437C157.518 110.477 153.301 111 148.926 111V117C153.785 117 158.501 116.419 163.069 115.25L161.582 109.437ZM148.926 111H116.555V117H148.926V111ZM119.555 114V5.14511H113.555V114H119.555ZM116.555 8.14511H144.56V2.14511H116.555V8.14511ZM147.571 55.8726C154.109 55.8726 159.506 54.0632 162.991 49.8039L158.348 46.0044C156.412 48.3697 153.077 49.8726 147.571 49.8726V55.8726ZM163.019 49.7698C166.195 45.77 167.735 40.9777 167.735 35.5582H161.735C161.735 39.7746 160.564 43.2129 158.32 46.0385L163.019 49.7698ZM167.735 35.5582C167.735 29.207 165.753 23.9958 161.254 20.6535L157.676 25.47C160.203 27.3472 161.735 30.467 161.735 35.5582H167.735ZM161.254 20.6535C157.068 17.5443 151.654 16.1472 145.312 16.1472V22.1472C150.815 22.1472 154.835 23.3598 157.676 25.47L161.254 20.6535ZM145.312 16.1472H131.16V22.1472H145.312V16.1472ZM128.16 19.1472V52.8726H134.16V19.1472H128.16ZM131.16 55.8726H147.571V49.8726H131.16V55.8726ZM148.173 103.45C152.489 103.45 156.506 102.802 160.189 101.462L158.139 95.8235C155.197 96.8931 151.886 97.4496 148.173 97.4496V103.45ZM160.162 101.472C164.043 100.102 167.22 97.9294 169.532 94.8874L164.755 91.2569C163.253 93.2336 161.11 94.7747 158.165 95.8139L160.162 101.472ZM169.486 94.9462C171.995 91.81 173.155 87.9498 173.155 83.5869H167.155C167.155 86.8523 166.307 89.3156 164.801 91.1981L169.486 94.9462ZM173.155 83.5869C173.155 78.8108 171.833 74.6786 168.858 71.5742L164.526 75.7256C166.168 77.4391 167.155 79.9316 167.155 83.5869H173.155ZM168.903 71.6227C166.278 68.7585 162.915 66.7838 158.934 65.6463L157.286 71.4155C160.331 72.2854 162.69 73.7234 164.48 75.6771L168.903 71.6227ZM159.009 65.6689C155.203 64.4725 151.286 63.8747 147.27 63.8747V69.8747C150.681 69.8747 153.991 70.381 157.21 71.3929L159.009 65.6689ZM147.27 63.8747H131.16V69.8747H147.27V63.8747ZM128.16 66.8747V100.45H134.16V66.8747H128.16ZM131.16 103.45H148.173V97.4496H131.16V103.45ZM207.067 38.4189L204.313 37.2272L204.309 37.2372L204.305 37.2472L207.067 38.4189ZM219.111 20.6528L221.233 22.7741L221.243 22.7638L221.253 22.7534L219.111 20.6528ZM236.727 8.45744L237.934 11.204L237.943 11.1998L237.953 11.1955L236.727 8.45744ZM279.787 8.45744L278.546 11.1885L278.57 11.1998L278.595 11.2106L279.787 8.45744ZM297.553 20.6528L295.411 22.7534L295.432 22.7742L295.453 22.7946L297.553 20.6528ZM309.749 38.4189L306.995 39.6105L306.999 39.6181L307.002 39.6257L309.749 38.4189ZM309.749 81.3285L312.502 82.5201L312.502 82.5201L309.749 81.3285ZM297.553 99.0946L299.653 101.237L299.654 101.236L297.553 99.0946ZM279.787 110.989L280.959 113.751L280.969 113.746L280.979 113.742L279.787 110.989ZM236.727 110.989L235.555 113.751L235.563 113.754L235.57 113.757L236.727 110.989ZM219.111 99.2451L221.212 97.1029L221.212 97.1029L219.111 99.2451ZM207.067 81.6296L204.299 82.7864L204.306 82.8039L204.313 82.8213L207.067 81.6296ZM221.069 75.9083L218.303 77.07L218.307 77.0801L218.311 77.0901L221.069 75.9083ZM242.749 98.0406L241.521 100.777L241.544 100.788L241.568 100.798L242.749 98.0406ZM274.517 98.0406L275.699 100.798L275.723 100.788L275.746 100.777L274.517 98.0406ZM287.315 89.007L285.137 86.9438L285.137 86.9438L287.315 89.007ZM295.897 75.9083L298.654 77.0901L298.659 77.0801L298.663 77.07L295.897 75.9083ZM295.897 43.5379L293.123 44.6802L293.127 44.6899L293.131 44.6996L295.897 43.5379ZM274.216 21.255L272.988 23.9918L273.011 24.0024L273.035 24.0125L274.216 21.255ZM242.448 21.255L241.219 18.5182L241.219 18.5182L242.448 21.255ZM229.5 30.2886L227.351 28.1958L227.351 28.1958L229.5 30.2886ZM220.918 43.6885L223.704 44.8027L223.707 44.7932L223.711 44.7837L220.918 43.6885ZM205.851 59.6478C205.851 52.5035 207.182 45.8275 209.828 39.5905L204.305 37.2472C201.33 44.2595 199.851 51.7362 199.851 59.6478H205.851ZM209.82 39.6105C212.582 33.2281 216.384 27.6225 221.233 22.7741L216.99 18.5315C211.6 23.9212 207.373 30.1596 204.313 37.2272L209.82 39.6105ZM221.253 22.7534C226.107 17.804 231.663 13.9594 237.934 11.204L235.52 5.71088C228.542 8.7771 222.353 13.0627 216.97 18.5522L221.253 22.7534ZM237.953 11.1955C244.273 8.3654 251.08 6.94064 258.408 6.94064V0.940641C250.277 0.940641 242.63 2.52708 235.501 5.71938L237.953 11.1955ZM258.408 6.94064C265.629 6.94064 272.33 8.3631 278.546 11.1885L281.029 5.72634C273.995 2.52938 266.443 0.940641 258.408 0.940641V6.94064ZM278.595 11.2106C284.965 13.9677 290.565 17.8116 295.411 22.7534L299.695 18.5522C294.304 13.0552 288.059 8.76878 280.979 5.70427L278.595 11.2106ZM295.453 22.7946C300.394 27.6414 304.238 33.2406 306.995 39.6105L312.502 37.2272C309.437 30.1471 305.151 23.9022 299.654 18.511L295.453 22.7946ZM307.002 39.6257C309.739 45.8546 311.115 52.5182 311.115 59.6478H317.115C317.115 51.7215 315.58 44.2325 312.495 37.2121L307.002 39.6257ZM311.115 59.6478C311.115 66.9895 309.735 73.8084 306.995 80.1368L312.502 82.5201C315.584 75.3986 317.115 67.7637 317.115 59.6478H311.115ZM306.995 80.1368C304.238 86.5068 300.394 92.1059 295.453 96.9527L299.654 101.236C305.151 95.8451 309.437 89.6002 312.502 82.5201L306.995 80.1368ZM295.453 96.9523C290.603 101.708 284.99 105.468 278.595 108.236L280.979 113.742C288.034 110.688 294.266 106.519 299.653 101.237L295.453 96.9523ZM278.615 108.227C272.383 110.871 265.658 112.204 258.408 112.204V118.204C266.414 118.204 273.942 116.728 280.959 113.751L278.615 108.227ZM258.408 112.204C251.052 112.204 244.22 110.869 237.884 108.221L235.57 113.757C242.683 116.73 250.306 118.204 258.408 118.204V112.204ZM237.899 108.227C231.618 105.563 226.062 101.858 221.212 97.1029L217.011 101.387C222.399 106.67 228.586 110.794 235.555 113.751L237.899 108.227ZM221.212 97.1029C216.376 92.362 212.58 86.8149 209.82 80.4379L204.313 82.8213C207.375 89.8943 211.609 96.0909 217.011 101.387L221.212 97.1029ZM209.835 80.4728C207.19 74.1454 205.851 67.2154 205.851 59.6478H199.851C199.851 67.9393 201.322 75.6638 204.299 82.7864L209.835 80.4728ZM214.907 59.7984C214.907 65.8979 216.033 71.6649 218.303 77.07L223.835 74.7466C221.889 70.1144 220.907 65.1415 220.907 59.7984H214.907ZM218.311 77.0901C220.563 82.345 223.68 87.0205 227.652 91.0999L231.951 86.9142C228.495 83.3652 225.79 79.3082 223.826 74.7266L218.311 77.0901ZM227.652 91.0999C231.633 95.1883 236.262 98.4165 241.521 100.777L243.978 95.3038C239.4 93.2484 235.397 90.4542 231.951 86.9142L227.652 91.0999ZM241.568 100.798C246.885 103.077 252.61 104.202 258.709 104.202V98.2024C253.365 98.2024 248.451 97.2201 243.931 95.2832L241.568 100.798ZM258.709 104.202C264.715 104.202 270.389 103.074 275.699 100.798L273.336 95.2832C268.81 97.223 263.944 98.2024 258.709 98.2024V104.202ZM275.746 100.777C281.012 98.4131 285.603 95.1763 289.493 91.0703L285.137 86.9438C281.8 90.4662 277.859 93.2518 273.289 95.3038L275.746 100.777ZM289.493 91.0703C293.355 86.994 296.41 82.328 298.654 77.0901L293.14 74.7266C291.169 79.3252 288.502 83.3917 285.137 86.9438L289.493 91.0703ZM298.663 77.07C300.936 71.6585 302.059 65.8404 302.059 59.6478H296.059C296.059 65.0986 295.074 70.1208 293.131 74.7466L298.663 77.07ZM302.059 59.6478C302.059 53.5483 300.933 47.7813 298.663 42.3762L293.131 44.6996C295.077 49.3318 296.059 54.3048 296.059 59.6478H302.059ZM298.671 42.3957C296.423 36.9372 293.305 32.1445 289.314 28.0452L285.015 32.2309C288.451 35.7601 291.155 39.9006 293.123 44.6802L298.671 42.3957ZM289.314 28.0452C285.323 23.9465 280.678 20.7603 275.398 18.4976L273.035 24.0125C277.592 25.9655 281.578 28.7013 285.015 32.2309L289.314 28.0452ZM275.445 18.5182C270.124 16.1291 264.434 14.9427 258.408 14.9427V20.9427C263.623 20.9427 268.472 21.9645 272.988 23.9918L275.445 18.5182ZM258.408 14.9427C252.289 14.9427 246.548 16.126 241.219 18.5182L243.677 23.9918C248.185 21.9676 253.083 20.9427 258.408 20.9427V14.9427ZM241.219 18.5182C235.961 20.8792 231.331 24.1074 227.351 28.1958L231.649 32.3815C235.096 28.8415 239.099 26.0473 243.677 23.9918L241.219 18.5182ZM227.351 28.1958C223.349 32.3058 220.274 37.1146 218.125 42.5932L223.711 44.7837C225.578 40.0243 228.224 35.8999 231.649 32.3815L227.351 28.1958ZM218.133 42.5743C215.975 47.9677 214.907 53.7181 214.907 59.7984H220.907C220.907 54.4362 221.846 49.4466 223.704 44.8027L218.133 42.5743ZM355.281 88.7059L352.697 90.2299L352.72 90.2692L352.745 90.3079L355.281 88.7059ZM364.766 97.7395L363.292 100.352L363.292 100.352L364.766 97.7395ZM391.717 97.7395L393.162 100.368L393.162 100.368L391.717 97.7395ZM401.202 88.7059L403.768 90.2593L403.777 90.2447L403.786 90.2299L401.202 88.7059ZM404.665 5.14511V2.14511H401.665V5.14511H404.665ZM418.968 5.14511H421.968V2.14511H418.968V5.14511ZM413.397 96.6856L410.856 95.0917L410.846 95.1073L410.836 95.123L413.397 96.6856ZM398.642 110.387L397.267 107.721L397.258 107.725L397.249 107.73L398.642 110.387ZM357.389 110.387L358.783 107.73L358.783 107.73L357.389 110.387ZM342.785 96.6856L345.346 95.123L345.346 95.123L342.785 96.6856ZM337.365 5.14511V2.14511H334.365V5.14511H337.365ZM351.818 5.14511H354.818V2.14511H351.818V5.14511ZM348.818 75.4566C348.818 80.8654 350.094 85.8159 352.697 90.2299L357.865 87.182C355.851 83.7668 354.818 79.8845 354.818 75.4566H348.818ZM352.745 90.3079C355.418 94.5401 358.944 97.8994 363.292 100.352L366.24 95.1266C362.76 93.1632 359.963 90.5001 357.818 87.1039L352.745 90.3079ZM363.292 100.352C367.698 102.838 372.631 104.052 378.016 104.052V98.0518C373.564 98.0518 369.664 97.0576 366.24 95.1266L363.292 100.352ZM378.016 104.052C383.58 104.052 388.655 102.848 393.162 100.368L390.271 95.1109C386.749 97.048 382.69 98.0518 378.016 98.0518V104.052ZM393.162 100.368C397.625 97.9135 401.179 94.537 403.768 90.2593L398.635 87.1525C396.607 90.5032 393.838 93.1491 390.271 95.1109L393.162 100.368ZM403.786 90.2299C406.389 85.8159 407.665 80.8654 407.665 75.4566H401.665C401.665 79.8845 400.632 83.7668 398.618 87.182L403.786 90.2299ZM407.665 75.4566V5.14511H401.665V75.4566H407.665ZM404.665 8.14511H418.968V2.14511H404.665V8.14511ZM415.968 5.14511V75.9083H421.968V5.14511H415.968ZM415.968 75.9083C415.968 83.3517 414.231 89.7092 410.856 95.0917L415.939 98.2795C419.991 91.818 421.968 84.3239 421.968 75.9083H415.968ZM410.836 95.123C407.512 100.571 403.006 104.758 397.267 107.721L400.018 113.052C406.725 109.591 412.056 104.644 415.958 98.2482L410.836 95.123ZM397.249 107.73C391.599 110.694 385.21 112.204 378.016 112.204V118.204C386.079 118.204 393.44 116.503 400.036 113.043L397.249 107.73ZM378.016 112.204C370.822 112.204 364.432 110.694 358.783 107.73L355.995 113.043C362.591 116.503 369.953 118.204 378.016 118.204V112.204ZM358.783 107.73C353.143 104.771 348.677 100.583 345.346 95.123L340.224 98.2482C344.119 104.632 349.39 109.578 355.995 113.043L358.783 107.73ZM345.346 95.123C342.059 89.7359 340.365 83.367 340.365 75.9083H334.365C334.365 84.3086 336.284 91.7913 340.224 98.2482L345.346 95.123ZM340.365 75.9083V5.14511H334.365V75.9083H340.365ZM337.365 8.14511H351.818V2.14511H337.365V8.14511ZM348.818 5.14511V75.4566H354.818V5.14511H348.818ZM440.866 5.14511V2.14511H437.866V5.14511H440.866ZM513.135 5.14511H516.135V2.14511H513.135V5.14511ZM513.135 19.1472V22.1472H516.135V19.1472H513.135ZM483.926 19.1472V16.1472H480.926V19.1472H483.926ZM483.926 114V117H486.926V114H483.926ZM469.322 114H466.322V117H469.322V114ZM469.322 19.1472H472.322V16.1472H469.322V19.1472ZM440.866 19.1472H437.866V22.1472H440.866V19.1472ZM440.866 8.14511H513.135V2.14511H440.866V8.14511ZM510.135 5.14511V19.1472H516.135V5.14511H510.135ZM513.135 16.1472H483.926V22.1472H513.135V16.1472ZM480.926 19.1472V114H486.926V19.1472H480.926ZM483.926 111H469.322V117H483.926V111ZM472.322 114V19.1472H466.322V114H472.322ZM469.322 16.1472H440.866V22.1472H469.322V16.1472ZM443.866 19.1472V5.14511H437.866V19.1472H443.866Z" fill="white" mask="url(#path-1-outside-1_612_17)"/>
</svg>
