<svg width="514" height="116" viewBox="0 0 514 116" fill="none" xmlns="http://www.w3.org/2000/svg">
<path d="M0.154204 114L47.7298 0.631662H48.6331L96.0581 114H79.3464L43.8153 23.5161L54.2037 16.7411L14.457 114H0.154204ZM28.007 72.7478H68.5064L73.3242 85.3944H23.7914L28.007 72.7478ZM144.563 5.14832C155.503 5.14832 164.085 7.40666 170.308 11.9233C176.631 16.3396 179.793 23.2652 179.793 32.7C179.793 38.4211 178.488 43.3894 175.878 47.605C173.269 51.8206 169.605 55.1328 164.888 57.5417C160.271 59.9506 154.801 61.3056 148.477 61.6067L146.37 54.0789C153.697 54.2796 160.271 55.5844 166.092 57.9933C171.914 60.4022 176.531 63.7646 179.943 68.0806C183.356 72.3965 185.062 77.5154 185.062 83.4372C185.062 88.8572 184.059 93.5244 182.051 97.4389C180.044 101.253 177.334 104.415 173.921 106.924C170.509 109.333 166.644 111.139 162.328 112.344C158.012 113.448 153.546 114 148.929 114H116.56V5.14832H144.563ZM147.574 52.8744C153.596 52.8744 157.962 51.2183 160.672 47.9061C163.382 44.4935 164.737 40.3783 164.737 35.5606C164.737 29.8394 162.981 25.6741 159.468 23.0644C155.955 20.4548 151.237 19.15 145.316 19.15H131.163V52.8744H147.574ZM148.176 100.45C152.191 100.45 155.855 99.8478 159.167 98.6433C162.579 97.4389 165.239 95.582 167.146 93.0728C169.154 90.5635 170.157 87.4019 170.157 83.5878C170.157 79.3722 169.003 76.06 166.695 73.6511C164.486 71.2422 161.626 69.5359 158.113 68.5322C154.6 67.4281 150.987 66.8761 147.273 66.8761H131.163V100.45H148.176ZM202.853 59.6494C202.853 52.1217 204.258 45.0456 207.068 38.4211C209.979 31.6963 213.994 25.7744 219.113 20.6556C224.231 15.4363 230.103 11.3713 236.728 8.46055C243.452 5.44944 250.679 3.94389 258.408 3.94389C266.036 3.94389 273.162 5.44944 279.786 8.46055C286.511 11.3713 292.433 15.4363 297.552 20.6556C302.771 25.7744 306.836 31.6963 309.747 38.4211C312.658 45.0456 314.113 52.1217 314.113 59.6494C314.113 67.378 312.658 74.6046 309.747 81.3294C306.836 88.0543 302.771 93.9761 297.552 99.095C292.433 104.114 286.511 108.078 279.786 110.989C273.162 113.799 266.036 115.204 258.408 115.204C250.679 115.204 243.452 113.799 236.728 110.989C230.103 108.179 224.231 104.264 219.113 99.2456C213.994 94.227 209.979 88.3554 207.068 81.6306C204.258 74.9057 202.853 67.5787 202.853 59.6494ZM217.908 59.8C217.908 65.5211 218.962 70.8909 221.07 75.9094C223.178 80.8276 226.088 85.1937 229.802 89.0078C233.516 92.8219 237.832 95.833 242.75 98.0411C247.668 100.149 252.988 101.203 258.709 101.203C264.329 101.203 269.599 100.149 274.517 98.0411C279.435 95.833 283.701 92.8219 287.314 89.0078C290.928 85.1937 293.788 80.8276 295.896 75.9094C298.004 70.8909 299.058 65.4709 299.058 59.6494C299.058 53.9283 298.004 48.5585 295.896 43.54C293.788 38.4211 290.877 33.9546 287.164 30.1405C283.45 26.3265 279.134 23.3655 274.216 21.2578C269.298 19.0496 264.028 17.9456 258.408 17.9456C252.686 17.9456 247.367 19.0496 242.449 21.2578C237.531 23.4659 233.215 26.477 229.501 30.2911C225.787 34.1052 222.927 38.5717 220.919 43.6906C218.912 48.7091 217.908 54.0789 217.908 59.8ZM351.816 75.4578C351.816 80.3759 352.97 84.7922 355.278 88.7067C357.687 92.5207 360.849 95.5319 364.763 97.74C368.678 99.9481 373.094 101.052 378.012 101.052C383.131 101.052 387.698 99.9481 391.713 97.74C395.728 95.5319 398.889 92.5207 401.198 88.7067C403.506 84.7922 404.661 80.3759 404.661 75.4578V5.14832H418.963V75.9094C418.963 83.8387 417.106 90.7643 413.393 96.6861C409.779 102.608 404.861 107.175 398.638 110.387C392.516 113.599 385.64 115.204 378.012 115.204C370.384 115.204 363.509 113.599 357.386 110.387C351.263 107.175 346.396 102.608 342.782 96.6861C339.169 90.7643 337.362 83.8387 337.362 75.9094V5.14832H351.816V75.4578ZM440.861 5.14832H513.128V19.15H483.92V114H469.316V19.15H440.861V5.14832Z" fill="#F46036"/>
</svg>
