<svg width="297" height="292" viewBox="0 0 297 292" fill="none" xmlns="http://www.w3.org/2000/svg">
<path d="M142.503 32.3474V109.719M142.503 135.509V109.719M67.3173 88.7366V63.8205H222.934V125.674M222.934 187.527V125.674M222.934 125.674H278.012V233.425M142.503 109.719H97.479V139.443M97.479 228.617V169.168M97.479 169.168H190.587V208.509M97.479 169.168V139.443M190.587 247.85V208.509M190.587 208.509H142.503V267.084M97.479 139.443H18.7964V193.647M18.7964 247.85V193.647M18.7964 193.647H67.3173V260.527" stroke="#201D37" stroke-width="4.37126" stroke-linecap="round" stroke-linejoin="round"/>
<circle cx="141.629" cy="18.3593" r="18.3593" fill="#7F74C6"/>
<circle cx="222.06" cy="186.215" r="18.3593" fill="#201D37"/>
<circle cx="278.012" cy="236.922" r="18.3593" fill="#201D37"/>
<circle cx="141.629" cy="273.641" r="18.3593" fill="#201D37"/>
<circle cx="141.629" cy="142.503" r="18.3593" fill="#201D37"/>
<circle cx="189.713" cy="249.162" r="18.3593" fill="#201D37"/>
<circle cx="66.4433" cy="258.778" r="18.3593" fill="#201D37"/>
<circle cx="18.3593" cy="249.162" r="18.3593" fill="#201D37"/>
<circle cx="66.4433" cy="98.7904" r="18.3593" fill="#201D37"/>
<circle cx="99.6645" cy="215.066" r="18.3593" fill="#201D37"/>
</svg>
