<svg width="254" height="107" viewBox="0 0 254 107" fill="none" xmlns="http://www.w3.org/2000/svg">
<g opacity="0.4">
<mask id="path-1-outside-1_2651_22" maskUnits="userSpaceOnUse" x="-0.984863" y="-0.72998" width="255" height="108" fill="black">
<rect fill="white" x="-0.984863" y="-0.72998" width="255" height="108"/>
<path d="M3.00002 79.3317V79.1811L63.3728 3.00002H63.5234V68.1906H76.3206V79.3317H63.5234V103.27H48.9195V79.3317H3.00002ZM49.8228 35.9717L24.3789 68.9434L22.1206 68.1906H48.9195V33.2617L49.8228 35.9717ZM128.587 103.722C122.464 103.722 116.844 102.567 111.725 100.259C106.606 97.9504 102.189 94.6382 98.4758 90.3222C94.8624 85.9059 92.0521 80.5863 90.0447 74.3634C88.0373 68.1404 87.0335 61.1646 87.0335 53.4361C87.0335 45.005 87.9871 37.678 89.8941 31.455C91.8011 25.1317 94.5613 19.8622 98.1747 15.6467C101.888 11.4311 106.305 8.31964 111.424 6.31223C116.542 4.20446 122.264 3.15057 128.587 3.15057C134.709 3.15057 140.28 4.30483 145.299 6.61335C150.417 8.92187 154.784 12.2843 158.397 16.7006C162.111 21.0165 164.971 26.2859 166.979 32.5089C169.086 38.6315 170.14 45.6072 170.14 53.4361C170.14 61.3654 169.086 68.4415 166.979 74.6645C164.971 80.8874 162.111 86.1569 158.397 90.4728C154.784 94.7887 150.417 98.1009 145.299 100.409C140.28 102.618 134.709 103.722 128.587 103.722ZM128.436 89.72C134.258 89.72 139.126 88.2145 143.04 85.2034C147.055 82.0919 150.066 77.7759 152.074 72.2556C154.081 66.7352 155.085 60.3617 155.085 53.135C155.085 45.9083 154.081 39.6352 152.074 34.3156C150.066 28.8956 147.055 24.68 143.04 21.6689C139.126 18.6578 134.258 17.1522 128.436 17.1522C122.615 17.1522 117.747 18.708 113.832 21.8195C109.918 24.8306 106.957 29.0461 104.95 34.4661C103.043 39.8861 102.089 46.2095 102.089 53.4361C102.089 60.5624 103.043 66.8858 104.95 72.4061C106.957 77.8261 109.918 82.0919 113.832 85.2034C117.747 88.2145 122.615 89.72 128.436 89.72ZM177.374 79.3317V79.1811L237.747 3.00002H237.897V68.1906H250.694V79.3317H237.897V103.27H223.293V79.3317H177.374ZM224.197 35.9717L198.753 68.9434L196.494 68.1906H223.293V33.2617L224.197 35.9717Z"/>
</mask>
<path d="M3.00002 79.3317H2.32458e-05V82.3317H3.00002V79.3317ZM3.00002 79.1811L0.648828 77.3178L2.32458e-05 78.1365V79.1811H3.00002ZM63.3728 3.00002V1.52588e-05H61.9224L61.0216 1.13672L63.3728 3.00002ZM63.5234 3.00002H66.5234V1.52588e-05H63.5234V3.00002ZM63.5234 68.1906H60.5234V71.1906H63.5234V68.1906ZM76.3206 68.1906H79.3206V65.1906H76.3206V68.1906ZM76.3206 79.3317V82.3317H79.3206V79.3317H76.3206ZM63.5234 79.3317V76.3317H60.5234V79.3317H63.5234ZM63.5234 103.27V106.27H66.5234V103.27H63.5234ZM48.9195 103.27H45.9195V106.27H48.9195V103.27ZM48.9195 79.3317H51.9195V76.3317H48.9195V79.3317ZM49.8228 35.9717L52.1978 37.8045L53.1743 36.5392L52.6689 35.023L49.8228 35.9717ZM24.3789 68.9434L23.4302 71.7894L25.452 72.4633L26.754 70.7762L24.3789 68.9434ZM22.1206 68.1906V65.1906L21.1719 71.0366L22.1206 68.1906ZM48.9195 68.1906V71.1906H51.9195V68.1906H48.9195ZM48.9195 33.2617L51.7655 32.313L45.9195 33.2617H48.9195ZM3.00002 79.3317H6.00002V79.1811H3.00002H2.32458e-05V79.3317H3.00002ZM3.00002 79.1811L5.35122 81.0444L65.724 4.86332L63.3728 3.00002L61.0216 1.13672L0.648828 77.3178L3.00002 79.1811ZM63.3728 3.00002V6.00002H63.5234V3.00002V1.52588e-05H63.3728V3.00002ZM63.5234 3.00002H60.5234V68.1906H63.5234H66.5234V3.00002H63.5234ZM63.5234 68.1906V71.1906H76.3206V68.1906V65.1906H63.5234V68.1906ZM76.3206 68.1906H73.3206V79.3317H76.3206H79.3206V68.1906H76.3206ZM76.3206 79.3317V76.3317H63.5234V79.3317V82.3317H76.3206V79.3317ZM63.5234 79.3317H60.5234V103.27H63.5234H66.5234V79.3317H63.5234ZM63.5234 103.27V100.27H48.9195V103.27V106.27H63.5234V103.27ZM48.9195 103.27H51.9195V79.3317H48.9195H45.9195V103.27H48.9195ZM48.9195 79.3317V76.3317H3.00002V79.3317V82.3317H48.9195V79.3317ZM49.8228 35.9717L47.4478 34.1389L22.0039 67.1105L24.3789 68.9434L26.754 70.7762L52.1978 37.8045L49.8228 35.9717ZM24.3789 68.9434L25.3276 66.0973L23.0693 65.3445L22.1206 68.1906L21.1719 71.0366L23.4302 71.7894L24.3789 68.9434ZM22.1206 68.1906V71.1906H48.9195V68.1906V65.1906H22.1206V68.1906ZM48.9195 68.1906H51.9195V33.2617H48.9195H45.9195V68.1906H48.9195ZM48.9195 33.2617L46.0734 34.2104L46.9767 36.9204L49.8228 35.9717L52.6689 35.023L51.7655 32.313L48.9195 33.2617ZM111.725 100.259L110.491 102.994V102.994L111.725 100.259ZM98.4758 90.3222L96.1539 92.222L96.1775 92.2508L96.2017 92.279L98.4758 90.3222ZM90.0447 74.3633L87.1895 75.2844V75.2844L90.0447 74.3633ZM89.8941 31.455L92.7625 32.334L92.7663 32.3212L89.8941 31.455ZM98.1747 15.6467L95.9236 13.6636L95.9101 13.6789L95.8969 13.6943L98.1747 15.6467ZM111.424 6.31223L112.519 9.10515L112.542 9.09591L112.566 9.08627L111.424 6.31223ZM145.299 6.61335L144.045 9.33882L144.055 9.34351L144.065 9.34811L145.299 6.61335ZM158.397 16.7006L156.075 18.6003L156.099 18.6291L156.123 18.6573L158.397 16.7006ZM166.979 32.5089L164.123 33.4299L164.132 33.4578L164.142 33.4854L166.979 32.5089ZM166.979 74.6645L164.137 73.702L164.13 73.7227L164.123 73.7435L166.979 74.6645ZM158.397 90.4728L156.123 88.5161L156.11 88.5314L156.097 88.547L158.397 90.4728ZM145.299 100.409L146.507 103.155L146.519 103.15L146.532 103.144L145.299 100.409ZM143.04 85.2034L144.869 87.5812L144.878 87.5746L143.04 85.2034ZM152.074 72.2556L149.254 71.2303V71.2303L152.074 72.2556ZM152.074 34.3156L149.26 35.3575L149.264 35.3661L149.267 35.3747L152.074 34.3156ZM143.04 21.6689L141.211 24.0468L141.226 24.0579L141.24 24.0689L143.04 21.6689ZM113.832 21.8195L115.662 24.1973L115.68 24.1828L115.699 24.1679L113.832 21.8195ZM104.95 34.4661L102.136 33.4242L102.128 33.4472L102.12 33.4704L104.95 34.4661ZM104.95 72.4061L102.114 73.3857L102.125 73.417L102.136 73.4481L104.95 72.4061ZM113.832 85.2034L111.966 87.5518L111.984 87.5667L112.003 87.5812L113.832 85.2034ZM128.587 103.722V100.722C122.851 100.722 117.655 99.6425 112.958 97.5241L111.725 100.259L110.491 102.994C116.032 105.492 122.078 106.722 128.587 106.722V103.722ZM111.725 100.259L112.958 97.5241C108.244 95.3984 104.182 92.354 100.75 88.3655L98.4758 90.3222L96.2017 92.279C100.197 96.9224 104.967 100.502 110.491 102.994L111.725 100.259ZM98.4758 90.3222L100.798 88.4225C97.4536 84.3354 94.8087 79.3601 92.8998 73.4423L90.0447 74.3633L87.1895 75.2844C89.2954 81.8125 92.2712 87.4765 96.1539 92.222L98.4758 90.3222ZM90.0447 74.3633L92.8998 73.4423C91.004 67.5654 90.0335 60.9073 90.0335 53.4361H87.0335H84.0335C84.0335 61.422 85.0705 68.7154 87.1895 75.2844L90.0447 74.3633ZM87.0335 53.4361H90.0335C90.0335 45.22 90.9641 38.2024 92.7624 32.334L89.8941 31.455L87.0258 30.576C85.0101 37.1535 84.0335 44.7901 84.0335 53.4361H87.0335ZM89.8941 31.455L92.7663 32.3212C94.5754 26.3228 97.1571 21.4436 100.452 17.5991L98.1747 15.6467L95.8969 13.6943C91.9656 18.2808 89.0269 23.9406 87.0219 30.5888L89.8941 31.455ZM98.1747 15.6467L100.426 17.6298C103.831 13.7641 107.854 10.9345 112.519 9.10515L111.424 6.31223L110.328 3.51931C104.755 5.70481 99.9456 9.09811 95.9236 13.6636L98.1747 15.6467ZM111.424 6.31223L112.566 9.08627C117.274 7.14741 122.6 6.15057 128.587 6.15057V3.15057V0.150574C121.927 0.150574 115.81 1.26151 110.281 3.5382L111.424 6.31223ZM128.587 3.15057V6.15057C134.324 6.15057 139.46 7.22994 144.045 9.33882L145.299 6.61335L146.552 3.88788C141.1 1.37972 135.095 0.150574 128.587 0.150574V3.15057ZM145.299 6.61335L144.065 9.34811C148.755 11.4629 152.75 14.5367 156.075 18.6003L158.397 16.7006L160.719 14.8008C156.817 10.0319 152.08 6.38081 146.532 3.87859L145.299 6.61335ZM158.397 16.7006L156.123 18.6573C159.54 22.6285 162.221 27.5314 164.123 33.4299L166.979 32.5089L169.834 31.5879C167.722 25.0405 164.681 19.4045 160.671 14.7438L158.397 16.7006ZM166.979 32.5089L164.142 33.4854C166.122 39.236 167.14 45.8723 167.14 53.4361H170.14H173.14C173.14 45.3422 172.051 38.027 169.815 31.5324L166.979 32.5089ZM170.14 53.4361H167.14C167.14 61.1036 166.121 67.8456 164.137 73.702L166.979 74.6645L169.82 75.6269C172.052 69.0374 173.14 61.6272 173.14 53.4361H170.14ZM166.979 74.6645L164.123 73.7435C162.221 79.6419 159.54 84.5449 156.123 88.5161L158.397 90.4728L160.671 92.4295C164.681 87.7689 167.722 82.1329 169.834 75.5855L166.979 74.6645ZM158.397 90.4728L156.097 88.547C152.773 92.5172 148.771 95.5525 144.065 97.6747L145.299 100.409L146.532 103.144C152.064 100.649 156.794 97.0603 160.697 92.3986L158.397 90.4728ZM145.299 100.409L144.09 97.6635C139.495 99.6856 134.342 100.722 128.587 100.722V103.722V106.722C135.077 106.722 141.065 105.55 146.507 103.155L145.299 100.409ZM128.436 89.72V92.72C134.797 92.72 140.341 91.0647 144.869 87.5812L143.04 85.2034L141.211 82.8255C137.911 85.3643 133.719 86.72 128.436 86.72V89.72ZM143.04 85.2034L144.878 87.5746C149.407 84.0646 152.723 79.2485 154.893 73.2808L152.074 72.2556L149.254 71.2303C147.409 76.3034 144.703 80.1191 141.202 82.8321L143.04 85.2034ZM152.074 72.2556L154.893 73.2808C157.044 67.366 158.085 60.6337 158.085 53.135H155.085H152.085C152.085 60.0897 151.118 66.1044 149.254 71.2303L152.074 72.2556ZM155.085 53.135H158.085C158.085 45.6403 157.045 38.9924 154.88 33.2564L152.074 34.3156L149.267 35.3747C151.117 40.278 152.085 46.1764 152.085 53.135H155.085ZM152.074 34.3156L154.887 33.2736C152.71 27.397 149.383 22.676 144.84 19.2689L143.04 21.6689L141.24 24.0689C144.727 26.684 147.422 30.3942 149.26 35.3575L152.074 34.3156ZM143.04 21.6689L144.869 19.291C140.341 15.8076 134.797 14.1522 128.436 14.1522V17.1522V20.1522C133.719 20.1522 137.911 21.508 141.211 24.0468L143.04 21.6689ZM128.436 17.1522V14.1522C122.053 14.1522 116.495 15.8705 111.966 19.471L113.832 21.8195L115.699 24.1679C118.998 21.5455 123.176 20.1522 128.436 20.1522V17.1522ZM113.832 21.8195L112.003 19.4416C107.57 22.8517 104.306 27.5668 102.136 33.4242L104.95 34.4661L107.763 35.5081C109.608 30.5255 112.266 26.8095 115.662 24.1973L113.832 21.8195ZM104.95 34.4661L102.12 33.4704C100.075 39.2807 99.0891 45.9539 99.0891 53.4361H102.089H105.089C105.089 46.465 106.01 40.4916 107.78 35.4618L104.95 34.4661ZM102.089 53.4361H99.0891C99.0891 60.825 100.077 67.4896 102.114 73.3857L104.95 72.4061L107.785 71.4266C106.008 66.282 105.089 60.2999 105.089 53.4361H102.089ZM104.95 72.4061L102.136 73.4481C104.304 79.3004 107.559 84.0492 111.966 87.5518L113.832 85.2034L115.699 82.8549C112.277 80.1346 109.61 76.3518 107.763 71.3642L104.95 72.4061ZM113.832 85.2034L112.003 87.5812C116.532 91.0647 122.076 92.72 128.436 92.72V89.72V86.72C123.154 86.72 118.962 85.3643 115.662 82.8255L113.832 85.2034ZM177.374 79.3317H174.374V82.3317H177.374V79.3317ZM177.374 79.1811L175.023 77.3178L174.374 78.1365V79.1811H177.374ZM237.747 3.00002V1.52588e-05H236.296L235.396 1.13672L237.747 3.00002ZM237.897 3.00002H240.897V1.52588e-05H237.897V3.00002ZM237.897 68.1906H234.897V71.1906H237.897V68.1906ZM250.694 68.1906H253.694V65.1906H250.694V68.1906ZM250.694 79.3317V82.3317H253.694V79.3317H250.694ZM237.897 79.3317V76.3317H234.897V79.3317H237.897ZM237.897 103.27V106.27H240.897V103.27H237.897ZM223.293 103.27H220.293V106.27H223.293V103.27ZM223.293 79.3317H226.293V76.3317H223.293V79.3317ZM224.197 35.9717L226.572 37.8045L227.548 36.5392L227.043 35.023L224.197 35.9717ZM198.753 68.9434L197.804 71.7894L199.826 72.4633L201.128 70.7762L198.753 68.9434ZM196.494 68.1906V65.1906L195.546 71.0366L196.494 68.1906ZM223.293 68.1906V71.1906H226.293V68.1906H223.293ZM223.293 33.2617L226.139 32.313L220.293 33.2617H223.293ZM177.374 79.3317H180.374V79.1811H177.374H174.374V79.3317H177.374ZM177.374 79.1811L179.725 81.0444L240.098 4.86332L237.747 3.00002L235.396 1.13672L175.023 77.3178L177.374 79.1811ZM237.747 3.00002V6.00002H237.897V3.00002V1.52588e-05H237.747V3.00002ZM237.897 3.00002H234.897V68.1906H237.897H240.897V3.00002H237.897ZM237.897 68.1906V71.1906H250.694V68.1906V65.1906H237.897V68.1906ZM250.694 68.1906H247.694V79.3317H250.694H253.694V68.1906H250.694ZM250.694 79.3317V76.3317H237.897V79.3317V82.3317H250.694V79.3317ZM237.897 79.3317H234.897V103.27H237.897H240.897V79.3317H237.897ZM237.897 103.27V100.27H223.293V103.27V106.27H237.897V103.27ZM223.293 103.27H226.293V79.3317H223.293H220.293V103.27H223.293ZM223.293 79.3317V76.3317H177.374V79.3317V82.3317H223.293V79.3317ZM224.197 35.9717L221.822 34.1389L196.378 67.1105L198.753 68.9434L201.128 70.7762L226.572 37.8045L224.197 35.9717ZM198.753 68.9434L199.702 66.0973L197.443 65.3445L196.494 68.1906L195.546 71.0366L197.804 71.7894L198.753 68.9434ZM196.494 68.1906V71.1906H223.293V68.1906V65.1906H196.494V68.1906ZM223.293 68.1906H226.293V33.2617H223.293H220.293V68.1906H223.293ZM223.293 33.2617L220.447 34.2104L221.351 36.9204L224.197 35.9717L227.043 35.023L226.139 32.313L223.293 33.2617Z" fill="white" mask="url(#path-1-outside-1_2651_22)"/>
</g>
</svg>
