<svg width="248" height="101" viewBox="0 0 248 101" fill="none" xmlns="http://www.w3.org/2000/svg">
<path d="M2.3188e-05 76.3317V76.1811L60.3728 1.71099e-05H60.5234V65.1906H73.3206V76.3317H60.5234V100.27H45.9195V76.3317H2.3188e-05ZM46.8228 32.9717L21.3789 65.9434L19.1206 65.1906H45.9195V30.2617L46.8228 32.9717ZM125.587 100.722C119.464 100.722 113.844 99.5674 108.725 97.2589C103.606 94.9504 99.1895 91.6382 95.4758 87.3222C91.8624 82.9059 89.0521 77.5863 87.0447 71.3634C85.0373 65.1404 84.0335 58.1646 84.0335 50.4361C84.0335 42.005 84.9871 34.678 86.8941 28.455C88.8011 22.1317 91.5613 16.8622 95.1747 12.6467C98.8884 8.43113 103.305 5.31964 108.424 3.31223C113.542 1.20446 119.264 0.150571 125.587 0.150571C131.709 0.150571 137.28 1.30483 142.299 3.61335C147.417 5.92187 151.784 9.28427 155.397 13.7006C159.111 18.0165 161.971 23.2859 163.979 29.5089C166.086 35.6315 167.14 42.6072 167.14 50.4361C167.14 58.3654 166.086 65.4415 163.979 71.6645C161.971 77.8874 159.111 83.1569 155.397 87.4728C151.784 91.7887 147.417 95.1009 142.299 97.4095C137.28 99.6176 131.709 100.722 125.587 100.722ZM125.436 86.72C131.258 86.72 136.126 85.2145 140.04 82.2034C144.055 79.0919 147.066 74.7759 149.074 69.2556C151.081 63.7352 152.085 57.3617 152.085 50.135C152.085 42.9083 151.081 36.6352 149.074 31.3156C147.066 25.8956 144.055 21.68 140.04 18.6689C136.126 15.6578 131.258 14.1522 125.436 14.1522C119.615 14.1522 114.747 15.708 110.832 18.8195C106.918 21.8306 103.957 26.0461 101.95 31.4661C100.043 36.8861 99.0891 43.2095 99.0891 50.4361C99.0891 57.5624 100.043 63.8858 101.95 69.4061C103.957 74.8261 106.918 79.0919 110.832 82.2034C114.747 85.2145 119.615 86.72 125.436 86.72ZM174.374 76.3317V76.1811L234.747 1.71099e-05H234.897V65.1906H247.694V76.3317H234.897V100.27H220.293V76.3317H174.374ZM221.197 32.9717L195.753 65.9434L193.494 65.1906H220.293V30.2617L221.197 32.9717Z" fill="white"/>
</svg>
