<svg width="32" height="32" viewBox="0 0 32 32" fill="none" xmlns="http://www.w3.org/2000/svg">
<path d="M16 23.15C15.7333 23.15 15.4833 23.108 15.25 23.024C15.0167 22.9413 14.8 22.8 14.6 22.6L7.4 15.4C7.03333 15.0333 6.85 14.5667 6.85 14C6.85 13.4333 7.03333 12.9667 7.4 12.6C7.76667 12.2333 8.24133 12.0413 8.824 12.024C9.408 12.008 9.88333 12.1833 10.25 12.55L14 16.3V2C14 1.43333 14.192 0.958 14.576 0.574C14.9587 0.191334 15.4333 0 16 0C16.5667 0 17.042 0.191334 17.426 0.574C17.8087 0.958 18 1.43333 18 2V16.3L21.75 12.55C22.1167 12.1833 22.592 12.008 23.176 12.024C23.7587 12.0413 24.2333 12.2333 24.6 12.6C24.9667 12.9667 25.15 13.4333 25.15 14C25.15 14.5667 24.9667 15.0333 24.6 15.4L17.4 22.6C17.2 22.8 16.9833 22.9413 16.75 23.024C16.5167 23.108 16.2667 23.15 16 23.15ZM4 32C2.9 32 1.95867 31.6087 1.176 30.826C0.392 30.042 0 29.1 0 28V24C0 23.4333 0.191334 22.958 0.574 22.574C0.958 22.1913 1.43333 22 2 22C2.56667 22 3.042 22.1913 3.426 22.574C3.80867 22.958 4 23.4333 4 24V28H28V24C28 23.4333 28.192 22.958 28.576 22.574C28.9587 22.1913 29.4333 22 30 22C30.5667 22 31.0413 22.1913 31.424 22.574C31.808 22.958 32 23.4333 32 24V28C32 29.1 31.6087 30.042 30.826 30.826C30.042 31.6087 29.1 32 28 32H4Z" fill="white"/>
</svg>
