<svg width="2052" height="2026" viewBox="0 0 2052 2026" fill="none" xmlns="http://www.w3.org/2000/svg">
<path d="M538.877 493.075C538.538 492.942 538.199 492.808 537.861 492.673C538.023 492.526 538.77 491.147 539.517 489.701C539.881 488.368 540.399 487.157 541.177 486.234C541.372 486.003 540.445 487.904 539.517 489.701C539.223 490.777 539.028 491.931 538.877 493.075C579.734 509.111 623.451 511.716 668.417 512.774C707.262 513.688 744.248 517.206 782.803 519.422C844.977 522.995 910.328 518.612 971.238 530.915C984.075 533.508 1010.4 536.759 1022.16 533.178C1035.26 529.188 1051.93 538.778 1065.69 537.007C1093.95 533.372 1127 547.533 1155.11 550.101C1189.31 553.226 1223.06 560.637 1257.52 562.617C1296.04 564.831 1333.85 576.292 1373.01 575.59C1411.04 574.909 1448.25 585.382 1485.61 582.651C1533.75 579.131 1575.5 586.495 1622.29 598.683C1634.24 601.796 1708.22 594.806 1708.05 608.695C1707.78 630.975 1684.73 648.141 1684.45 672.016C1684.23 689.837 1685 708.736 1682.13 734.055C1679.36 758.549 1682.51 787.143 1673.17 810.592C1664.05 833.472 1667.67 858.594 1662.64 883.504L1662.6 883.688C1651.28 939.744 1640.95 990.896 1640.26 1048.7C1639.82 1085.4 1628.06 1119.33 1628.42 1156.01C1628.71 1186.13 1623.84 1223.99 1616.48 1252.26C1596.69 1328.22 1585.03 1410.94 1580.58 1488.43C1579.8 1502.11 1573.68 1514.8 1571.95 1528.3C1568.82 1552.79 1569.28 1576.34 1566.7 1600.56C1565.28 1613.82 1556.19 1621.01 1541.51 1613.18C1513.73 1598.37 1466.89 1613.81 1436.37 1608.47C1414.22 1604.59 1394.81 1596.26 1371.84 1595.77C1346.66 1595.23 1321.49 1593.65 1296.85 1587.92C1245.94 1576.09 1201.35 1574.65 1149.63 1570.7C1019.23 1560.73 880.967 1560.22 756.698 1515.77C664.611 1482.84 567.511 1467.62 473.236 1442.76C442.805 1434.74 350.957 1437.32 337.519 1406.08C329.333 1387.05 337.915 1370.18 340.577 1351.6C350.725 1280.77 399.711 1218.18 413.287 1147.75C417.997 1123.32 413.7 1099.25 416.6 1074.72C420.542 1041.38 423.287 1007.08 425.209 973.634C429.659 896.209 441.925 820.435 468.134 747.153C478.179 719.066 485.466 687.579 491.291 658.246C495.135 638.891 496.615 610.643 503.835 592.522C513.184 569.059 518.425 544.905 528.982 521.555C532.578 513.601 536.908 506.452 538.299 497.855C538.522 496.482 538.651 494.789 538.877 493.075Z" fill="#030943"/>
<path d="M1565.56 704.493C1571.04 702.134 1566.8 682.247 1573.72 700.984C1576.81 709.344 1562.04 711.282 1567.14 723.147C1571.14 732.452 1566.75 729.755 1560.41 729.979C1551.61 730.29 1564.95 750.268 1561.05 751.01C1546.24 753.82 1568.07 779.387 1562.44 794.626C1559.05 803.815 1544.18 797.875 1555.28 811.672C1560.69 818.399 1551.4 821.135 1552.99 830.914C1555.39 845.632 1539.61 863.859 1545.48 882.121C1550.31 897.124 1556.71 899.128 1551.75 915.409C1548.82 925.011 1557.72 931.915 1550.12 939.919C1540.23 950.324 1538.8 954.893 1534.78 940.069M1536.41 704.143C1554.55 698.62 1537.53 714.174 1537.85 714.981C1541.81 725.005 1537.77 728.791 1530.88 736.237C1526.19 741.307 1528.26 744.003 1530.23 750.122C1533.95 761.679 1527.89 752.074 1523.35 754.515C1517.7 757.549 1532.31 769.598 1529.21 774.373C1523.82 782.654 1521.48 778.924 1525.17 790.789C1528.06 800.088 1516.97 792.539 1516.28 798.013C1515.8 801.819 1522.27 808.412 1515.39 808.422C1512.62 808.425 1521.18 825.934 1522.07 828.105C1526.57 839.16 1516.81 831.911 1516.75 837.376C1516.7 841.219 1527.72 856.477 1521.37 858.12C1513.93 860.048 1508.67 859.13 1509.19 868.912C1509.44 873.627 1502.15 903.223 1507.12 890.745M1508.81 699.905C1500.16 685.155 1508.71 705.49 1507.74 709.493C1504.33 723.604 1496.37 727.44 1501.33 742.863C1504.09 751.446 1493.72 747.84 1492.06 754.19C1490.52 760.104 1496.51 765.221 1497.22 770.767C1497.37 771.902 1481.83 773.267 1484.72 785.812C1486.07 791.668 1482.29 792.496 1476.46 793.661C1466.98 795.557 1484.05 806.881 1487.41 810.791C1496.76 821.666 1479.12 814.761 1474.63 815.214C1468.54 815.827 1483.53 834.021 1479.58 834.209C1475.97 834.38 1467.95 829.024 1471.03 836.811C1472.39 840.229 1479.31 850.801 1475.15 849.718C1456.06 844.745 1470.94 886.856 1461.6 852.328M1441.56 693.388C1437.93 694.438 1430.21 686.44 1430.69 690.185C1432.6 704.992 1414.09 686.686 1432.06 706.248C1437.14 711.782 1427.81 707.205 1426.56 710.941C1425.37 714.478 1432.43 731.162 1428.22 728.127C1422.79 724.217 1424.67 732.317 1420.63 734.615C1415.87 737.319 1409.76 735.317 1404.69 735.025M1319.11 678.394C1321.75 677.63 1321.29 678.502 1323 679.944M1402.7 700.436C1402.21 699.289 1401.9 697.706 1401.77 696.12M1401.77 696.12C1401.38 691.258 1402.74 686.375 1406.02 693.997C1406.87 695.972 1404.53 696.272 1401.77 696.12ZM1401.77 696.12C1398.82 695.957 1395.4 695.277 1394.88 695.567C1392.52 696.873 1402.67 708.13 1403.49 709.763C1405.34 713.449 1382.7 694.181 1396.11 711.328C1397.26 712.794 1401.68 723.934 1398.35 719.854C1397.44 718.747 1395.47 717.265 1393.61 715.91M1393.61 715.91C1390.72 713.797 1388.11 711.991 1390.3 712.394C1391.63 712.637 1392.73 714.128 1393.61 715.91ZM1393.61 715.91C1394.69 718.08 1395.44 720.683 1395.87 721.995C1397.32 726.443 1380.78 713.887 1387.4 723.129C1390.57 727.549 1392.13 727.259 1395.16 743.243C1395.63 745.716 1388.59 739.679 1389.46 746.231C1391.15 758.953 1391.89 751.279 1384.85 754.658C1377.92 757.991 1394.36 782.814 1377.91 762.657M1374.31 686.871C1376.72 686.174 1385.37 693.723 1384.58 696.595C1382.12 705.551 1370.31 685.061 1377.44 701.636C1380.84 709.539 1370.96 700.043 1376.03 713.341C1380.41 724.806 1375.13 718.74 1370.86 723.799M1360.72 692.719C1359.11 689.897 1348.78 686.761 1350.22 690.79C1351.1 693.253 1358.55 706.18 1355.6 707.452C1351.28 709.307 1338.94 698.017 1348.5 709.254C1359.35 722.013 1345.68 710.209 1348.05 715.711C1351.79 724.402 1346.01 732.043 1346.35 732.556C1360.14 753.574 1340.19 736.85 1345.33 746.42C1351.19 757.335 1355.57 772.266 1339.84 779.032M1317.56 682.283C1314.24 676.451 1301.51 676.433 1310.98 685.293C1311.78 686.046 1323.78 697.511 1320.73 698.819C1318.82 699.644 1308.86 690.217 1309.43 692.939C1310.65 698.695 1317.88 703.048 1318.57 708.344C1318.67 709.132 1309.94 707.707 1312.68 715.888C1314.35 720.884 1306.63 715.981 1309.17 721.874C1310.06 723.94 1319.98 734.271 1314.26 734.542C1305.49 734.959 1329.3 764.199 1314.74 754.385C1297.6 742.826 1307.3 760.689 1304.08 759.15C1296.5 755.527 1302.11 788.702 1292.8 767.047M1284.55 702.927C1280.1 687.571 1281.8 703.938 1282.09 704.701C1290.51 726.77 1271.58 695.239 1281.07 717.312C1284.19 724.556 1281.5 726.195 1285.23 742.376C1286.66 748.584 1293.68 758.793 1287.82 761.31C1269.23 769.308 1291.36 767.444 1286.69 786.143C1286.4 787.312 1283.9 802.912 1283.89 802.925C1278.63 807.215 1288.2 819.14 1282.03 818.582C1269.97 817.492 1289.36 829.355 1278.16 833.313C1274.06 834.763 1289.49 842.939 1276.48 848.539C1267.77 852.283 1284.66 871 1285.9 874.2C1287.36 877.946 1278.46 875.718 1277.12 875.831C1272.95 876.184 1283.46 885.865 1279.31 886.344C1262.64 888.266 1285.16 894.568 1280.19 896.707C1276.47 898.307 1257.65 885.974 1252.92 884.091M1217.65 667.259C1206.65 670.446 1231.89 682.447 1216.97 676.502C1209.67 673.593 1232.55 697.751 1224.75 698.754C1214.7 700.047 1224.5 708.099 1220.74 716.055C1218.67 720.434 1224.97 725.956 1219.81 729.703C1214.25 733.733 1211.13 732.337 1213.86 740.853C1218.37 754.914 1205.47 738.078 1204.29 748.553C1203.22 757.978 1212.23 769.767 1196.02 766.788M1183.06 669.249C1170.7 673.012 1181.44 679.47 1181.32 689.333C1181.19 699.694 1175.18 688.968 1171 691.981C1168.77 693.59 1185.91 709.437 1178.32 710.671C1172.98 711.54 1185.47 727.276 1186.9 730.611C1190.61 739.223 1178.77 730.99 1175.63 734.383C1170.71 739.709 1184.39 767.246 1178.53 771.087C1172.58 774.998 1170.73 773.506 1175.74 781.24C1182.63 791.856 1176.37 785.012 1172.26 790.616C1167.79 796.702 1184.03 805.675 1182 810.77C1179.79 816.303 1167.35 803.19 1172.25 816.398C1175.32 824.68 1166.64 825.845 1170.2 834.107C1176.36 848.435 1165.68 848.424 1165.41 837.957M1162.48 681.325C1161.03 677.964 1163.5 673.258 1161.19 670.423C1159.22 668.013 1152.68 673.207 1153.79 676.112C1156.07 682.054 1156.48 681.362 1153.24 685.656C1149.06 691.211 1162.58 698.935 1160.91 702.229C1157.19 709.557 1147.5 699.377 1149.48 712.696C1150.95 722.636 1148.99 721.033 1141.92 715.945M1116.19 656.124C1117.56 658.535 1125.58 661.517 1122.83 661.146C1121.28 660.938 1112.69 662.326 1115.25 664.762C1125.82 674.802 1106.46 667.577 1111.61 683.337C1114.57 692.426 1105.37 702.158 1108.27 709.296C1114.88 725.511 1126.29 729.632 1105.41 728.431M1088.21 658.494C1085.37 653.835 1092.46 669.213 1092.98 670.407C1094.65 674.287 1084.13 671.966 1081.15 674.957C1080.02 676.093 1084.98 680.944 1085.52 682.206C1087.25 686.222 1081.88 686.182 1080 688.519C1079.6 689.022 1078.83 702.995 1078.94 704.37M1541.54 1053.16C1538.14 1050.15 1531.58 1043.17 1526.09 1043.88C1515.14 1045.29 1524.15 1057.4 1518.93 1067.19C1515.62 1073.41 1509.02 1071.17 1506.45 1079.36C1502.73 1091.19 1506.49 1104.56 1507.56 1116.48C1509.09 1133.51 1512.51 1150.07 1514.23 1166.95C1515.38 1178.19 1522.14 1207.26 1516.39 1216.5C1513.12 1221.75 1505.36 1225.62 1502.14 1231.23M1489.79 1007.76C1492.04 1020.45 1490.59 1027.39 1490.61 1039.63M1494.09 1025.24C1489.36 1042.64 1486.3 1060.19 1482.3 1077.75C1474.65 1111.34 1477.51 1084.28 1470.47 1090.18M1408.19 1020.31C1405.08 1021.21 1397.71 1015.18 1395.83 1019.89C1392.57 1028.07 1400.4 1028.22 1389.89 1034.8C1375.81 1043.61 1382.06 1082.8 1380.86 1095.79C1380.02 1104.92 1375.25 1163.82 1373.37 1141.62M1358.45 1032.03C1356.21 1024.29 1365.62 1033.96 1365.1 1034.18C1357.89 1037.29 1349.67 1026.6 1355.35 1039.81C1360.24 1051.17 1336.3 1063.76 1352.28 1070.13M1348.4 1068.58C1343.96 1071.18 1348.5 1084.41 1348.57 1088.55C1348.99 1111.55 1336.9 1122.31 1333.69 1145.08C1332.18 1155.74 1336.38 1173.2 1327.67 1180.61C1318.87 1188.09 1318.22 1173.74 1317.44 1168.9M1327.75 1035.57C1327.23 1034.95 1326.78 1034.41 1326.4 1033.94M1326.4 1033.94C1322.46 1029.11 1325.44 1031.68 1326.4 1033.94ZM1326.4 1033.94C1327.12 1035.66 1326.68 1037.2 1321.14 1035.19C1312.58 1032.08 1329.54 1050.73 1324.62 1049.09C1314.25 1045.66 1318.43 1043.29 1316.16 1055.24C1313.56 1068.93 1308.33 1068.28 1300.21 1076.42M1295.42 1275.04C1281.38 1248.25 1287.08 1286.28 1278.54 1279.08C1274.97 1276.06 1284.69 1288.37 1285.36 1289.93C1287.65 1295.24 1271.66 1277.12 1269.65 1282.54C1265.38 1294.08 1265.95 1308.87 1263.62 1320.94C1259.85 1340.44 1275.91 1358.9 1268.64 1377.14C1265.08 1386.06 1261.88 1445.02 1260.64 1418.89" stroke="#FFFBFB" stroke-width="3" stroke-linecap="round"/>
<path d="M711.228 354.979C712.078 356.427 677.881 345.244 665.813 344.075C655.461 343.071 625.753 354.725 635.306 350.616M667.133 346.068C666.966 345.679 665.239 350.075 665.1 350.492C661.754 360.466 658.903 370.718 655.908 380.81C652.179 393.373 650.372 404.403 649.406 417.319C649.106 421.32 649.388 425.761 648.727 429.726C648.235 432.681 643.554 442.828 649.198 436.621M681.865 379.154C680.822 379.602 680.65 380.422 680.249 381.457C676.756 390.479 674.528 400.28 673.165 409.843C672.093 417.358 671.483 424.852 669.901 432.289C668.919 436.904 669.518 435.456 671.403 432.558M698.918 393.276C692.671 401.671 691.039 414.895 689.119 424.826C688.112 430.037 686.846 435.339 686.703 440.67C686.648 442.688 687.572 436.405 687.659 435.546M691.312 421.997C691.628 421.862 690.631 422.093 690.289 422.133C686.645 422.553 682.387 420.814 679.31 419.037C675.523 416.852 673.57 415.809 677.035 413.169M708.441 402.653C708.676 403.763 707.746 405.285 707.446 406.269C705.063 414.083 703.989 422.222 702.95 430.298C702.461 434.103 701.321 437.818 700.775 441.547C700.533 443.197 702.566 438.731 703.371 437.27M736.497 407.551C734.665 403.292 729.76 404.732 726.585 407.129C723.517 409.445 720.888 413.003 720.14 416.832C719.14 421.951 726.865 419.011 729.45 419.204C740.386 420.022 734.431 430.91 731.372 435.982C728.172 441.287 722.464 444.073 716.449 444.729C712.248 445.188 714.116 443.184 716.258 441.707M824.795 397.965C829.205 396.068 826.571 389.853 822.052 389.934C812.141 390.111 795.838 416.852 804.997 420.156C812.762 422.957 818.457 424.464 823.683 431.586C828.732 438.467 827.636 445.695 820.565 450.827C813.621 455.868 805.693 453.279 798.508 450.107C791.058 446.817 789.857 444.963 795.676 439.55M839.042 413.203C836.059 420.688 838.456 430.804 838.606 438.461C838.675 441.978 836.61 469.801 841.572 454.848M856.576 420.19C856.929 421.347 856.488 422.725 856.364 423.89C855.277 434.091 855.703 444.425 855.924 454.657C856.008 458.524 857.411 469.814 855.882 466.261C855.087 464.412 855.998 460.848 856.113 458.85M854.856 444.006C852.229 443.252 834.51 446.776 843.308 442.991M876.585 426.967C874.578 422.968 871.197 426.787 869.99 429.519C867.067 436.139 865.207 464.722 879.654 456.51C887.886 451.83 893.834 440.131 890.662 430.883C887.86 422.716 879.728 417.263 873.281 423.26M900.494 420.956C900.109 420.063 899.215 423.19 899.088 423.65C896.418 433.354 895.755 451.764 901.864 460.346C907.016 467.583 915.891 443.097 916.323 441.971C920.273 431.684 922.118 420.437 926.767 410.509M933.476 416.169C932.657 421.831 932.678 427.592 932.004 433.278C931.049 441.334 928.216 449.989 929.03 458.156C929.852 466.388 943.362 454.386 946.514 452.439M953.903 427.894C953.474 426.896 953.825 428.772 953.819 429.023C953.633 436.925 951.477 444.887 950.214 452.652C949.293 458.315 947.811 464.909 948.629 470.712C948.697 471.196 949.963 464.051 950.136 462.847M949.274 435.014C951.718 431.255 952.95 428.864 957.942 428.673C963.772 428.451 974.348 430.314 976.515 436.97C980.443 449.036 962.263 462.661 954.071 467.801C948.352 471.39 942.344 473.344 936.743 469.462M1050.49 422.883L1049.44 423.337M1048.98 422.281C1050.37 420.276 1050.31 418.104 1048.71 416.145C1043.61 409.905 1027.81 425.605 1025.17 428.492C1016.04 438.506 1010.77 452.884 1020.49 464.287C1025.19 469.81 1052.23 476.056 1050.69 463.735C1049.71 455.918 1042.16 455.451 1037.64 451.488C1037.28 451.174 1058.12 441.086 1061.25 440.775C1070.51 439.857 1055.71 481.94 1073.8 474.158M1082.8 434.006C1081.84 432.429 1080.94 436.754 1080.85 437.069C1078.1 447.241 1079.02 462.148 1082.39 471.992C1086.06 482.731 1101.44 479.423 1104.88 470.796M1099.58 455.563C1100.13 458.968 1076.07 458.33 1073.18 458.163M1114.19 434.266C1103.5 438.862 1068.8 442.53 1079.49 437.934M1119.18 445.879C1113.71 444.063 1128.43 445.187 1130.03 445.244C1134.92 445.416 1155.13 442.166 1150.42 448.704M1135.48 448.874C1130.29 460.419 1127.77 472.245 1125.47 484.735C1123.87 493.462 1124.85 492.715 1129.65 487.664M1184.83 450.166C1182.91 461.117 1182.43 472.238 1181.28 483.282M1181.28 483.282C1181 485.967 1180.68 488.646 1180.29 491.318C1179.47 496.946 1179.83 494.645 1180.46 490.412C1180.81 488.034 1181.07 485.659 1181.28 483.282ZM1181.28 483.282C1181.72 478.118 1181.88 472.951 1182.1 467.741C1182.21 465.244 1181.78 450.52 1184.23 448.759C1186.43 447.166 1194.35 466.648 1195.17 468.378C1200.07 478.799 1208.73 464.617 1211.91 459.787C1212.65 458.655 1221.48 440.886 1221.35 449.748C1221.14 464.032 1216.46 477.828 1217.3 492.358C1217.78 500.705 1222.54 492.901 1224.27 489.498M1256.06 455.804C1249.88 444.649 1235.09 464.803 1232.33 469.141C1227.68 476.467 1226.15 484.924 1227.5 493.459C1228.92 502.406 1235.93 502.945 1243.45 505.015M1256.1 482.061C1262.97 479.548 1252.34 481.09 1248.66 480.604C1244.6 480.068 1225.73 481.446 1227.57 476.818M1305.71 451.965C1303.12 466.667 1299.21 480.949 1294.92 495.246C1291.55 506.493 1286.82 523.932 1293.41 501.108C1297.42 487.254 1301.79 473.52 1305.75 459.661C1306.89 455.651 1308.31 450.413 1312.14 448.016C1319.97 443.121 1321.59 448.461 1322.18 456.001C1323.44 472.222 1326.99 488.189 1326.37 504.518C1326.29 506.489 1326.25 507.682 1326.24 508.3M1326.24 508.3C1326.22 509.084 1326.23 508.945 1326.24 508.3ZM1326.24 508.3C1326.25 507.083 1326.25 504.065 1325.99 502.037M1323.11 489.516C1317.14 490.89 1300.63 489.969 1299.26 483.512M1381.32 461.974C1381.35 461.591 1381.72 456.859 1381.32 459.057C1379.48 469.018 1378.78 479.278 1377.94 489.35C1377.45 495.379 1379.71 518.513 1369.54 519.097C1365.82 519.312 1362.3 517.682 1359.86 514.852C1354.32 508.417 1358.5 506.673 1360.55 500.934M1407.45 482.009C1407.22 481.594 1406.96 481.25 1406.68 480.969M1406.68 480.969C1404.81 479.087 1401.95 480.09 1400.11 482.184M1406.68 480.969C1409.67 481.085 1412.56 482.149 1414.81 484.405C1424.07 493.693 1419.78 520.796 1403.56 518.851C1387.21 516.89 1393.28 491.429 1399.69 482.707C1399.82 482.526 1399.96 482.352 1400.11 482.184M1406.68 480.969C1404.47 480.883 1402.2 481.322 1400.11 482.184M1400.11 482.184C1396.52 483.667 1393.46 486.402 1392.07 489.876M1454.68 475.457C1446.17 480.825 1445.93 502.664 1444.34 510.899C1441.95 523.387 1441.39 526.422 1445.22 514.553M1434.46 477.898C1440.36 471.762 1479.29 465.595 1476.34 476.702C1473.66 486.8 1463.21 493.709 1454.53 497.899C1453.37 498.461 1437.93 503.485 1444.08 502.046C1453.06 499.948 1462.57 498.083 1471.19 502.546C1478.1 506.117 1475.66 511.988 1470.51 515.977C1464.75 520.435 1423.45 533.271 1435.27 517.584M1515.1 525.776C1514.8 525.535 1514.54 525.322 1514.31 525.138M1514.31 525.138C1512.73 523.861 1512.73 523.937 1512.12 524.847M1514.31 525.138C1514.51 524.454 1514.24 523.718 1512.9 523.734C1512.5 523.738 1512.15 523.827 1511.87 523.968M1514.31 525.138C1514.09 525.928 1513.27 526.65 1512.8 526.073C1512.55 525.772 1512.3 525.317 1512.12 524.847M1512.12 524.847C1511.94 525.114 1511.72 525.452 1511.38 525.848C1510.49 526.904 1510.37 524.712 1511.87 523.968M1512.12 524.847C1512.01 524.548 1511.92 524.243 1511.87 523.968M1511.87 523.968C1511.75 523.265 1511.92 522.76 1512.69 523.063M1564.56 498.246C1569.14 494.068 1572.34 489.402 1566.82 483.79C1557.84 474.653 1547.14 490.756 1544.91 497.803C1539.61 514.587 1554.46 509.96 1559.02 499.681M1559.02 499.681C1559.07 499.585 1559.11 499.49 1559.15 499.393C1561.01 494.956 1560.18 496.448 1559.02 499.681ZM1559.02 499.681C1557.88 502.868 1556.41 507.748 1556.89 510.303C1559.26 522.965 1573.2 516.389 1578.01 509.143C1587.79 494.406 1582.21 470.574 1562.4 469.15C1536.16 467.264 1510.08 513.99 1520.5 536.382C1528.01 552.521 1554.1 534.984 1561.85 528.463C1574.15 518.124 1582.8 504.67 1591.72 491.57M1617.08 498.175C1625.56 479.767 1592.82 493.427 1598.03 502.686C1603.32 512.097 1624.97 516.785 1606.16 525.805C1598.05 529.699 1580.19 533.008 1589.04 520.245M1631.72 503.135C1625.02 512.906 1631.01 527.302 1624.12 537.333C1622.02 540.395 1617.05 540.952 1613.95 539.208C1607.18 535.409 1613.32 527.368 1615.15 522.775M1648.49 515.94C1645.44 514.514 1647.44 510.317 1649.24 508.318C1659.2 497.233 1659.11 517.681 1656.36 523.256C1653.56 528.922 1648.77 532.091 1644.29 536.233C1640.71 539.543 1653.19 537.458 1654.26 537.435C1662.59 537.26 1671.49 539.522 1679.6 538.835" stroke="#030943" stroke-width="3" stroke-linecap="round"/>
</svg>
