<svg width="609" height="115" viewBox="0 0 609 115" fill="none" xmlns="http://www.w3.org/2000/svg">
<path d="M29.589 4.14832C35.1094 4.14832 40.1781 4.9011 44.7952 6.40666C49.5126 7.81185 53.5776 9.96981 56.9902 12.8806C60.5031 15.6909 63.2131 19.2039 65.1202 23.4194C67.1276 27.5346 68.1313 32.3524 68.1313 37.8728C68.1313 42.1887 67.4789 46.4043 66.174 50.5194C64.9696 54.6346 62.912 58.3985 60.0013 61.8111C57.0905 65.1233 53.2765 67.8333 48.559 69.9411C43.942 71.9485 38.2209 72.9522 31.3957 72.9522H15.2863V113H0.682375V4.14832H29.589ZM31.0946 58.9506C35.4105 58.9506 38.9737 58.2981 41.784 56.9933C44.6948 55.6885 46.9531 54.0324 48.559 52.025C50.165 49.9172 51.3192 47.6589 52.0218 45.25C52.7244 42.8411 53.0757 40.5828 53.0757 38.475C53.0757 36.2668 52.6742 34.0085 51.8713 31.7C51.1687 29.2911 49.9642 27.083 48.2579 25.0755C46.652 23.0681 44.494 21.412 41.784 20.1072C39.1744 18.8024 35.9626 18.15 32.1485 18.15H15.2863V58.9506H31.0946ZM49.0107 67.2311L77.4657 113H60.6035L31.6968 67.6828L49.0107 67.2311ZM99.9255 4.14832H170.687V18.15H114.529V51.2722H164.664V65.2739H114.529V98.9983H172.794V113H99.9255V4.14832ZM254.447 23.57C250.734 21.663 246.669 20.0068 242.252 18.6017C237.836 17.1965 233.52 16.4939 229.305 16.4939C223.483 16.4939 218.816 17.8489 215.303 20.5589C211.89 23.2689 210.184 26.8822 210.184 31.3989C210.184 34.8115 211.288 37.7222 213.496 40.1311C215.704 42.4396 218.615 44.447 222.228 46.1533C225.842 47.8596 229.606 49.4656 233.52 50.9711C236.933 52.2759 240.295 53.7313 243.607 55.3372C246.92 56.9431 249.88 58.9506 252.49 61.3594C255.2 63.7683 257.308 66.7293 258.813 70.2422C260.419 73.7552 261.222 78.1213 261.222 83.3406C261.222 89.0617 259.767 94.2809 256.856 98.9983C254.046 103.716 249.981 107.429 244.661 110.139C239.342 112.849 233.018 114.204 225.691 114.204C220.873 114.204 216.256 113.652 211.84 112.548C207.524 111.444 203.509 110.039 199.796 108.333C196.082 106.526 192.77 104.669 189.859 102.762L196.333 91.32C198.742 93.0263 201.502 94.6824 204.613 96.2883C207.725 97.7939 210.987 99.0485 214.4 100.052C217.812 100.956 221.124 101.407 224.336 101.407C227.749 101.407 231.111 100.805 234.423 99.6006C237.836 98.2957 240.646 96.3385 242.855 93.7289C245.063 91.1193 246.167 87.6565 246.167 83.3406C246.167 79.6268 245.163 76.5656 243.156 74.1567C241.249 71.6474 238.689 69.5396 235.477 67.8333C232.265 66.0267 228.853 64.4207 225.24 63.0156C221.827 61.7107 218.364 60.3056 214.851 58.8C211.338 57.1941 208.076 55.287 205.065 53.0789C202.054 50.7704 199.645 47.96 197.838 44.6478C196.032 41.3356 195.128 37.3207 195.128 32.6033C195.128 26.8822 196.483 21.9139 199.193 17.6983C202.004 13.3824 205.818 10.02 210.636 7.6111C215.453 5.10185 220.974 3.74685 227.197 3.5461C234.223 3.5461 240.395 4.39925 245.715 6.10555C251.135 7.81185 255.903 9.91962 260.018 12.4289L254.447 23.57ZM298.866 74.4578C298.866 79.3759 300.02 83.7922 302.329 87.7067C304.738 91.5207 307.899 94.5319 311.814 96.74C315.728 98.9481 320.144 100.052 325.063 100.052C330.181 100.052 334.748 98.9481 338.763 96.74C342.778 94.5319 345.94 91.5207 348.248 87.7067C350.557 83.7922 351.711 79.3759 351.711 74.4578V4.14832H366.014V74.9094C366.014 82.8387 364.157 89.7643 360.443 95.6861C356.83 101.608 351.912 106.175 345.689 109.387C339.566 112.599 332.691 114.204 325.063 114.204C317.434 114.204 310.559 112.599 304.436 109.387C298.314 106.175 293.446 101.608 289.833 95.6861C286.219 89.7643 284.413 82.8387 284.413 74.9094V4.14832H298.866V74.4578ZM395.891 113V0.685547H396.041L453.102 81.6844L446.929 80.48L503.839 0.685547H504.14V113H489.687V33.8078L490.59 41.185L449.488 99.2994H449.187L407.483 41.185L410.043 34.41V113H395.891ZM535.419 4.14832H606.18V18.15H550.023V51.2722H600.158V65.2739H550.023V98.9983H608.288V113H535.419V4.14832Z" fill="white"/>
</svg>
