<svg width="656" height="76" viewBox="0 0 656 76" fill="none" xmlns="http://www.w3.org/2000/svg">
<path d="M18.4321 3.26399C21.9521 3.26399 25.1841 3.74399 28.1281 4.704C31.1361 5.6 33.7281 6.976 35.9041 8.832C38.1441 10.624 39.8721 12.864 41.0881 15.552C42.3681 18.176 43.0081 21.248 43.0081 24.768C43.0081 27.52 42.5921 30.208 41.7601 32.832C40.9921 35.456 39.6801 37.856 37.8241 40.032C35.9681 42.144 33.5361 43.872 30.5281 45.216C27.5841 46.496 23.9361 47.136 19.5841 47.136H9.31211V72.672H0.000113487V3.26399H18.4321ZM19.3921 38.208C22.1441 38.208 24.4161 37.792 26.2081 36.96C28.0641 36.128 29.5041 35.072 30.5281 33.792C31.5521 32.448 32.2881 31.008 32.7361 29.472C33.1841 27.936 33.4081 26.496 33.4081 25.152C33.4081 23.744 33.1521 22.304 32.6401 20.832C32.1921 19.296 31.4241 17.888 30.3361 16.608C29.3121 15.328 27.9361 14.272 26.2081 13.44C24.5441 12.608 22.4961 12.192 20.0641 12.192H9.31211V38.208H19.3921ZM30.8161 43.488L48.9601 72.672H38.2081L19.7761 43.776L30.8161 43.488ZM63.2814 3.26399H108.401V12.192H72.5934V33.312H104.561V42.24H72.5934V63.744H109.745V72.672H63.2814V3.26399ZM161.81 15.648C159.442 14.432 156.85 13.376 154.034 12.48C151.218 11.584 148.466 11.136 145.778 11.136C142.066 11.136 139.09 12 136.85 13.728C134.674 15.456 133.586 17.76 133.586 20.64C133.586 22.816 134.29 24.672 135.698 26.208C137.106 27.68 138.962 28.96 141.266 30.048C143.57 31.136 145.97 32.16 148.466 33.12C150.642 33.952 152.786 34.88 154.898 35.904C157.01 36.928 158.898 38.208 160.562 39.744C162.29 41.28 163.634 43.168 164.594 45.408C165.618 47.648 166.13 50.432 166.13 53.76C166.13 57.408 165.202 60.736 163.346 63.744C161.554 66.752 158.962 69.12 155.57 70.848C152.178 72.576 148.146 73.44 143.474 73.44C140.402 73.44 137.458 73.088 134.642 72.384C131.89 71.68 129.33 70.784 126.962 69.696C124.594 68.544 122.482 67.36 120.626 66.144L124.754 58.848C126.29 59.936 128.05 60.992 130.034 62.016C132.018 62.976 134.098 63.776 136.274 64.416C138.45 64.992 140.562 65.28 142.61 65.28C144.786 65.28 146.93 64.896 149.042 64.128C151.218 63.296 153.01 62.048 154.418 60.384C155.826 58.72 156.53 56.512 156.53 53.76C156.53 51.392 155.89 49.44 154.61 47.904C153.394 46.304 151.762 44.96 149.714 43.872C147.666 42.72 145.49 41.696 143.186 40.8C141.01 39.968 138.802 39.072 136.562 38.112C134.322 37.088 132.242 35.872 130.322 34.464C128.402 32.992 126.866 31.2 125.714 29.088C124.562 26.976 123.986 24.416 123.986 21.408C123.986 17.76 124.85 14.592 126.578 11.904C128.37 9.15199 130.802 7.00799 133.874 5.47199C136.946 3.87199 140.466 3.00799 144.434 2.87999C148.914 2.87999 152.85 3.42399 156.242 4.51199C159.698 5.59999 162.738 6.94399 165.362 8.54399L161.81 15.648ZM190.133 48.096C190.133 51.232 190.869 54.048 192.341 56.544C193.877 58.976 195.893 60.896 198.389 62.304C200.885 63.712 203.701 64.416 206.837 64.416C210.101 64.416 213.013 63.712 215.573 62.304C218.133 60.896 220.149 58.976 221.621 56.544C223.093 54.048 223.829 51.232 223.829 48.096V3.26399H232.949V48.384C232.949 53.44 231.765 57.856 229.397 61.632C227.093 65.408 223.957 68.32 219.989 70.368C216.085 72.416 211.701 73.44 206.837 73.44C201.973 73.44 197.589 72.416 193.685 70.368C189.781 68.32 186.677 65.408 184.373 61.632C182.069 57.856 180.917 53.44 180.917 48.384V3.26399H190.133V48.096ZM252 72.672V1.05599H252.096L288.48 52.704L284.544 51.936L320.832 1.05599H321.024V72.672H311.808V22.176L312.384 26.88L286.176 63.936H285.984L259.392 26.88L261.024 22.56V72.672H252ZM340.969 3.26399H386.089V12.192H350.281V33.312H382.249V42.24H350.281V63.744H387.433V72.672H340.969V3.26399ZM488.497 72.672C487.985 72.672 487.121 72.672 485.905 72.672C484.753 72.672 483.537 72.672 482.257 72.672C481.041 72.672 479.985 72.672 479.089 72.672C478.193 72.672 477.745 72.672 477.745 72.672L444.433 28.608C443.857 27.712 443.185 26.592 442.417 25.248C441.649 23.904 440.977 22.432 440.401 20.832C439.889 19.168 439.633 17.472 439.633 15.744C439.633 12.992 440.305 10.432 441.649 8.06399C442.993 5.63199 444.913 3.67999 447.409 2.20799C449.969 0.735994 453.073 -5.72205e-06 456.721 -5.72205e-06C460.497 -5.72205e-06 463.857 0.735994 466.801 2.20799C469.809 3.67999 472.273 5.408 474.193 7.392L469.489 13.632C467.569 11.84 465.649 10.432 463.729 9.40799C461.873 8.31999 460.017 7.77599 458.161 7.77599C455.345 7.77599 453.137 8.63999 451.537 10.368C450.001 12.032 449.233 14.048 449.233 16.416C449.233 17.568 449.457 18.752 449.905 19.968C450.417 21.184 450.897 22.208 451.345 23.04C451.857 23.872 452.177 24.416 452.305 24.672L488.497 72.672ZM453.361 39.264C451.569 39.264 449.809 39.616 448.081 40.32C446.353 41.024 444.817 41.984 443.473 43.2C442.129 44.416 441.041 45.856 440.209 47.52C439.441 49.12 439.057 50.848 439.057 52.704C439.057 55.2 439.697 57.408 440.977 59.328C442.321 61.184 444.081 62.656 446.257 63.744C448.497 64.768 450.929 65.28 453.553 65.28C455.985 65.28 458.129 64.928 459.985 64.224C461.841 63.456 463.441 62.464 464.785 61.248C466.129 59.968 467.121 58.592 467.761 57.12L473.713 62.304C471.985 65.504 469.297 68.192 465.649 70.368C462.065 72.544 457.649 73.632 452.401 73.632C448.049 73.632 444.145 72.736 440.689 70.944C437.233 69.152 434.481 66.72 432.433 63.648C430.449 60.576 429.457 57.088 429.457 53.184C429.457 50.176 430.129 47.392 431.473 44.832C432.817 42.272 434.609 40.064 436.849 38.208C439.153 36.288 441.681 34.784 444.433 33.696C447.249 32.608 450.161 32.032 453.169 31.968L453.361 39.264ZM477.457 31.968H486.001L474.769 60.768L468.049 56.544L477.457 31.968ZM584.882 67.488C583.73 68.256 582.162 69.12 580.178 70.08C578.194 71.04 575.858 71.84 573.17 72.48C570.546 73.12 567.666 73.44 564.53 73.44C559.154 73.376 554.29 72.416 549.938 70.56C545.65 68.704 542.002 66.176 538.994 62.976C535.986 59.776 533.65 56.096 531.986 51.936C530.386 47.712 529.586 43.232 529.586 38.496C529.586 33.312 530.418 28.544 532.082 24.192C533.81 19.776 536.21 15.968 539.282 12.768C542.354 9.504 545.97 6.976 550.13 5.184C554.354 3.392 558.962 2.496 563.954 2.496C568.114 2.496 571.89 3.07199 575.282 4.22399C578.674 5.31199 581.586 6.62399 584.018 8.15999L580.274 16.8C578.354 15.52 576.018 14.304 573.266 13.152C570.578 12 567.57 11.424 564.242 11.424C560.85 11.424 557.65 12.096 554.642 13.44C551.634 14.784 548.978 16.672 546.674 19.104C544.37 21.536 542.546 24.384 541.202 27.648C539.922 30.848 539.282 34.304 539.282 38.016C539.282 41.792 539.858 45.312 541.01 48.576C542.226 51.776 543.922 54.56 546.098 56.928C548.338 59.296 551.026 61.152 554.162 62.496C557.298 63.84 560.818 64.512 564.722 64.512C568.242 64.512 571.378 63.968 574.13 62.88C576.882 61.792 579.154 60.576 580.946 59.232L584.882 67.488ZM605.555 3.26399L628.403 60.672L623.123 59.616L644.819 3.26399H655.667L625.043 75.84L594.515 3.26399H605.555Z" fill="white"/>
</svg>
