<svg width="609" height="115" viewBox="0 0 609 115" fill="none" xmlns="http://www.w3.org/2000/svg">
<path d="M44.7952 6.40666L44.3301 7.83276L44.3485 7.83874L44.3669 7.84424L44.7952 6.40666ZM56.9902 12.8806L56.0167 14.0218L56.0347 14.0371L56.0531 14.0519L56.9902 12.8806ZM65.1202 23.4194L63.7535 24.0377L63.7625 24.0575L63.772 24.0771L65.1202 23.4194ZM66.174 50.5194L64.7442 50.0661L64.7391 50.082L64.7344 50.0981L66.174 50.5194ZM60.0013 61.8111L61.128 62.8013L61.1353 62.793L61.1425 62.7845L60.0013 61.8111ZM48.559 69.9411L49.1571 71.3167L49.1641 71.3137L49.171 71.3106L48.559 69.9411ZM15.2863 72.9522V71.4522H13.7863V72.9522H15.2863ZM15.2863 113V114.5H16.7863V113H15.2863ZM0.682375 113H-0.817625V114.5H0.682375V113ZM0.682375 4.14832V2.64832H-0.817625V4.14832H0.682375ZM41.784 56.9933L41.1705 55.6246L41.1614 55.6286L41.1524 55.6328L41.784 56.9933ZM48.559 52.025L49.7303 52.962L49.7414 52.9482L49.7522 52.9341L48.559 52.025ZM52.0218 45.25L53.4618 45.67L53.4618 45.67L52.0218 45.25ZM51.8713 31.7L50.4313 32.12L50.442 32.1567L50.4545 32.1928L51.8713 31.7ZM48.2579 25.0755L47.0866 26.0126L47.1006 26.03L47.115 26.047L48.2579 25.0755ZM41.784 20.1072L41.1132 21.4489L41.1232 21.4539L41.1333 21.4587L41.784 20.1072ZM15.2863 18.15V16.65H13.7863V18.15H15.2863ZM15.2863 58.9506H13.7863V60.4506H15.2863V58.9506ZM49.0107 67.2311L50.2846 66.4391L49.8308 65.7092L48.9716 65.7316L49.0107 67.2311ZM77.4657 113V114.5H80.1645L78.7396 112.208L77.4657 113ZM60.6035 113L59.3389 113.807L59.7811 114.5H60.6035V113ZM31.6968 67.6828L31.6577 66.1833L29.0053 66.2525L30.4322 68.4894L31.6968 67.6828ZM29.589 5.64832C34.9727 5.64832 39.8822 6.38234 44.3301 7.83276L45.2602 4.98057C40.474 3.41987 35.2461 2.64832 29.589 2.64832V5.64832ZM44.3669 7.84424C48.9036 9.1956 52.7782 11.2595 56.0167 14.0218L57.9636 11.7393C54.377 8.68014 50.1215 6.4281 45.2234 4.96909L44.3669 7.84424ZM56.0531 14.0519C59.3759 16.7101 61.9411 20.0314 63.7535 24.0377L66.4868 22.8012C64.4851 18.3763 61.6304 14.6718 57.9272 11.7092L56.0531 14.0519ZM63.772 24.0771C65.661 27.9496 66.6313 32.5341 66.6313 37.8728H69.6313C69.6313 32.1707 68.5941 27.1197 66.4683 22.7618L63.772 24.0771ZM66.6313 37.8728C66.6313 42.0348 66.0025 46.0975 64.7442 50.0661L67.6039 50.9728C68.9552 46.711 69.6313 42.3426 69.6313 37.8728H66.6313ZM64.7344 50.0981C63.5921 54.0009 61.64 57.5784 58.86 60.8377L61.1425 62.7845C64.1841 59.2186 66.3471 55.2683 67.6137 50.9408L64.7344 50.0981ZM58.8745 60.8209C56.1285 63.9457 52.5012 66.5368 47.9471 68.5716L49.171 71.3106C54.0517 69.1299 58.0525 66.301 61.128 62.8013L58.8745 60.8209ZM47.961 68.5655C43.587 70.4672 38.0841 71.4522 31.3957 71.4522V74.4522C38.3577 74.4522 44.297 73.4298 49.1571 71.3167L47.961 68.5655ZM31.3957 71.4522H15.2863V74.4522H31.3957V71.4522ZM13.7863 72.9522V113H16.7863V72.9522H13.7863ZM15.2863 111.5H0.682375V114.5H15.2863V111.5ZM2.18238 113V4.14832H-0.817625V113H2.18238ZM0.682375 5.64832H29.589V2.64832H0.682375V5.64832ZM31.0946 60.4506C35.5484 60.4506 39.3456 59.7792 42.4157 58.3538L41.1524 55.6328C38.6017 56.8171 35.2726 57.4506 31.0946 57.4506V60.4506ZM42.3976 58.3621C45.4745 56.9828 47.9439 55.1951 49.7303 52.962L47.3877 51.088C45.9624 52.8697 43.915 54.3942 41.1705 55.6246L42.3976 58.3621ZM49.7522 52.9341C51.4634 50.6881 52.7048 48.2654 53.4618 45.67L50.5818 44.83C49.9336 47.0523 48.8665 49.1463 47.3659 51.1159L49.7522 52.9341ZM53.4618 45.67C54.1969 43.1498 54.5757 40.7489 54.5757 38.475H51.5757C51.5757 40.4166 51.252 42.5324 50.5818 44.83L53.4618 45.67ZM54.5757 38.475C54.5757 36.0821 54.1402 33.6573 53.288 31.2072L50.4545 32.1928C51.2082 34.3597 51.5757 36.4516 51.5757 38.475H54.5757ZM53.3113 31.28C52.5466 28.6583 51.2369 26.2641 49.4008 24.1041L47.115 26.047C48.6916 27.9018 49.7907 29.9239 50.4313 32.12L53.3113 31.28ZM49.4292 24.1385C47.6611 21.9283 45.3129 20.1415 42.4348 18.7557L41.1333 21.4587C43.6752 22.6826 45.6429 24.208 47.0866 26.0126L49.4292 24.1385ZM42.4549 18.7656C39.583 17.3297 36.1266 16.65 32.1485 16.65V19.65C35.7986 19.65 38.7658 20.2751 41.1132 21.4489L42.4549 18.7656ZM32.1485 16.65H15.2863V19.65H32.1485V16.65ZM13.7863 18.15V58.9506H16.7863V18.15H13.7863ZM15.2863 60.4506H31.0946V57.4506H15.2863V60.4506ZM47.7368 68.0231L76.1918 113.792L78.7396 112.208L50.2846 66.4391L47.7368 68.0231ZM77.4657 111.5H60.6035V114.5H77.4657V111.5ZM61.8681 112.193L32.9614 66.8761L30.4322 68.4894L59.3389 113.807L61.8681 112.193ZM31.7359 69.1823L49.0498 68.7306L48.9716 65.7316L31.6577 66.1833L31.7359 69.1823ZM99.9255 4.14832V2.64832H98.4255V4.14832H99.9255ZM170.687 4.14832H172.187V2.64832H170.687V4.14832ZM170.687 18.15V19.65H172.187V18.15H170.687ZM114.529 18.15V16.65H113.029V18.15H114.529ZM114.529 51.2722H113.029V52.7722H114.529V51.2722ZM164.664 51.2722H166.164V49.7722H164.664V51.2722ZM164.664 65.2739V66.7739H166.164V65.2739H164.664ZM114.529 65.2739V63.7739H113.029V65.2739H114.529ZM114.529 98.9983H113.029V100.498H114.529V98.9983ZM172.794 98.9983H174.294V97.4983H172.794V98.9983ZM172.794 113V114.5H174.294V113H172.794ZM99.9255 113H98.4255V114.5H99.9255V113ZM99.9255 5.64832H170.687V2.64832H99.9255V5.64832ZM169.187 4.14832V18.15H172.187V4.14832H169.187ZM170.687 16.65H114.529V19.65H170.687V16.65ZM113.029 18.15V51.2722H116.029V18.15H113.029ZM114.529 52.7722H164.664V49.7722H114.529V52.7722ZM163.164 51.2722V65.2739H166.164V51.2722H163.164ZM164.664 63.7739H114.529V66.7739H164.664V63.7739ZM113.029 65.2739V98.9983H116.029V65.2739H113.029ZM114.529 100.498H172.794V97.4983H114.529V100.498ZM171.294 98.9983V113H174.294V98.9983H171.294ZM172.794 111.5H99.9255V114.5H172.794V111.5ZM101.426 113V4.14832H98.4255V113H101.426ZM254.447 23.57L253.762 24.9043L255.111 25.597L255.789 24.2408L254.447 23.57ZM215.303 20.5589L214.387 19.3712L214.378 19.3777L214.37 19.3842L215.303 20.5589ZM213.496 40.1311L212.39 41.1447L212.401 41.1564L212.412 41.1679L213.496 40.1311ZM222.228 46.1533L222.869 44.797L222.869 44.797L222.228 46.1533ZM233.52 50.9711L232.982 52.3711L232.984 52.3722L233.52 50.9711ZM252.49 61.3594L251.473 62.4616L251.483 62.4712L251.494 62.4806L252.49 61.3594ZM258.813 70.2422L257.435 70.8331L257.442 70.8496L257.449 70.8659L258.813 70.2422ZM256.856 98.9983L255.58 98.2107L255.574 98.2206L255.568 98.2306L256.856 98.9983ZM244.661 110.139L245.342 111.476L244.661 110.139ZM211.84 112.548L211.468 114.002L211.476 114.004L211.84 112.548ZM199.796 108.333L199.139 109.682L199.154 109.689L199.169 109.696L199.796 108.333ZM189.859 102.762L188.553 102.024L187.861 103.247L189.037 104.017L189.859 102.762ZM196.333 91.32L197.2 90.096L195.845 89.1362L195.027 90.5813L196.333 91.32ZM204.613 96.2883L203.925 97.6213L203.943 97.6301L203.96 97.6386L204.613 96.2883ZM214.4 100.052L213.976 101.491L213.996 101.497L214.016 101.502L214.4 100.052ZM234.423 99.6006L234.936 101.01L234.948 101.006L234.959 101.002L234.423 99.6006ZM242.855 93.7289L244 94.6978L244 94.6978L242.855 93.7289ZM243.156 74.1567L241.961 75.0643L241.982 75.0911L242.003 75.1169L243.156 74.1567ZM235.477 67.8333L234.742 69.1407L234.758 69.1495L234.774 69.158L235.477 67.8333ZM225.24 63.0156L225.783 61.6175L225.775 61.6145L225.24 63.0156ZM214.851 58.8L214.228 60.1642L214.244 60.1717L214.26 60.1787L214.851 58.8ZM205.065 53.0789L204.152 54.2693L204.165 54.279L204.178 54.2885L205.065 53.0789ZM199.193 17.6983L197.936 16.8798L197.932 16.8872L199.193 17.6983ZM210.636 7.6111L211.306 8.95274L211.318 8.9472L211.329 8.94147L210.636 7.6111ZM227.197 3.5461V2.0461H227.173L227.148 2.04688L227.197 3.5461ZM245.715 6.10555L245.257 7.53389L245.265 7.53632L245.715 6.10555ZM260.018 12.4289L261.359 13.0997L261.976 11.8662L260.799 11.1482L260.018 12.4289ZM255.133 22.2356C251.337 20.2867 247.194 18.6 242.707 17.1723L241.797 20.031C246.143 21.4137 250.13 23.0392 253.762 24.9043L255.133 22.2356ZM242.707 17.1723C238.158 15.7249 233.689 14.9939 229.305 14.9939V17.9939C233.351 17.9939 237.514 18.668 241.797 20.031L242.707 17.1723ZM229.305 14.9939C223.255 14.9939 218.234 16.4034 214.387 19.3712L216.219 21.7466C219.398 19.2944 223.711 17.9939 229.305 17.9939V14.9939ZM214.37 19.3842C210.584 22.3906 208.684 26.444 208.684 31.3989H211.684C211.684 27.3204 213.196 24.1472 216.236 21.7336L214.37 19.3842ZM208.684 31.3989C208.684 35.1685 209.917 38.446 212.39 41.1447L214.602 39.1175C212.659 36.9985 211.684 34.4545 211.684 31.3989H208.684ZM212.412 41.1679C214.775 43.6379 217.849 45.7439 221.588 47.5097L222.869 44.797C219.382 43.1502 216.634 41.2414 214.58 39.0943L212.412 41.1679ZM221.588 47.5097C225.236 49.2326 229.034 50.8529 232.982 52.3711L234.059 49.5711C230.177 48.0782 226.447 46.4867 222.869 44.797L221.588 47.5097ZM232.984 52.3722C236.356 53.6615 239.679 55.0997 242.953 56.6869L244.262 53.9875C240.911 52.3629 237.509 50.8904 234.056 49.57L232.984 52.3722ZM242.953 56.6869C246.137 58.231 248.975 60.1562 251.473 62.4616L253.507 60.2572C250.786 57.7449 247.702 55.6553 244.262 53.9875L242.953 56.6869ZM251.494 62.4806C254.03 64.735 256.011 67.5116 257.435 70.8331L260.192 69.6513C258.605 65.9469 256.37 62.8016 253.487 60.2383L251.494 62.4806ZM257.449 70.8659C258.94 74.1271 259.722 78.265 259.722 83.3406H262.722C262.722 77.9776 261.899 73.3833 260.178 69.6186L257.449 70.8659ZM259.722 83.3406C259.722 88.7929 258.339 93.7379 255.58 98.2107L258.133 99.786C261.194 94.824 262.722 89.3305 262.722 83.3406H259.722ZM255.568 98.2306C252.915 102.684 249.071 106.21 243.98 108.803L245.342 111.476C250.891 108.649 255.177 104.748 258.145 99.766L255.568 98.2306ZM243.98 108.803C238.914 111.384 232.834 112.704 225.691 112.704V115.704C233.202 115.704 239.769 114.315 245.342 111.476L243.98 108.803ZM225.691 112.704C220.989 112.704 216.494 112.166 212.204 111.093L211.476 114.004C216.018 115.139 220.758 115.704 225.691 115.704V112.704ZM212.212 111.095C207.976 110.011 204.047 108.635 200.422 106.97L199.169 109.696C202.972 111.443 207.073 112.877 211.468 114.002L212.212 111.095ZM200.452 106.984C196.785 105.2 193.53 103.374 190.681 101.508L189.037 104.017C192.01 105.965 195.379 107.852 199.139 109.682L200.452 106.984ZM191.164 103.501L197.638 92.0587L195.027 90.5813L188.553 102.024L191.164 103.501ZM195.466 92.544C197.941 94.2974 200.763 95.989 203.925 97.6213L205.301 94.9554C202.241 93.3758 199.542 91.7552 197.2 90.096L195.466 92.544ZM203.96 97.6386C207.148 99.181 210.487 100.465 213.976 101.491L214.823 98.6132C211.487 97.632 208.302 96.4068 205.267 94.9381L203.96 97.6386ZM214.016 101.502C217.541 102.436 220.983 102.907 224.336 102.907V99.9072C221.266 99.9072 218.083 99.4756 214.783 98.6022L214.016 101.502ZM224.336 102.907C227.929 102.907 231.465 102.272 234.936 101.01L233.911 98.1909C230.757 99.3375 227.568 99.9072 224.336 99.9072V102.907ZM234.959 101.002C238.591 99.6129 241.617 97.5138 244 94.6978L241.709 92.76C239.676 95.1632 237.081 96.9786 233.888 98.1995L234.959 101.002ZM244 94.6978C246.492 91.7523 247.667 87.9156 247.667 83.3406H244.667C244.667 87.3974 243.633 90.4862 241.709 92.76L244 94.6978ZM247.667 83.3406C247.667 79.3436 246.58 75.9226 244.308 73.1964L242.003 75.1169C243.746 77.2085 244.667 79.9101 244.667 83.3406H247.667ZM244.35 73.249C242.293 70.5422 239.555 68.3012 236.181 66.5087L234.774 69.158C237.823 70.7781 240.204 72.7526 241.961 75.0643L244.35 73.249ZM236.213 66.526C232.936 64.6829 229.459 63.0471 225.783 61.6175L224.696 64.4136C228.247 65.7944 231.595 67.3705 234.742 69.1407L236.213 66.526ZM225.775 61.6145C222.382 60.3171 218.938 58.9194 215.442 57.4213L214.26 60.1787C217.791 61.6917 221.272 63.1044 224.704 64.4166L225.775 61.6145ZM215.475 57.4358C212.051 55.8708 208.878 54.015 205.952 51.8693L204.178 54.2885C207.274 56.559 210.625 58.5173 214.228 60.1642L215.475 57.4358ZM205.978 51.8885C203.132 49.7066 200.861 47.0568 199.155 43.9295L196.522 45.3661C198.429 48.8632 200.976 51.8341 204.152 54.2693L205.978 51.8885ZM199.155 43.9295C197.495 40.8861 196.628 37.1315 196.628 32.6033H193.628C193.628 37.5099 194.568 41.785 196.522 45.3661L199.155 43.9295ZM196.628 32.6033C196.628 27.128 197.922 22.4502 200.455 18.5095L197.932 16.8872C195.045 21.3776 193.628 26.6364 193.628 32.6033H196.628ZM200.45 18.5168C203.109 14.4347 206.716 11.2481 211.306 8.95274L209.965 6.26946C204.92 8.79185 200.899 12.3301 197.936 16.8798L200.45 18.5168ZM211.329 8.94147C215.92 6.55031 221.214 5.23988 227.245 5.04532L227.148 2.04688C220.734 2.25382 214.987 3.65338 209.943 6.28073L211.329 8.94147ZM227.197 5.0461C234.105 5.0461 240.118 5.88548 245.257 7.53387L246.173 4.67723C240.673 2.91302 234.34 2.0461 227.197 2.0461V5.0461ZM245.265 7.53632C250.589 9.21246 255.242 11.2736 259.237 13.7096L260.799 11.1482C256.563 8.56564 251.681 6.41123 246.166 4.67477L245.265 7.53632ZM258.676 11.7581L253.106 22.8992L255.789 24.2408L261.359 13.0997L258.676 11.7581ZM302.329 87.7067L301.037 88.4686L301.048 88.4883L301.06 88.5077L302.329 87.7067ZM311.814 96.74L311.077 98.0465L311.077 98.0465L311.814 96.74ZM338.763 96.74L339.486 98.0543L339.486 98.0543L338.763 96.74ZM348.248 87.7067L349.531 88.4834L349.536 88.476L349.54 88.4686L348.248 87.7067ZM351.711 4.14832V2.64832H350.211V4.14832H351.711ZM366.014 4.14832H367.514V2.64832H366.014V4.14832ZM360.443 95.6861L359.172 94.8892L359.167 94.897L359.163 94.9048L360.443 95.6861ZM345.689 109.387L345.001 108.054L344.992 108.058L345.689 109.387ZM304.436 109.387L305.133 108.058L305.133 108.058L304.436 109.387ZM289.833 95.6861L291.113 94.9048L291.113 94.9048L289.833 95.6861ZM284.413 4.14832V2.64832H282.913V4.14832H284.413ZM298.866 4.14832H300.366V2.64832H298.866V4.14832ZM297.366 74.4578C297.366 79.6211 298.581 84.3045 301.037 88.4686L303.621 86.9447C301.459 83.28 300.366 79.1307 300.366 74.4578H297.366ZM301.06 88.5077C303.601 92.5308 306.945 95.7159 311.077 98.0465L312.551 95.4335C308.853 93.3478 305.874 90.5107 303.597 86.9057L301.06 88.5077ZM311.077 98.0465C315.237 100.393 319.911 101.552 325.063 101.552V98.5522C320.378 98.5522 316.219 97.5031 312.551 95.4335L311.077 98.0465ZM325.063 101.552C330.404 101.552 335.225 100.398 339.486 98.0543L338.04 95.4257C334.272 97.4983 329.959 98.5522 325.063 98.5522V101.552ZM339.486 98.0543C343.725 95.7229 347.083 92.5292 349.531 88.4834L346.965 86.93C344.797 90.5123 341.831 93.3408 338.04 95.4257L339.486 98.0543ZM349.54 88.4686C351.996 84.3045 353.211 79.6211 353.211 74.4578H350.211C350.211 79.1307 349.117 83.28 346.956 86.9447L349.54 88.4686ZM353.211 74.4578V4.14832H350.211V74.4578H353.211ZM351.711 5.64832H366.014V2.64832H351.711V5.64832ZM364.514 4.14832V74.9094H367.514V4.14832H364.514ZM364.514 74.9094C364.514 82.5957 362.717 89.2371 359.172 94.8892L361.714 96.483C365.597 90.2914 367.514 83.0817 367.514 74.9094H364.514ZM359.163 94.9048C355.694 100.59 350.982 104.967 345.001 108.054L346.377 110.72C352.841 107.383 357.966 102.626 361.724 96.4674L359.163 94.9048ZM344.992 108.058C339.106 111.146 332.473 112.704 325.063 112.704V115.704C332.908 115.704 340.026 114.051 346.385 110.715L344.992 108.058ZM325.063 112.704C317.652 112.704 311.019 111.146 305.133 108.058L303.74 110.715C310.099 114.051 317.217 115.704 325.063 115.704V112.704ZM305.133 108.058C299.252 104.973 294.585 100.596 291.113 94.9048L288.552 96.4674C292.306 102.62 297.376 107.377 303.74 110.715L305.133 108.058ZM291.113 94.9048C287.663 89.2504 285.913 82.6033 285.913 74.9094H282.913C282.913 83.0741 284.776 90.2781 288.552 96.4674L291.113 94.9048ZM285.913 74.9094V4.14832H282.913V74.9094H285.913ZM284.413 5.64832H298.866V2.64832H284.413V5.64832ZM297.366 4.14832V74.4578H300.366V4.14832H297.366ZM395.891 113H394.391V114.5H395.891V113ZM395.891 0.685547V-0.814453H394.391V0.685547H395.891ZM396.041 0.685547L397.268 -0.178315L396.819 -0.814453H396.041V0.685547ZM453.102 81.6844L452.815 83.1567L456.477 83.8713L454.328 80.8206L453.102 81.6844ZM446.929 80.48L445.708 79.609L444.355 81.506L446.642 81.9522L446.929 80.48ZM503.839 0.685547V-0.814453H503.066L502.618 -0.185439L503.839 0.685547ZM504.14 0.685547H505.64V-0.814453H504.14V0.685547ZM504.14 113V114.5H505.64V113H504.14ZM489.687 113H488.187V114.5H489.687V113ZM489.687 33.8078L491.176 33.6255L488.187 33.8078H489.687ZM490.59 41.185L491.815 42.0511L492.149 41.578L492.079 41.0027L490.59 41.185ZM449.488 99.2994V100.799H450.265L450.713 100.166L449.488 99.2994ZM449.187 99.2994L447.969 100.174L448.418 100.799H449.187V99.2994ZM407.483 41.185L406.08 40.6549L405.796 41.4066L406.265 42.0595L407.483 41.185ZM410.043 34.41H411.543L408.64 33.8799L410.043 34.41ZM410.043 113V114.5H411.543V113H410.043ZM397.391 113V0.685547H394.391V113H397.391ZM395.891 2.18555H396.041V-0.814453H395.891V2.18555ZM394.815 1.54941L451.876 82.5483L454.328 80.8206L397.268 -0.178315L394.815 1.54941ZM453.389 80.2122L447.216 79.0078L446.642 81.9522L452.815 83.1567L453.389 80.2122ZM448.15 81.351L505.06 1.55653L502.618 -0.185439L445.708 79.609L448.15 81.351ZM503.839 2.18555H504.14V-0.814453H503.839V2.18555ZM502.64 0.685547V113H505.64V0.685547H502.64ZM504.14 111.5H489.687V114.5H504.14V111.5ZM491.187 113V33.8078H488.187V113H491.187ZM488.198 33.9901L489.101 41.3673L492.079 41.0027L491.176 33.6255L488.198 33.9901ZM489.365 40.3188L448.264 98.4333L450.713 100.166L491.815 42.0511L489.365 40.3188ZM449.488 97.7994H449.187V100.799H449.488V97.7994ZM450.406 98.4249L408.702 40.3105L406.265 42.0595L447.969 100.174L450.406 98.4249ZM408.887 41.7151L411.446 34.9401L408.64 33.8799L406.08 40.6549L408.887 41.7151ZM408.543 34.41V113H411.543V34.41H408.543ZM410.043 111.5H395.891V114.5H410.043V111.5ZM535.419 4.14832V2.64832H533.919V4.14832H535.419ZM606.18 4.14832H607.68V2.64832H606.18V4.14832ZM606.18 18.15V19.65H607.68V18.15H606.18ZM550.023 18.15V16.65H548.523V18.15H550.023ZM550.023 51.2722H548.523V52.7722H550.023V51.2722ZM600.158 51.2722H601.658V49.7722H600.158V51.2722ZM600.158 65.2739V66.7739H601.658V65.2739H600.158ZM550.023 65.2739V63.7739H548.523V65.2739H550.023ZM550.023 98.9983H548.523V100.498H550.023V98.9983ZM608.288 98.9983H609.788V97.4983H608.288V98.9983ZM608.288 113V114.5H609.788V113H608.288ZM535.419 113H533.919V114.5H535.419V113ZM535.419 5.64832H606.18V2.64832H535.419V5.64832ZM604.68 4.14832V18.15H607.68V4.14832H604.68ZM606.18 16.65H550.023V19.65H606.18V16.65ZM548.523 18.15V51.2722H551.523V18.15H548.523ZM550.023 52.7722H600.158V49.7722H550.023V52.7722ZM598.658 51.2722V65.2739H601.658V51.2722H598.658ZM600.158 63.7739H550.023V66.7739H600.158V63.7739ZM548.523 65.2739V98.9983H551.523V65.2739H548.523ZM550.023 100.498H608.288V97.4983H550.023V100.498ZM606.788 98.9983V113H609.788V98.9983H606.788ZM608.288 111.5H535.419V114.5H608.288V111.5ZM536.919 113V4.14832H533.919V113H536.919Z" fill="white"/>
</svg>
