<svg width="400" height="113" viewBox="0 0 400 113" fill="none" xmlns="http://www.w3.org/2000/svg">
<path d="M28.7516 2.14832C39.6919 2.14832 48.2736 4.40666 54.4966 8.92333C60.8199 13.3396 63.9816 20.2652 63.9816 29.7C63.9816 35.4211 62.6767 40.3894 60.0671 44.605C57.4575 48.8206 53.794 52.1328 49.0766 54.5417C44.4595 56.9506 38.9893 58.3056 32.666 58.6067L30.5582 51.0789C37.8853 51.2796 44.4595 52.5844 50.281 54.9933C56.1025 57.4022 60.7195 60.7646 64.1321 65.0806C67.5447 69.3965 69.251 74.5154 69.251 80.4372C69.251 85.8572 68.2473 90.5244 66.2399 94.4389C64.2325 98.253 61.5225 101.415 58.1099 103.924C54.6973 106.333 50.833 108.139 46.5171 109.344C42.2012 110.448 37.7347 111 33.1177 111H0.748217V2.14832H28.7516ZM31.7627 49.8744C37.7849 49.8744 42.151 48.2183 44.861 44.9061C47.571 41.4935 48.926 37.3783 48.926 32.5606C48.926 26.8394 47.1695 22.6741 43.6566 20.0644C40.1436 17.4548 35.4262 16.15 29.5043 16.15H15.3521V49.8744H31.7627ZM32.3649 97.45C36.3797 97.45 40.0432 96.8478 43.3554 95.6433C46.768 94.4389 49.4279 92.582 51.3349 90.0728C53.3423 87.5635 54.346 84.4019 54.346 80.5878C54.346 76.3722 53.1917 73.06 50.8832 70.6511C48.6751 68.2422 45.8145 66.5359 42.3016 65.5322C38.7886 64.4281 35.1753 63.8761 31.4616 63.8761H15.3521V97.45H32.3649ZM93.8162 2.14832H108.42V96.9983H163.674V111H93.8162V2.14832ZM178.639 56.6494C178.639 49.1217 180.044 42.0456 182.855 35.4211C185.765 28.6963 189.78 22.7744 194.899 17.6556C200.018 12.4363 205.89 8.37129 212.514 5.46055C219.239 2.44944 226.466 0.943887 234.194 0.943887C241.822 0.943887 248.948 2.44944 255.573 5.46055C262.298 8.37129 268.22 12.4363 273.338 17.6556C278.558 22.7744 282.623 28.6963 285.533 35.4211C288.444 42.0456 289.9 49.1217 289.9 56.6494C289.9 64.378 288.444 71.6046 285.533 78.3294C282.623 85.0543 278.558 90.9761 273.338 96.095C268.22 101.114 262.298 105.078 255.573 107.989C248.948 110.799 241.822 112.204 234.194 112.204C226.466 112.204 219.239 110.799 212.514 107.989C205.89 105.179 200.018 101.264 194.899 96.2456C189.78 91.227 185.765 85.3554 182.855 78.6306C180.044 71.9057 178.639 64.5787 178.639 56.6494ZM193.695 56.8C193.695 62.5211 194.748 67.8909 196.856 72.9094C198.964 77.8276 201.875 82.1937 205.588 86.0078C209.302 89.8219 213.618 92.833 218.536 95.0411C223.454 97.1489 228.774 98.2028 234.495 98.2028C240.116 98.2028 245.385 97.1489 250.303 95.0411C255.222 92.833 259.487 89.8219 263.101 86.0078C266.714 82.1937 269.575 77.8276 271.682 72.9094C273.79 67.8909 274.844 62.4709 274.844 56.6494C274.844 50.9283 273.79 45.5585 271.682 40.54C269.575 35.4211 266.664 30.9546 262.95 27.1405C259.236 23.3265 254.921 20.3655 250.002 18.2578C245.084 16.0496 239.815 14.9456 234.194 14.9456C228.473 14.9456 223.153 16.0496 218.235 18.2578C213.317 20.4659 209.001 23.477 205.287 27.2911C201.574 31.1052 198.713 35.5717 196.706 40.6906C194.698 45.7091 193.695 51.0789 193.695 56.8ZM399.718 101.666C398.213 102.97 396.105 104.275 393.395 105.58C390.685 106.784 387.674 107.889 384.361 108.892C381.15 109.896 377.787 110.699 374.274 111.301C370.862 111.903 367.65 112.204 364.639 112.204C355.906 112.204 348.027 110.849 341.001 108.139C334.076 105.429 328.104 101.666 323.085 96.8478C318.167 92.03 314.353 86.3591 311.643 79.835C309.033 73.3109 307.729 66.2348 307.729 58.6067C307.729 49.5733 309.184 41.4935 312.095 34.3672C315.106 27.1406 319.171 21.0681 324.29 16.15C329.509 11.1315 335.481 7.36759 342.206 4.85833C348.931 2.2487 356.057 0.943887 363.585 0.943887C369.908 0.943887 375.78 1.69666 381.2 3.20222C386.62 4.70777 391.387 6.61481 395.503 8.92333L390.534 22.3228C388.527 21.1183 386.018 20.0143 383.006 19.0106C380.096 18.0068 377.085 17.2039 373.973 16.6017C370.862 15.8991 367.951 15.5478 365.241 15.5478C358.817 15.5478 352.996 16.5515 347.776 18.5589C342.557 20.4659 338.091 23.2763 334.377 26.99C330.663 30.6033 327.803 35.0196 325.795 40.2389C323.788 45.3578 322.784 51.1291 322.784 57.5528C322.784 63.4746 323.788 68.8946 325.795 73.8128C327.803 78.7309 330.663 82.9967 334.377 86.61C338.091 90.123 342.507 92.8831 347.626 94.8906C352.845 96.7976 358.566 97.7511 364.789 97.7511C368.503 97.7511 372.166 97.3998 375.78 96.6972C379.393 95.8943 382.505 94.7902 385.114 93.385V71.705H363.434V57.7033H399.718V101.666Z" fill="white"/>
</svg>
