<svg width="400" height="113" viewBox="0 0 400 113" fill="none" xmlns="http://www.w3.org/2000/svg">
<path d="M54.4966 8.92333L53.6155 10.1373L53.6265 10.1453L53.6377 10.1531L54.4966 8.92333ZM60.0671 44.605L58.7917 43.8155L58.7917 43.8155L60.0671 44.605ZM49.0766 54.5417L48.3944 53.2057L48.3827 53.2118L49.0766 54.5417ZM32.666 58.6067L31.2216 59.0111L31.5437 60.1618L32.7373 60.105L32.666 58.6067ZM30.5582 51.0789L30.5993 49.5794L28.5651 49.5237L29.1138 51.4833L30.5582 51.0789ZM50.281 54.9933L49.7075 56.3794L49.7075 56.3794L50.281 54.9933ZM64.1321 65.0806L65.3087 64.1502L65.3087 64.1502L64.1321 65.0806ZM66.2399 94.4389L67.5673 95.1375L67.571 95.1305L67.5746 95.1234L66.2399 94.4389ZM58.1099 103.924L58.9749 105.149L58.9868 105.141L58.9985 105.132L58.1099 103.924ZM46.5171 109.344L46.8889 110.797L46.9046 110.793L46.9203 110.789L46.5171 109.344ZM0.748217 111H-0.751783V112.5H0.748217V111ZM0.748217 2.14832V0.648325H-0.751783V2.14832H0.748217ZM44.861 44.9061L46.0219 45.856L46.0289 45.8475L46.0357 45.8389L44.861 44.9061ZM43.6566 20.0644L44.551 18.8603L44.551 18.8603L43.6566 20.0644ZM15.3521 16.15V14.65H13.8521V16.15H15.3521ZM15.3521 49.8744H13.8521V51.3744H15.3521V49.8744ZM43.3554 95.6433L42.8562 94.2288L42.8495 94.2312L42.8428 94.2336L43.3554 95.6433ZM51.3349 90.0728L50.1636 89.1357L50.1519 89.1503L50.1406 89.1652L51.3349 90.0728ZM50.8832 70.6511L49.7775 71.6647L49.7887 71.677L49.8002 71.689L50.8832 70.6511ZM42.3016 65.5322L41.8518 66.9632L41.8706 66.9691L41.8895 66.9745L42.3016 65.5322ZM15.3521 63.8761V62.3761H13.8521V63.8761H15.3521ZM15.3521 97.45H13.8521V98.95H15.3521V97.45ZM28.7516 3.64832C39.5047 3.64832 47.7365 5.87031 53.6155 10.1373L55.3776 7.70938C48.8107 2.94301 39.8791 0.648325 28.7516 0.648325V3.64832ZM53.6377 10.1531C59.4674 14.2247 62.4816 20.6314 62.4816 29.7H65.4816C65.4816 19.899 62.1723 12.4546 55.3554 7.69356L53.6377 10.1531ZM62.4816 29.7C62.4816 35.1859 61.2331 39.8717 58.7917 43.8155L61.3425 45.3945C64.1204 40.9071 65.4816 35.6563 65.4816 29.7H62.4816ZM58.7917 43.8155C56.3362 47.7821 52.8852 50.9126 48.3944 53.2058L49.7587 55.8776C54.7027 53.353 58.5788 49.859 61.3425 45.3945L58.7917 43.8155ZM48.3827 53.2118C43.9955 55.5008 38.7467 56.8154 32.5946 57.1084L32.7373 60.105C39.232 59.7957 44.9235 58.4003 49.7704 55.8715L48.3827 53.2118ZM34.1104 58.2022L32.0027 50.6744L29.1138 51.4833L31.2216 59.0111L34.1104 58.2022ZM30.5171 52.5783C37.6907 52.7749 44.0803 54.0509 49.7075 56.3794L50.8545 53.6073C44.8388 51.118 38.0798 49.7844 30.5993 49.5794L30.5171 52.5783ZM49.7075 56.3794C55.3271 58.7047 59.7235 61.9234 62.9555 66.0109L65.3087 64.1502C61.7155 59.6058 56.8779 56.0997 50.8545 53.6073L49.7075 56.3794ZM62.9555 66.0109C66.1422 70.0411 67.751 74.8255 67.751 80.4372H70.751C70.751 74.2052 68.9472 68.7518 65.3087 64.1502L62.9555 66.0109ZM67.751 80.4372C67.751 85.6735 66.7816 90.0953 64.9052 93.7544L67.5746 95.1234C69.713 90.9535 70.751 86.0409 70.751 80.4372H67.751ZM64.9125 93.7403C63.009 97.357 60.4476 100.343 57.2213 102.715L58.9985 105.132C62.5973 102.486 65.456 99.1489 67.5673 95.1375L64.9125 93.7403ZM57.2449 102.698C53.9824 105.001 50.2765 106.737 46.1139 107.899L46.9203 110.789C51.3895 109.541 55.4122 107.664 58.9749 105.149L57.2449 102.698ZM46.1454 107.891C41.9553 108.963 37.6139 109.5 33.1177 109.5V112.5C37.8555 112.5 42.4471 111.933 46.8889 110.797L46.1454 107.891ZM33.1177 109.5H0.748217V112.5H33.1177V109.5ZM2.24822 111V2.14832H-0.751783V111H2.24822ZM0.748217 3.64832H28.7516V0.648325H0.748217V3.64832ZM31.7627 51.3744C38.043 51.3744 42.9245 49.6417 46.0219 45.856L43.7001 43.9563C41.3775 46.795 37.5268 48.3744 31.7627 48.3744V51.3744ZM46.0357 45.8389C48.9788 42.1328 50.426 37.6791 50.426 32.5606H47.426C47.426 37.0775 46.1632 40.8542 43.6863 43.9733L46.0357 45.8389ZM50.426 32.5606C50.426 26.5244 48.5571 21.8362 44.551 18.8603L42.7621 21.2686C45.782 23.5119 47.426 27.1544 47.426 32.5606H50.426ZM44.551 18.8603C40.7019 16.0009 35.6361 14.65 29.5043 14.65V17.65C35.2163 17.65 39.5853 18.9087 42.7621 21.2686L44.551 18.8603ZM29.5043 14.65H15.3521V17.65H29.5043V14.65ZM13.8521 16.15V49.8744H16.8521V16.15H13.8521ZM15.3521 51.3744H31.7627V48.3744H15.3521V51.3744ZM32.3649 98.95C36.5305 98.95 40.3704 98.3249 43.8681 97.053L42.8428 94.2336C39.7161 95.3706 36.2289 95.95 32.3649 95.95V98.95ZM43.8547 97.0578C47.5014 95.7707 50.4197 93.756 52.5291 90.9804L50.1406 89.1652C48.436 91.4081 46.0347 93.107 42.8562 94.2288L43.8547 97.0578ZM52.5062 91.0098C54.7644 88.1871 55.846 84.6762 55.846 80.5878H52.846C52.846 84.1275 51.9202 86.9399 50.1636 89.1357L52.5062 91.0098ZM55.846 80.5878C55.846 76.092 54.608 72.3699 51.9662 69.6133L49.8002 71.689C51.7755 73.7501 52.846 76.6524 52.846 80.5878H55.846ZM51.989 69.6375C49.5721 67.001 46.4606 65.1605 42.7136 64.0899L41.8895 66.9745C45.1684 67.9113 47.778 69.4835 49.7775 71.6647L51.989 69.6375ZM42.7513 64.1012C39.0915 62.951 35.3265 62.3761 31.4616 62.3761V65.3761C35.024 65.3761 38.4856 65.9053 41.8518 66.9632L42.7513 64.1012ZM31.4616 62.3761H15.3521V65.3761H31.4616V62.3761ZM13.8521 63.8761V97.45H16.8521V63.8761H13.8521ZM15.3521 98.95H32.3649V95.95H15.3521V98.95ZM93.8162 2.14832V0.648325H92.3162V2.14832H93.8162ZM108.42 2.14832H109.92V0.648325H108.42V2.14832ZM108.42 96.9983H106.92V98.4983H108.42V96.9983ZM163.674 96.9983H165.174V95.4983H163.674V96.9983ZM163.674 111V112.5H165.174V111H163.674ZM93.8162 111H92.3162V112.5H93.8162V111ZM93.8162 3.64832H108.42V0.648325H93.8162V3.64832ZM106.92 2.14832V96.9983H109.92V2.14832H106.92ZM108.42 98.4983H163.674V95.4983H108.42V98.4983ZM162.174 96.9983V111H165.174V96.9983H162.174ZM163.674 109.5H93.8162V112.5H163.674V109.5ZM95.3162 111V2.14832H92.3162V111H95.3162ZM182.855 35.4211L181.478 34.8253L181.474 34.8353L182.855 35.4211ZM194.899 17.6556L195.96 18.7162L195.965 18.7111L195.97 18.7059L194.899 17.6556ZM212.514 5.46055L213.117 6.83386L213.127 6.82958L212.514 5.46055ZM255.573 5.46055L254.952 6.8261L254.965 6.83173L254.977 6.83713L255.573 5.46055ZM273.338 17.6556L272.268 18.7059L272.278 18.7163L272.288 18.7265L273.338 17.6556ZM285.533 35.4211L284.157 36.0169L284.16 36.0245L285.533 35.4211ZM285.533 78.3294L286.91 78.9253L286.91 78.9253L285.533 78.3294ZM273.338 96.095L274.389 97.1661L274.389 97.1659L273.338 96.095ZM255.573 107.989L256.159 109.37L256.169 109.365L255.573 107.989ZM212.514 107.989L211.928 109.37L211.936 109.373L212.514 107.989ZM194.899 96.2456L195.949 95.1744L195.949 95.1744L194.899 96.2456ZM182.855 78.6306L181.471 79.2089L181.474 79.2177L181.478 79.2264L182.855 78.6306ZM196.856 72.9094L195.473 73.4903L195.478 73.5003L196.856 72.9094ZM218.536 95.0411L217.922 96.4095L217.934 96.4148L217.945 96.4198L218.536 95.0411ZM250.303 95.0411L250.894 96.4198L250.906 96.4148L250.918 96.4095L250.303 95.0411ZM263.101 86.0078L262.012 84.9762L262.012 84.9762L263.101 86.0078ZM271.682 72.9094L273.061 73.5003L273.065 73.4903L271.682 72.9094ZM271.682 40.54L270.295 41.1111L270.299 41.1208L271.682 40.54ZM250.002 18.2578L249.388 19.6262L249.4 19.6314L249.411 19.6365L250.002 18.2578ZM218.235 18.2578L217.621 16.8894L217.621 16.8894L218.235 18.2578ZM205.287 27.2911L204.213 26.2447L204.213 26.2447L205.287 27.2911ZM196.706 40.6906L198.098 41.2477L198.102 41.2382L196.706 40.6906ZM180.139 56.6494C180.139 49.3135 181.507 42.4376 184.235 36.0069L181.474 34.8353C178.581 41.6535 177.139 48.9298 177.139 56.6494H180.139ZM184.231 36.0169C187.068 29.4634 190.976 23.6998 195.96 18.7162L193.838 16.5949C188.584 21.8491 184.463 27.9292 181.478 34.8253L184.231 36.0169ZM195.97 18.7059C200.956 13.6216 206.67 9.66687 213.117 6.83383L211.911 4.08727C205.109 7.07571 199.079 11.251 193.828 16.6052L195.97 18.7059ZM213.127 6.82958C219.65 3.90902 226.666 2.44389 234.194 2.44389V-0.556113C226.265 -0.556113 218.828 0.989861 211.901 4.09152L213.127 6.82958ZM234.194 2.44389C241.619 2.44389 248.532 3.90787 254.952 6.8261L256.194 4.095C249.365 0.991011 242.026 -0.556113 234.194 -0.556113V2.44389ZM254.977 6.83713C261.524 9.67103 267.285 13.6254 272.268 18.7059L274.409 16.6052C269.154 11.2472 263.071 7.07155 256.169 4.08397L254.977 6.83713ZM272.288 18.7265C277.369 23.7092 281.323 29.4697 284.157 36.0169L286.91 34.8253C283.922 27.9229 279.747 21.8396 274.389 16.5846L272.288 18.7265ZM284.16 36.0245C286.984 42.4511 288.4 49.3208 288.4 56.6494H291.4C291.4 48.9225 289.904 41.64 286.907 34.8177L284.16 36.0245ZM288.4 56.6494C288.4 64.1844 286.982 71.2071 284.157 77.7336L286.91 78.9253C289.907 72.0022 291.4 64.5715 291.4 56.6494H288.4ZM284.157 77.7336C281.323 84.2809 277.369 90.0413 272.288 95.0241L274.389 97.1659C279.747 91.9109 283.922 85.8276 286.91 78.9253L284.157 77.7336ZM272.288 95.0239C267.304 99.9107 261.537 103.773 254.977 106.612L256.169 109.365C263.059 106.383 269.135 102.316 274.389 97.1661L272.288 95.0239ZM254.987 106.608C248.559 109.335 241.633 110.704 234.194 110.704V113.704C242.011 113.704 249.338 112.263 256.159 109.37L254.987 106.608ZM234.194 110.704C226.652 110.704 219.623 109.334 213.092 106.605L211.936 109.373C218.855 112.264 226.279 113.704 234.194 113.704V110.704ZM213.1 106.608C206.648 103.871 200.933 100.061 195.949 95.1744L193.849 97.3167C199.102 102.467 205.132 106.486 211.928 109.37L213.1 106.608ZM195.949 95.1744C190.972 90.2948 187.067 84.5855 184.231 78.0347L181.478 79.2264C184.464 86.1252 188.588 92.1593 193.849 97.3167L195.949 95.1744ZM184.239 78.0522C181.511 71.5261 180.139 64.3977 180.139 56.6494H177.139C177.139 64.7597 178.577 72.2854 181.471 79.2089L184.239 78.0522ZM192.195 56.8C192.195 62.7102 193.284 68.2785 195.473 73.4903L198.239 72.3286C196.213 67.5033 195.195 62.332 195.195 56.8H192.195ZM195.478 73.5003C197.657 78.5868 200.671 83.1075 204.514 87.0542L206.663 84.9614C203.079 81.2799 200.271 77.0684 198.235 72.3186L195.478 73.5003ZM204.514 87.0542C208.361 91.0054 212.834 94.125 217.922 96.4095L219.151 93.6727C214.403 91.5409 210.243 88.6383 206.663 84.9614L204.514 87.0542ZM217.945 96.4198C223.063 98.6131 228.585 99.7028 234.495 99.7028V96.7028C228.963 96.7028 223.846 95.6847 219.127 93.6624L217.945 96.4198ZM234.495 99.7028C240.309 99.7028 245.78 98.6116 250.894 96.4198L249.713 93.6624C244.991 95.6861 239.923 96.7028 234.495 96.7028V99.7028ZM250.918 96.4095C256.01 94.1233 260.438 90.9994 264.19 87.0394L262.012 84.9762C258.537 88.6443 254.433 91.5426 249.689 93.6727L250.918 96.4095ZM264.19 87.0394C267.927 83.0943 270.885 78.5783 273.061 73.5003L270.304 72.3186C268.264 77.0769 265.501 81.2931 262.012 84.9762L264.19 87.0394ZM273.065 73.4903C275.256 68.2753 276.344 62.6564 276.344 56.6494H273.344C273.344 62.2855 272.325 67.5065 270.299 72.3286L273.065 73.4903ZM276.344 56.6494C276.344 50.7392 275.254 45.1709 273.065 39.9591L270.299 41.1208C272.326 45.9461 273.344 51.1174 273.344 56.6494H276.344ZM273.069 39.9689C270.892 34.6803 267.877 30.0507 264.025 26.0941L261.875 28.187C265.45 31.8585 268.257 36.1619 270.295 41.1111L273.069 39.9689ZM264.025 26.0941C260.173 22.1378 255.692 19.0642 250.593 16.8791L249.411 19.6365C254.149 21.6669 258.3 24.5152 261.875 28.187L264.025 26.0941ZM250.617 16.8894C245.497 14.5908 240.017 13.4456 234.194 13.4456V16.4456C239.612 16.4456 244.671 17.5085 249.388 19.6262L250.617 16.8894ZM234.194 13.4456C228.274 13.4456 222.744 14.5892 217.621 16.8894L218.85 19.6262C223.563 17.51 228.671 16.4456 234.194 16.4456V13.4456ZM217.621 16.8894C212.532 19.1739 208.06 22.2935 204.213 26.2447L206.362 28.3375C209.942 24.6606 214.101 21.7579 218.85 19.6262L217.621 16.8894ZM204.213 26.2447C200.355 30.2067 197.387 34.8442 195.309 40.1429L198.102 41.2382C200.039 36.2991 202.792 32.0037 206.362 28.3375L204.213 26.2447ZM195.313 40.1335C193.231 45.3394 192.195 50.8994 192.195 56.8H195.195C195.195 51.2584 196.166 46.0788 198.098 41.2476L195.313 40.1335ZM399.718 101.666L400.701 102.799L401.218 102.35V101.666H399.718ZM393.395 105.58L394.004 106.951L394.025 106.941L394.046 106.932L393.395 105.58ZM384.361 108.892L383.926 107.457L383.914 107.461L384.361 108.892ZM374.274 111.301L374.021 109.823L374.014 109.824L374.274 111.301ZM341.001 108.139L340.455 109.536L340.462 109.539L341.001 108.139ZM323.085 96.8478L322.036 97.9193L322.041 97.9246L322.047 97.9299L323.085 96.8478ZM311.643 79.835L310.25 80.3921L310.254 80.4013L310.258 80.4104L311.643 79.835ZM312.095 34.3672L310.71 33.7903L310.706 33.8L312.095 34.3672ZM324.29 16.15L325.329 17.2316L325.329 17.2312L324.29 16.15ZM342.206 4.85833L342.73 6.26368L342.739 6.26026L342.749 6.25672L342.206 4.85833ZM381.2 3.20222L381.601 1.75694L381.601 1.75694L381.2 3.20222ZM395.503 8.92333L396.909 9.44481L397.355 8.24249L396.236 7.61511L395.503 8.92333ZM390.534 22.3228L389.762 23.609L391.312 24.5389L391.941 22.8443L390.534 22.3228ZM383.006 19.0106L382.517 20.4286L382.525 20.4311L382.532 20.4336L383.006 19.0106ZM373.973 16.6017L373.643 18.0648L373.665 18.0699L373.688 18.0743L373.973 16.6017ZM347.776 18.5589L348.291 19.9678L348.303 19.9634L348.315 19.9589L347.776 18.5589ZM334.377 26.99L335.423 28.0651L335.43 28.0579L335.438 28.0507L334.377 26.99ZM325.795 40.2389L327.192 40.7865L327.195 40.7774L325.795 40.2389ZM325.795 73.8128L324.407 74.3796L324.407 74.3796L325.795 73.8128ZM334.377 86.61L333.331 87.6851L333.339 87.6924L333.346 87.6997L334.377 86.61ZM347.626 94.8906L347.078 96.287L347.095 96.2934L347.111 96.2995L347.626 94.8906ZM375.78 96.6972L376.066 98.1696L376.086 98.1658L376.105 98.1615L375.78 96.6972ZM385.114 93.385L385.825 94.7057L386.614 94.2809V93.385H385.114ZM385.114 71.705H386.614V70.205H385.114V71.705ZM363.434 71.705H361.934V73.205H363.434V71.705ZM363.434 57.7033V56.2033H361.934V57.7033H363.434ZM399.718 57.7033H401.218V56.2033H399.718V57.7033ZM398.736 100.532C397.368 101.718 395.389 102.955 392.744 104.228L394.046 106.932C396.821 105.595 399.057 104.223 400.701 102.799L398.736 100.532ZM392.786 104.209C390.141 105.385 387.189 106.468 383.926 107.457L384.796 110.328C388.158 109.309 391.229 108.184 394.004 106.951L392.786 104.209ZM383.914 107.461C380.769 108.443 377.472 109.231 374.021 109.823L374.528 112.78C378.102 112.167 381.53 111.349 384.809 110.324L383.914 107.461ZM374.014 109.824C370.674 110.413 367.55 110.704 364.639 110.704V113.704C367.749 113.704 371.049 113.393 374.535 112.778L374.014 109.824ZM364.639 110.704C356.062 110.704 348.37 109.374 341.541 106.74L340.462 109.539C347.685 112.325 355.751 113.704 364.639 113.704V110.704ZM341.548 106.743C334.793 104.099 328.991 100.438 324.124 95.7657L322.047 97.9299C327.216 102.893 333.359 106.76 340.455 109.536L341.548 106.743ZM324.135 95.7762C319.365 91.1033 315.663 85.6024 313.028 79.2596L310.258 80.4104C313.043 87.1158 316.97 92.9567 322.036 97.9193L324.135 95.7762ZM313.036 79.2779C310.503 72.9457 309.229 66.0604 309.229 58.6067H306.229C306.229 66.4092 307.564 73.6762 310.25 80.3921L313.036 79.2779ZM309.229 58.6067C309.229 49.7346 310.658 41.8523 313.483 34.9344L310.706 33.8C307.71 41.1348 306.229 49.4121 306.229 58.6067H309.229ZM313.479 34.9441C316.419 27.888 320.373 21.993 325.329 17.2316L323.251 15.0683C317.968 20.1433 313.792 26.3931 310.71 33.7903L313.479 34.9441ZM325.329 17.2312C330.402 12.3536 336.199 8.70062 342.73 6.26368L341.682 3.45297C334.763 6.03456 328.616 9.90939 323.25 15.0687L325.329 17.2312ZM342.749 6.25672C349.293 3.71716 356.234 2.44389 363.585 2.44389V-0.556113C355.88 -0.556113 348.569 0.780242 341.663 3.45993L342.749 6.25672ZM363.585 2.44389C369.789 2.44389 375.524 3.18243 380.798 4.64749L381.601 1.75694C376.035 0.210896 370.027 -0.556113 363.585 -0.556113V2.44389ZM380.798 4.64749C386.124 6.12681 390.776 7.99185 394.769 10.2315L396.236 7.61511C391.999 5.23777 387.116 3.28873 381.601 1.75694L380.798 4.64749ZM394.096 8.40184L389.128 21.8013L391.941 22.8443L396.909 9.44481L394.096 8.40184ZM391.306 21.0365C389.178 19.7599 386.562 18.6145 383.481 17.5875L382.532 20.4336C385.473 21.414 387.875 22.4767 389.762 23.609L391.306 21.0365ZM383.495 17.5925C380.516 16.5652 377.437 15.7442 374.258 15.129L373.688 18.0743C376.732 18.6636 379.675 19.4485 382.517 20.4286L383.495 17.5925ZM374.304 15.1385C371.102 14.4156 368.08 14.0478 365.241 14.0478V17.0478C367.822 17.0478 370.621 17.3825 373.643 18.0648L374.304 15.1385ZM365.241 14.0478C358.66 14.0478 352.653 15.0763 347.238 17.1589L348.315 19.9589C353.339 18.0266 358.974 17.0478 365.241 17.0478V14.0478ZM347.262 17.15C341.849 19.1275 337.193 22.0523 333.316 25.9293L335.438 28.0507C338.988 24.5003 343.265 21.8043 348.291 19.9678L347.262 17.15ZM333.331 25.9149C329.45 29.6911 326.474 34.2951 324.395 39.7004L327.195 40.7774C329.131 35.7442 331.877 31.5155 335.423 28.0651L333.331 25.9149ZM324.399 39.6913C322.313 45.0113 321.284 50.9727 321.284 57.5528H324.284C324.284 51.2855 325.263 45.7042 327.192 40.7865L324.399 39.6913ZM321.284 57.5528C321.284 63.6467 322.318 69.262 324.407 74.3796L327.184 73.2459C325.258 68.5273 324.284 63.3026 324.284 57.5528H321.284ZM324.407 74.3796C326.49 79.484 329.465 83.9241 333.331 87.6851L335.423 85.5349C331.861 82.0693 329.115 77.9778 327.184 73.2459L324.407 74.3796ZM333.346 87.6997C337.21 91.3547 341.794 94.2147 347.078 96.287L348.174 93.4941C343.22 91.5516 338.971 88.8912 335.408 85.5203L333.346 87.6997ZM347.111 96.2995C352.514 98.2735 358.412 99.2511 364.789 99.2511V96.2511C358.721 96.2511 353.176 95.3216 348.141 93.4817L347.111 96.2995ZM364.789 99.2511C368.598 99.2511 372.358 98.8907 376.066 98.1696L375.493 95.2248C371.975 95.9089 368.408 96.2511 364.789 96.2511V99.2511ZM376.105 98.1615C379.821 97.3357 383.069 96.1901 385.825 94.7057L384.403 92.0643C381.941 93.3903 378.965 94.4528 375.454 95.2329L376.105 98.1615ZM386.614 93.385V71.705H383.614V93.385H386.614ZM385.114 70.205H363.434V73.205H385.114V70.205ZM364.934 71.705V57.7033H361.934V71.705H364.934ZM363.434 59.2033H399.718V56.2033H363.434V59.2033ZM398.218 57.7033V101.666H401.218V57.7033H398.218Z" fill="white"/>
</svg>
