<svg width="1217" height="1270" viewBox="0 0 1217 1270" fill="none" xmlns="http://www.w3.org/2000/svg">
<path d="M747 548L847 207.5L879.5 167.5L997.5 185L1085 247.5L1055 548L804.5 926.5L747 548Z" fill="#C5D86D"/>
<path d="M825.093 2.29053C825.093 29.398 821.182 48.7689 809.076 72.9793C798.524 94.0832 774.877 118.178 782.818 143.591C785.054 150.745 787.669 160.833 787.669 168.309C787.669 178.19 784.427 188.308 791.211 197.031C798.473 206.368 809.542 220.507 821.705 223.982C823.987 224.634 833.605 211.388 836.874 208.12M836.874 208.12C845.527 199.466 842.629 189.074 850.042 180.014C865.201 161.486 908.26 158.41 930.125 161.995C964.389 167.612 994.395 184.801 1026.38 196.646C1045.72 203.809 1066.73 215.283 1075.97 233.762C1081.01 243.854 1083.32 249.673 1082.9 261.175C1082.85 262.442 1081.2 268.239 1080.63 273.271M836.874 208.12C836.874 201.616 830.956 229.06 829.944 232.299C827.123 241.327 823.707 250.266 823.707 259.789C823.707 271.485 816.912 283 814.312 294.44C811.03 308.882 807.169 323.25 803.994 337.716C800.496 353.651 795.21 367.264 790.441 382.763C780.046 416.547 775.429 451.897 766.878 486.101C762.714 502.76 759.649 519.768 751.632 535.229C749.08 540.151 745.358 546.977 744.702 552.554C744.049 558.104 741.807 555.572 744.702 549.782M1080.63 273.271C1080.5 274.393 1080.43 275.477 1080.45 276.464M1080.63 273.271C1078.24 273.027 1075.86 272.701 1073.5 272.263C1072.47 272.071 1064.7 270.667 1066.27 271.493C1069.37 273.128 1075.75 274.839 1080.45 276.464M1080.63 273.271C1088.95 274.116 1097.46 273.957 1105.77 273.957C1124.51 273.957 1146.14 250.492 1154.28 235.841C1159.35 226.718 1159.33 218.154 1156.67 208.505C1153.1 195.572 1148.08 197.744 1135.57 191.487C1116.45 181.925 1094.52 180.015 1075.28 170.08C1056.53 160.403 1037.38 151.042 1016.68 146.44C976.336 137.476 937.413 123.448 895.782 122.877C869.083 122.512 834.056 121.34 810.924 137.354C805.165 141.341 800.093 146.532 796.679 152.678C792.754 159.742 785.262 177.406 793.214 157.529M1080.45 276.464C1080.49 279.871 1081.54 282.125 1084.82 280.811M1080.45 276.464C1085.01 278.044 1087.99 279.543 1084.82 280.811M1084.82 280.811C1080.44 285.744 1080.35 304.18 1079.51 309.995C1077.7 322.499 1075.24 334.95 1073.5 347.418C1070.11 371.866 1070.42 397.461 1070.42 422.111C1070.42 461.211 1066.67 499.944 1062.19 538.078C1061.36 545.109 1058.48 550.529 1053.1 554.71C1045.38 560.716 1040.74 568.777 1034.39 576.04C1028.87 582.351 1022.88 589.015 1016.98 594.906C1005.21 606.679 998.921 623.668 988.647 636.796C943.939 693.924 906.049 756.598 869.601 819.37C849.315 854.307 795.685 962.344 808.46 924.017M1214.57 3.67627C1213.82 10.425 1207.09 21.3675 1204.87 28.0092C1201.15 39.1824 1197.13 49.9666 1194.86 61.5826C1190.45 84.127 1185.5 109.807 1184.16 132.656C1182.92 153.697 1180.31 171.909 1173.76 191.564C1171.16 199.386 1170.27 207.817 1165.99 215.05C1163.56 219.142 1161.12 223.455 1157.75 226.831C1148.83 235.744 1159.71 209.954 1160.52 207.426M743.315 555.327C757.533 569.543 755.669 598.204 759.255 616.929C762.888 635.9 765.941 654.861 769.343 673.911C775.4 707.834 775.63 742.949 783.511 776.325C787.613 793.697 786.321 811.253 790.441 828.765C794.09 844.27 794.247 860.72 796.294 876.583C797.729 887.706 799.54 900.045 803.532 910.311C807.432 920.341 798.267 935.179 812.618 924.017M873.605 530.378C873.748 530.25 873.893 530.124 874.038 529.999M874.038 529.999C882.32 522.865 893.516 519.407 893.01 505.737C892.847 501.349 888.377 490.381 882.999 490.182C869.268 489.673 850.171 513.294 864.596 524.833C865.687 525.707 870.891 529.143 874.038 529.999ZM874.038 529.999C875.116 530.292 875.953 530.282 876.3 529.762C883.222 519.379 869.362 553.859 867.984 566.261C864.033 601.817 852.669 636.016 845.884 671.139C841.477 693.95 842.239 717.358 837.567 740.134C835.137 751.981 834.061 765.031 833.409 777.095C832.082 801.643 828.522 825.019 823.707 849.093C820.689 864.185 809.846 880.628 809.846 895.68C809.846 903.021 808.46 909.443 808.46 917.164V927.482C808.46 927.924 808.198 930.579 808.768 929.407C813.432 919.822 819.98 911.583 826.479 903.226M879.371 624.704C879.371 629.351 877.593 633.973 877.091 638.488C876.956 639.704 876.788 640.832 876.399 641.998C876.062 643.01 881.388 643.509 882.087 643.587C884.188 643.82 883.683 632.967 884.086 630.802C884.487 628.647 884.707 628.093 882.6 627.01C881.225 626.303 880.696 624.537 880.294 626.548M876.604 652.836C874.39 653.113 873.843 664.967 872.915 667.133C870.978 671.653 873.165 671.745 877.27 671.745C879.227 671.745 880.741 658.719 880.063 656.552C879.53 654.846 877.065 651.187 877.065 655.142M870.148 680.508C868.232 684.578 869.171 689.503 867.38 693.422C866.149 696.114 873.046 698.014 873.35 696.342C874.091 692.27 874.889 688.122 875.579 684.044C875.779 682.864 875.882 681.402 874.478 680.969C870.883 679.863 866.814 677.573 867.842 683.736M864.613 707.718C865.026 704.006 862.643 714.927 861.487 718.479C859.952 723.2 862.653 721.455 865.894 722.118C866.413 722.224 868.444 723.559 868.661 722.528C869.403 719.007 868.461 715.611 869.686 711.971C870.094 710.762 871.464 708.257 869.379 707.821C867.612 707.451 866.593 707.78 865.536 709.102M895.513 601.183C895.513 596.336 894.063 605.074 893.924 606.051C893.655 607.95 890.54 615.941 894.667 615.941C896.415 615.941 898.586 616.297 900.304 615.915C901.186 615.719 900.586 607.308 900.586 606.358C900.586 604.644 901.214 595.639 896.897 598.877M893.207 628.393C891.187 630.189 890.913 634.629 890.543 637.156C889.841 641.94 889.131 642.697 894.027 643.254C896.106 643.49 897.228 631.719 896.333 629.213C895.272 626.241 891.7 627.381 890.901 629.777M887.673 656.526C887.673 656.502 887.673 656.478 887.673 656.454M887.673 656.454C887.659 652.003 886.331 665.912 884.445 670.157C883.858 671.478 887.14 670.814 888.083 670.926C889.881 671.139 890.082 668.787 890.44 667.236C891.26 663.683 891.362 658.815 891.362 655.142C891.362 654.129 888.763 655.386 888.339 655.604C887.972 655.793 887.769 656.093 887.673 656.454ZM887.673 656.454C887.406 657.458 887.969 658.928 888.134 659.754M883.522 678.663C882.527 678.774 882.205 679.802 882.058 680.825M882.058 680.825C881.973 681.411 881.946 681.995 881.882 682.404C881.377 685.651 881.403 688.938 880.986 692.191C880.706 694.373 880.875 694.344 883.112 694.344C883.259 694.344 886.594 694.602 886.648 694.497C888.063 691.777 887.307 686.95 887.417 683.941C887.572 679.689 886.043 679.345 882.058 680.825ZM882.058 680.825C881.933 680.871 881.806 680.919 881.677 680.969M907.043 598.416C907.023 598.616 907.002 598.816 906.979 599.016M906.979 599.016C906.442 603.746 905.198 608.449 905.198 613.379C905.198 615.681 907.22 618.065 909.99 616.786C912.406 615.671 910.271 606.976 910.271 604.872C910.271 603.213 910.899 600.814 909.144 599.902C908.664 599.652 907.706 599.115 906.979 599.016ZM906.979 599.016C906.593 598.964 906.272 599.035 906.121 599.338M910.733 579.046C910.724 579.047 910.716 579.048 910.708 579.05M910.708 579.05C909.392 579.333 907.597 589.164 908.017 590.319C908.432 591.461 911.76 591.16 912.705 591.216C913.743 591.277 914.108 583.652 914.525 582.479C915.122 580.798 919.394 574.434 915.344 574.434C912.794 574.434 911.54 576.742 910.708 579.05ZM910.708 579.05C910.355 580.03 910.078 581.009 909.81 581.813M906.121 630.699C906.118 630.684 906.116 630.669 906.114 630.654M906.114 630.654C905.88 629.121 905.225 630.077 904.438 631.966M906.114 630.654C906.75 630.313 907.227 630.359 907.248 631.263C907.294 633.293 907.543 635.134 907.274 637.182C906.7 641.538 908.586 645.124 903.354 645.816C899.847 646.28 900.004 644.005 901.176 641.076C902 639.016 903.346 634.59 904.438 631.966M906.114 630.654C905.607 630.925 904.998 631.442 904.438 631.966M904.438 631.966C903.764 632.596 903.161 633.236 902.892 633.466M896.897 657.909C896.897 657.87 896.897 657.832 896.896 657.797M896.896 657.797C896.883 656.805 896.686 657.266 896.476 658.077M896.896 657.797C899.278 656.311 901.459 656.74 901.509 660.779C901.55 664.125 902.818 672.435 898.69 672.693C897.536 672.765 894.921 673.848 894.693 672.001C894.235 668.28 895.387 664.146 895.974 660.472C896.037 660.08 896.263 658.899 896.476 658.077M896.896 657.797C896.757 657.884 896.617 657.977 896.476 658.077M896.476 658.077C896 658.415 895.52 658.825 895.052 659.293M929.18 548.607C928.603 543.99 926.512 557.567 925.952 562.186C925.413 566.632 922.863 568.899 928.463 568.899C932.688 568.899 931.646 557.885 932.05 554.5C932.578 550.075 932.192 546.517 928.258 550.451M925.029 581.813C924.452 581.74 924.574 581.035 924.107 580.685C924.019 580.619 922.593 584.564 922.442 585.041C921.589 587.73 920.879 590.417 920.879 593.24C920.879 594.728 922.802 594.378 924.005 594.624C925.763 594.983 926.26 595.665 926.669 593.676C927.44 589.933 928.48 585.994 928.232 582.146C928.05 579.326 924.174 577.461 923.185 580.429M920.418 605.795C920.33 605.092 919.642 605.284 919.495 605.871C918.57 609.573 917.362 613.215 916.626 616.966C916.018 620.057 919.094 620.305 921.545 619.605C922.215 619.413 921.467 616.885 921.443 616.556C921.166 612.798 922.935 610.302 923.543 606.819C924.211 602.994 921.811 602.171 919.495 604.872M915.806 631.622C913.425 632.151 913.551 641.139 913.551 642.434C913.551 647.522 914.163 645.902 915.344 641.768M915.806 632.544C915.649 632.544 918.182 633.157 918.932 633.364C922.298 634.293 920.87 635.605 920.315 639.103C919.393 644.911 920.348 648.893 913.5 644.535M819.877 700.8C820.128 698.797 820.163 705.544 820.031 706.284C819.725 708.002 815.984 722.098 818.955 714.175M820.8 702.184C820.633 700.688 826.024 701.338 827.461 701.749C830.528 702.625 827.651 705.925 826.898 708.436C825.793 712.117 825.412 715.296 825.412 719.018C825.412 721.004 818.365 718.992 817.571 717.404M825.412 674.974C825.372 674.736 824.066 677.765 823.977 678.33C823.401 682 821.023 687.771 822.081 691.474C822.469 692.831 827.843 692.887 827.615 690.347C827.218 685.918 827.192 682.086 828.615 677.818C828.907 676.94 830.249 674.624 829.101 673.949C826.215 672.251 826.603 673.718 824.028 675.435M812.959 673.59C812.959 667.725 809.731 685.02 809.731 690.885C809.731 692.158 813.402 691.576 814.317 691.576C816.386 691.576 816.238 690.997 816.393 688.886C816.723 684.37 816.35 680.938 817.93 676.562C818.715 674.389 818.494 673.328 818.494 671.284C818.494 669.561 813.117 671.397 814.804 675.896M831.407 652.375C830.457 651.306 831.678 650.904 831.381 649.864C831.284 649.522 829.939 653.401 829.767 654.015C829.162 656.175 825.025 666.067 828.717 666.929C829.671 667.151 834.566 669.2 834.635 667.851C834.897 662.758 837.585 658.262 836.839 653.042C836.299 649.262 834.508 648.463 831.407 650.531M819.416 648.225C819.416 653.043 816.649 657.552 816.649 662.522C816.649 664.452 822.546 663.988 823.106 661.65C824.094 657.521 825.427 651.353 824.95 647.302C824.737 645.489 819.844 646.281 820.339 647.763M806.042 644.073C805.273 638.693 803.736 654.78 803.736 660.215C803.736 660.989 803.42 662.075 803.044 662.752C802.355 663.992 806.966 663.178 807.784 663.341C810.039 663.792 811.576 647.726 811.576 645.457C811.576 641.355 809.622 643.612 806.964 643.612M837.403 623.32C834.821 621.025 833.743 632.23 833.713 633.568C833.683 634.913 833.788 636.273 833.713 637.617C833.571 640.172 835.001 639.239 837.608 639.487C841.442 639.852 841.034 627.193 842.219 623.807C843.433 620.34 839.301 621.014 836.941 621.014M822.644 623.32C822.456 623.341 822.273 623.418 822.097 623.543M822.097 623.543C819.882 625.109 818.603 634.264 818.494 636.233C818.402 637.89 826.464 639.576 826.744 638.668C827.768 635.34 825.873 630.405 825.873 626.907C825.873 625.216 826.67 623.536 825.873 622.141C824.72 620.125 820.836 622.583 822.097 623.543ZM822.097 623.543C822.224 623.64 822.404 623.721 822.644 623.781M829.101 597.493C829.101 594.205 829.003 596.256 828.384 598.646C827.455 602.228 826.22 605.967 825.898 609.663C825.73 611.6 828.395 610.952 829.87 611.431C832.806 612.385 833.222 613.164 833.252 609.535C833.27 607.356 835.152 597.138 833.918 595.904C832.363 594.349 830.229 594.314 829.101 596.571M812.037 622.397C809.856 619.944 809.118 628.845 808.809 630.084C808.589 630.963 806.35 641.355 808.348 636.694M810.653 625.626C808.603 625.369 811.901 623.568 812.498 623.422C815.816 622.615 817.436 621.998 815.624 625.831C814.145 628.959 813.833 632.239 812.857 635.413C812.477 636.647 809.776 638.212 809.27 636.694M816.649 593.803C816.106 589.458 814.882 602.385 814.241 606.717C814.011 608.268 813.281 609.291 815.06 609.715C816.346 610.021 818.5 611.277 819.672 611.277C822.048 611.277 820.989 608.515 820.902 607.076C820.672 603.285 822.351 599.87 822.568 596.186C822.664 594.552 821.755 592.756 820.031 592.522C818.97 592.378 816.365 593.448 816.649 592.881M823.567 567.977C823.45 567.157 822.267 570.044 822.183 570.283C821.161 573.204 819.416 576.243 819.416 579.404C819.416 581.906 818.943 586.916 820.8 582.274M823.567 569.821C821.91 569.821 827.366 568.752 828.537 569.924C829.14 570.526 826.804 576.407 826.539 577.431C825.947 579.716 825.485 582.057 824.976 584.349C824.602 586.03 820.305 584.804 818.955 584.579M806.041 595.648C806.041 594.338 804.404 601.783 804.222 602.797C803.948 604.328 801.932 614.715 803.735 608.101M804.197 598.416C804.378 596.782 809.458 596.72 810.654 596.571M807.886 596.571C807.413 596.503 809.885 595.281 810.423 595.161C811.906 594.832 813.937 592.752 812.857 595.495C811.362 599.289 811.115 603.098 811.115 607.127C811.115 608.148 811.407 609.695 810.884 610.637C809.983 612.258 806.412 610.271 805.58 609.023M801.43 621.937C798.804 622.52 798.927 632.031 798.739 633.748C798.378 637.064 798.279 636.599 799.585 633.466M800.968 623.781C800.649 623.736 804.593 622.859 805.555 622.859C808.37 622.859 805.178 628.414 804.658 630.34C804.303 631.655 804.551 636.695 802.531 636.695C800.203 636.695 799.194 637.509 798.662 634.85M809.731 568.899C810.547 568.186 809.72 569.918 809.629 570.283C808.821 573.513 808.718 576.885 807.886 580.122C806.86 584.114 806.881 585.805 808.347 580.429M808.809 570.282C808.912 569.451 814.23 568.654 814.932 568.489C817.347 567.921 818.786 567.484 817.366 570.282C815.324 574.309 812.959 578.319 812.959 582.94C812.959 584.493 805.161 584.548 808.809 581.812M818.033 543.072C817.929 542.137 817.298 542.279 817.11 543.124C816.364 546.481 815.412 549.757 814.855 553.167C814.637 554.507 813.882 561.336 813.882 556.447M816.649 543.533C816.649 543.209 821.523 542.786 822.235 542.714C823.388 542.596 820.65 552.065 820.441 553.475C820.307 554.38 820.344 558.165 819.211 558.65C815.638 560.182 814.233 557.018 811.115 560.136M809.782 928.552C810.646 935.465 835.09 930.001 838.431 930.001C849.615 930.001 856.391 941.045 845.916 949.557C823.389 967.859 797.647 966.908 770.348 965.089C752.61 963.906 730.345 970.59 718.039 984.403C711.86 991.338 713.261 1001.31 722.304 1004.52C737.284 1009.84 755.001 1009.58 770.67 1011.2C786.918 1012.88 802.359 1019.05 818.473 1021.58C842.88 1025.42 841.054 1055.11 822.014 1065.36C784.601 1085.51 747.352 1054.72 711.279 1047.66C666.157 1038.82 615.891 1033.17 570.123 1039.45C553.619 1041.71 504.377 1051.51 509.282 1077.68C510.542 1084.39 523.872 1088.57 529.16 1090.87C548.39 1099.23 570.827 1105.74 591.369 1109.95C616.165 1115.02 640.621 1119.56 665.246 1125.56C685.186 1130.42 718.025 1136.29 729.788 1155.9C735.996 1166.24 714.038 1179.6 706.691 1182.62C680.491 1193.38 646.523 1184.02 621.306 1175.45C590.856 1165.11 562.695 1153.32 531.172 1145.84C517.32 1142.55 503.134 1139.63 489.646 1135.05C467.688 1127.6 447.606 1115.56 425.748 1107.77C389.688 1094.92 353.254 1103.39 316.944 1108.5C293.965 1111.73 271.784 1115.23 248.619 1116.95C235.106 1117.95 224.041 1110.56 211.197 1105.52C209.649 1103.97 202.971 1098.04 194.861 1098.04C186.281 1098.04 177.861 1099.35 169.35 1099.48C145.608 1099.85 115.561 1113.7 94 1116.5C87.2639 1117.38 82 1120 73.4749 1121.4C55.9048 1126.92 38.443 1137.03 24.9235 1149.46C9.11028 1164 -1.68037 1192.17 2.42025 1214.04C6.64262 1236.56 24.3483 1244.76 41.7238 1255.88C52.9828 1263.09 104.486 1267.52 118.247 1267.52C122.337 1265.7 126.867 1264.2 131.123 1263.25C161.654 1256.47 183.734 1258.45 214.417 1263.82C243.877 1268.97 274.539 1266.36 301.331 1252.71C311.269 1247.65 316.643 1237.82 321.611 1228.41C326.731 1218.71 334.799 1211.38 342.535 1203.94C370.986 1176.59 421.862 1178.68 457.858 1185.76C479.119 1189.93 499.052 1196.08 520.63 1198.71C535.471 1200.52 550.301 1202.13 565.133 1203.78C595.333 1207.14 624.622 1213.66 655.267 1213.92C679.207 1214.13 703.601 1211.3 727.374 1213.6C754.339 1216.21 782.184 1214.6 803.988 1196.22C816.086 1186.02 822.541 1172.74 817.588 1156.78C812.672 1140.94 786.889 1131.13 774.211 1123.31C767.347 1119.07 740.696 1104.36 743.228 1092.97C745.116 1084.47 762.48 1083.32 768.578 1083.63C787.603 1084.61 805.578 1089.36 824.268 1091.92C837.453 1093.73 853.395 1099.33 866.276 1093.37C888.914 1082.89 913.643 1064.89 905.388 1037.52C897.127 1010.13 860.225 1009.5 845.353 987.863C840.781 981.215 840.269 980.335 848.974 977.723C864.249 973.141 880.098 965.879 894.363 958.892C904.045 954.15 923.305 938.739 918.747 925.977C915.762 917.619 895.781 919.861 889.454 919.861C861.117 919.861 833.615 928.552 805.436 928.552M849.682 214.88C843.819 216.183 847.719 232.338 848.294 232.913M863.553 202.395C861.29 207.488 863.489 212.863 863.553 218.271C863.654 226.677 863.06 227.876 867.715 220.428M873.264 201.008C869.584 205.608 870.681 228.624 874.651 225.977M873.264 216.267C870.067 214.763 863.145 216.675 863.553 216.267M882.974 201.008C881.073 205.285 880.354 210.404 879.891 215.034C878.742 226.525 884.471 201.51 887.136 198.464C891.772 193.166 897.176 226.373 899.62 219.041M896.846 213.493C892.263 213.493 887.141 214.534 882.974 213.493M896.846 198.233C899.352 201.017 905.661 219.062 908.483 218.193C913.353 216.695 910.134 196.773 916.266 192.685M934.3 199.621C936.387 199.323 931.662 197 930.832 197C927.65 197 924.25 199.581 922.894 202.241C914.613 218.485 933.572 224.068 935.687 213.493M932.913 206.557C927.419 207.056 921.678 208.249 916.266 209.331M960.656 206.557C960.285 203.588 952.993 239.389 960.656 225.977M959.269 209.331C960.491 200.774 967.453 224.558 971.6 232.142C974.656 237.733 974.754 230.223 976.532 226.131C980.871 216.142 985.632 207.81 992.561 199.621M996.723 223.203C998.545 222.682 990.057 217.729 986.859 221.816C978.954 231.917 979.63 253.094 995.336 242.623M993.949 232.913C990.255 235.186 983.333 235.084 980.077 232.913M1006.43 227.364C1003.37 228.129 1004.35 237.838 1004.58 239.695C1006.63 256.048 1024.76 230.314 1028.63 225.977M1030.02 245.398C1034.35 244.916 1036.22 238.36 1031.09 237.383C1016.04 234.515 1015.39 267.828 1032.79 257.882M1031.4 250.946C1026.27 250.676 1021.14 249.281 1016.14 248.172M1049.44 245.397C1045.17 250.015 1030.34 282.121 1041.11 273.141M1045.27 248.172C1046.34 238.606 1071.57 244.129 1049.74 256.495C1041.64 261.089 1047.74 259.427 1051.9 264.818C1053.08 266.339 1055.94 274.005 1057.76 270.367M839.971 253.721C839.971 245.757 838.979 269.676 839.663 277.611C841.254 296.07 856.114 259.43 858.005 255.108M871.876 256.495C874.781 256.132 867.027 249.703 862.937 257.883C859.931 263.894 874.188 268.499 874.188 274.375C874.188 280.339 859.02 277.733 856.617 274.529M882.974 259.27C882.665 257.11 879.047 265.339 878.812 266.514C876.424 278.456 893.784 273.429 898.233 268.98M894.072 260.657C888.102 263.484 882.563 263.431 876.038 263.431M899.62 252.333C894.502 252.333 884.157 256.495 882.974 256.495M909.331 253.721C909.331 246.723 905.567 267.602 906.556 274.529M910.718 252.334C914.165 251.951 915.671 251.252 917.654 255.108C921.914 263.392 902.346 271.294 896.846 274.529M955.108 257.882C951.283 261.707 942.693 280.008 945.397 277.303M955.108 262.044C965.509 250.343 963.431 276.415 963.431 282.852M964.818 273.141C960.043 268.898 955.145 273.892 950.946 267.593M988.4 280.078C988.4 279.164 989.038 277.242 989.399 276.234M989.399 276.234C989.564 275.772 989.672 275.502 989.633 275.608C989.558 275.816 989.479 276.024 989.399 276.234ZM989.399 276.234C986.787 283.044 981.905 290.607 989.787 295.337M988.4 277.303C989.362 268.648 1001.57 270.11 1006.74 273.45C1019.93 281.973 983.025 280.077 998.11 280.077M1016.14 280.077C1005.65 290.569 1003.75 310.907 1023.08 303.659M1024.47 293.949C1018.5 293.949 1014.93 292.12 1010.59 288.4M1028.63 287.013C1028.01 289.183 1012.39 284.654 1010.59 284.239M1039.73 292.562C1038.08 292.927 1036.75 295.278 1035.64 298.086M1035.64 298.086C1034.19 301.775 1033.12 306.253 1032.25 308.052C1029.75 313.227 1033.77 299.285 1035.26 297.802C1035.33 297.728 1035.46 297.833 1035.64 298.086ZM1035.64 298.086C1037.24 300.322 1042.5 314.078 1043.12 315.759C1045.85 323.221 1056.15 298.409 1057.76 295.336M835.81 303.66C835.81 303.276 832.856 313.304 832.188 315.605C828.323 328.916 841.82 325.161 851.069 321.693M851.069 307.821C847.929 311.746 844.979 331.944 852.456 324.467M862.166 307.821C858.804 312.304 856.959 334.177 859.392 334.177M873.264 309.208C875.074 309.467 859.511 321.931 859.931 322.772C860.416 323.742 869.375 326.481 871.029 328.012C874.71 331.421 875.101 335.197 880.2 334.177M885.748 307.821C881.066 312.504 880.663 320.485 880.816 326.779C881.103 338.524 895.678 327.917 899.62 324.467M895.459 317.531C890.727 317.531 886.323 318.918 881.587 318.918M902.395 307.821C908.244 307.821 891.297 311.52 885.749 313.37M953.72 309.208C953.279 305.679 932.419 308.582 938.461 310.596M944.01 309.208C944.01 316.438 938.448 325.849 945.397 328.629M956.495 313.37C956.495 312.121 954.855 318.389 954.491 319.689C953.112 324.614 949.789 340.921 957.882 334.177M967.592 313.37C966.776 322.345 963.612 329.261 966.205 338.339M966.205 332.79C961.099 331.206 956.238 330.497 950.946 330.016M977.303 317.531C973.805 324.916 973.552 333.201 978.69 338.339M996.723 324.467C998.602 324.232 998.54 311.491 989.171 319.612C982.47 325.419 993.795 333.065 997.725 336.258C1003.55 340.992 978.38 346.333 975.915 346.662M1078.57 134.423C1083.45 128.925 1078.29 121.829 1071.17 125.021C1067.14 126.827 1063.71 135.108 1066.93 139.047C1070.62 143.557 1081.18 130.147 1077.49 138.585C1073.93 146.723 1084.03 143.18 1086.74 139.124C1091.74 131.623 1090.61 119.682 1081.34 116.235C1068.69 111.529 1054.61 131.25 1055.83 142.284C1057.72 159.245 1083.55 143.028 1089.66 138.585M1110.47 139.972C1110.74 137.535 1113.75 136.348 1113.17 133.73C1112.06 128.754 1103.69 124.87 1099.99 129.183C1093.58 136.666 1109 145.847 1102.92 152.688C1098.4 157.774 1086.89 154.468 1086.89 148.295M1113.25 141.359C1106.19 141.359 1124.22 152.456 1131.28 152.456M1120.18 151.069C1117.37 155.378 1115.02 159.232 1111.24 162.783C1103.36 170.19 1105.81 159.33 1106.31 153.844M1132.67 155.231C1136.55 150.865 1143.08 152.856 1138.22 158.005C1135.2 161.2 1130.77 162.981 1128.04 165.711C1126.69 167.069 1141.91 174.88 1143.76 176.038" stroke="#8C0C0C" stroke-width="3" stroke-linecap="round"/>
</svg>
