<svg width="1094" height="200" viewBox="0 0 3281 484" fill="none" xmlns="http://www.w3.org/2000/svg">
<mask id="path-1-outside-1_636_2" maskUnits="userSpaceOnUse" x="-18" y="-12" width="3311" height="530" fill="black">
<rect fill="white" x="-18" y="-12" width="3311" height="530"/>
<path d="M0.50553 17.5996H69.8864L191.303 359.548L180.772 355.212L269.356 126.007L297.233 207.158L178.913 483.443L0.50553 17.5996ZM215.462 17.5996H275.551L406.879 354.592L394.49 352.115L510.331 17.5996H574.137L398.207 482.823L215.462 17.5996ZM663.844 15.1217H954.996V72.7326H723.933V209.016H930.217V266.627H723.933V405.389H963.668V463H663.844V15.1217ZM1067.95 15.1217H1128.04V405.389H1355.39V463H1067.95V15.1217ZM1773.78 429.549C1766.34 434.504 1756.23 440.08 1743.42 446.274C1730.62 452.469 1715.55 457.631 1698.2 461.761C1681.27 465.891 1662.69 467.956 1642.45 467.956C1607.76 467.543 1576.37 461.348 1548.29 449.372C1520.62 437.395 1497.08 421.082 1477.67 400.433C1458.26 379.784 1443.19 356.038 1432.45 329.194C1422.12 301.937 1416.96 273.029 1416.96 242.468C1416.96 209.016 1422.33 178.249 1433.07 150.167C1444.22 121.671 1459.71 97.0985 1479.53 76.4495C1499.35 55.3874 1522.69 39.0747 1549.53 27.5112C1576.79 15.9477 1606.52 10.166 1638.73 10.166C1665.58 10.166 1689.94 13.8828 1711.83 21.3164C1733.72 28.3371 1752.51 36.8032 1768.2 46.7148L1744.04 102.467C1731.65 94.2077 1716.58 86.361 1698.82 78.9274C1681.48 71.4937 1662.07 67.7769 1640.59 67.7769C1618.7 67.7769 1598.05 72.1132 1578.64 80.7858C1559.23 89.4584 1542.1 101.641 1527.23 117.335C1512.36 133.028 1500.59 151.406 1491.92 172.468C1483.66 193.117 1479.53 215.418 1479.53 239.371C1479.53 263.736 1483.25 286.45 1490.68 307.513C1498.53 328.162 1509.47 346.126 1523.51 361.407C1537.97 376.687 1555.31 388.663 1575.55 397.336C1595.78 406.009 1618.5 410.345 1643.69 410.345C1666.4 410.345 1686.64 406.835 1704.4 399.814C1722.16 392.793 1736.82 384.947 1748.38 376.274L1773.78 429.549ZM1847.08 239.371C1847.08 208.397 1852.87 179.282 1864.43 152.025C1876.41 124.355 1892.92 99.9894 1913.99 78.9274C1935.05 57.4523 1959.21 40.7266 1986.46 28.7501C2014.13 16.3607 2043.87 10.166 2075.67 10.166C2107.06 10.166 2136.38 16.3607 2163.63 28.7501C2191.3 40.7266 2215.67 57.4523 2236.73 78.9274C2258.21 99.9894 2274.93 124.355 2286.91 152.025C2298.89 179.282 2304.87 208.397 2304.87 239.371C2304.87 271.17 2298.89 300.905 2286.91 328.575C2274.93 356.244 2258.21 380.61 2236.73 401.672C2215.67 422.321 2191.3 438.634 2163.63 450.611C2136.38 462.174 2107.06 467.956 2075.67 467.956C2043.87 467.956 2014.13 462.174 1986.46 450.611C1959.21 439.047 1935.05 422.941 1913.99 402.292C1892.92 381.643 1876.41 357.483 1864.43 329.814C1852.87 302.144 1847.08 271.996 1847.08 239.371ZM1909.03 239.99C1909.03 263.53 1913.37 285.625 1922.04 306.274C1930.71 326.51 1942.69 344.474 1957.97 360.168C1973.25 375.861 1991.01 388.25 2011.24 397.336C2031.48 406.009 2053.37 410.345 2076.91 410.345C2100.03 410.345 2121.72 406.009 2141.95 397.336C2162.19 388.25 2179.74 375.861 2194.61 360.168C2209.47 344.474 2221.24 326.51 2229.92 306.274C2238.59 285.625 2242.93 263.324 2242.93 239.371C2242.93 215.831 2238.59 193.736 2229.92 173.087C2221.24 152.025 2209.27 133.647 2193.99 117.954C2178.71 102.261 2160.95 90.0778 2140.71 81.4052C2120.48 72.3197 2098.8 67.7769 2075.67 67.7769C2052.13 67.7769 2030.24 72.3197 2010 81.4052C1989.77 90.4908 1972.01 102.88 1956.73 118.574C1941.45 134.267 1929.68 152.645 1921.42 173.707C1913.16 194.356 1909.03 216.45 1909.03 239.99ZM2406.11 463V0.873867H2406.73L2641.51 334.15L2616.11 329.194L2850.27 0.873867H2851.51V463H2792.04V137.158L2795.76 167.512L2626.64 406.628H2625.4L2453.81 167.512L2464.34 139.636V463H2406.11ZM2980.21 15.1217H3271.36V72.7326H3040.3V209.016H3246.58V266.627H3040.3V405.389H3280.03V463H2980.21V15.1217Z"/>
</mask>
<path d="M0.50553 17.5996V5.2559H-17.4399L-11.0217 22.0143L0.50553 17.5996ZM69.8864 17.5996L81.5186 13.4693L78.6022 5.2559H69.8864V17.5996ZM191.303 359.548L186.603 370.962L212.196 381.501L202.935 355.418L191.303 359.548ZM180.772 355.212L169.258 350.762L164.904 362.027L176.072 366.626L180.772 355.212ZM269.356 126.007L281.031 121.997L270.039 89.9999L257.843 121.557L269.356 126.007ZM297.233 207.158L308.58 212.017L310.452 207.646L308.907 203.148L297.233 207.158ZM178.913 483.443L167.386 487.857L178.275 516.289L190.26 488.302L178.913 483.443ZM215.462 17.5996V5.2559H197.352L203.973 22.1127L215.462 17.5996ZM275.551 17.5996L287.052 13.1175L283.989 5.2559H275.551V17.5996ZM406.879 354.592L404.458 366.696L426.567 371.118L418.38 350.11L406.879 354.592ZM394.49 352.115L382.826 348.075L378.196 361.444L392.069 364.219L394.49 352.115ZM510.331 17.5996V5.2559H501.543L498.667 13.5604L510.331 17.5996ZM574.137 17.5996L585.682 21.9658L592.001 5.2559H574.137V17.5996ZM398.207 482.823L386.717 487.336L398.425 517.142L409.752 487.189L398.207 482.823ZM0.50553 29.9433H69.8864V5.2559H0.50553V29.9433ZM58.2542 21.7299L179.671 363.678L202.935 355.418L81.5186 13.4693L58.2542 21.7299ZM196.003 348.134L185.472 343.798L176.072 366.626L186.603 370.962L196.003 348.134ZM192.286 359.662L280.87 130.457L257.843 121.557L169.258 350.762L192.286 359.662ZM257.682 130.017L285.558 211.168L308.907 203.148L281.031 121.997L257.682 130.017ZM285.886 202.299L167.566 478.583L190.26 488.302L308.58 212.017L285.886 202.299ZM190.441 479.028L12.0328 13.1849L-11.0217 22.0143L167.386 487.857L190.441 479.028ZM215.462 29.9433H275.551V5.2559H215.462V29.9433ZM264.05 22.0817L395.378 359.074L418.38 350.11L287.052 13.1175L264.05 22.0817ZM409.3 342.488L396.911 340.01L392.069 364.219L404.458 366.696L409.3 342.488ZM406.154 356.154L521.995 21.6389L498.667 13.5604L382.826 348.075L406.154 356.154ZM510.331 29.9433H574.137V5.2559H510.331V29.9433ZM562.591 13.2335L386.661 478.457L409.752 487.189L585.682 21.9658L562.591 13.2335ZM409.696 478.31L226.951 13.0866L203.973 22.1127L386.717 487.336L409.696 478.31ZM663.844 15.1217V2.778H651.5V15.1217H663.844ZM954.996 15.1217H967.339V2.778H954.996V15.1217ZM954.996 72.7326V85.0763H967.339V72.7326H954.996ZM723.933 72.7326V60.3889H711.589V72.7326H723.933ZM723.933 209.016H711.589V221.36H723.933V209.016ZM930.217 209.016H942.561V196.673H930.217V209.016ZM930.217 266.627V278.971H942.561V266.627H930.217ZM723.933 266.627V254.284H711.589V266.627H723.933ZM723.933 405.389H711.589V417.733H723.933V405.389ZM963.668 405.389H976.012V393.045H963.668V405.389ZM963.668 463V475.344H976.012V463H963.668ZM663.844 463H651.5V475.344H663.844V463ZM663.844 27.4654H954.996V2.778H663.844V27.4654ZM942.652 15.1217V72.7326H967.339V15.1217H942.652ZM954.996 60.3889H723.933V85.0763H954.996V60.3889ZM711.589 72.7326V209.016H736.276V72.7326H711.589ZM723.933 221.36H930.217V196.673H723.933V221.36ZM917.873 209.016V266.627H942.561V209.016H917.873ZM930.217 254.284H723.933V278.971H930.217V254.284ZM711.589 266.627V405.389H736.276V266.627H711.589ZM723.933 417.733H963.668V393.045H723.933V417.733ZM951.325 405.389V463H976.012V405.389H951.325ZM963.668 450.656H663.844V475.344H963.668V450.656ZM676.188 463V15.1217H651.5V463H676.188ZM1067.95 15.1217V2.778H1055.61V15.1217H1067.95ZM1128.04 15.1217H1140.39V2.778H1128.04V15.1217ZM1128.04 405.389H1115.7V417.733H1128.04V405.389ZM1355.39 405.389H1367.73V393.045H1355.39V405.389ZM1355.39 463V475.344H1367.73V463H1355.39ZM1067.95 463H1055.61V475.344H1067.95V463ZM1067.95 27.4654H1128.04V2.778H1067.95V27.4654ZM1115.7 15.1217V405.389H1140.39V15.1217H1115.7ZM1128.04 417.733H1355.39V393.045H1128.04V417.733ZM1343.04 405.389V463H1367.73V405.389H1343.04ZM1355.39 450.656H1067.95V475.344H1355.39V450.656ZM1080.3 463V15.1217H1055.61V463H1080.3ZM1773.78 429.549L1780.63 439.819L1789.52 433.888L1784.92 424.237L1773.78 429.549ZM1743.42 446.274L1748.8 457.386L1748.8 457.386L1743.42 446.274ZM1698.2 461.761L1695.34 449.753L1695.31 449.761L1695.28 449.769L1698.2 461.761ZM1642.45 467.956L1642.3 480.299L1642.38 480.299H1642.45V467.956ZM1548.29 449.372L1543.39 460.7L1543.42 460.713L1543.45 460.726L1548.29 449.372ZM1477.67 400.433L1468.68 408.888L1468.68 408.888L1477.67 400.433ZM1432.45 329.194L1420.91 333.567L1420.95 333.673L1420.99 333.778L1432.45 329.194ZM1433.07 150.167L1421.57 145.669L1421.56 145.713L1421.54 145.758L1433.07 150.167ZM1479.53 76.4495L1488.43 84.9979L1488.48 84.9539L1488.52 84.9094L1479.53 76.4495ZM1549.53 27.5112L1544.71 16.1478L1544.68 16.1611L1544.65 16.1746L1549.53 27.5112ZM1711.83 21.3164L1707.86 33.0045L1707.96 33.0382L1708.06 33.0703L1711.83 21.3164ZM1768.2 46.7148L1779.53 51.6228L1783.73 41.9232L1774.79 36.2783L1768.2 46.7148ZM1744.04 102.467L1737.2 112.738L1749.49 120.936L1755.37 107.375L1744.04 102.467ZM1698.82 78.9274L1693.96 90.273L1694.01 90.2936L1694.06 90.3137L1698.82 78.9274ZM1578.64 80.7858L1573.61 69.5158L1573.61 69.5158L1578.64 80.7858ZM1527.23 117.335L1536.19 125.824L1536.19 125.824L1527.23 117.335ZM1491.92 172.468L1480.5 167.768L1480.48 167.825L1480.46 167.883L1491.92 172.468ZM1490.68 307.513L1479.04 311.621L1479.09 311.76L1479.14 311.897L1490.68 307.513ZM1523.51 361.407L1514.42 369.759L1514.48 369.824L1514.54 369.889L1523.51 361.407ZM1575.55 397.336L1580.41 385.99L1580.41 385.99L1575.55 397.336ZM1704.4 399.814L1699.86 388.335L1699.86 388.335L1704.4 399.814ZM1748.38 376.274L1759.52 370.962L1753.03 357.353L1740.97 366.399L1748.38 376.274ZM1766.93 419.278C1760.16 423.793 1750.6 429.089 1738.05 435.163L1748.8 457.386C1761.85 451.07 1772.53 445.216 1780.63 439.819L1766.93 419.278ZM1738.05 435.163C1726.22 440.885 1712.03 445.78 1695.34 449.753L1701.06 473.769C1719.07 469.482 1735.02 464.053 1748.8 457.386L1738.05 435.163ZM1695.28 449.769C1679.44 453.631 1661.85 455.612 1642.45 455.612V480.299C1663.52 480.299 1683.1 478.15 1701.13 473.753L1695.28 449.769ZM1642.6 455.613C1609.3 455.217 1579.54 449.28 1553.13 438.017L1543.45 460.726C1573.2 473.416 1606.22 479.869 1642.3 480.299L1642.6 455.613ZM1553.19 438.044C1526.97 426.693 1504.85 411.324 1486.66 391.979L1468.68 408.888C1489.31 430.841 1514.27 448.098 1543.39 460.7L1553.19 438.044ZM1486.66 391.979C1468.33 372.477 1454.09 350.05 1443.91 324.61L1420.99 333.778C1432.29 362.025 1448.19 387.091 1468.68 408.888L1486.66 391.979ZM1443.99 324.822C1434.22 299.029 1429.31 271.608 1429.31 242.468H1404.62C1404.62 274.449 1410.03 304.846 1420.91 333.567L1443.99 324.822ZM1429.31 242.468C1429.31 210.354 1434.46 181.101 1444.6 154.575L1421.54 145.758C1410.21 175.398 1404.62 207.679 1404.62 242.468H1429.31ZM1444.56 154.665C1455.17 127.571 1469.81 104.401 1488.43 84.9979L1470.62 67.9011C1449.6 89.7962 1433.27 115.771 1421.57 145.669L1444.56 154.665ZM1488.52 84.9094C1507.17 65.0902 1529.1 49.7505 1554.41 38.8478L1544.65 16.1746C1516.27 28.3988 1491.53 45.6846 1470.54 67.9895L1488.52 84.9094ZM1554.35 38.8746C1579.95 28.013 1608.03 22.5097 1638.73 22.5097V-2.17775C1605.01 -2.17775 1573.62 3.88238 1544.71 16.1478L1554.35 38.8746ZM1638.73 22.5097C1664.44 22.5097 1687.44 26.0687 1707.86 33.0045L1715.8 9.62839C1692.45 1.69693 1666.71 -2.17775 1638.73 -2.17775V22.5097ZM1708.06 33.0703C1729.18 39.845 1746.98 47.9098 1761.61 57.1513L1774.79 36.2783C1758.04 25.6967 1738.26 16.8293 1715.6 9.56256L1708.06 33.0703ZM1756.88 41.8068L1732.72 97.5593L1755.37 107.375L1779.53 51.6228L1756.88 41.8068ZM1750.89 92.1967C1737.69 83.3942 1721.87 75.1959 1703.59 67.541L1694.06 90.3137C1711.29 97.5261 1725.62 105.021 1737.2 112.738L1750.89 92.1967ZM1703.68 67.5817C1684.6 59.4047 1663.51 55.4331 1640.59 55.4331V80.1206C1660.62 80.1206 1678.35 83.5827 1693.96 90.273L1703.68 67.5817ZM1640.59 55.4331C1617.02 55.4331 1594.65 60.1142 1573.61 69.5158L1583.68 92.0557C1601.46 84.1122 1620.39 80.1206 1640.59 80.1206V55.4331ZM1573.61 69.5158C1552.7 78.8602 1534.23 91.997 1518.27 108.845L1536.19 125.824C1549.96 111.286 1565.77 100.057 1583.68 92.0557L1573.61 69.5158ZM1518.27 108.845C1502.3 125.698 1489.72 145.379 1480.5 167.768L1503.33 177.167C1511.46 157.432 1522.42 140.357 1536.19 125.824L1518.27 108.845ZM1480.46 167.883C1471.57 190.099 1467.19 213.969 1467.19 239.371H1491.87C1491.87 216.866 1495.75 196.134 1503.38 177.052L1480.46 167.883ZM1467.19 239.371C1467.19 265.009 1471.1 289.124 1479.04 311.621L1502.32 303.404C1495.39 283.777 1491.87 262.464 1491.87 239.371H1467.19ZM1479.14 311.897C1487.51 333.917 1499.25 353.251 1514.42 369.759L1532.6 353.055C1519.69 339.002 1509.54 322.406 1502.22 303.128L1479.14 311.897ZM1514.54 369.889C1530.21 386.451 1548.97 399.377 1570.68 408.682L1580.41 385.99C1561.65 377.95 1545.72 366.923 1532.48 352.924L1514.54 369.889ZM1570.68 408.682C1592.66 418.101 1617.07 422.689 1643.69 422.689V398.001C1619.93 398.001 1598.9 393.916 1580.41 385.99L1570.68 408.682ZM1643.69 422.689C1667.67 422.689 1689.49 418.982 1708.94 411.293L1699.86 388.335C1683.79 394.687 1665.14 398.001 1643.69 398.001V422.689ZM1708.94 411.293C1727.41 403.989 1743.11 395.654 1755.79 386.149L1740.97 366.399C1730.52 374.239 1716.9 381.597 1699.86 388.335L1708.94 411.293ZM1737.24 381.586L1762.64 434.861L1784.92 424.237L1759.52 370.962L1737.24 381.586ZM1864.43 152.025L1853.1 147.122L1853.08 147.163L1853.07 147.204L1864.43 152.025ZM1913.99 78.9274L1922.72 87.6557L1922.76 87.6133L1922.8 87.5705L1913.99 78.9274ZM1986.46 28.7501L1991.43 40.051L1991.47 40.0337L1991.51 40.016L1986.46 28.7501ZM2163.63 28.7501L2158.53 39.9874L2158.63 40.0338L2158.73 40.0782L2163.63 28.7501ZM2236.73 78.9274L2227.92 87.5705L2228 87.6561L2228.09 87.74L2236.73 78.9274ZM2286.91 152.025L2275.58 156.928L2275.59 156.959L2275.61 156.991L2286.91 152.025ZM2286.91 328.575L2298.24 333.478L2298.24 333.478L2286.91 328.575ZM2236.73 401.672L2245.37 410.487L2245.37 410.485L2236.73 401.672ZM2163.63 450.611L2168.45 461.974L2168.5 461.956L2168.54 461.939L2163.63 450.611ZM1986.46 450.611L1981.64 461.974L1981.67 461.987L1981.71 462L1986.46 450.611ZM1913.99 402.292L1922.63 393.477L1922.63 393.477L1913.99 402.292ZM1864.43 329.814L1853.04 334.573L1853.07 334.645L1853.1 334.717L1864.43 329.814ZM1922.04 306.274L1910.66 311.053L1910.68 311.095L1910.69 311.136L1922.04 306.274ZM2011.24 397.336L2006.19 408.597L2006.28 408.64L2006.38 408.682L2011.24 397.336ZM2141.95 397.336L2146.81 408.682L2146.91 408.64L2147.01 408.597L2141.95 397.336ZM2194.61 360.168L2185.65 351.678L2185.65 351.678L2194.61 360.168ZM2229.92 306.274L2241.26 311.136L2241.28 311.095L2241.3 311.053L2229.92 306.274ZM2229.92 173.087L2218.5 177.787L2218.52 177.827L2218.54 177.867L2229.92 173.087ZM2140.71 81.4052L2135.66 92.666L2135.75 92.7093L2135.85 92.7509L2140.71 81.4052ZM2010 81.4052L2004.95 70.1444L2004.95 70.1444L2010 81.4052ZM1956.73 118.574L1947.89 109.962L1947.89 109.962L1956.73 118.574ZM1921.42 173.707L1932.88 178.291L1932.9 178.252L1932.91 178.213L1921.42 173.707ZM1859.43 239.371C1859.43 209.976 1864.91 182.508 1875.79 156.846L1853.07 147.204C1840.83 176.056 1834.74 206.818 1834.74 239.371H1859.43ZM1875.76 156.928C1887.12 130.668 1902.77 107.604 1922.72 87.6557L1905.26 70.199C1883.08 92.3746 1865.69 118.043 1853.1 147.122L1875.76 156.928ZM1922.8 87.5705C1942.77 67.2065 1965.63 51.3881 1991.43 40.051L1981.5 17.4492C1952.79 30.065 1927.33 47.6981 1905.17 70.2842L1922.8 87.5705ZM1991.51 40.016C2017.51 28.3718 2045.52 22.5097 2075.67 22.5097V-2.17775C2042.22 -2.17775 2010.75 4.34959 1981.42 17.4842L1991.51 40.016ZM2075.67 22.5097C2105.38 22.5097 2132.95 28.3623 2158.53 39.9874L2168.74 17.5128C2139.8 4.35905 2108.73 -2.17775 2075.67 -2.17775V22.5097ZM2158.73 40.0782C2184.94 51.4223 2207.98 67.2375 2227.92 87.5705L2245.54 70.2842C2223.36 47.6671 2197.67 30.0308 2168.54 17.422L2158.73 40.0782ZM2228.09 87.74C2248.42 107.682 2264.24 130.719 2275.58 156.928L2298.24 147.122C2285.63 117.991 2267.99 92.2968 2245.37 70.1147L2228.09 87.74ZM2275.61 156.991C2286.87 182.619 2292.53 210.036 2292.53 239.371H2317.22C2317.22 206.758 2310.9 175.945 2298.21 147.059L2275.61 156.991ZM2292.53 239.371C2292.53 269.577 2286.85 297.633 2275.58 323.671L2298.24 333.478C2310.92 304.176 2317.22 272.763 2317.22 239.371H2292.53ZM2275.58 323.671C2264.24 349.88 2248.42 372.918 2228.09 392.86L2245.37 410.485C2267.99 388.303 2285.63 362.608 2298.24 333.478L2275.58 323.671ZM2228.09 392.858C2208.13 412.423 2185.04 427.894 2158.73 439.282L2168.54 461.939C2197.57 449.374 2223.21 432.22 2245.37 410.487L2228.09 392.858ZM2158.81 439.247C2133.17 450.125 2105.5 455.612 2075.67 455.612V480.299C2108.61 480.299 2139.58 474.223 2168.45 461.974L2158.81 439.247ZM2075.67 455.612C2045.4 455.612 2017.3 450.117 1991.22 439.221L1981.71 462C2010.97 474.231 2042.34 480.299 2075.67 480.299V455.612ZM1991.29 439.247C1965.45 428.285 1942.58 413.041 1922.63 393.477L1905.35 411.106C1927.51 432.841 1952.97 449.81 1981.64 461.974L1991.29 439.247ZM1922.63 393.477C1902.73 373.971 1887.11 351.148 1875.76 324.91L1853.1 334.717C1865.7 363.818 1883.12 389.314 1905.35 411.106L1922.63 393.477ZM1875.82 325.054C1864.94 299.02 1859.43 270.507 1859.43 239.371H1834.74C1834.74 273.485 1840.79 305.268 1853.04 334.573L1875.82 325.054ZM1896.69 239.99C1896.69 265.086 1901.32 288.814 1910.66 311.053L1933.42 301.494C1925.42 282.435 1921.37 261.974 1921.37 239.99H1896.69ZM1910.69 311.136C1919.96 332.757 1932.78 351.994 1949.13 368.779L1966.81 351.556C1952.6 336.954 1941.46 320.262 1933.39 301.411L1910.69 311.136ZM1949.13 368.779C1965.5 385.6 1984.55 398.883 2006.19 408.597L2016.3 386.075C1997.46 377.618 1980.99 366.121 1966.81 351.556L1949.13 368.779ZM2006.38 408.682C2028.26 418.057 2051.81 422.689 2076.91 422.689V398.001C2054.92 398.001 2034.7 393.96 2016.11 385.99L2006.38 408.682ZM2076.91 422.689C2101.62 422.689 2124.97 418.046 2146.81 408.682L2137.09 385.99C2118.47 393.971 2098.45 398.001 2076.91 398.001V422.689ZM2147.01 408.597C2168.68 398.869 2187.56 385.551 2203.57 368.657L2185.65 351.678C2171.92 366.171 2155.7 377.632 2136.9 386.075L2147.01 408.597ZM2203.57 368.657C2219.46 351.885 2232.03 332.687 2241.26 311.136L2218.57 301.411C2210.46 320.332 2199.49 337.063 2185.65 351.678L2203.57 368.657ZM2241.3 311.053C2250.65 288.788 2255.27 264.849 2255.27 239.371H2230.58C2230.58 261.798 2226.53 282.461 2218.54 301.494L2241.3 311.053ZM2255.27 239.371C2255.27 214.274 2250.64 190.546 2241.3 168.307L2218.54 177.867C2226.54 196.926 2230.58 217.387 2230.58 239.371H2255.27ZM2241.33 168.387C2232.08 145.929 2219.25 126.209 2202.83 109.343L2185.14 126.565C2199.28 141.086 2210.41 158.122 2218.5 177.787L2241.33 168.387ZM2202.83 109.343C2186.41 92.4787 2167.3 79.3692 2145.58 70.0596L2135.85 92.7509C2154.6 100.786 2171 112.043 2185.14 126.565L2202.83 109.343ZM2145.77 70.1444C2123.88 60.3145 2100.46 55.4331 2075.67 55.4331V80.1206C2097.13 80.1206 2117.08 84.3248 2135.66 92.666L2145.77 70.1444ZM2075.67 55.4331C2050.49 55.4331 2026.87 60.3018 2004.95 70.1444L2015.06 92.666C2033.61 84.3375 2053.76 80.1206 2075.67 80.1206V55.4331ZM2004.95 70.1444C1983.31 79.8585 1964.27 93.1408 1947.89 109.962L1965.57 127.185C1979.76 112.62 1996.22 101.123 2015.06 92.666L2004.95 70.1444ZM1947.89 109.962C1931.42 126.873 1918.77 146.659 1909.93 169.2L1932.91 178.213C1940.59 158.631 1951.48 141.661 1965.57 127.185L1947.89 109.962ZM1909.96 169.122C1901.08 191.313 1896.69 214.973 1896.69 239.99H1921.37C1921.37 217.928 1925.24 197.398 1932.88 178.291L1909.96 169.122ZM2406.11 463H2393.76V475.344H2406.11V463ZM2406.11 0.873867V-11.4699H2393.76V0.873867H2406.11ZM2406.73 0.873867L2416.82 -6.23497L2413.13 -11.4699H2406.73V0.873867ZM2641.51 334.15L2639.14 346.265L2669.28 352.146L2651.6 327.041L2641.51 334.15ZM2616.11 329.194L2606.06 322.027L2594.93 337.637L2613.75 341.309L2616.11 329.194ZM2850.27 0.873867V-11.4699H2843.91L2840.22 -6.2936L2850.27 0.873867ZM2851.51 0.873867H2863.85V-11.4699H2851.51V0.873867ZM2851.51 463V475.344H2863.85V463H2851.51ZM2792.04 463H2779.7V475.344H2792.04V463ZM2792.04 137.158L2804.29 135.657L2779.7 137.158H2792.04ZM2795.76 167.512L2805.83 174.639L2808.59 170.746L2808.01 166.012L2795.76 167.512ZM2626.64 406.628V418.972H2633.03L2636.72 413.756L2626.64 406.628ZM2625.4 406.628L2615.37 413.825L2619.07 418.972H2625.4V406.628ZM2453.81 167.512L2442.26 163.15L2439.92 169.336L2443.78 174.709L2453.81 167.512ZM2464.34 139.636H2476.68L2452.79 135.273L2464.34 139.636ZM2464.34 463V475.344H2476.68V463H2464.34ZM2418.45 463V0.873867H2393.76V463H2418.45ZM2406.11 13.2176H2406.73V-11.4699H2406.11V13.2176ZM2396.64 7.98271L2631.42 341.259L2651.6 327.041L2416.82 -6.23497L2396.64 7.98271ZM2643.87 322.035L2618.47 317.079L2613.75 341.309L2639.14 346.265L2643.87 322.035ZM2626.16 336.362L2860.32 8.04133L2840.22 -6.2936L2606.06 322.027L2626.16 336.362ZM2850.27 13.2176H2851.51V-11.4699H2850.27V13.2176ZM2839.17 0.873867V463H2863.85V0.873867H2839.17ZM2851.51 450.656H2792.04V475.344H2851.51V450.656ZM2804.38 463V137.158H2779.7V463H2804.38ZM2779.79 138.658L2783.5 169.012L2808.01 166.012L2804.29 135.657L2779.79 138.658ZM2785.68 160.384L2616.56 399.5L2636.72 413.756L2805.83 174.639L2785.68 160.384ZM2626.64 394.284H2625.4V418.972H2626.64V394.284ZM2635.43 399.431L2463.84 160.315L2443.78 174.709L2615.37 413.825L2635.43 399.431ZM2465.36 171.874L2475.89 143.998L2452.79 135.273L2442.26 163.15L2465.36 171.874ZM2452 139.636V463H2476.68V139.636H2452ZM2464.34 450.656H2406.11V475.344H2464.34V450.656ZM2980.21 15.1217V2.778H2967.87V15.1217H2980.21ZM3271.36 15.1217H3283.7V2.778H3271.36V15.1217ZM3271.36 72.7326V85.0763H3283.7V72.7326H3271.36ZM3040.3 72.7326V60.3889H3027.95V72.7326H3040.3ZM3040.3 209.016H3027.95V221.36H3040.3V209.016ZM3246.58 209.016H3258.93V196.673H3246.58V209.016ZM3246.58 266.627V278.971H3258.93V266.627H3246.58ZM3040.3 266.627V254.284H3027.95V266.627H3040.3ZM3040.3 405.389H3027.95V417.733H3040.3V405.389ZM3280.03 405.389H3292.38V393.045H3280.03V405.389ZM3280.03 463V475.344H3292.38V463H3280.03ZM2980.21 463H2967.87V475.344H2980.21V463ZM2980.21 27.4654H3271.36V2.778H2980.21V27.4654ZM3259.02 15.1217V72.7326H3283.7V15.1217H3259.02ZM3271.36 60.3889H3040.3V85.0763H3271.36V60.3889ZM3027.95 72.7326V209.016H3052.64V72.7326H3027.95ZM3040.3 221.36H3246.58V196.673H3040.3V221.36ZM3234.24 209.016V266.627H3258.93V209.016H3234.24ZM3246.58 254.284H3040.3V278.971H3246.58V254.284ZM3027.95 266.627V405.389H3052.64V266.627H3027.95ZM3040.3 417.733H3280.03V393.045H3040.3V417.733ZM3267.69 405.389V463H3292.38V405.389H3267.69ZM3280.03 450.656H2980.21V475.344H3280.03V450.656ZM2992.55 463V15.1217H2967.87V463H2992.55Z" fill="white" mask="url(#path-1-outside-1_636_2)"/>
</svg>
