<svg width="73" height="74" viewBox="0 0 73 74" fill="none" xmlns="http://www.w3.org/2000/svg">
<path fill-rule="evenodd" clip-rule="evenodd" d="M15 0C6.71573 0 0 6.71573 0 15V59C0 67.2843 6.71573 74 15 74H58C66.2843 74 73 67.2843 73 59V15C73 6.71573 66.2843 0 58 0H15ZM62 15C64.2091 15 66 13.2091 66 11C66 8.79086 64.2091 7 62 7C59.7909 7 58 8.79086 58 11C58 13.2091 59.7909 15 62 15ZM58 39.5C58 51.374 48.374 61 36.5 61C24.626 61 15 51.374 15 39.5C15 27.626 24.626 18 36.5 18C48.374 18 58 27.626 58 39.5ZM49 39.5C49 46.4033 43.4033 52 36.5 52C29.5967 52 24 46.4033 24 39.5C24 32.5967 29.5967 27 36.5 27C43.4033 27 49 32.5967 49 39.5Z" fill="white"/>
</svg>
