<svg width="73" height="74" viewBox="0 0 73 74" fill="none" xmlns="http://www.w3.org/2000/svg">
<path fill-rule="evenodd" clip-rule="evenodd" d="M5 0C2.23877 0 0 2.23877 0 5V69C0 71.7612 2.23877 74 5 74H68C70.7612 74 73 71.7612 73 69V5C73 2.23877 70.7612 0 68 0H5ZM19 25C21.7612 25 24 22.7612 24 20C24 17.2388 21.7612 15 19 15C16.2388 15 14 17.2388 14 20C14 22.7612 16.2388 25 19 25ZM32.5 58V30.5H42V33.5C42 32.5 43.7998 30.3999 51 30C58.2002 29.6001 60 37.1665 60 41V58H50V41C49.6665 39.6665 48.3999 37 46 37C43.6001 37 42.3335 39.6665 42 41V58H32.5ZM24 30H14V58H24V30Z" fill="white"/>
</svg>
