<svg width="73" height="74" viewBox="0 0 73 74" fill="none" xmlns="http://www.w3.org/2000/svg">
<path d="M21.0387 58.9874C19.8371 65.3995 6.65761 66.2995 0 65.9219C23.4151 82.9123 42.6981 69.4375 54.1761 58.8913C63.3585 50.4544 66.5723 28.4255 67.0314 18.4656L72.5409 10.2633L65.6541 10.8491L73 0.888883L60.6038 4.40418C54.727 -1.2203 46.8302 -0.282883 43.6164 0.888883C39.4843 2.06065 31.4956 8.03666 32.5975 22.5666C20.844 25.3788 8.72327 11.6301 4.13208 4.40418C2.75472 9.87243 2.66289 22.8009 13.3145 30.7689C10.0088 32.1751 5.20335 30.183 3.21384 29.0113C4.5912 34.0889 9.36604 44.4786 17.4465 45.416C15.9774 47.7595 10.1006 47.1737 7.34591 46.5878C9.42659 51.1395 15 59.7799 21.0387 58.9874Z" fill="white"/>
</svg>
