<svg width="494" height="114" viewBox="0 0 494 114" fill="none" xmlns="http://www.w3.org/2000/svg">
<path d="M0.46326 0.750548H17.3255L46.8344 83.8572L44.2749 82.8033L65.8044 27.0978L72.5794 46.8206L43.8233 113.968L0.46326 0.750548ZM52.706 0.750548H67.3099L99.2277 82.6528L96.2166 82.0506L124.37 0.750548H139.878L97.1199 113.818L52.706 0.750548ZM161.68 0.148325H232.441V14.15H176.284V47.2722H226.419V61.2739H176.284V94.9983H234.549V109H161.68V0.148325ZM259.894 0.148325H274.498V109H259.894V0.148325ZM334.673 0.148325C340.193 0.148325 345.262 0.901105 349.879 2.40666C354.597 3.81185 358.662 5.96981 362.074 8.88055C365.587 11.6909 368.297 15.2039 370.204 19.4194C372.212 23.5346 373.215 28.3524 373.215 33.8728C373.215 38.1887 372.563 42.4043 371.258 46.5194C370.054 50.6346 367.996 54.3985 365.085 57.8111C362.175 61.1233 358.36 63.8333 353.643 65.9411C349.026 67.9485 343.305 68.9522 336.48 68.9522H320.37V109H305.766V0.148325H334.673ZM336.179 54.9506C340.495 54.9506 344.058 54.2981 346.868 52.9933C349.779 51.6885 352.037 50.0324 353.643 48.025C355.249 45.9172 356.403 43.6589 357.106 41.25C357.808 38.8411 358.16 36.5828 358.16 34.475C358.16 32.2668 357.758 30.0085 356.955 27.7C356.253 25.2911 355.048 23.083 353.342 21.0755C351.736 19.0681 349.578 17.412 346.868 16.1072C344.258 14.8024 341.047 14.15 337.233 14.15H320.37V54.9506H336.179ZM354.095 63.2311L382.55 109H365.688L336.781 63.6828L354.095 63.2311ZM405.01 109V0.148325H434.669C445.409 0.148325 454.542 1.80444 462.07 5.11666C469.698 8.42888 475.821 12.795 480.438 18.215C485.055 23.635 488.417 29.6572 490.525 36.2817C492.733 42.8057 493.837 49.3298 493.837 55.8539C493.837 64.0843 492.382 71.4615 489.471 77.9856C486.661 84.5096 482.746 90.0802 477.728 94.6972C472.709 99.3143 466.938 102.877 460.414 105.387C453.99 107.796 447.165 109 439.938 109H405.01ZM419.613 94.9983H437.078C443.1 94.9983 448.621 94.095 453.639 92.2883C458.758 90.4817 463.174 87.872 466.888 84.4594C470.702 81.0469 473.663 76.8815 475.771 71.9633C477.878 66.9448 478.932 61.2739 478.932 54.9506C478.932 48.2257 477.828 42.3541 475.62 37.3356C473.412 32.2167 470.401 27.9509 466.587 24.5383C462.773 21.1257 458.457 18.5663 453.639 16.86C448.821 15.0533 443.753 14.15 438.433 14.15H419.613V94.9983Z" fill="white"/>
</svg>
