<svg width="744" height="895" viewBox="0 0 744 895" fill="none" xmlns="http://www.w3.org/2000/svg">
<path d="M415.5 279.5L297 316L210.5 268.5L198 247.5H176L11 169V839L55.5 817L105.5 774.5L112.5 778.5H143.5L206.5 762.5L239 738.5L271 699.5L292 719.5L320.5 742L390 787.5L426 800H462L500 779.5L534.5 767H566L596 769.5L606 784L654.5 852L738 892.5L714 791L679.5 714.5L672 672L654.5 627L664.5 572L672 510.5V394.5L653 323V279.5L676.5 251L649 243.5L524 307L501 286L467 271.5L415.5 279.5Z" fill="#1B998B"/>
<path d="M406.124 684.59C408.259 686.531 421.827 683.035 420.673 683.035C426.112 683.035 424.539 654.295 420.562 653.159C414.02 651.29 392.159 667.245 398.036 674.589C401.565 679 398.036 683.035 406.124 684.59Z" fill="#F4FFAE"/>
<path d="M741.176 891.529C740.448 897.352 664.781 862.225 656.102 853.545C648.429 845.873 642.224 836.293 635.222 828.001C626.056 817.147 620.976 806.078 612.343 794.682C605.841 786.1 599.737 776.76 594.128 767.582C592.657 765.175 583.947 753.588 585.243 753.588M599.237 773.58C574.223 770.8 546.787 758.166 521.271 769.581C494.35 781.625 475.941 801.568 445.192 801.568C406.175 801.568 364.396 772.825 333.573 750.478C319.662 740.392 296.457 728.266 288.148 713.494C282.143 702.818 272.966 697.436 289.37 695.613M739.177 881.533C739.177 918.698 724.207 808.213 709.634 774.024C698.03 746.797 678.085 724.46 677.204 693.614C676.785 678.946 666.72 664.05 662.21 650.521C657.306 635.807 657.437 621.383 659.656 606.096C662.412 587.109 669.126 569.259 671.095 549.564C672.587 534.649 675.205 519.801 675.205 504.806C675.205 484.172 666.256 466.099 671.651 445.72C674.884 433.504 674.094 429.177 674.094 413.845C671.651 396.677 670.742 396.942 671.651 379.677C672.191 369.403 670.261 364.184 664.209 350.872C659.833 341.244 654.278 333.138 651.659 322.662C649.605 314.446 654.297 304.115 655.324 295.895C657.273 280.307 666.5 276.265 649.216 287.788M581.245 425.729C582.992 425.51 596.181 382.339 599.237 377.305C609.109 361.046 616.194 342.37 626.337 325.772C641.632 300.742 656.738 279.257 675.649 258.245C687.138 245.479 659.654 243.297 652.77 245.362C624.991 253.695 598.388 269.843 573.47 284.567C560.775 292.069 546.243 296.127 534.265 302.782C527.611 306.479 524.961 303.307 525.269 313.777C525.525 322.497 527.977 323.938 535.265 319.774M521.271 301.782C518.166 301.394 503.771 287.035 499.503 284.9C490.378 280.338 474.419 271.795 464.184 271.795C438.94 271.795 415.606 277.983 391.771 286.233C372.592 292.872 348.052 294.948 330.353 304.781C322.847 308.95 313.093 308.787 305.364 312.222C289.924 319.084 289.04 314.913 303.364 301.782M259.383 703.61C256.196 729.113 213.579 762.755 189.858 768.026C178.404 770.572 109.679 792.495 105.449 775.579M119.443 741.593C111.534 759.389 104.333 775.929 91.8991 791.572C81.7283 804.368 67.6195 810.476 55.3592 819.671C46.1184 826.602 33.8333 830.253 23.7061 836.442C11.7727 843.734 0.503136 859.668 13.4883 835.553M117.443 737.595C126.503 727.404 115.057 700.609 113.001 688.727C110.113 672.044 100.15 650.592 86.4566 639.637C73.5951 629.348 59.4436 629.641 43.475 629.641C33.4809 629.641 24.3494 625.946 15.9313 620.534C6.04123 614.176 -0.785011 612.836 17.4862 615.647M293.369 307.779C281.148 307.779 266.141 295.165 255.385 289.787C240.821 282.505 225.495 277.244 211.848 267.796C200.678 260.063 211.099 244.232 189.413 243.807C174.056 243.506 157.255 237.704 142.989 231.812C107.46 217.137 75.2395 196.319 39.0332 183.388C31.5119 180.702 21.1291 171.481 15.4877 165.84C6.14554 156.498 1.21579 157.612 13.4886 167.839M183.416 241.808C162.789 244.386 140.821 258.085 120.998 265.353C98.3295 273.665 75.0904 260.614 55.4704 250.804C39.605 242.871 30.6802 227.302 20.4854 213.709C17.7697 210.088 -0.865768 186.75 3.49268 199.826M341.348 623.644C325.975 623.644 289.437 621.076 277.376 609.65C268.584 601.321 250.143 581.567 261.382 569.667C270.968 559.518 277.758 548.44 291.814 543.234C298.257 540.848 304.938 536.093 311.361 533.238C315.908 531.218 327.352 533.687 329.353 529.684M255.384 567.668C248.723 567.668 235.254 568.792 233.505 576.664C230.672 589.412 237.392 628.706 237.392 615.647M245.389 567.668C228.148 548.272 243.772 506.929 253.385 487.702M212.676 581.177C209.176 575.177 201.408 558.885 201.408 548.565C201.408 531.64 204.378 531.074 219.289 522.687C232.568 515.218 202.436 515.495 205.85 505.25C209.809 493.373 219.681 489.701 231.395 489.701M231.395 613.648C214.46 594.595 199.676 548.677 202.176 547.177M433.308 711.606C417.363 711.606 409.214 700.442 403.321 687.616C400.687 681.884 389.906 639.927 393.325 641.636M431.309 703.61C423.204 702.597 428.235 652.758 422.868 643.635C418.077 635.489 405.62 637.638 397.768 637.638C389.087 637.638 364.177 635.639 389.327 635.639M421.313 511.692C420.779 507.957 375.565 533.451 393.325 515.69M423.676 506.677C424.562 513.767 428.538 502.224 428.538 499.66C428.538 487.967 428.201 472.198 429.199 460.715C429.984 451.695 431.982 437.384 437.751 430.172C441.735 425.193 447.483 411.316 441.305 425.73M401.322 517.689C401.322 502.458 411.597 481.449 418.87 467.711C423.85 458.305 431.309 452.938 431.309 441.722M467.293 601.653C466.509 607.926 429.757 609.65 423.312 609.65C400.472 609.65 391.378 619.179 372.334 627.642C364.756 631.01 362.158 640.07 355.341 644.08C348.179 648.293 340.929 654.304 333.24 658.629C320.685 665.691 315.535 675.367 307.362 687.172C301.042 696.301 286.342 704.638 305.363 685.617M453.3 605.652C453.716 598.151 457.018 590.934 459.297 583.883C463.916 569.595 465.338 568.685 452.966 571.777C441.893 574.546 433.438 582.609 422.313 577.664C407.332 571.005 389.187 569.376 375.333 561.226C364.337 554.758 356.413 534.918 348.456 524.686C344.576 519.699 339.973 516.068 335.461 510.803C330.377 504.871 331.589 499.75 329.353 491.923C325.168 477.278 300.951 474.405 291.813 465.267C280.634 454.088 282.754 440.456 288.481 425.729C296.981 403.872 298.325 384.99 291.813 362.2C289.557 354.302 288.99 345.305 285.816 337.767C283.288 331.763 285.093 326.266 285.44 325.347M285.44 325.347C285.506 325.173 285.519 325.163 285.44 325.347ZM285.44 325.347C285.088 326.166 282.903 330.816 275.376 341.765M291.37 519.688C302.072 518.499 310.379 502.205 314.693 494.81C344.634 443.483 354.5 382.918 375.333 327.771M279.375 507.694C282.806 507.312 285.069 503.998 287.371 501.696C292.207 496.86 293.878 488.084 295.812 482.149C306.028 450.806 315.571 419.225 325.355 387.745M271.378 509.693C273.574 465.764 278.121 421.657 281.374 377.749M287.371 505.694C289.826 505.387 290.874 502.347 291.813 500.363C305.858 470.715 318.093 439.762 331.352 409.735M279.374 525.686C283.397 524.345 286.947 513.575 288.259 511.026C303.964 480.505 319.312 449.808 334.662 419.109L335.35 417.732M279.374 521.688C288.982 478.987 302.784 437.659 315.359 395.741M275.376 513.691C275.376 471.479 280.722 429.59 285.372 387.745M275.376 621.645C280.022 663.456 272.558 705.584 267.38 747.591M267.379 641.636C269.399 645.676 268.334 650.878 267.823 655.186C263.746 689.588 255.699 723.572 249.387 757.586M267.379 639.637C264.314 676.425 240.384 716.193 227.397 749.59M263.381 635.639C262.744 633.091 261.445 640.521 260.494 642.969C249.896 670.252 237.178 696.827 225.398 723.601M257.383 641.636C238.399 667.167 222.362 694.72 205.406 721.602M267.379 643.635C261.54 676.042 258.58 708.844 255.385 741.593M643.218 605.651C631.537 605.651 657.621 604.453 643.218 603.652C632.019 603.03 620.906 601.653 609.233 601.653C593.225 601.653 561.364 612.735 548.259 602.542C535.5 592.618 571.025 575.618 576.247 571.666C599.205 554.293 613.129 540.149 627.114 514.802C637.524 495.934 644.515 476.41 660.211 460.714C668.632 452.293 668.913 432.607 661.211 455.716M649.216 609.65C651.902 609.65 653.037 608.739 655.213 607.651M455.299 401.739C452.647 401.407 451.927 394.138 451.301 391.632C448.484 380.365 439.823 371.092 431.754 363.311C424.36 356.181 414.015 349.196 403.433 347.873C398.742 347.287 367.694 342.479 369.336 345.763" stroke="#F4FFAE" stroke-width="5" stroke-linecap="round"/>
<circle cx="10.5" cy="10.5" r="10.5" transform="matrix(0 -1 -1 0 428.176 511.177)" fill="#F4FFAE"/>
<path d="M135.14 158.822C138.49 153.861 130.666 162.922 130.172 163.665C127.147 168.221 124.689 173.141 122.212 178.016M122.212 178.016C121.849 178.73 121.486 179.443 121.12 180.153C120.742 180.89 121.494 178.971 122.212 178.016ZM122.212 178.016C122.341 177.844 122.47 177.703 122.59 177.615M125.692 174.81C125.094 176.528 134.727 184.906 135.615 185.796C138.586 188.774 139.749 190.659 139.334 186.153M138.338 175.326C139.872 176.884 151.698 188.659 149.099 182.735M143.1 167.749C139.308 164.595 150.298 174.503 154.091 177.656M149.012 172.664C147.321 174.698 136.757 186.192 140.463 180.17M151.424 162.363C152.217 165.031 160.853 175.457 161.883 171.06M163.529 152.43C161.095 148.041 155.642 154.834 160.113 156.641C163.54 158.025 169.143 154.496 171.99 157.671C175.1 161.138 166.032 167.502 164.228 169.164M177.064 135.226C177.212 135.722 177.488 136.199 177.847 136.655M177.847 136.655C179.139 138.296 181.503 139.675 182.8 140.765C185.925 143.39 194.859 151.667 191.438 149.442C187.122 146.636 183.031 142.57 179.542 138.825C178.712 137.934 178.15 137.212 177.847 136.655ZM177.847 136.655C176.96 135.025 178.289 134.808 181.609 135.928C183.532 136.577 189 139.353 190.709 136.957C192.66 134.223 188.099 127.13 187.275 124.488C185.026 117.27 193.199 124.211 195.324 125.754C199.071 128.472 202.236 131.445 206.286 128.758M205.433 110.358C199.902 106.55 199.533 115.479 200.803 118.857C202.099 122.306 205.058 125.299 208.983 125.103C214.791 124.814 216.867 118.351 219.219 114.129M210.962 111.109C211.738 113.462 204.543 121.404 202.72 121.947M216.02 97.625C213.279 90.9616 209.911 97.44 212.289 101.701C214.995 106.55 223.642 98.5369 226.54 103.423C227.946 105.794 224.995 109.328 223.481 110.751C220.974 113.106 220.994 112.054 219.745 110.721M232.136 85.6431C227.586 82.5706 225.654 90.6242 232.718 90.9557C234.474 91.0381 241.434 89.9086 240.403 93.5849C239.009 98.5535 233.784 102.814 230.266 106.393M235.53 72.3125C233.325 75.6559 241.365 82.8537 243.258 84.2935C250.796 90.0265 253.542 78.9316 254.537 73.5033M245.754 73.8913C243.3 77.145 241.397 82.0754 237.583 80.9425M245.136 62.6093C242.566 65.7 240.203 68.9284 237.801 72.15C236.065 74.4786 236.271 73.7876 236.74 71.781M251.722 61.1634C255.254 64.0999 261.233 72.0687 265.365 72.507M252.555 61.0866C254.318 56.5644 261.016 55.9867 264.483 58.8692C270.379 63.7714 262.782 72.2748 259.841 76.3747M270.408 45.1657C270.053 44.4065 268.932 43.3799 269.886 44.5605C272.86 48.2403 278.258 52.2338 282.991 52.8505C287.149 53.3922 287.388 48.1891 286.399 45.5142C284.491 40.3575 280.663 37.1354 276.151 34.5582M284.102 34.2465C286.508 34.8098 296.538 43.3408 297.06 42.7133M285.313 33.7153C283.061 30.3203 287.847 24.0766 291.276 23.9741C294.708 23.8715 294.677 28.1044 294.06 30.3907C293 34.3135 291.059 35.5763 287.74 37.2716M172.582 191.493C170.165 195.777 173.225 203.37 177.595 204.891M184.626 194.585C184.505 190.913 182.201 192.158 182.103 195.564C181.985 199.626 184.602 206.926 189.242 207.482C196.766 208.384 199.877 198.111 202.116 192.975M194.605 179.808C195.372 183.766 198.866 189.226 201.471 193.082M201.471 193.082C201.875 193.681 202.258 194.241 202.606 194.75C203.768 196.454 202.941 195.323 201.471 193.082ZM201.471 193.082C199.409 189.939 196.084 184.61 195.213 181.852C194.391 179.247 193.446 175.92 197.391 177.125C200.768 178.157 203.987 179.884 207.202 181.309C208.505 181.886 217.542 184.793 215.283 185.465M209.448 181.382C208.399 180.711 202.244 185.555 200.593 185.557M217.225 160.928C218.386 159.841 214.892 164.178 214.739 164.33C213.199 165.858 206.001 172.363 207.016 173.206M210.42 169.114C213.475 169.368 219.407 176.346 222.166 178.112M218.881 151.537C223.701 148.546 225.992 152.76 228.201 156.979M238.022 135.917C234.356 132.868 246.019 146.142 250.071 143.627M250.878 120.456C251.519 119.454 249.948 117.479 249.057 117.147C245.394 115.781 242.152 124.503 244.524 126.966C247.038 129.577 261.633 122.149 260.655 128.842C260.053 132.962 255.992 136.823 252.564 138.779M219.325 211.13C219.593 209.667 219.165 209.115 217.615 209.024C213.707 208.795 210.963 215.508 211.807 218.681C212.329 220.643 224.82 216.568 227.022 217.188C231.236 218.375 223.135 224.711 222.26 225.279C218.577 227.668 218.801 226.528 217.598 224.308M224.925 208.095C225.877 207.504 227.519 208.428 228.514 208.558C231.125 208.901 233.04 208.371 235.374 207.554M231.65 194.458C234.042 196.942 232.167 202.959 233.64 205.94C234.333 207.343 239.195 209.238 240.59 210.737C242.414 212.696 242.662 212.103 241.889 209.894M237.781 192.634C238.702 197.123 251.421 204.876 247.963 201.869C245.01 199.3 242.183 196.536 239.725 193.481C236.667 189.681 241.678 191.491 244.027 192.059C255.868 194.923 247.014 183.793 247.928 177.398C248.198 175.512 261.997 188.59 265.031 182.987M253.964 172.247C258.404 175.578 272.1 185.019 267.831 181.47M255.629 172.093C255.822 169.915 257.298 160.391 261.509 162.966C267.66 166.728 256.064 175.018 265.925 169.373C273.669 164.939 276.768 168.123 271.981 175.861C271.799 176.156 267.384 182.757 266.519 181.917C265.814 181.232 267.953 177.073 268.204 176.396M274.167 159.049C274.929 163.419 281.37 165.5 284.081 161.31C285.532 159.067 283.676 156.591 281.874 155.33C277.226 152.078 274.9 156.521 271.669 159.279M281.719 140.715C281.707 140.702 288.223 146.926 289.726 148.868C291.843 151.605 292.801 154.647 295.083 151.058C298.423 145.807 301.356 140.344 304.278 134.86M291.249 130.179C289.65 128.85 294.831 132.295 296.545 133.472C298.332 134.699 304.153 140.561 305.872 138.493M307.288 117.365C302.859 112.765 298.675 121.758 303.122 123.814C305.446 124.889 316.016 120.563 315.823 124.419C315.583 129.197 310.094 132.597 306.322 134.252M309.25 111.305C306.084 108.672 322.015 121.583 319.313 118.475C315.818 114.457 302.956 104.089 316.094 106.569C317.277 106.792 324.309 109.466 324.171 106.619C324.104 105.237 320.112 94.4404 320.666 94.3894C322.487 94.2218 337.615 109.212 337.031 102.869M347.767 87.1826C347.71 85.456 349.702 85.2187 350.937 86.1443C353.788 88.2791 354.505 94.3699 353.76 97.5501M268.326 218.8C267.81 218.371 267.333 218.089 266.897 217.933M266.897 217.933C261.813 216.117 262.191 231.472 269.224 232.11C276.868 232.803 281.233 219.115 273.514 216.363C270.814 215.4 268.528 216.258 266.897 217.933ZM266.897 217.933C265.708 219.155 264.867 220.811 264.468 222.515M277.319 202.434C277.189 202.552 277.056 201.246 279.605 203.951C281.354 205.807 289.053 213.116 288.688 211.887M285.259 192.885C284.683 195.575 280.827 205.878 283.83 204.985C286.652 204.145 301.736 204.105 299.73 199.532M295.249 187.346C294.966 187.789 301.115 195 303.287 197.519M303.287 197.519C303.311 197.547 303.335 197.574 303.358 197.601M303.287 197.519C303.302 197.536 303.316 197.553 303.329 197.568C303.339 197.579 303.349 197.59 303.358 197.601M303.287 197.519C301.829 195.791 291.846 181.559 296.595 179.663C299.403 178.542 305.111 181.749 307.654 182.705C308.269 182.936 309.832 183.606 311.44 184.294M303.358 197.601C304.157 198.527 304.353 198.743 303.358 197.601ZM311.44 184.294C313.826 185.315 316.31 186.374 315.945 186.095C314.559 185.033 312.997 184.401 311.44 184.294ZM311.44 184.294C309.649 184.172 307.865 184.745 306.362 186.16C305.103 187.345 304.189 190.084 302.898 188.322M306.593 173.704C304.327 173.737 311.113 174.114 313.341 174.529C315.801 174.988 318.163 176.221 317.875 173.085M314.988 164.532C316.295 167.901 314.926 173.711 317.802 176.102C318.961 177.065 323.765 182.335 323.408 178.456M322.254 161.343C320.123 159.131 324.515 153.721 327.329 155.65C332.661 159.304 329.383 167.336 336.499 170.112M345.599 182.293C344.054 180.296 345.995 178.589 346.125 178.885" stroke="#F4FFAE" stroke-width="3" stroke-linecap="round"/>
</svg>
