<svg width="494" height="114" viewBox="0 0 494 114" fill="none" xmlns="http://www.w3.org/2000/svg">
<path d="M0.46326 0.750548V-0.749452H-1.71745L-0.937526 1.28702L0.46326 0.750548ZM17.3255 0.750548L18.739 0.24864L18.3846 -0.749452H17.3255V0.750548ZM46.8344 83.8572L46.2632 85.2442L49.3733 86.5249L48.2479 83.3553L46.8344 83.8572ZM44.2749 82.8033L42.8758 82.2626L42.3467 83.6315L43.7038 84.1903L44.2749 82.8033ZM65.8044 27.0978L67.223 26.6105L65.8873 22.7222L64.4052 26.557L65.8044 27.0978ZM72.5794 46.8206L73.9583 47.4111L74.1858 46.8798L73.998 46.3332L72.5794 46.8206ZM43.8233 113.968L42.4225 114.505L43.7457 117.96L45.2021 114.559L43.8233 113.968ZM52.706 0.750548V-0.749452H50.5053L51.3099 1.29897L52.706 0.750548ZM67.3099 0.750548L68.7075 0.205887L68.3352 -0.749452H67.3099V0.750548ZM99.2277 82.6528L98.9335 84.1236L101.62 84.661L100.625 82.1081L99.2277 82.6528ZM96.2166 82.0506L94.7992 81.5597L94.2366 83.1843L95.9224 83.5214L96.2166 82.0506ZM124.37 0.750548V-0.749452H123.303L122.953 0.259702L124.37 0.750548ZM139.878 0.750548L141.281 1.28112L142.049 -0.749452H139.878V0.750548ZM97.1199 113.818L95.7238 114.366L97.1465 117.988L98.523 114.348L97.1199 113.818ZM0.46326 2.25055H17.3255V-0.749452H0.46326V2.25055ZM15.9119 1.25246L45.4208 84.3591L48.2479 83.3553L18.739 0.24864L15.9119 1.25246ZM47.4055 82.4702L44.8461 81.4163L43.7038 84.1903L46.2632 85.2442L47.4055 82.4702ZM45.6741 83.3441L67.2035 27.6385L64.4052 26.557L42.8758 82.2626L45.6741 83.3441ZM64.3857 27.5851L71.1607 47.3079L73.998 46.3332L67.223 26.6105L64.3857 27.5851ZM71.2005 46.23L42.4444 113.378L45.2021 114.559L73.9583 47.4111L71.2005 46.23ZM45.224 113.432L1.86404 0.214077L-0.937526 1.28702L42.4225 114.505L45.224 113.432ZM52.706 2.25055H67.3099V-0.749452H52.706V2.25055ZM65.9123 1.29521L97.8301 83.1974L100.625 82.1081L68.7075 0.205887L65.9123 1.29521ZM99.5219 81.1819L96.5108 80.5797L95.9224 83.5214L98.9335 84.1236L99.5219 81.1819ZM97.634 82.5414L125.788 1.24139L122.953 0.259702L94.7992 81.5597L97.634 82.5414ZM124.37 2.25055H139.878V-0.749452H124.37V2.25055ZM138.475 0.219975L95.7169 113.287L98.523 114.348L141.281 1.28112L138.475 0.219975ZM98.5161 113.269L54.1022 0.202127L51.3099 1.29897L95.7238 114.366L98.5161 113.269ZM161.68 0.148325V-1.35168H160.18V0.148325H161.68ZM232.441 0.148325H233.941V-1.35168H232.441V0.148325ZM232.441 14.15V15.65H233.941V14.15H232.441ZM176.284 14.15V12.65H174.784V14.15H176.284ZM176.284 47.2722H174.784V48.7722H176.284V47.2722ZM226.419 47.2722H227.919V45.7722H226.419V47.2722ZM226.419 61.2739V62.7739H227.919V61.2739H226.419ZM176.284 61.2739V59.7739H174.784V61.2739H176.284ZM176.284 94.9983H174.784V96.4983H176.284V94.9983ZM234.549 94.9983H236.049V93.4983H234.549V94.9983ZM234.549 109V110.5H236.049V109H234.549ZM161.68 109H160.18V110.5H161.68V109ZM161.68 1.64832H232.441V-1.35168H161.68V1.64832ZM230.941 0.148325V14.15H233.941V0.148325H230.941ZM232.441 12.65H176.284V15.65H232.441V12.65ZM174.784 14.15V47.2722H177.784V14.15H174.784ZM176.284 48.7722H226.419V45.7722H176.284V48.7722ZM224.919 47.2722V61.2739H227.919V47.2722H224.919ZM226.419 59.7739H176.284V62.7739H226.419V59.7739ZM174.784 61.2739V94.9983H177.784V61.2739H174.784ZM176.284 96.4983H234.549V93.4983H176.284V96.4983ZM233.049 94.9983V109H236.049V94.9983H233.049ZM234.549 107.5H161.68V110.5H234.549V107.5ZM163.18 109V0.148325H160.18V109H163.18ZM259.894 0.148325V-1.35168H258.394V0.148325H259.894ZM274.498 0.148325H275.998V-1.35168H274.498V0.148325ZM274.498 109V110.5H275.998V109H274.498ZM259.894 109H258.394V110.5H259.894V109ZM259.894 1.64832H274.498V-1.35168H259.894V1.64832ZM272.998 0.148325V109H275.998V0.148325H272.998ZM274.498 107.5H259.894V110.5H274.498V107.5ZM261.394 109V0.148325H258.394V109H261.394ZM349.879 2.40666L349.414 3.83276L349.433 3.83874L349.451 3.84424L349.879 2.40666ZM362.074 8.88055L361.101 10.0218L361.119 10.0371L361.137 10.0519L362.074 8.88055ZM370.204 19.4194L368.838 20.0377L368.847 20.0575L368.856 20.0771L370.204 19.4194ZM371.258 46.5194L369.828 46.0661L369.823 46.082L369.818 46.0981L371.258 46.5194ZM365.085 57.8111L366.212 58.8013L366.219 58.793L366.227 58.7845L365.085 57.8111ZM353.643 65.9411L354.241 67.3167L354.248 67.3137L354.255 67.3106L353.643 65.9411ZM320.37 68.9522V67.4522H318.87V68.9522H320.37ZM320.37 109V110.5H321.87V109H320.37ZM305.766 109H304.266V110.5H305.766V109ZM305.766 0.148325V-1.35168H304.266V0.148325H305.766ZM346.868 52.9933L346.255 51.6246L346.245 51.6286L346.236 51.6328L346.868 52.9933ZM353.643 48.025L354.814 48.962L354.825 48.9482L354.836 48.9341L353.643 48.025ZM357.106 41.25L358.546 41.67L358.546 41.67L357.106 41.25ZM356.955 27.7L355.515 28.12L355.526 28.1567L355.539 28.1928L356.955 27.7ZM353.342 21.0755L352.171 22.0126L352.185 22.03L352.199 22.047L353.342 21.0755ZM346.868 16.1072L346.197 17.4489L346.207 17.4539L346.217 17.4587L346.868 16.1072ZM320.37 14.15V12.65H318.87V14.15H320.37ZM320.37 54.9506H318.87V56.4506H320.37V54.9506ZM354.095 63.2311L355.369 62.4391L354.915 61.7092L354.056 61.7316L354.095 63.2311ZM382.55 109V110.5H385.249L383.824 108.208L382.55 109ZM365.688 109L364.423 109.807L364.865 110.5H365.688V109ZM336.781 63.6828L336.742 62.1833L334.089 62.2525L335.516 64.4894L336.781 63.6828ZM334.673 1.64832C340.057 1.64832 344.966 2.38234 349.414 3.83276L350.344 0.98057C345.558 -0.580134 340.33 -1.35168 334.673 -1.35168V1.64832ZM349.451 3.84424C353.988 5.1956 357.862 7.25948 361.101 10.0218L363.048 7.7393C359.461 4.68014 355.206 2.4281 350.307 0.969086L349.451 3.84424ZM361.137 10.0519C364.46 12.7101 367.025 16.0314 368.838 20.0377L371.571 18.8012C369.569 14.3763 366.714 10.6718 363.011 7.70925L361.137 10.0519ZM368.856 20.0771C370.745 23.9496 371.715 28.5341 371.715 33.8728H374.715C374.715 28.1707 373.678 23.1197 371.552 18.7618L368.856 20.0771ZM371.715 33.8728C371.715 38.0348 371.087 42.0975 369.828 46.0661L372.688 46.9728C374.039 42.711 374.715 38.3426 374.715 33.8728H371.715ZM369.818 46.0981C368.676 50.0009 366.724 53.5784 363.944 56.8377L366.227 58.7845C369.268 55.2186 371.431 51.2683 372.698 46.9408L369.818 46.0981ZM363.959 56.8209C361.213 59.9457 357.585 62.5368 353.031 64.5716L354.255 67.3106C359.136 65.1299 363.137 62.301 366.212 58.8013L363.959 56.8209ZM353.045 64.5655C348.671 66.4672 343.168 67.4522 336.48 67.4522V70.4522C343.442 70.4522 349.381 69.4298 354.241 67.3167L353.045 64.5655ZM336.48 67.4522H320.37V70.4522H336.48V67.4522ZM318.87 68.9522V109H321.87V68.9522H318.87ZM320.37 107.5H305.766V110.5H320.37V107.5ZM307.266 109V0.148325H304.266V109H307.266ZM305.766 1.64832H334.673V-1.35168H305.766V1.64832ZM336.179 56.4506C340.632 56.4506 344.43 55.7792 347.5 54.3538L346.236 51.6328C343.686 52.8171 340.357 53.4506 336.179 53.4506V56.4506ZM347.482 54.3621C350.559 52.9828 353.028 51.1951 354.814 48.962L352.472 47.088C351.046 48.8697 348.999 50.3942 346.255 51.6246L347.482 54.3621ZM354.836 48.9341C356.547 46.6881 357.789 44.2654 358.546 41.67L355.666 40.83C355.018 43.0523 353.951 45.1463 352.45 47.1159L354.836 48.9341ZM358.546 41.67C359.281 39.1498 359.66 36.7489 359.66 34.475H356.66C356.66 36.4166 356.336 38.5324 355.666 40.83L358.546 41.67ZM359.66 34.475C359.66 32.0821 359.224 29.6573 358.372 27.2072L355.539 28.1928C356.292 30.3597 356.66 32.4516 356.66 34.475H359.66ZM358.395 27.28C357.631 24.6583 356.321 22.2641 354.485 20.1041L352.199 22.047C353.776 23.9018 354.875 25.9239 355.515 28.12L358.395 27.28ZM354.513 20.1385C352.745 17.9283 350.397 16.1415 347.519 14.7557L346.217 17.4587C348.759 18.6826 350.727 20.208 352.171 22.0126L354.513 20.1385ZM347.539 14.7656C344.667 13.3297 341.211 12.65 337.233 12.65V15.65C340.883 15.65 343.85 16.2751 346.197 17.4489L347.539 14.7656ZM337.233 12.65H320.37V15.65H337.233V12.65ZM318.87 14.15V54.9506H321.87V14.15H318.87ZM320.37 56.4506H336.179V53.4506H320.37V56.4506ZM352.821 64.0231L381.276 109.792L383.824 108.208L355.369 62.4391L352.821 64.0231ZM382.55 107.5H365.688V110.5H382.55V107.5ZM366.952 108.193L338.045 62.8761L335.516 64.4894L364.423 109.807L366.952 108.193ZM336.82 65.1823L354.134 64.7306L354.056 61.7316L336.742 62.1833L336.82 65.1823ZM405.01 109H403.51V110.5H405.01V109ZM405.01 0.148325V-1.35168H403.51V0.148325H405.01ZM462.07 5.11666L461.466 6.48965L461.473 6.49255L462.07 5.11666ZM480.438 18.215L481.58 17.2423L481.58 17.2423L480.438 18.215ZM490.525 36.2817L489.096 36.7365L489.1 36.7496L489.104 36.7626L490.525 36.2817ZM489.471 77.9856L488.101 77.3744L488.097 77.3832L488.094 77.3921L489.471 77.9856ZM477.728 94.6972L476.712 93.5933L476.712 93.5933L477.728 94.6972ZM460.414 105.387L460.941 106.791L460.953 106.787L460.414 105.387ZM419.613 94.9983H418.113V96.4983H419.613V94.9983ZM453.639 92.2883L453.14 90.8738L453.131 90.877L453.639 92.2883ZM466.888 84.4594L465.888 83.3416L465.88 83.3482L465.873 83.355L466.888 84.4594ZM475.771 71.9633L477.149 72.5542L477.154 72.5442L475.771 71.9633ZM475.62 37.3356L474.243 37.9297L474.247 37.9397L475.62 37.3356ZM466.587 24.5383L467.587 23.4205L467.587 23.4205L466.587 24.5383ZM453.639 16.86L453.112 18.2645L453.125 18.2693L453.138 18.2739L453.639 16.86ZM419.613 14.15V12.65H418.113V14.15H419.613ZM406.51 109V0.148325H403.51V109H406.51ZM405.01 1.64832H434.669V-1.35168H405.01V1.64832ZM434.669 1.64832C445.261 1.64832 454.177 3.2826 461.466 6.48963L462.674 3.74368C454.907 0.326268 445.556 -1.35168 434.669 -1.35168V1.64832ZM461.473 6.49255C468.926 9.72891 474.85 13.9688 479.296 19.1877L481.58 17.2423C476.791 11.6212 470.47 7.12885 462.668 3.74076L461.473 6.49255ZM479.296 19.1877C483.787 24.4597 487.05 30.3067 489.096 36.7365L491.955 35.8269C489.785 29.0077 486.323 22.8103 481.58 17.2423L479.296 19.1877ZM489.104 36.7626C491.263 43.1404 492.337 49.5023 492.337 55.8539H495.337C495.337 49.1573 494.204 42.4711 491.946 35.8008L489.104 36.7626ZM492.337 55.8539C492.337 63.9055 490.914 71.0697 488.101 77.3744L490.841 78.5967C493.85 71.8532 495.337 64.263 495.337 55.8539H492.337ZM488.094 77.3921C485.363 83.7307 481.569 89.1251 476.712 93.5933L478.744 95.8011C483.924 91.0353 487.959 85.2885 490.849 78.579L488.094 77.3921ZM476.712 93.5933C471.836 98.0793 466.228 101.543 459.876 103.987L460.953 106.787C467.648 104.211 473.582 100.549 478.744 95.8011L476.712 93.5933ZM459.887 103.982C453.641 106.325 446.995 107.5 439.938 107.5V110.5C447.335 110.5 454.34 109.267 460.941 106.791L459.887 103.982ZM439.938 107.5H405.01V110.5H439.938V107.5ZM419.613 96.4983H437.078V93.4983H419.613V96.4983ZM437.078 96.4983C443.251 96.4983 448.946 95.5721 454.147 93.6997L453.131 90.877C448.295 92.6179 442.949 93.4983 437.078 93.4983V96.4983ZM454.138 93.7028C459.433 91.8339 464.029 89.1238 467.903 85.5639L465.873 83.355C462.32 86.6202 458.082 89.1294 453.14 90.8738L454.138 93.7028ZM467.888 85.5773C471.873 82.0121 474.959 77.6641 477.149 72.5542L474.392 71.3725C472.366 76.0988 469.531 80.0816 465.888 83.3416L467.888 85.5773ZM477.154 72.5442C479.35 67.3145 480.432 61.4415 480.432 54.9506H477.432C477.432 61.1063 476.407 66.5752 474.388 71.3825L477.154 72.5442ZM480.432 54.9506C480.432 48.0637 479.302 41.9783 476.993 36.7314L474.247 37.9397C476.355 42.7298 477.432 48.3878 477.432 54.9506H480.432ZM476.997 36.7414C474.711 31.4407 471.577 26.9908 467.587 23.4205L465.587 25.6562C469.224 28.9111 472.113 32.9926 474.243 37.9297L476.997 36.7414ZM467.587 23.4205C463.628 19.8778 459.142 17.2177 454.14 15.4461L453.138 18.2739C457.772 19.9149 461.918 22.3737 465.587 25.6562L467.587 23.4205ZM454.166 15.4555C449.174 13.5835 443.926 12.65 438.433 12.65V15.65C443.579 15.65 448.469 16.5231 453.112 18.2645L454.166 15.4555ZM438.433 12.65H419.613V15.65H438.433V12.65ZM418.113 14.15V94.9983H421.113V14.15H418.113Z" fill="white"/>
</svg>
