<svg width="1306" height="552" viewBox="0 0 1306 552" fill="none" xmlns="http://www.w3.org/2000/svg">
<path d="M1.5738 0.253454H155.405V32.9902H94.6988V231H60.6907V32.9902H1.5738V0.253454ZM388.386 0.253454V231H354.378V131.518H237.416V231H203.408V0.253454H237.416V99.0994H354.378V0.253454H388.386ZM453.266 0.253454H604.872V32.9902H487.274V98.7816H591.841V131.518H487.274V198.263H609.322V231H453.266V0.253454ZM138.56 362.432C130.508 358.194 121.821 354.592 112.497 351.626C103.174 348.659 94.1691 347.176 85.4816 347.176C73.6159 347.176 64.1868 349.931 57.1945 355.44C50.2022 360.737 46.7061 368.047 46.7061 377.37C46.7061 383.939 49.0368 389.66 53.6984 394.533C58.3599 399.407 64.3987 403.645 71.8148 407.247C79.2309 410.849 87.0708 414.239 95.3345 417.417C102.327 419.96 109.213 423.032 115.994 426.634C122.986 430.025 129.237 434.262 134.746 439.348C140.467 444.433 144.916 450.79 148.095 458.418C151.485 465.834 153.18 474.945 153.18 485.751C153.18 498.041 150.108 509.165 143.963 519.124C138.03 529.082 129.343 537.028 117.901 542.961C106.67 548.682 93.0037 551.543 76.9002 551.543C67.1533 551.543 57.6183 550.483 48.2952 548.364C39.184 546.034 30.4966 543.067 22.2329 539.465C14.1812 535.651 6.87102 531.519 0.302472 527.07L15.5584 500.689C20.6438 504.292 26.4707 507.788 33.0392 511.178C39.6078 514.356 46.3882 516.899 53.3805 518.806C60.5847 520.713 67.3652 521.666 73.7218 521.666C80.7142 521.666 87.6005 520.501 94.381 518.17C101.161 515.628 106.776 511.814 111.226 506.728C115.676 501.431 117.901 494.545 117.901 486.069C117.901 478.865 115.888 472.826 111.862 467.953C108.048 462.867 102.856 458.524 96.2879 454.922C89.9313 451.319 83.0449 448.141 75.6288 445.387C68.4246 442.632 61.1145 439.56 53.6984 436.169C46.2823 432.779 39.3959 428.753 33.0392 424.092C26.6826 419.218 21.4913 413.285 17.4654 406.293C13.6514 399.089 11.7444 390.296 11.7444 379.913C11.7444 367.623 14.6049 356.923 20.3259 347.812C26.2588 338.489 34.4165 331.179 44.7991 325.881C55.1816 320.584 67.1533 317.618 80.7141 316.982C96.182 316.982 109.637 318.889 121.079 322.703C132.521 326.517 142.692 331.073 151.591 336.37L138.56 362.432ZM357.556 515.945H435.108V549H312.742L357.556 515.945ZM189.105 433.945C189.105 418.053 192.071 403.009 198.004 388.812C204.149 374.616 212.625 362.008 223.431 350.99C234.237 339.972 246.739 331.391 260.935 325.246C275.132 318.889 290.388 315.711 306.703 315.711C322.807 315.711 337.957 318.889 352.153 325.246C366.35 331.391 378.957 339.972 389.975 350.99C400.994 362.008 409.575 374.616 415.72 388.812C421.865 403.009 424.937 418.053 424.937 433.945C424.937 450.26 421.865 465.516 415.72 479.712C409.575 493.909 400.994 506.41 389.975 517.217C379.169 528.023 366.562 536.499 352.153 542.643C337.957 548.576 322.807 551.543 306.703 551.543C290.388 551.543 275.132 548.576 260.935 542.643C246.739 536.71 234.237 528.447 223.431 517.852C212.625 507.046 204.149 494.545 198.004 480.348C192.071 465.94 189.105 450.472 189.105 433.945ZM224.067 434.262C224.067 445.704 226.186 456.617 230.423 466.999C234.873 477.17 240.912 486.175 248.54 494.015C256.168 501.643 264.961 507.682 274.92 512.131C285.091 516.581 296.003 518.806 307.657 518.806C319.099 518.806 329.799 516.581 339.758 512.131C349.716 507.682 358.404 501.643 365.82 494.015C373.448 486.387 379.381 477.488 383.619 467.317C387.856 456.934 389.975 445.81 389.975 433.945C389.975 422.291 387.75 411.378 383.301 401.208C379.063 391.037 373.13 382.138 365.502 374.51C358.086 366.67 349.293 360.525 339.122 356.076C329.163 351.626 318.463 349.401 307.021 349.401C295.155 349.401 284.243 351.626 274.284 356.076C264.325 360.525 255.532 366.67 247.904 374.51C240.276 382.35 234.343 391.355 230.105 401.526C226.08 411.696 224.067 422.609 224.067 434.262ZM516.368 466.681C516.368 476.428 518.805 485.222 523.679 493.061C528.552 500.901 535.015 507.152 543.066 511.814C551.118 516.475 560.123 518.806 570.082 518.806C580.677 518.806 590.106 516.475 598.369 511.814C606.633 507.152 613.096 500.901 617.757 493.061C622.631 485.222 625.067 476.428 625.067 466.681V318.253H658.44V467.635C658.44 484.374 654.52 499.1 646.68 511.814C638.84 524.315 628.246 534.062 614.897 541.054C601.548 548.047 586.609 551.543 570.082 551.543C553.979 551.543 539.252 548.047 525.903 541.054C512.554 534.062 501.96 524.315 494.12 511.814C486.492 499.1 482.678 484.374 482.678 467.635V318.253H516.368V466.681ZM692.021 549L793.409 309.036H795.316L896.705 549H857.929L784.192 362.114L808.665 345.905L725.393 549H692.021ZM753.68 462.55H835.681L847.441 491.79H743.51L753.68 462.55ZM1001.33 318.253C1013.41 318.253 1024.54 319.949 1034.71 323.339C1045.09 326.517 1053.88 331.179 1061.09 337.323C1068.5 343.468 1074.22 351.096 1078.25 360.207C1082.49 369.107 1084.61 379.489 1084.61 391.355C1084.61 400.466 1083.23 409.471 1080.47 418.371C1077.72 427.27 1073.27 435.322 1067.13 442.526C1060.98 449.73 1052.93 455.557 1042.97 460.007C1033.01 464.245 1020.62 466.363 1005.78 466.363H972.093V549H938.085V318.253H1001.33ZM1005.15 433.945C1013.84 433.945 1021.04 432.567 1026.76 429.813C1032.69 427.058 1037.25 423.668 1040.43 419.642C1043.82 415.404 1046.15 410.955 1047.42 406.293C1048.9 401.42 1049.64 396.758 1049.64 392.308C1049.64 388.071 1048.9 383.621 1047.42 378.959C1046.15 374.298 1043.82 369.848 1040.43 365.611C1037.25 361.373 1032.91 357.877 1027.4 355.122C1021.89 352.367 1015.11 350.99 1007.05 350.99H972.093V433.945H1005.15ZM1044.24 453.65L1103.99 549H1064.58L1003.88 454.604L1044.24 453.65ZM1149.46 318.253H1301.06V350.99H1183.46V416.782H1288.03V449.518H1183.46V516.263H1305.51V549H1149.46V318.253Z" fill="white"/>
</svg>
