<svg width="1306" height="552" viewBox="0 0 1306 552" fill="none" xmlns="http://www.w3.org/2000/svg">
<mask id="path-1-outside-1_809_16" maskUnits="userSpaceOnUse" x="-5.98193" y="-5" width="1316" height="561" fill="black">
<rect fill="white" x="-5.98193" y="-5" width="1316" height="561"/>
<path d="M1.59187 0.253454H155.423V32.9902H94.7169V231H60.7088V32.9902H1.59187V0.253454ZM388.404 0.253454V231H354.396V131.518H237.434V231H203.426V0.253454H237.434V99.0994H354.396V0.253454H388.404ZM453.284 0.253454H604.891V32.9902H487.292V98.7816H591.859V131.518H487.292V198.263H609.34V231H453.284V0.253454ZM138.578 362.432C130.526 358.194 121.839 354.592 112.515 351.626C103.192 348.659 94.1871 347.176 85.4997 347.176C73.634 347.176 64.2049 349.931 57.2126 355.44C50.2203 360.737 46.7241 368.047 46.7241 377.37C46.7241 383.939 49.0549 389.66 53.7164 394.533C58.378 399.407 64.4168 403.645 71.8329 407.247C79.249 410.849 87.0889 414.239 95.3525 417.417C102.345 419.96 109.231 423.032 116.012 426.634C123.004 430.025 129.255 434.262 134.764 439.348C140.485 444.433 144.934 450.79 148.113 458.418C151.503 465.834 153.198 474.945 153.198 485.751C153.198 498.041 150.126 509.165 143.981 519.124C138.048 529.082 129.361 537.028 117.919 542.961C106.689 548.682 93.0217 551.543 76.9182 551.543C67.1714 551.543 57.6364 550.483 48.3133 548.364C39.2021 546.034 30.5146 543.067 22.251 539.465C14.1992 535.651 6.88908 531.519 0.320539 527.07L15.5765 500.689C20.6618 504.292 26.4888 507.788 33.0573 511.178C39.6259 514.356 46.4063 516.899 53.3986 518.806C60.6028 520.713 67.3832 521.666 73.7399 521.666C80.7322 521.666 87.6186 520.501 94.399 518.17C101.179 515.628 106.795 511.814 111.244 506.728C115.694 501.431 117.919 494.545 117.919 486.069C117.919 478.865 115.906 472.826 111.88 467.953C108.066 462.867 102.875 458.524 96.306 454.922C89.9494 451.319 83.063 448.141 75.6469 445.387C68.4427 442.632 61.1325 439.56 53.7164 436.169C46.3003 432.779 39.414 428.753 33.0573 424.092C26.7007 419.218 21.5094 413.285 17.4835 406.293C13.6695 399.089 11.7625 390.296 11.7625 379.913C11.7625 367.623 14.623 356.923 20.344 347.812C26.2769 338.489 34.4346 331.179 44.8171 325.881C55.1997 320.584 67.1714 317.618 80.7322 316.982C96.2001 316.982 109.655 318.889 121.097 322.703C132.539 326.517 142.71 331.073 151.609 336.37L138.578 362.432ZM357.574 515.945H435.126V549H312.76L357.574 515.945ZM189.123 433.945C189.123 418.053 192.09 403.009 198.022 388.812C204.167 374.616 212.643 362.008 223.449 350.99C234.255 339.972 246.757 331.391 260.953 325.246C275.15 318.889 290.406 315.711 306.721 315.711C322.825 315.711 337.975 318.889 352.171 325.246C366.368 331.391 378.975 339.972 389.993 350.99C401.012 362.008 409.593 374.616 415.738 388.812C421.883 403.009 424.955 418.053 424.955 433.945C424.955 450.26 421.883 465.516 415.738 479.712C409.593 493.909 401.012 506.41 389.993 517.217C379.187 528.023 366.58 536.499 352.171 542.643C337.975 548.576 322.825 551.543 306.721 551.543C290.406 551.543 275.15 548.576 260.953 542.643C246.757 536.71 234.255 528.447 223.449 517.852C212.643 507.046 204.167 494.545 198.022 480.348C192.09 465.94 189.123 450.472 189.123 433.945ZM224.085 434.262C224.085 445.704 226.204 456.617 230.441 466.999C234.891 477.17 240.93 486.175 248.558 494.015C256.186 501.643 264.979 507.682 274.938 512.131C285.109 516.581 296.021 518.806 307.675 518.806C319.117 518.806 329.817 516.581 339.776 512.131C349.735 507.682 358.422 501.643 365.838 494.015C373.466 486.387 379.399 477.488 383.637 467.317C387.874 456.934 389.993 445.81 389.993 433.945C389.993 422.291 387.769 411.378 383.319 401.208C379.081 391.037 373.148 382.138 365.52 374.51C358.104 366.67 349.311 360.525 339.14 356.076C329.181 351.626 318.481 349.401 307.039 349.401C295.173 349.401 284.261 351.626 274.302 356.076C264.344 360.525 255.55 366.67 247.922 374.51C240.294 382.35 234.361 391.355 230.124 401.526C226.098 411.696 224.085 422.609 224.085 434.262ZM516.387 466.681C516.387 476.428 518.823 485.222 523.697 493.061C528.57 500.901 535.033 507.152 543.084 511.814C551.136 516.475 560.141 518.806 570.1 518.806C580.695 518.806 590.124 516.475 598.387 511.814C606.651 507.152 613.114 500.901 617.775 493.061C622.649 485.222 625.085 476.428 625.085 466.681V318.253H658.458V467.635C658.458 484.374 654.538 499.1 646.698 511.814C638.858 524.315 628.264 534.062 614.915 541.054C601.566 548.047 586.628 551.543 570.1 551.543C553.997 551.543 539.27 548.047 525.921 541.054C512.573 534.062 501.978 524.315 494.138 511.814C486.51 499.1 482.696 484.374 482.696 467.635V318.253H516.387V466.681ZM692.039 549L793.427 309.036H795.334L896.723 549H857.947L784.21 362.114L808.683 345.905L725.411 549H692.039ZM753.698 462.55H835.699L847.459 491.79H743.528L753.698 462.55ZM1001.35 318.253C1013.43 318.253 1024.55 319.949 1034.72 323.339C1045.11 326.517 1053.9 331.179 1061.1 337.323C1068.52 343.468 1074.24 351.096 1078.27 360.207C1082.51 369.107 1084.62 379.489 1084.62 391.355C1084.62 400.466 1083.25 409.471 1080.49 418.371C1077.74 427.27 1073.29 435.322 1067.14 442.526C1061 449.73 1052.95 455.557 1042.99 460.007C1033.03 464.245 1020.63 466.363 1005.8 466.363H972.111V549H938.103V318.253H1001.35ZM1005.17 433.945C1013.85 433.945 1021.06 432.567 1026.78 429.813C1032.71 427.058 1037.27 423.668 1040.45 419.642C1043.84 415.404 1046.17 410.955 1047.44 406.293C1048.92 401.42 1049.66 396.758 1049.66 392.308C1049.66 388.071 1048.92 383.621 1047.44 378.959C1046.17 374.298 1043.84 369.848 1040.45 365.611C1037.27 361.373 1032.92 357.877 1027.41 355.122C1021.91 352.367 1015.12 350.99 1007.07 350.99H972.111V433.945H1005.17ZM1044.26 453.65L1104.01 549H1064.6L1003.89 454.604L1044.26 453.65ZM1149.47 318.253H1301.08V350.99H1183.48V416.782H1288.05V449.518H1183.48V516.263H1305.53V549H1149.47V318.253Z"/>
</mask>
<path d="M1.59187 0.253454V-4.19176H-2.85334V0.253454H1.59187ZM155.423 0.253454H159.868V-4.19176H155.423V0.253454ZM155.423 32.9902V37.4354H159.868V32.9902H155.423ZM94.7169 32.9902V28.545H90.2716V32.9902H94.7169ZM94.7169 231V235.445H99.1621V231H94.7169ZM60.7088 231H56.2635V235.445H60.7088V231ZM60.7088 32.9902H65.154V28.545H60.7088V32.9902ZM1.59187 32.9902H-2.85334V37.4354H1.59187V32.9902ZM1.59187 4.69867H155.423V-4.19176H1.59187V4.69867ZM150.978 0.253454V32.9902H159.868V0.253454H150.978ZM155.423 28.545H94.7169V37.4354H155.423V28.545ZM90.2716 32.9902V231H99.1621V32.9902H90.2716ZM94.7169 226.555H60.7088V235.445H94.7169V226.555ZM65.154 231V32.9902H56.2635V231H65.154ZM60.7088 28.545H1.59187V37.4354H60.7088V28.545ZM6.03708 32.9902V0.253454H-2.85334V32.9902H6.03708ZM388.404 0.253454H392.849V-4.19176H388.404V0.253454ZM388.404 231V235.445H392.849V231H388.404ZM354.396 231H349.951V235.445H354.396V231ZM354.396 131.518H358.841V127.073H354.396V131.518ZM237.434 131.518V127.073H232.988V131.518H237.434ZM237.434 231V235.445H241.879V231H237.434ZM203.426 231H198.98V235.445H203.426V231ZM203.426 0.253454V-4.19176H198.98V0.253454H203.426ZM237.434 0.253454H241.879V-4.19176H237.434V0.253454ZM237.434 99.0994H232.988V103.545H237.434V99.0994ZM354.396 99.0994V103.545H358.841V99.0994H354.396ZM354.396 0.253454V-4.19176H349.951V0.253454H354.396ZM383.959 0.253454V231H392.849V0.253454H383.959ZM388.404 226.555H354.396V235.445H388.404V226.555ZM358.841 231V131.518H349.951V231H358.841ZM354.396 127.073H237.434V135.964H354.396V127.073ZM232.988 131.518V231H241.879V131.518H232.988ZM237.434 226.555H203.426V235.445H237.434V226.555ZM207.871 231V0.253454H198.98V231H207.871ZM203.426 4.69867H237.434V-4.19176H203.426V4.69867ZM232.988 0.253454V99.0994H241.879V0.253454H232.988ZM237.434 103.545H354.396V94.6542H237.434V103.545ZM358.841 99.0994V0.253454H349.951V99.0994H358.841ZM354.396 4.69867H388.404V-4.19176H354.396V4.69867ZM453.284 0.253454V-4.19176H448.839V0.253454H453.284ZM604.891 0.253454H609.336V-4.19176H604.891V0.253454ZM604.891 32.9902V37.4354H609.336V32.9902H604.891ZM487.292 32.9902V28.545H482.847V32.9902H487.292ZM487.292 98.7816H482.847V103.227H487.292V98.7816ZM591.859 98.7816H596.305V94.3364H591.859V98.7816ZM591.859 131.518V135.964H596.305V131.518H591.859ZM487.292 131.518V127.073H482.847V131.518H487.292ZM487.292 198.263H482.847V202.708H487.292V198.263ZM609.34 198.263H613.785V193.818H609.34V198.263ZM609.34 231V235.445H613.785V231H609.34ZM453.284 231H448.839V235.445H453.284V231ZM453.284 4.69867H604.891V-4.19176H453.284V4.69867ZM600.445 0.253454V32.9902H609.336V0.253454H600.445ZM604.891 28.545H487.292V37.4354H604.891V28.545ZM482.847 32.9902V98.7816H491.738V32.9902H482.847ZM487.292 103.227H591.859V94.3364H487.292V103.227ZM587.414 98.7816V131.518H596.305V98.7816H587.414ZM591.859 127.073H487.292V135.964H591.859V127.073ZM482.847 131.518V198.263H491.738V131.518H482.847ZM487.292 202.708H609.34V193.818H487.292V202.708ZM604.895 198.263V231H613.785V198.263H604.895ZM609.34 226.555H453.284V235.445H609.34V226.555ZM457.73 231V0.253454H448.839V231H457.73ZM138.578 362.432L136.507 366.366L140.524 368.48L142.554 364.42L138.578 362.432ZM112.515 351.626L113.863 347.39L113.863 347.39L112.515 351.626ZM57.2126 355.44L59.8969 358.983L59.9305 358.958L59.9636 358.932L57.2126 355.44ZM53.7164 394.533L56.9287 391.461L56.9287 391.461L53.7164 394.533ZM71.8329 407.247L69.8908 411.245L69.8908 411.245L71.8329 407.247ZM95.3525 417.417L93.7568 421.566L93.795 421.581L93.8334 421.595L95.3525 417.417ZM116.012 426.634L113.926 430.56L113.999 430.599L114.072 430.634L116.012 426.634ZM134.764 439.348L131.749 442.614L131.779 442.642L131.811 442.67L134.764 439.348ZM148.113 458.418L144.009 460.127L144.039 460.197L144.07 460.266L148.113 458.418ZM143.981 519.124L140.198 516.79L140.18 516.819L140.162 516.849L143.981 519.124ZM117.919 542.961L119.936 546.922L119.951 546.915L119.965 546.907L117.919 542.961ZM48.3133 548.364L47.2116 552.671L47.2697 552.686L47.3281 552.699L48.3133 548.364ZM22.251 539.465L20.3481 543.482L20.411 543.512L20.4748 543.54L22.251 539.465ZM0.320539 527.07L-3.52752 524.844L-5.60008 528.428L-2.17255 530.75L0.320539 527.07ZM15.5765 500.689L18.1459 497.062L14.1685 494.245L11.7284 498.464L15.5765 500.689ZM33.0573 511.178L31.0185 515.128L31.0695 515.154L31.1211 515.179L33.0573 511.178ZM53.3986 518.806L52.229 523.094L52.245 523.099L52.2611 523.103L53.3986 518.806ZM94.399 518.17L95.8441 522.374L95.9022 522.354L95.9598 522.332L94.399 518.17ZM111.244 506.728L114.59 509.655L114.619 509.622L114.648 509.587L111.244 506.728ZM111.88 467.953L108.324 470.62L108.386 470.703L108.453 470.784L111.88 467.953ZM96.306 454.922L94.1145 458.789L94.1414 458.804L94.1686 458.819L96.306 454.922ZM75.6469 445.387L74.0593 449.539L74.0792 449.546L74.0991 449.554L75.6469 445.387ZM53.7164 436.169L55.5646 432.127L55.5646 432.127L53.7164 436.169ZM33.0573 424.092L30.3527 427.619L30.3903 427.648L30.4286 427.676L33.0573 424.092ZM17.4835 406.293L13.5549 408.373L13.5918 408.443L13.6312 408.511L17.4835 406.293ZM20.344 347.812L16.5937 345.425L16.5865 345.437L16.5794 345.448L20.344 347.812ZM44.8171 325.881L46.8373 329.841L46.8373 329.841L44.8171 325.881ZM80.7322 316.982V312.537H80.6281L80.5241 312.542L80.7322 316.982ZM121.097 322.703L119.691 326.92L119.691 326.92L121.097 322.703ZM151.609 336.37L155.585 338.358L157.432 334.663L153.883 332.55L151.609 336.37ZM140.648 358.499C132.348 354.13 123.417 350.43 113.863 347.39L111.168 355.862C120.26 358.755 128.704 362.259 136.507 366.366L140.648 358.499ZM113.863 347.39C104.159 344.302 94.6981 342.731 85.4997 342.731V351.621C93.6762 351.621 102.226 353.017 111.168 355.862L113.863 347.39ZM85.4997 342.731C72.9679 342.731 62.4639 345.643 54.4616 351.948L59.9636 358.932C65.9459 354.218 74.3 351.621 85.4997 351.621V342.731ZM54.5283 351.897C46.3482 358.094 42.2789 366.757 42.2789 377.37H51.1693C51.1693 369.337 54.0924 363.38 59.8969 358.983L54.5283 351.897ZM42.2789 377.37C42.2789 385.117 45.0748 391.93 50.5041 397.606L56.9287 391.461C53.035 387.39 51.1693 382.761 51.1693 377.37H42.2789ZM50.5041 397.606C55.6018 402.935 62.1019 407.462 69.8908 411.245L73.775 403.248C66.7317 399.827 61.1541 395.878 56.9287 391.461L50.5041 397.606ZM69.8908 411.245C77.4281 414.906 85.3841 418.346 93.7568 421.566L96.9483 413.268C88.7936 410.132 81.0699 406.791 73.775 403.248L69.8908 411.245ZM93.8334 421.595C100.625 424.065 107.323 427.052 113.926 430.56L118.097 422.709C111.14 419.013 104.064 415.855 96.8716 413.24L93.8334 421.595ZM114.072 430.634C120.686 433.841 126.572 437.835 131.749 442.614L137.779 436.081C131.938 430.689 125.322 426.208 117.951 422.635L114.072 430.634ZM131.811 442.67C136.993 447.277 141.067 453.067 144.009 460.127L152.216 456.708C148.801 448.513 143.977 441.59 137.717 436.025L131.811 442.67ZM144.07 460.266C147.124 466.946 148.753 475.385 148.753 485.751H157.643C157.643 474.505 155.882 464.722 152.156 456.57L144.07 460.266ZM148.753 485.751C148.753 497.26 145.888 507.568 140.198 516.79L147.764 521.458C154.364 510.762 157.643 498.822 157.643 485.751H148.753ZM140.162 516.849C134.699 526.018 126.664 533.419 115.872 539.015L119.965 546.907C132.057 540.637 141.397 532.147 147.8 521.399L140.162 516.849ZM115.901 539C105.445 544.327 92.5095 547.097 76.9182 547.097V555.988C93.534 555.988 107.932 553.037 119.936 546.922L115.901 539ZM76.9182 547.097C67.4964 547.097 58.292 546.074 49.2984 544.03L47.3281 552.699C56.9807 554.893 66.8464 555.988 76.9182 555.988V547.097ZM49.415 544.058C40.5245 541.784 32.0634 538.893 24.0272 535.39L20.4748 543.54C28.9659 547.241 37.8796 550.284 47.2116 552.671L49.415 544.058ZM24.1539 535.448C16.2827 531.719 9.17312 527.697 2.81363 523.389L-2.17255 530.75C4.60504 535.341 12.1158 539.583 20.3481 543.482L24.1539 535.448ZM4.1686 529.295L19.4246 502.915L11.7284 498.464L-3.52752 524.844L4.1686 529.295ZM13.0071 504.317C18.2892 508.058 24.2986 511.66 31.0185 515.128L35.0961 507.228C28.6789 503.916 23.0344 500.525 18.1459 497.062L13.0071 504.317ZM31.1211 515.179C37.9341 518.476 44.9711 521.115 52.229 523.094L54.5682 514.517C47.8415 512.683 41.3176 510.237 34.9935 507.177L31.1211 515.179ZM52.2611 523.103C59.7745 525.092 66.94 526.112 73.7399 526.112V517.221C67.8265 517.221 61.4311 516.334 54.5361 514.509L52.2611 523.103ZM73.7399 526.112C81.2364 526.112 88.6106 524.861 95.8441 522.374L92.954 513.966C86.6266 516.141 80.228 517.221 73.7399 517.221V526.112ZM95.9598 522.332C103.377 519.551 109.622 515.333 114.59 509.655L107.899 503.801C103.967 508.294 98.9816 511.704 92.8382 514.008L95.9598 522.332ZM114.648 509.587C119.912 503.32 122.364 495.346 122.364 486.069H113.473C113.473 493.743 111.476 499.542 107.84 503.869L114.648 509.587ZM122.364 486.069C122.364 477.984 120.082 470.902 115.307 465.122L108.453 470.784C111.729 474.75 113.473 479.746 113.473 486.069H122.364ZM115.436 465.286C111.18 459.611 105.469 454.877 98.4434 451.024L94.1686 458.819C100.28 462.171 104.951 466.123 108.324 470.62L115.436 465.286ZM98.4976 451.054C91.9185 447.326 84.8149 444.05 77.1947 441.219L74.0991 449.554C81.3111 452.232 87.9802 455.313 94.1145 458.789L98.4976 451.054ZM77.2344 441.234C70.1231 438.515 62.8998 435.48 55.5646 432.127L51.8683 440.212C59.3652 443.639 66.7623 446.749 74.0593 449.539L77.2344 441.234ZM55.5646 432.127C48.4141 428.858 41.7905 424.984 35.686 420.507L30.4286 427.676C37.0374 432.523 44.1866 436.701 51.8683 440.212L55.5646 432.127ZM35.7619 420.564C29.8739 416.05 25.0714 410.563 21.3358 404.075L13.6312 408.511C17.9473 416.008 23.5274 422.387 30.3527 427.619L35.7619 420.564ZM21.4121 404.213C18.0176 397.801 16.2077 389.764 16.2077 379.913H7.3173C7.3173 390.827 9.32139 400.376 13.5549 408.373L21.4121 404.213ZM16.2077 379.913C16.2077 368.338 18.893 358.482 24.1086 350.176L16.5794 345.448C10.3531 355.364 7.3173 366.909 7.3173 379.913H16.2077ZM24.0943 350.198C29.5775 341.582 37.1213 334.798 46.8373 329.841L42.7969 321.922C31.7479 327.559 22.9762 335.396 16.5937 345.425L24.0943 350.198ZM46.8373 329.841C56.5716 324.875 67.9076 322.033 80.9404 321.422L80.5241 312.542C66.4351 313.202 53.8277 316.294 42.7969 321.922L46.8373 329.841ZM80.7322 321.427C95.8503 321.427 108.81 323.293 119.691 326.92L122.503 318.486C110.5 314.485 96.5498 312.537 80.7322 312.537V321.427ZM119.691 326.92C130.879 330.649 140.751 335.08 149.335 340.19L153.883 332.55C144.669 327.066 134.199 322.385 122.503 318.486L119.691 326.92ZM147.633 334.382L134.602 360.444L142.554 364.42L155.585 338.358L147.633 334.382ZM357.574 515.945V511.5H356.112L354.936 512.368L357.574 515.945ZM435.126 515.945H439.571V511.5H435.126V515.945ZM435.126 549V553.445H439.571V549H435.126ZM312.76 549L310.121 545.423L299.245 553.445H312.76V549ZM198.022 388.812L193.943 387.047L193.932 387.072L193.921 387.098L198.022 388.812ZM260.953 325.246L262.719 329.325L262.745 329.314L262.77 329.303L260.953 325.246ZM352.171 325.246L350.355 329.303L350.38 329.314L350.406 329.325L352.171 325.246ZM389.993 350.99L386.85 354.133L386.85 354.133L389.993 350.99ZM415.738 388.812L411.658 390.578L411.658 390.578L415.738 388.812ZM415.738 479.712L419.817 481.478L419.817 481.478L415.738 479.712ZM389.993 517.217L386.881 514.043L386.865 514.058L386.85 514.073L389.993 517.217ZM352.171 542.643L353.885 546.745L353.9 546.739L353.915 546.732L352.171 542.643ZM260.953 542.643L262.667 538.542L262.667 538.542L260.953 542.643ZM223.449 517.852L220.306 520.996L220.321 521.011L220.337 521.027L223.449 517.852ZM198.022 480.348L193.912 482.041L193.927 482.077L193.943 482.114L198.022 480.348ZM230.441 466.999L226.326 468.679L226.347 468.73L226.369 468.781L230.441 466.999ZM248.558 494.015L245.372 497.115L245.393 497.137L245.415 497.158L248.558 494.015ZM274.938 512.131L273.125 516.19L273.14 516.197L273.156 516.204L274.938 512.131ZM339.776 512.131L341.589 516.19L341.589 516.19L339.776 512.131ZM365.838 494.015L362.695 490.872L362.673 490.894L362.651 490.916L365.838 494.015ZM383.637 467.317L387.74 469.027L387.746 469.012L387.752 468.997L383.637 467.317ZM383.319 401.208L379.216 402.917L379.231 402.954L379.246 402.99L383.319 401.208ZM365.52 374.51L362.291 377.565L362.333 377.609L362.377 377.653L365.52 374.51ZM339.14 356.076L337.327 360.134L337.343 360.141L337.358 360.148L339.14 356.076ZM274.302 356.076L272.489 352.017L272.489 352.017L274.302 356.076ZM247.922 374.51L244.736 371.41L244.736 371.41L247.922 374.51ZM230.124 401.526L226.02 399.816L226.005 399.853L225.99 399.89L230.124 401.526ZM357.574 520.391H435.126V511.5H357.574V520.391ZM430.68 515.945V549H439.571V515.945H430.68ZM435.126 544.555H312.76V553.445H435.126V544.555ZM315.399 552.577L360.213 519.523L354.936 512.368L310.121 545.423L315.399 552.577ZM193.568 433.945C193.568 418.622 196.425 404.162 202.124 390.526L193.921 387.098C187.754 401.856 184.678 417.484 184.678 433.945H193.568ZM202.102 390.578C208.03 376.881 216.199 364.731 226.623 354.103L220.275 347.878C209.086 359.286 200.304 372.351 193.943 387.047L202.102 390.578ZM226.623 354.103C237.026 343.496 249.049 335.242 262.719 329.325L259.188 321.166C244.465 327.539 231.485 336.448 220.275 347.878L226.623 354.103ZM262.77 329.303C276.367 323.215 291.001 320.156 306.721 320.156V311.266C289.811 311.266 273.933 314.564 259.137 321.189L262.77 329.303ZM306.721 320.156C322.221 320.156 336.75 323.211 350.355 329.303L353.988 321.189C339.2 314.567 323.428 311.266 306.721 311.266V320.156ZM350.406 329.325C364.084 335.246 376.225 343.508 386.85 354.133L393.137 347.847C381.725 336.436 368.651 327.535 353.937 321.166L350.406 329.325ZM386.85 354.133C397.475 364.759 405.738 376.899 411.658 390.578L419.817 387.047C413.448 372.332 404.548 359.258 393.137 347.847L386.85 354.133ZM411.658 390.578C417.555 404.202 420.51 418.643 420.51 433.945H429.4C429.4 417.463 426.21 401.816 419.817 387.047L411.658 390.578ZM420.51 433.945C420.51 449.686 417.549 464.338 411.658 477.947L419.817 481.478C426.216 466.694 429.4 450.834 429.4 433.945H420.51ZM411.658 477.947C405.741 491.617 397.488 503.64 386.881 514.043L393.106 520.39C404.535 509.181 413.445 496.201 419.817 481.478L411.658 477.947ZM386.85 514.073C376.456 524.468 364.327 532.627 350.427 538.554L353.915 546.732C368.833 540.37 381.918 531.578 393.137 520.36L386.85 514.073ZM350.457 538.542C336.829 544.237 322.264 547.097 306.721 547.097V555.988C323.385 555.988 339.121 552.915 353.885 546.745L350.457 538.542ZM306.721 547.097C290.958 547.097 276.289 544.234 262.667 538.542L259.239 546.745C274.011 552.918 289.853 555.988 306.721 555.988V547.097ZM262.667 538.542C248.983 532.823 236.958 524.871 226.561 514.678L220.337 521.027C231.553 532.023 244.531 540.598 259.239 546.745L262.667 538.542ZM226.592 514.709C216.187 504.304 208.027 492.271 202.102 478.582L193.943 482.114C200.307 496.818 209.098 509.788 220.306 520.996L226.592 514.709ZM202.133 478.656C196.434 464.816 193.568 449.927 193.568 433.945H184.678C184.678 451.017 187.745 467.063 193.912 482.041L202.133 478.656ZM219.639 434.262C219.639 446.268 221.866 457.752 226.326 468.679L234.557 465.319C230.541 455.481 228.53 445.14 228.53 434.262H219.639ZM226.369 468.781C231.029 479.433 237.366 488.887 245.372 497.115L251.744 490.915C244.494 483.464 238.753 474.906 234.514 465.217L226.369 468.781ZM245.415 497.158C253.431 505.174 262.676 511.521 273.125 516.19L276.751 508.073C267.282 503.842 258.941 498.112 251.701 490.872L245.415 497.158ZM273.156 516.204C283.917 520.912 295.439 523.251 307.675 523.251V514.361C296.603 514.361 286.301 512.251 276.72 508.059L273.156 516.204ZM307.675 523.251C319.71 523.251 331.032 520.907 341.589 516.19L337.962 508.073C328.602 512.255 318.523 514.361 307.675 514.361V523.251ZM341.589 516.19C352.049 511.516 361.206 505.156 369.025 497.114L362.651 490.916C355.638 498.13 347.42 503.847 337.962 508.073L341.589 516.19ZM368.981 497.158C377.029 489.111 383.284 479.722 387.74 469.027L379.533 465.607C375.514 475.254 369.903 483.663 362.695 490.872L368.981 497.158ZM387.752 468.997C392.22 458.05 394.439 446.352 394.439 433.945H385.548C385.548 445.268 383.529 455.818 379.521 465.637L387.752 468.997ZM394.439 433.945C394.439 421.709 392.099 410.186 387.391 399.426L379.246 402.99C383.438 412.57 385.548 422.873 385.548 433.945H394.439ZM387.422 399.498C382.966 388.803 376.711 379.414 368.664 371.367L362.377 377.653C369.586 384.862 375.196 393.271 379.216 402.917L387.422 399.498ZM368.75 371.455C360.912 363.17 351.622 356.684 340.922 352.003L337.358 360.148C346.999 364.366 355.296 370.17 362.291 377.565L368.75 371.455ZM340.954 352.017C330.396 347.3 319.075 344.956 307.039 344.956V353.846C317.887 353.846 327.966 355.952 337.327 360.134L340.954 352.017ZM307.039 344.956C294.604 344.956 283.067 347.291 272.489 352.017L276.116 360.134C285.455 355.961 295.743 353.846 307.039 353.846V344.956ZM272.489 352.017C262.015 356.697 252.756 363.168 244.736 371.41L251.108 377.61C258.345 370.172 266.673 364.353 276.116 360.134L272.489 352.017ZM244.736 371.41C236.715 379.654 230.472 389.132 226.02 399.816L234.227 403.235C238.251 393.578 243.874 385.045 251.108 377.61L244.736 371.41ZM225.99 399.89C221.745 410.614 219.639 422.085 219.639 434.262H228.53C228.53 423.132 230.45 412.778 234.257 403.162L225.99 399.89ZM543.084 511.814L540.857 515.661L540.857 515.661L543.084 511.814ZM598.387 511.814L600.571 515.685L600.571 515.685L598.387 511.814ZM617.775 493.061L614 490.715L613.977 490.752L613.954 490.79L617.775 493.061ZM625.085 318.253V313.808H620.64V318.253H625.085ZM658.458 318.253H662.903V313.808H658.458V318.253ZM646.698 511.814L650.464 514.175L650.473 514.161L650.482 514.147L646.698 511.814ZM614.915 541.054L612.852 537.116L612.852 537.116L614.915 541.054ZM525.921 541.054L527.984 537.116L527.984 537.116L525.921 541.054ZM494.138 511.814L490.326 514.101L490.349 514.138L490.372 514.175L494.138 511.814ZM482.696 318.253V313.808H478.251V318.253H482.696ZM516.387 318.253H520.832V313.808H516.387V318.253ZM511.941 466.681C511.941 477.209 514.585 486.824 519.921 495.408L527.472 490.715C523.061 483.619 520.832 475.647 520.832 466.681H511.941ZM519.921 495.408C525.183 503.873 532.179 510.637 540.857 515.661L545.312 507.967C537.886 503.667 531.957 497.93 527.472 490.715L519.921 495.408ZM540.857 515.661C549.634 520.742 559.416 523.251 570.1 523.251V514.361C560.867 514.361 552.639 512.209 545.312 507.967L540.857 515.661ZM570.1 523.251C581.369 523.251 591.566 520.765 600.571 515.685L596.203 507.942C588.681 512.185 580.021 514.361 570.1 514.361V523.251ZM600.571 515.685C609.483 510.658 616.522 503.868 621.596 495.333L613.954 490.79C609.706 497.935 603.819 503.646 596.203 507.942L600.571 515.685ZM621.55 495.408C626.887 486.824 629.531 477.209 629.531 466.681H620.64C620.64 475.647 618.411 483.619 614 490.715L621.55 495.408ZM629.531 466.681V318.253H620.64V466.681H629.531ZM625.085 322.699H658.458V313.808H625.085V322.699ZM654.013 318.253V467.635H662.903V318.253H654.013ZM654.013 467.635C654.013 483.652 650.271 497.551 642.914 509.48L650.482 514.147C658.805 500.65 662.903 485.096 662.903 467.635H654.013ZM642.932 509.452C635.52 521.272 625.519 530.481 612.852 537.116L616.977 544.992C631.008 537.642 642.197 527.358 650.464 514.175L642.932 509.452ZM612.852 537.116C600.199 543.744 585.98 547.097 570.1 547.097V555.988C587.275 555.988 602.932 552.349 616.977 544.992L612.852 537.116ZM570.1 547.097C554.665 547.097 540.653 543.753 527.984 537.116L523.859 544.992C537.888 552.34 553.329 555.988 570.1 555.988V547.097ZM527.984 537.116C515.317 530.481 505.317 521.272 497.904 509.452L490.372 514.175C498.64 527.358 509.828 537.642 523.859 544.992L527.984 537.116ZM497.95 509.527C490.788 497.59 487.141 483.675 487.141 467.635H478.251C478.251 485.073 482.232 500.611 490.326 514.101L497.95 509.527ZM487.141 467.635V318.253H478.251V467.635H487.141ZM482.696 322.699H516.387V313.808H482.696V322.699ZM511.941 318.253V466.681H520.832V318.253H511.941ZM692.039 549L687.944 547.27L685.335 553.445H692.039V549ZM793.427 309.036V304.591H790.48L789.333 307.306L793.427 309.036ZM795.334 309.036L799.429 307.306L798.282 304.591H795.334V309.036ZM896.723 549V553.445H903.427L900.818 547.27L896.723 549ZM857.947 549L853.812 550.631L854.923 553.445H857.947V549ZM784.21 362.114L781.756 358.408L778.754 360.397L780.075 363.746L784.21 362.114ZM808.683 345.905L812.796 347.591L818.28 334.217L806.229 342.199L808.683 345.905ZM725.411 549V553.445H728.393L729.524 550.686L725.411 549ZM753.698 462.55V458.104H750.538L749.5 461.089L753.698 462.55ZM835.699 462.55L839.823 460.891L838.703 458.104H835.699V462.55ZM847.459 491.79V496.235H854.038L851.583 490.131L847.459 491.79ZM743.528 491.79L739.329 490.33L737.275 496.235H743.528V491.79ZM696.133 550.73L797.522 310.766L789.333 307.306L687.944 547.27L696.133 550.73ZM793.427 313.482H795.334V304.591H793.427V313.482ZM791.24 310.766L892.628 550.73L900.818 547.27L799.429 307.306L791.24 310.766ZM896.723 544.555H857.947V553.445H896.723V544.555ZM862.082 547.369L788.345 360.483L780.075 363.746L853.812 550.631L862.082 547.369ZM786.665 365.82L811.138 349.611L806.229 342.199L781.756 358.408L786.665 365.82ZM804.57 344.219L721.298 547.314L729.524 550.686L812.796 347.591L804.57 344.219ZM725.411 544.555H692.039V553.445H725.411V544.555ZM753.698 466.995H835.699V458.104H753.698V466.995ZM831.575 464.208L843.335 493.449L851.583 490.131L839.823 460.891L831.575 464.208ZM847.459 487.345H743.528V496.235H847.459V487.345ZM747.726 493.25L757.897 464.01L749.5 461.089L739.329 490.33L747.726 493.25ZM1034.72 323.339L1033.32 327.556L1033.37 327.573L1033.42 327.589L1034.72 323.339ZM1061.1 337.323L1058.22 340.705L1058.24 340.726L1058.27 340.746L1061.1 337.323ZM1078.27 360.207L1074.2 362.004L1074.23 362.062L1074.25 362.119L1078.27 360.207ZM1067.14 442.526L1070.53 445.411L1070.53 445.411L1067.14 442.526ZM1042.99 460.007L1044.73 464.097L1044.77 464.082L1044.8 464.065L1042.99 460.007ZM972.111 466.363V461.918H967.666V466.363H972.111ZM972.111 549V553.445H976.557V549H972.111ZM938.103 549H933.658V553.445H938.103V549ZM938.103 318.253V313.808H933.658V318.253H938.103ZM1026.78 429.813L1024.91 425.781L1024.88 425.794L1024.85 425.808L1026.78 429.813ZM1040.45 419.642L1036.97 416.865L1036.97 416.876L1036.96 416.888L1040.45 419.642ZM1047.44 406.293L1043.19 404.999L1043.17 405.061L1043.15 405.123L1047.44 406.293ZM1047.44 378.959L1043.15 380.129L1043.17 380.219L1043.2 380.307L1047.44 378.959ZM1040.45 365.611L1036.89 368.278L1036.93 368.333L1036.97 368.387L1040.45 365.611ZM972.111 350.99V346.545H967.666V350.99H972.111ZM972.111 433.945H967.666V438.39H972.111V433.945ZM1044.26 453.65L1048.03 451.29L1046.68 449.146L1044.15 449.206L1044.26 453.65ZM1104.01 549V553.445H1112.04L1107.78 546.64L1104.01 549ZM1064.6 549L1060.86 551.404L1062.17 553.445H1064.6V549ZM1003.89 454.604L1003.79 450.16L995.872 450.347L1000.16 457.008L1003.89 454.604ZM1001.35 322.699C1013.01 322.699 1023.65 324.335 1033.32 327.556L1036.13 319.122C1025.45 315.563 1013.85 313.808 1001.35 313.808V322.699ZM1033.42 327.589C1043.31 330.616 1051.54 335.009 1058.22 340.705L1063.99 333.941C1056.26 327.348 1046.91 322.419 1036.03 319.088L1033.42 327.589ZM1058.27 340.746C1065.14 346.436 1070.44 353.501 1074.2 362.004L1082.33 358.411C1078.04 348.692 1071.91 340.5 1063.94 333.901L1058.27 340.746ZM1074.25 362.119C1078.16 370.312 1080.18 380.018 1080.18 391.355H1089.07C1089.07 378.961 1086.86 367.902 1082.28 358.296L1074.25 362.119ZM1080.18 391.355C1080.18 400.011 1078.87 408.573 1076.25 417.056L1084.74 419.685C1087.62 410.37 1089.07 400.922 1089.07 391.355H1080.18ZM1076.25 417.056C1073.67 425.369 1069.52 432.889 1063.76 439.641L1070.53 445.411C1077.06 437.755 1081.8 429.171 1084.74 419.685L1076.25 417.056ZM1063.76 439.641C1058.11 446.271 1050.62 451.727 1041.17 455.948L1044.8 464.065C1055.27 459.387 1063.89 453.189 1070.53 445.411L1063.76 439.641ZM1041.25 455.917C1032 459.851 1020.24 461.918 1005.8 461.918V470.809C1021.02 470.809 1034.06 468.639 1044.73 464.097L1041.25 455.917ZM1005.8 461.918H972.111V470.809H1005.8V461.918ZM967.666 466.363V549H976.557V466.363H967.666ZM972.111 544.555H938.103V553.445H972.111V544.555ZM942.549 549V318.253H933.658V549H942.549ZM938.103 322.699H1001.35V313.808H938.103V322.699ZM1005.17 438.39C1014.29 438.39 1022.21 436.948 1028.71 433.818L1024.85 425.808C1019.91 428.186 1013.42 429.499 1005.17 429.499V438.39ZM1028.65 433.845C1035.05 430.875 1040.22 427.098 1043.93 422.397L1036.96 416.888C1034.31 420.237 1030.38 423.241 1024.91 425.781L1028.65 433.845ZM1043.92 422.419C1047.64 417.765 1050.28 412.778 1051.73 407.463L1043.15 405.123C1042.06 409.131 1040.03 413.043 1036.97 416.865L1043.92 422.419ZM1051.69 407.587C1053.28 402.354 1054.11 397.255 1054.11 392.308H1045.22C1045.22 396.261 1044.56 400.485 1043.19 404.999L1051.69 407.587ZM1054.11 392.308C1054.11 387.549 1053.27 382.643 1051.67 377.612L1043.2 380.307C1044.57 384.599 1045.22 388.592 1045.22 392.308H1054.11ZM1051.73 377.79C1050.28 372.474 1047.64 367.487 1043.92 362.834L1036.97 368.387C1040.03 372.209 1042.06 376.122 1043.15 380.129L1051.73 377.79ZM1044 362.943C1040.35 358.07 1035.43 354.159 1029.4 351.146L1025.43 359.098C1030.42 361.594 1034.19 364.675 1036.89 368.278L1044 362.943ZM1029.4 351.146C1023.12 348.003 1015.61 346.545 1007.07 346.545V355.435C1014.64 355.435 1020.69 356.732 1025.43 359.098L1029.4 351.146ZM1007.07 346.545H972.111V355.435H1007.07V346.545ZM967.666 350.99V433.945H976.557V350.99H967.666ZM972.111 438.39H1005.17V429.499H972.111V438.39ZM1040.49 456.011L1100.25 551.36L1107.78 546.64L1048.03 451.29L1040.49 456.011ZM1104.01 544.555H1064.6V553.445H1104.01V544.555ZM1068.34 546.596L1007.63 452.199L1000.16 457.008L1060.86 551.404L1068.34 546.596ZM1004 459.048L1044.36 458.094L1044.15 449.206L1003.79 450.16L1004 459.048ZM1149.47 318.253V313.808H1145.03V318.253H1149.47ZM1301.08 318.253H1305.53V313.808H1301.08V318.253ZM1301.08 350.99V355.435H1305.53V350.99H1301.08ZM1183.48 350.99V346.545H1179.04V350.99H1183.48ZM1183.48 416.782H1179.04V421.227H1183.48V416.782ZM1288.05 416.782H1292.49V412.336H1288.05V416.782ZM1288.05 449.518V453.964H1292.49V449.518H1288.05ZM1183.48 449.518V445.073H1179.04V449.518H1183.48ZM1183.48 516.263H1179.04V520.708H1183.48V516.263ZM1305.53 516.263H1309.98V511.818H1305.53V516.263ZM1305.53 549V553.445H1309.98V549H1305.53ZM1149.47 549H1145.03V553.445H1149.47V549ZM1149.47 322.699H1301.08V313.808H1149.47V322.699ZM1296.64 318.253V350.99H1305.53V318.253H1296.64ZM1301.08 346.545H1183.48V355.435H1301.08V346.545ZM1179.04 350.99V416.782H1187.93V350.99H1179.04ZM1183.48 421.227H1288.05V412.336H1183.48V421.227ZM1283.6 416.782V449.518H1292.49V416.782H1283.6ZM1288.05 445.073H1183.48V453.964H1288.05V445.073ZM1179.04 449.518V516.263H1187.93V449.518H1179.04ZM1183.48 520.708H1305.53V511.818H1183.48V520.708ZM1301.09 516.263V549H1309.98V516.263H1301.09ZM1305.53 544.555H1149.47V553.445H1305.53V544.555ZM1153.92 549V318.253H1145.03V549H1153.92Z" fill="white" mask="url(#path-1-outside-1_809_16)"/>
</svg>
