<svg width="1202" height="560" viewBox="0 0 1202 560" fill="none" xmlns="http://www.w3.org/2000/svg">
<path d="M0.573803 3.25345H154.405V35.9902H93.6988V234H59.6907V35.9902H0.573803V3.25345ZM182.384 4.52477H221.795L281.548 174.247L275.827 172.023L320.959 56.0137L336.533 102.099L274.238 244.806L182.384 4.52477ZM294.261 4.52477H327.951L393.425 171.387L386.75 170.116L442.689 4.52477H478.922L388.657 244.171L294.261 4.52477ZM523.654 3.25345H557.663V234H523.654V3.25345ZM792.397 216.519C789.007 218.85 783.921 221.71 777.141 225.101C770.572 228.279 762.732 231.034 753.621 233.364C744.722 235.695 734.869 236.755 724.063 236.543C706.052 236.331 689.843 233.152 675.434 227.008C661.238 220.863 649.16 212.493 639.202 201.899C629.243 191.093 621.509 178.803 616 165.03C610.703 151.046 608.054 136.213 608.054 120.534C608.054 103.159 610.808 87.2672 616.318 72.8588C621.827 58.2385 629.667 45.5252 639.837 34.7189C650.22 23.9126 662.297 15.543 676.07 9.6101C690.055 3.67723 705.311 0.710788 721.838 0.710788C736.035 0.710788 748.854 2.61778 760.296 6.43178C771.738 10.2458 781.379 14.6954 789.219 19.7808L775.87 51.564C769.725 47.3263 762.097 43.3004 752.986 39.4864C744.086 35.4605 734.128 33.4476 723.109 33.4476C712.303 33.4476 702.026 35.6724 692.28 40.122C682.745 44.3598 674.269 50.3986 666.853 58.2385C659.649 65.8665 653.928 74.8718 649.69 85.2543C645.452 95.4249 643.333 106.549 643.333 118.627C643.333 130.916 645.24 142.252 649.054 152.635C652.868 163.017 658.271 172.023 665.264 179.651C672.468 187.279 681.049 193.211 691.008 197.449C700.967 201.687 712.197 203.806 724.699 203.806C736.564 203.806 746.947 202.005 755.846 198.403C764.957 194.801 772.373 190.669 778.094 186.007L792.397 216.519ZM843.349 3.25345H994.956V35.9902H877.358V101.782H981.924V134.518H877.358V201.263H999.405V234H843.349V3.25345ZM218.607 559.946L40.9386 383.549L50.7914 386.727L51.7449 552H17.4189V313.943H19.0081L194.452 490.658L186.506 488.433L185.87 321.253H219.561V559.946H218.607ZM261.14 552L362.528 312.036H364.435L465.824 552H427.048L353.311 365.114L377.784 348.905L294.512 552H261.14ZM322.799 465.55H404.8L416.56 494.79H312.628L322.799 465.55ZM507.204 552V313.625H507.522L630.205 487.48L615.585 484.302L737.633 313.625H738.268V552H704.578V390.223L706.803 407.704L621.624 528.163H620.988L534.22 407.704L539.941 391.812V552H507.204ZM803 321.253H954.606V353.99H837.008V419.782H941.575V452.518H837.008V519.263H959.055V552H803V321.253ZM1011.27 552V321.253H1075.47C1098.35 321.253 1117.85 324.75 1133.95 331.742C1150.05 338.734 1162.98 347.951 1172.73 359.393C1182.68 370.835 1189.89 383.549 1194.34 397.533C1199 411.518 1201.33 425.609 1201.33 439.805C1201.33 456.968 1198.26 472.436 1192.11 486.209C1185.97 499.981 1177.6 511.847 1167 521.806C1156.41 531.553 1144.23 539.075 1130.45 544.372C1116.68 549.457 1102.06 552 1086.59 552H1011.27ZM1045.27 519.263H1080.24C1092.74 519.263 1104.18 517.462 1114.56 513.86C1125.16 510.258 1134.27 504.961 1141.9 497.968C1149.74 490.976 1155.77 482.395 1160.01 472.224C1164.25 462.053 1166.37 450.399 1166.37 437.262C1166.37 423.066 1163.93 410.776 1159.06 400.394C1154.4 389.799 1148.15 381.112 1140.31 374.332C1132.47 367.339 1123.67 362.254 1113.93 359.076C1104.39 355.685 1094.65 353.99 1084.69 353.99H1045.27V519.263Z" fill="white"/>
</svg>
