<svg width="271" height="126" viewBox="0 0 271 126" fill="none" xmlns="http://www.w3.org/2000/svg">
<mask id="path-1-outside-1_778_277" maskUnits="userSpaceOnUse" x="-1" y="-1" width="273" height="128" fill="black">
<rect fill="white" x="-1" y="-1" width="273" height="128"/>
<path d="M0.5035 1.091H35.1095V8.4555H21.453V53H13.8025V8.4555H0.5035V1.091ZM41.4037 1.377H50.2697L63.7117 39.558L62.4247 39.0575L72.5777 12.96L76.0812 23.3275L62.0672 55.431L41.4037 1.377ZM66.5717 1.377H74.1507L88.8797 38.9145L87.3782 38.6285L99.9622 1.377H108.113L87.8072 55.288L66.5717 1.377ZM118.176 1.091H125.827V53H118.176V1.091ZM178.633 49.0675C177.87 49.5918 176.726 50.2353 175.201 50.998C173.723 51.713 171.96 52.3327 169.91 52.857C167.908 53.3813 165.691 53.6197 163.26 53.572C159.209 53.5243 155.562 52.8093 152.321 51.427C149.127 50.0447 146.41 48.1618 144.17 45.7785C141.93 43.3475 140.19 40.5828 138.95 37.4845C137.759 34.3385 137.163 31.0018 137.163 27.4745C137.163 23.5658 137.783 19.9908 139.022 16.7495C140.261 13.4605 142.025 10.6005 144.313 8.1695C146.649 5.7385 149.366 3.85567 152.464 2.521C155.61 1.18634 159.042 0.519004 162.76 0.519004C165.954 0.519004 168.837 0.948004 171.411 1.806C173.985 2.664 176.154 3.665 177.918 4.809L174.915 11.959C173.533 11.0057 171.817 10.1 169.767 9.242C167.765 8.33633 165.525 7.8835 163.046 7.8835C160.615 7.8835 158.303 8.384 156.11 9.385C153.965 10.3383 152.059 11.6968 150.39 13.4605C148.77 15.1765 147.483 17.2023 146.529 19.538C145.576 21.826 145.099 24.3285 145.099 27.0455C145.099 29.8102 145.528 32.3603 146.386 34.696C147.244 37.0317 148.46 39.0575 150.033 40.7735C151.654 42.4895 153.584 43.8242 155.824 44.7775C158.065 45.7308 160.591 46.2075 163.403 46.2075C166.073 46.2075 168.408 45.8023 170.41 44.992C172.46 44.1817 174.128 43.2522 175.415 42.2035L178.633 49.0675ZM190.095 1.091H224.201V8.4555H197.746V23.256H221.269V30.6205H197.746V45.6355H225.202V53H190.095V1.091ZM49.5525 125.787L9.584 86.105L11.8005 86.82L12.015 124H4.293V70.4465H4.6505L44.1185 110.201L42.331 109.7L42.188 72.091H49.767V125.787H49.5525ZM59.1206 124L81.9291 70.0175H82.3581L105.167 124H96.4436L79.8556 81.958L85.3611 78.3115L66.6281 124H59.1206ZM72.9916 104.552H91.4386L94.0841 111.13H70.7036L72.9916 104.552ZM114.476 124V70.375H114.547L142.146 109.486L138.857 108.771L166.313 70.375H166.456V124H158.877V87.6065L159.378 91.539L140.216 118.638H140.073L120.553 91.539L121.84 87.964V124H114.476ZM181.018 72.091H215.124V79.4555H188.669V94.256H212.192V101.621H188.669V116.636H216.125V124H181.018V72.091ZM227.87 124V72.091H242.313C247.461 72.091 251.846 72.8775 255.469 74.4505C259.092 76.0235 261.999 78.097 264.192 80.671C266.432 83.245 268.053 86.105 269.054 89.251C270.103 92.397 270.627 95.5668 270.627 98.7605C270.627 102.622 269.936 106.101 268.554 109.2C267.171 112.298 265.288 114.967 262.905 117.208C260.522 119.4 257.781 121.092 254.683 122.284C251.584 123.428 248.295 124 244.816 124H227.87ZM235.521 116.636H243.386C246.198 116.636 248.772 116.23 251.108 115.42C253.491 114.61 255.541 113.418 257.257 111.845C259.02 110.272 260.379 108.342 261.332 106.054C262.285 103.766 262.762 101.144 262.762 98.1885C262.762 94.9948 262.214 92.2302 261.118 89.8945C260.069 87.5112 258.663 85.5568 256.899 84.0315C255.135 82.4585 253.157 81.3145 250.965 80.5995C248.82 79.8368 246.627 79.4555 244.387 79.4555H235.521V116.636Z"/>
</mask>
<path d="M0.5035 1.091V0.0910048H-0.4965V1.091H0.5035ZM35.1095 1.091H36.1095V0.0910048H35.1095V1.091ZM35.1095 8.4555V9.4555H36.1095V8.4555H35.1095ZM21.453 8.4555V7.4555H20.453V8.4555H21.453ZM21.453 53V54H22.453V53H21.453ZM13.8025 53H12.8025V54H13.8025V53ZM13.8025 8.4555H14.8025V7.4555H13.8025V8.4555ZM0.5035 8.4555H-0.4965V9.4555H0.5035V8.4555ZM0.5035 2.091H35.1095V0.0910048H0.5035V2.091ZM34.1095 1.091V8.4555H36.1095V1.091H34.1095ZM35.1095 7.4555H21.453V9.4555H35.1095V7.4555ZM20.453 8.4555V53H22.453V8.4555H20.453ZM21.453 52H13.8025V54H21.453V52ZM14.8025 53V8.4555H12.8025V53H14.8025ZM13.8025 7.4555H0.5035V9.4555H13.8025V7.4555ZM1.5035 8.4555V1.091H-0.4965V8.4555H1.5035ZM41.4037 1.377V0.377001H39.9509L40.4697 1.73408L41.4037 1.377ZM50.2697 1.377L51.213 1.04492L50.9778 0.377001H50.2697V1.377ZM63.7117 39.558L63.3493 40.49L65.3777 41.2788L64.655 39.2259L63.7117 39.558ZM62.4247 39.0575L61.4928 38.6949L61.1302 39.627L62.0623 39.9895L62.4247 39.0575ZM72.5777 12.96L73.5251 12.6399L72.6438 10.032L71.6458 12.5974L72.5777 12.96ZM76.0812 23.3275L76.9977 23.7276L77.1523 23.3734L77.0286 23.0074L76.0812 23.3275ZM62.0672 55.431L61.1332 55.7881L62.0059 58.0711L62.9837 55.8311L62.0672 55.431ZM66.5717 1.377V0.377001H65.1031L65.6413 1.74349L66.5717 1.377ZM74.1507 1.377L75.0816 1.01173L74.8326 0.377001H74.1507V1.377ZM88.8797 38.9145L88.6926 39.8968L90.4724 40.2359L89.8106 38.5492L88.8797 38.9145ZM87.3782 38.6285L86.4308 38.3085L86.0634 39.396L87.1911 39.6108L87.3782 38.6285ZM99.9622 1.377V0.377001H99.2445L99.0148 1.05696L99.9622 1.377ZM108.113 1.377L109.049 1.72948L109.558 0.377001H108.113V1.377ZM87.8072 55.288L86.8768 55.6545L87.8281 58.0696L88.743 55.6405L87.8072 55.288ZM41.4037 2.377H50.2697V0.377001H41.4037V2.377ZM49.3265 1.70908L62.7685 39.8901L64.655 39.2259L51.213 1.04492L49.3265 1.70908ZM64.0742 38.626L62.7872 38.1255L62.0623 39.9895L63.3493 40.49L64.0742 38.626ZM63.3567 39.4201L73.5097 13.3226L71.6458 12.5974L61.4928 38.6949L63.3567 39.4201ZM71.6304 13.2801L75.1339 23.6476L77.0286 23.0074L73.5251 12.6399L71.6304 13.2801ZM75.1647 22.9274L61.1507 55.0309L62.9837 55.8311L76.9977 23.7276L75.1647 22.9274ZM63.0013 55.0739L42.3378 1.01993L40.4697 1.73408L61.1332 55.7881L63.0013 55.0739ZM66.5717 2.377H74.1507V0.377001H66.5717V2.377ZM73.2198 1.74227L87.9488 39.2798L89.8106 38.5492L75.0816 1.01173L73.2198 1.74227ZM89.0668 37.9322L87.5653 37.6462L87.1911 39.6108L88.6926 39.8968L89.0668 37.9322ZM88.3256 38.9485L100.91 1.69704L99.0148 1.05696L86.4308 38.3085L88.3256 38.9485ZM99.9622 2.377H108.113V0.377001H99.9622V2.377ZM107.177 1.02452L86.8714 54.9355L88.743 55.6405L109.049 1.72948L107.177 1.02452ZM88.7376 54.9215L67.5022 1.01051L65.6413 1.74349L86.8768 55.6545L88.7376 54.9215ZM118.176 1.091V0.0910048H117.176V1.091H118.176ZM125.827 1.091H126.827V0.0910048H125.827V1.091ZM125.827 53V54H126.827V53H125.827ZM118.176 53H117.176V54H118.176V53ZM118.176 2.091H125.827V0.0910048H118.176V2.091ZM124.827 1.091V53H126.827V1.091H124.827ZM125.827 52H118.176V54H125.827V52ZM119.176 53V1.091H117.176V53H119.176ZM178.633 49.0675L179.199 49.8915L179.898 49.411L179.538 48.6431L178.633 49.0675ZM175.201 50.998L175.636 51.8982L175.648 51.8924L175.201 50.998ZM169.91 52.857L169.662 51.8882L169.657 51.8896L169.91 52.857ZM163.26 53.572L163.28 52.5722L163.272 52.5721L163.26 53.572ZM152.321 51.427L151.924 52.3447L151.929 52.3468L152.321 51.427ZM144.17 45.7785L143.434 46.4562L143.441 46.4634L144.17 45.7785ZM138.95 37.4845L138.015 37.8387L138.018 37.8473L138.022 37.8559L138.95 37.4845ZM139.022 16.7495L139.956 17.1066L139.958 17.1021L139.022 16.7495ZM144.313 8.1695L143.592 7.47664L143.585 7.48414L144.313 8.1695ZM152.464 2.521L152.073 1.60041L152.068 1.60259L152.464 2.521ZM171.411 1.806L171.095 2.75469L171.411 1.806ZM177.918 4.809L178.84 5.19624L179.164 4.42516L178.462 3.97004L177.918 4.809ZM174.915 11.959L174.347 12.7822L175.36 13.4809L175.837 12.3462L174.915 11.959ZM169.767 9.242L169.355 10.1531L169.368 10.159L169.381 10.1644L169.767 9.242ZM156.11 9.385L156.517 10.2989L156.526 10.2947L156.11 9.385ZM150.39 13.4605L149.664 12.7733L149.663 12.7739L150.39 13.4605ZM146.529 19.538L147.452 19.9226L147.455 19.9159L146.529 19.538ZM146.386 34.696L145.448 35.0408L146.386 34.696ZM150.033 40.7735L149.296 41.4492L149.301 41.4547L149.306 41.4601L150.033 40.7735ZM155.824 44.7775L155.433 45.6977L155.824 44.7775ZM170.41 44.992L170.043 44.062L170.035 44.0651L170.41 44.992ZM175.415 42.2035L176.321 41.7791L175.777 40.6189L174.784 41.4283L175.415 42.2035ZM178.066 48.2435C177.361 48.7283 176.266 49.3475 174.754 50.1036L175.648 51.8924C177.187 51.1232 178.379 50.4553 179.199 49.8915L178.066 48.2435ZM174.765 50.0978C173.362 50.7768 171.665 51.3759 169.662 51.8882L170.158 53.8258C172.255 53.2894 174.084 52.6492 175.636 51.8982L174.765 50.0978ZM169.657 51.8896C167.758 52.387 165.635 52.6184 163.28 52.5722L163.241 54.5718C165.748 54.621 168.058 54.3757 170.163 53.8244L169.657 51.8896ZM163.272 52.5721C159.332 52.5257 155.817 51.831 152.713 50.5072L151.929 52.3468C155.307 53.7876 159.086 54.523 163.249 54.5719L163.272 52.5721ZM152.718 50.5093C149.642 49.1776 147.04 47.3713 144.899 45.0936L143.441 46.4634C145.781 48.9524 148.613 50.9117 151.924 52.3447L152.718 50.5093ZM144.905 45.1008C142.748 42.7602 141.073 40.0995 139.879 37.1131L138.022 37.8559C139.306 41.0661 141.111 43.9348 143.435 46.4562L144.905 45.1008ZM139.886 37.1303C138.739 34.1029 138.163 30.8868 138.163 27.4745H136.163C136.163 31.1169 136.779 34.5741 138.015 37.8387L139.886 37.1303ZM138.163 27.4745C138.163 23.6726 138.765 20.2205 139.956 17.1066L138.088 16.3924C136.8 19.7612 136.163 23.4591 136.163 27.4745H138.163ZM139.958 17.1021C141.153 13.93 142.848 11.1847 145.041 8.85487L143.585 7.48414C141.201 10.0163 139.369 12.991 138.086 16.3969L139.958 17.1021ZM145.034 8.86233C147.277 6.52754 149.884 4.72137 152.86 3.43942L152.068 1.60259C148.848 2.98997 146.02 4.94947 143.592 7.47668L145.034 8.86233ZM152.854 3.44159C155.866 2.16378 159.164 1.519 162.76 1.519V-0.480996C158.92 -0.480996 155.353 0.20889 152.073 1.60042L152.854 3.44159ZM162.76 1.519C165.865 1.519 168.639 1.93608 171.095 2.75469L171.728 0.857321C169.035 -0.0400765 166.042 -0.480996 162.76 -0.480996V1.519ZM171.095 2.75469C173.611 3.59323 175.698 4.56113 177.374 5.64796L178.462 3.97004C176.61 2.76888 174.36 1.73478 171.728 0.857321L171.095 2.75469ZM176.996 4.42177L173.993 11.5718L175.837 12.3462L178.84 5.19624L176.996 4.42177ZM175.483 11.1358C174.028 10.1329 172.247 9.19625 170.153 8.31956L169.381 10.1644C171.386 11.0037 173.037 11.8784 174.347 12.7822L175.483 11.1358ZM170.179 8.33089C168.032 7.35956 165.648 6.8835 163.046 6.8835V8.8835C165.401 8.8835 167.498 9.31311 169.355 10.1531L170.179 8.33089ZM163.046 6.8835C160.473 6.8835 158.019 7.41428 155.695 8.47532L156.526 10.2947C158.587 9.35373 160.757 8.8835 163.046 8.8835V6.8835ZM155.704 8.47119C153.434 9.48001 151.42 10.917 149.664 12.7733L151.117 14.1477C152.698 12.4766 154.496 11.1967 156.517 10.2988L155.704 8.47119ZM149.663 12.7739C147.952 14.5857 146.6 16.7181 145.604 19.1601L147.455 19.9159C148.365 17.6866 149.587 15.7673 151.117 14.1471L149.663 12.7739ZM145.606 19.1534C144.598 21.5745 144.099 24.2092 144.099 27.0455H146.099C146.099 24.4478 146.555 22.0775 147.452 19.9226L145.606 19.1534ZM144.099 27.0455C144.099 29.9148 144.545 32.5831 145.448 35.0408L147.325 34.3512C146.512 32.1375 146.099 29.7055 146.099 27.0455H144.099ZM145.448 35.0408C146.348 37.4903 147.629 39.6306 149.296 41.4492L150.77 40.0978C149.291 38.4844 148.141 36.573 147.325 34.3512L145.448 35.0408ZM149.306 41.4601C151.024 43.2794 153.07 44.6921 155.433 45.6977L156.216 43.8573C154.098 42.9562 152.283 41.6996 150.76 40.0869L149.306 41.4601ZM155.433 45.6977C157.815 46.7112 160.477 47.2075 163.403 47.2075V45.2075C160.705 45.2075 158.315 44.7505 156.216 43.8573L155.433 45.6977ZM163.403 47.2075C166.172 47.2075 168.64 46.7874 170.786 45.9189L170.035 44.0651C168.177 44.8172 165.973 45.2075 163.403 45.2075V47.2075ZM170.778 45.922C172.894 45.0855 174.659 44.1095 176.047 42.9787L174.784 41.4283C173.597 42.3949 172.026 43.2779 170.043 44.062L170.778 45.922ZM174.51 42.6279L177.727 49.4919L179.538 48.6431L176.321 41.7791L174.51 42.6279ZM190.095 1.091V0.0910048H189.095V1.091H190.095ZM224.201 1.091H225.201V0.0910048H224.201V1.091ZM224.201 8.4555V9.4555H225.201V8.4555H224.201ZM197.746 8.4555V7.4555H196.746V8.4555H197.746ZM197.746 23.256H196.746V24.256H197.746V23.256ZM221.269 23.256H222.269V22.256H221.269V23.256ZM221.269 30.6205V31.6205H222.269V30.6205H221.269ZM197.746 30.6205V29.6205H196.746V30.6205H197.746ZM197.746 45.6355H196.746V46.6355H197.746V45.6355ZM225.202 45.6355H226.202V44.6355H225.202V45.6355ZM225.202 53V54H226.202V53H225.202ZM190.095 53H189.095V54H190.095V53ZM190.095 2.091H224.201V0.0910048H190.095V2.091ZM223.201 1.091V8.4555H225.201V1.091H223.201ZM224.201 7.4555H197.746V9.4555H224.201V7.4555ZM196.746 8.4555V23.256H198.746V8.4555H196.746ZM197.746 24.256H221.269V22.256H197.746V24.256ZM220.269 23.256V30.6205H222.269V23.256H220.269ZM221.269 29.6205H197.746V31.6205H221.269V29.6205ZM196.746 30.6205V45.6355H198.746V30.6205H196.746ZM197.746 46.6355H225.202V44.6355H197.746V46.6355ZM224.202 45.6355V53H226.202V45.6355H224.202ZM225.202 52H190.095V54H225.202V52ZM191.095 53V1.091H189.095V53H191.095ZM49.5525 125.787L48.8479 126.497L49.1404 126.787H49.5525V125.787ZM9.584 86.105L9.891 85.1533L8.87944 86.8146L9.584 86.105ZM11.8005 86.82L12.8005 86.8142L12.7963 86.0905L12.1075 85.8683L11.8005 86.82ZM12.015 124V125H13.0208L13.015 123.994L12.015 124ZM4.293 124H3.293V125H4.293V124ZM4.293 70.4465V69.4465H3.293V70.4465H4.293ZM4.6505 70.4465L5.36016 69.742L5.06683 69.4465H4.6505V70.4465ZM44.1185 110.201L43.8489 111.163L47.4981 112.185L44.8282 109.496L44.1185 110.201ZM42.331 109.7L41.331 109.704L41.3339 110.459L42.0614 110.663L42.331 109.7ZM42.188 72.091V71.091H41.1842L41.188 72.0948L42.188 72.091ZM49.767 72.091H50.767V71.091H49.767V72.091ZM49.767 125.787V126.787H50.767V125.787H49.767ZM50.2571 125.078L10.2886 85.3954L8.87944 86.8146L48.8479 126.497L50.2571 125.078ZM9.277 87.0567L11.4935 87.7717L12.1075 85.8683L9.891 85.1533L9.277 87.0567ZM10.8005 86.8258L11.015 124.006L13.015 123.994L12.8005 86.8142L10.8005 86.8258ZM12.015 123H4.293V125H12.015V123ZM5.293 124V70.4465H3.293V124H5.293ZM4.293 71.4465H4.6505V69.4465H4.293V71.4465ZM3.94085 71.1511L43.4088 110.905L44.8282 109.496L5.36016 69.742L3.94085 71.1511ZM44.3881 109.238L42.6006 108.737L42.0614 110.663L43.8489 111.163L44.3881 109.238ZM43.331 109.696L43.188 72.0872L41.188 72.0948L41.331 109.704L43.331 109.696ZM42.188 73.091H49.767V71.091H42.188V73.091ZM48.767 72.091V125.787H50.767V72.091H48.767ZM49.767 124.787H49.5525V126.787H49.767V124.787ZM59.1206 124L58.1995 123.611L57.6125 125H59.1206V124ZM81.9291 70.0175V69.0175H81.2661L81.008 69.6283L81.9291 70.0175ZM82.3581 70.0175L83.2793 69.6283L83.0212 69.0175H82.3581V70.0175ZM105.167 124V125H106.675L106.088 123.611L105.167 124ZM96.4436 124L95.5134 124.367L95.7632 125H96.4436V124ZM79.8556 81.958L79.3034 81.1243L78.6282 81.5716L78.9254 82.325L79.8556 81.958ZM85.3611 78.3115L86.2864 78.6909L87.52 75.6821L84.8089 77.4778L85.3611 78.3115ZM66.6281 124V125H67.2989L67.5534 124.379L66.6281 124ZM72.9916 104.552V103.552H72.2807L72.0471 104.223L72.9916 104.552ZM91.4386 104.552L92.3664 104.179L92.1143 103.552H91.4386V104.552ZM94.0841 111.13V112.13H95.5642L95.0119 110.757L94.0841 111.13ZM70.7036 111.13L69.7591 110.801L69.2971 112.13H70.7036V111.13ZM60.0418 124.389L82.8503 70.4067L81.008 69.6283L58.1995 123.611L60.0418 124.389ZM81.9291 71.0175H82.3581V69.0175H81.9291V71.0175ZM81.437 70.4067L104.245 124.389L106.088 123.611L83.2793 69.6283L81.437 70.4067ZM105.167 123H96.4436V125H105.167V123ZM97.3739 123.633L80.7859 81.591L78.9254 82.325L95.5134 124.367L97.3739 123.633ZM80.4078 82.7917L85.9133 79.1452L84.8089 77.4778L79.3034 81.1243L80.4078 82.7917ZM84.4359 77.9321L65.7029 123.621L67.5534 124.379L86.2864 78.6909L84.4359 77.9321ZM66.6281 123H59.1206V125H66.6281V123ZM72.9916 105.552H91.4386V103.552H72.9916V105.552ZM90.5109 104.925L93.1564 111.503L95.0119 110.757L92.3664 104.179L90.5109 104.925ZM94.0841 110.13H70.7036V112.13H94.0841V110.13ZM71.6481 111.459L73.9361 104.881L72.0471 104.223L69.7591 110.801L71.6481 111.459ZM114.476 124H113.476V125H114.476V124ZM114.476 70.375V69.375H113.476V70.375H114.476ZM114.547 70.375L115.364 69.7984L115.065 69.375H114.547V70.375ZM142.146 109.486L141.934 110.463L144.445 111.009L142.963 108.909L142.146 109.486ZM138.857 108.771L138.044 108.189L137.16 109.425L138.645 109.748L138.857 108.771ZM166.313 70.375V69.375H165.799L165.5 69.7933L166.313 70.375ZM166.456 70.375H167.456V69.375H166.456V70.375ZM166.456 124V125H167.456V124H166.456ZM158.877 124H157.877V125H158.877V124ZM158.877 87.6065L159.869 87.4802L157.877 87.6065H158.877ZM159.378 91.539L160.194 92.1164L160.419 91.7987L160.37 91.4128L159.378 91.539ZM140.216 118.637V119.637H140.733L141.032 119.215L140.216 118.637ZM140.073 118.637L139.261 119.222L139.561 119.637H140.073V118.637ZM120.553 91.539L119.612 91.2003L119.434 91.696L119.742 92.1235L120.553 91.539ZM121.84 87.964H122.84L120.899 87.6253L121.84 87.964ZM121.84 124V125H122.84V124H121.84ZM115.476 124V70.375H113.476V124H115.476ZM114.476 71.375H114.547V69.375H114.476V71.375ZM113.73 70.9516L141.329 110.062L142.963 108.909L115.364 69.7984L113.73 70.9516ZM142.359 108.508L139.07 107.793L138.645 109.748L141.934 110.463L142.359 108.508ZM139.671 109.352L167.127 70.9567L165.5 69.7933L138.044 108.189L139.671 109.352ZM166.313 71.375H166.456V69.375H166.313V71.375ZM165.456 70.375V124H167.456V70.375H165.456ZM166.456 123H158.877V125H166.456V123ZM159.877 124V87.6065H157.877V124H159.877ZM157.885 87.7328L158.386 91.6653L160.37 91.4128L159.869 87.4802L157.885 87.7328ZM158.561 90.9616L139.399 118.06L141.032 119.215L160.194 92.1164L158.561 90.9616ZM140.216 117.637H140.073V119.637H140.216V117.637ZM140.884 118.053L121.365 90.9545L119.742 92.1235L139.261 119.222L140.884 118.053ZM121.494 91.8777L122.781 88.3027L120.899 87.6253L119.612 91.2003L121.494 91.8777ZM120.84 87.964V124H122.84V87.964H120.84ZM121.84 123H114.476V125H121.84V123ZM181.018 72.091V71.091H180.018V72.091H181.018ZM215.124 72.091H216.124V71.091H215.124V72.091ZM215.124 79.4555V80.4555H216.124V79.4555H215.124ZM188.669 79.4555V78.4555H187.669V79.4555H188.669ZM188.669 94.256H187.669V95.256H188.669V94.256ZM212.192 94.256H213.192V93.256H212.192V94.256ZM212.192 101.62V102.62H213.192V101.62H212.192ZM188.669 101.62V100.62H187.669V101.62H188.669ZM188.669 116.635H187.669V117.635H188.669V116.635ZM216.125 116.635H217.125V115.635H216.125V116.635ZM216.125 124V125H217.125V124H216.125ZM181.018 124H180.018V125H181.018V124ZM181.018 73.091H215.124V71.091H181.018V73.091ZM214.124 72.091V79.4555H216.124V72.091H214.124ZM215.124 78.4555H188.669V80.4555H215.124V78.4555ZM187.669 79.4555V94.256H189.669V79.4555H187.669ZM188.669 95.256H212.192V93.256H188.669V95.256ZM211.192 94.256V101.62H213.192V94.256H211.192ZM212.192 100.62H188.669V102.62H212.192V100.62ZM187.669 101.62V116.635H189.669V101.62H187.669ZM188.669 117.635H216.125V115.635H188.669V117.635ZM215.125 116.635V124H217.125V116.635H215.125ZM216.125 123H181.018V125H216.125V123ZM182.018 124V72.091H180.018V124H182.018ZM227.87 124H226.87V125H227.87V124ZM227.87 72.091V71.091H226.87V72.091H227.87ZM255.469 74.4505L255.867 73.5332L255.469 74.4505ZM264.192 80.671L263.431 81.3195L263.438 81.3275L264.192 80.671ZM269.054 89.251L268.101 89.5542L268.105 89.5672L269.054 89.251ZM268.554 109.2L267.64 108.792L268.554 109.2ZM262.905 117.207L263.582 117.943L263.59 117.936L262.905 117.207ZM254.683 122.284L255.029 123.222L255.042 123.217L254.683 122.284ZM235.521 116.635H234.521V117.635H235.521V116.635ZM251.108 115.42L250.786 114.473L250.78 114.475L251.108 115.42ZM257.257 111.845L256.591 111.099L256.581 111.108L257.257 111.845ZM261.332 106.053L262.255 106.438L261.332 106.053ZM261.118 89.8945L260.202 90.2972L260.207 90.3084L260.212 90.3194L261.118 89.8945ZM256.899 84.0315L256.233 84.7778L256.239 84.7829L256.245 84.7879L256.899 84.0315ZM250.965 80.5995L250.63 81.5417L250.642 81.5461L250.655 81.5502L250.965 80.5995ZM235.521 79.4555V78.4555H234.521V79.4555H235.521ZM228.87 124V72.091H226.87V124H228.87ZM227.87 73.091H242.313V71.091H227.87V73.091ZM242.313 73.091C247.364 73.091 251.606 73.8632 255.071 75.3678L255.867 73.5332C252.087 71.8918 247.558 71.091 242.313 71.091V73.091ZM255.071 75.3678C258.577 76.8902 261.352 78.8796 263.431 81.3195L264.953 80.0225C262.646 77.3144 259.607 75.1568 255.867 73.5332L255.071 75.3678ZM263.438 81.3275C265.592 83.8021 267.143 86.5427 268.101 89.5542L270.007 88.9478C268.963 85.6673 267.273 82.6879 264.946 80.0145L263.438 81.3275ZM268.105 89.5672C269.121 92.6152 269.627 95.6784 269.627 98.7605H271.627C271.627 95.4553 271.084 92.1788 270.003 88.9348L268.105 89.5672ZM269.627 98.7605C269.627 102.5 268.958 105.839 267.64 108.792L269.467 109.607C270.914 106.364 271.627 102.743 271.627 98.7605H269.627ZM267.64 108.792C266.31 111.774 264.503 114.333 262.22 116.479L263.59 117.936C266.074 115.602 268.033 112.822 269.467 109.607L267.64 108.792ZM262.228 116.472C259.94 118.577 257.307 120.203 254.324 121.351L255.042 123.217C258.254 121.982 261.104 120.223 263.582 117.943L262.228 116.472ZM254.336 121.346C251.355 122.447 248.183 123 244.816 123V125C248.407 125 251.814 124.409 255.029 123.222L254.336 121.346ZM244.816 123H227.87V125H244.816V123ZM235.521 117.635H243.386V115.635H235.521V117.635ZM243.386 117.635C246.294 117.635 248.981 117.216 251.435 116.365L250.78 114.475C248.563 115.244 246.102 115.635 243.386 115.635V117.635ZM251.43 116.367C253.933 115.516 256.106 114.256 257.932 112.582L256.581 111.108C254.975 112.58 253.049 113.704 250.786 114.473L251.43 116.367ZM257.922 112.591C259.803 110.914 261.247 108.858 262.255 106.438L260.409 105.669C259.51 107.825 258.237 109.63 256.591 111.099L257.922 112.591ZM262.255 106.438C263.268 104.007 263.762 101.251 263.762 98.1885H261.762C261.762 101.037 261.303 103.524 260.409 105.669L262.255 106.438ZM263.762 98.1885C263.762 94.882 263.195 91.966 262.023 89.4696L260.212 90.3194C261.233 92.4944 261.762 95.1076 261.762 98.1885H263.762ZM262.033 89.4918C260.932 86.9886 259.442 84.9083 257.553 83.2751L256.245 84.7879C257.884 86.2054 259.206 88.0337 260.202 90.2972L262.033 89.4918ZM257.565 83.2852C255.701 81.6226 253.602 80.4077 251.275 79.6488L250.655 81.5502C252.713 82.2213 254.57 83.2944 256.233 84.7778L257.565 83.2852ZM251.3 79.6573C249.049 78.857 246.743 78.4555 244.387 78.4555V80.4555C246.511 80.4555 248.59 80.8167 250.63 81.5417L251.3 79.6573ZM244.387 78.4555H235.521V80.4555H244.387V78.4555ZM234.521 79.4555V116.635H236.521V79.4555H234.521Z" fill="white" mask="url(#path-1-outside-1_778_277)"/>
</svg>
