<svg width="271" height="126" viewBox="0 0 271 126" fill="none" xmlns="http://www.w3.org/2000/svg">
<path d="M0.5035 1.091H35.1095V8.4555H21.453V53H13.8025V8.4555H0.5035V1.091ZM41.4037 1.377H50.2697L63.7117 39.558L62.4247 39.0575L72.5777 12.96L76.0812 23.3275L62.0672 55.431L41.4037 1.377ZM66.5717 1.377H74.1507L88.8797 38.9145L87.3782 38.6285L99.9622 1.377H108.113L87.8072 55.288L66.5717 1.377ZM118.176 1.091H125.827V53H118.176V1.091ZM178.633 49.0675C177.87 49.5918 176.726 50.2353 175.201 50.998C173.723 51.713 171.96 52.3327 169.91 52.857C167.908 53.3813 165.691 53.6197 163.26 53.572C159.209 53.5243 155.562 52.8093 152.321 51.427C149.127 50.0447 146.41 48.1618 144.17 45.7785C141.93 43.3475 140.19 40.5828 138.95 37.4845C137.759 34.3385 137.163 31.0018 137.163 27.4745C137.163 23.5658 137.783 19.9908 139.022 16.7495C140.261 13.4605 142.025 10.6005 144.313 8.1695C146.649 5.7385 149.366 3.85567 152.464 2.521C155.61 1.18634 159.042 0.519004 162.76 0.519004C165.954 0.519004 168.837 0.948004 171.411 1.806C173.985 2.664 176.154 3.665 177.918 4.809L174.915 11.959C173.533 11.0057 171.817 10.1 169.767 9.242C167.765 8.33633 165.525 7.8835 163.046 7.8835C160.615 7.8835 158.303 8.384 156.11 9.385C153.965 10.3383 152.059 11.6968 150.39 13.4605C148.77 15.1765 147.483 17.2023 146.529 19.538C145.576 21.826 145.099 24.3285 145.099 27.0455C145.099 29.8102 145.528 32.3603 146.386 34.696C147.244 37.0317 148.46 39.0575 150.033 40.7735C151.654 42.4895 153.584 43.8242 155.824 44.7775C158.065 45.7308 160.591 46.2075 163.403 46.2075C166.073 46.2075 168.408 45.8023 170.41 44.992C172.46 44.1817 174.128 43.2522 175.415 42.2035L178.633 49.0675ZM190.095 1.091H224.201V8.4555H197.746V23.256H221.269V30.6205H197.746V45.6355H225.202V53H190.095V1.091ZM49.5525 125.787L9.584 86.105L11.8005 86.82L12.015 124H4.293V70.4465H4.6505L44.1185 110.201L42.331 109.7L42.188 72.091H49.767V125.787H49.5525ZM59.1206 124L81.9291 70.0175H82.3581L105.167 124H96.4436L79.8556 81.958L85.3611 78.3115L66.6281 124H59.1206ZM72.9916 104.552H91.4386L94.0841 111.13H70.7036L72.9916 104.552ZM114.476 124V70.375H114.547L142.146 109.486L138.857 108.771L166.313 70.375H166.456V124H158.877V87.6065L159.378 91.539L140.216 118.638H140.073L120.553 91.539L121.84 87.964V124H114.476ZM181.018 72.091H215.124V79.4555H188.669V94.256H212.192V101.621H188.669V116.636H216.125V124H181.018V72.091ZM227.87 124V72.091H242.313C247.461 72.091 251.846 72.8775 255.469 74.4505C259.092 76.0235 261.999 78.097 264.192 80.671C266.432 83.245 268.053 86.105 269.054 89.251C270.103 92.397 270.627 95.5668 270.627 98.7605C270.627 102.622 269.936 106.101 268.554 109.2C267.171 112.298 265.288 114.967 262.905 117.208C260.522 119.4 257.781 121.092 254.683 122.284C251.584 123.428 248.295 124 244.816 124H227.87ZM235.521 116.636H243.386C246.198 116.636 248.772 116.23 251.108 115.42C253.491 114.61 255.541 113.418 257.257 111.845C259.02 110.272 260.379 108.342 261.332 106.054C262.285 103.766 262.762 101.144 262.762 98.1885C262.762 94.9948 262.214 92.2302 261.118 89.8945C260.069 87.5112 258.663 85.5568 256.899 84.0315C255.135 82.4585 253.157 81.3145 250.965 80.5995C248.82 79.8368 246.627 79.4555 244.387 79.4555H235.521V116.636Z" fill="white"/>
</svg>
