<svg width="1202" height="560" viewBox="0 0 1202 560" fill="none" xmlns="http://www.w3.org/2000/svg">
<mask id="path-1-outside-1_809_16" maskUnits="userSpaceOnUse" x="-3.98193" y="-4" width="1210" height="569" fill="black">
<rect fill="white" x="-3.98193" y="-4" width="1210" height="569"/>
<path d="M0.59187 3.25345H154.423V35.9902H93.7169V234H59.7088V35.9902H0.59187V3.25345ZM182.402 4.52477H221.813L281.566 174.247L275.845 172.023L320.977 56.0137L336.551 102.099L274.256 244.806L182.402 4.52477ZM294.279 4.52477H327.969L393.443 171.387L386.769 170.116L442.707 4.52477H478.94L388.676 244.171L294.279 4.52477ZM523.672 3.25345H557.681V234H523.672V3.25345ZM792.415 216.519C789.025 218.85 783.939 221.71 777.159 225.101C770.59 228.279 762.751 231.034 753.639 233.364C744.74 235.695 734.887 236.755 724.081 236.543C706.07 236.331 689.861 233.152 675.453 227.008C661.256 220.863 649.178 212.493 639.22 201.899C629.261 191.093 621.527 178.803 616.018 165.03C610.721 151.046 608.072 136.213 608.072 120.534C608.072 103.159 610.827 87.2672 616.336 72.8588C621.845 58.2385 629.685 45.5252 639.855 34.7189C650.238 23.9126 662.315 15.543 676.088 9.6101C690.073 3.67723 705.329 0.710788 721.856 0.710788C736.053 0.710788 748.872 2.61778 760.314 6.43178C771.756 10.2458 781.397 14.6954 789.237 19.7808L775.888 51.564C769.743 47.3263 762.115 43.3004 753.004 39.4864C744.104 35.4605 734.146 33.4476 723.127 33.4476C712.321 33.4476 702.045 35.6724 692.298 40.122C682.763 44.3598 674.287 50.3986 666.871 58.2385C659.667 65.8665 653.946 74.8718 649.708 85.2543C645.47 95.4249 643.351 106.549 643.351 118.627C643.351 130.916 645.258 142.252 649.072 152.635C652.886 163.017 658.29 172.023 665.282 179.651C672.486 187.279 681.068 193.211 691.026 197.449C700.985 201.687 712.215 203.806 724.717 203.806C736.582 203.806 746.965 202.005 755.864 198.403C764.975 194.801 772.391 190.669 778.112 186.007L792.415 216.519ZM843.367 3.25345H994.974V35.9902H877.376V101.782H981.943V134.518H877.376V201.263H999.423V234H843.367V3.25345ZM218.625 559.946L40.9566 383.549L50.8094 386.727L51.7629 552H17.437V313.943H19.0262L194.47 490.658L186.524 488.433L185.888 321.253H219.579V559.946H218.625ZM261.158 552L362.546 312.036H364.453L465.842 552H427.066L353.329 365.114L377.802 348.905L294.53 552H261.158ZM322.817 465.55H404.818L416.578 494.79H312.646L322.817 465.55ZM507.222 552V313.625H507.54L630.223 487.48L615.603 484.302L737.651 313.625H738.287V552H704.596V390.223L706.821 407.704L621.642 528.163H621.006L534.238 407.704L539.959 391.812V552H507.222ZM803.018 321.253H954.624V353.99H837.026V419.782H941.593V452.518H837.026V519.263H959.074V552H803.018V321.253ZM1011.28 552V321.253H1075.49C1098.37 321.253 1117.86 324.75 1133.97 331.742C1150.07 338.734 1163 347.951 1172.74 359.393C1182.7 370.835 1189.91 383.549 1194.36 397.533C1199.02 411.518 1201.35 425.609 1201.35 439.805C1201.35 456.968 1198.28 472.436 1192.13 486.209C1185.99 499.981 1177.62 511.847 1167.02 521.806C1156.43 531.553 1144.24 539.075 1130.47 544.372C1116.7 549.457 1102.08 552 1086.61 552H1011.28ZM1045.29 519.263H1080.25C1092.76 519.263 1104.2 517.462 1114.58 513.86C1125.18 510.258 1134.29 504.961 1141.91 497.968C1149.75 490.976 1155.79 482.395 1160.03 472.224C1164.27 462.053 1166.39 450.399 1166.39 437.262C1166.39 423.066 1163.95 410.776 1159.08 400.394C1154.42 389.799 1148.16 381.112 1140.33 374.332C1132.49 367.339 1123.69 362.254 1113.94 359.076C1104.41 355.685 1094.66 353.99 1084.7 353.99H1045.29V519.263Z"/>
</mask>
<path d="M0.59187 3.25345V-1.19176H-3.85334V3.25345H0.59187ZM154.423 3.25345H158.868V-1.19176H154.423V3.25345ZM154.423 35.9902V40.4354H158.868V35.9902H154.423ZM93.7169 35.9902V31.545H89.2716V35.9902H93.7169ZM93.7169 234V238.445H98.1621V234H93.7169ZM59.7088 234H55.2635V238.445H59.7088V234ZM59.7088 35.9902H64.154V31.545H59.7088V35.9902ZM0.59187 35.9902H-3.85334V40.4354H0.59187V35.9902ZM0.59187 7.69867H154.423V-1.19176H0.59187V7.69867ZM149.978 3.25345V35.9902H158.868V3.25345H149.978ZM154.423 31.545H93.7169V40.4354H154.423V31.545ZM89.2716 35.9902V234H98.1621V35.9902H89.2716ZM93.7169 229.555H59.7088V238.445H93.7169V229.555ZM64.154 234V35.9902H55.2635V234H64.154ZM59.7088 31.545H0.59187V40.4354H59.7088V31.545ZM5.03708 35.9902V3.25345H-3.85334V35.9902H5.03708ZM182.402 4.52477V0.0795555H175.944L178.25 6.11204L182.402 4.52477ZM221.813 4.52477L226.006 3.0486L224.961 0.0795555H221.813V4.52477ZM281.566 174.247L279.955 178.39L288.972 181.897L285.759 172.771L281.566 174.247ZM275.845 172.023L271.702 170.411L270.09 174.554L274.234 176.166L275.845 172.023ZM320.977 56.0137L325.188 54.5906L321.271 42.9982L316.834 54.402L320.977 56.0137ZM336.551 102.099L340.625 103.878L341.312 102.304L340.762 100.676L336.551 102.099ZM274.256 244.806L270.104 246.394L273.983 256.542L278.33 246.585L274.256 244.806ZM294.279 4.52477V0.0795555H287.751L290.143 6.1539L294.279 4.52477ZM327.969 4.52477L332.108 2.90107L331 0.0795555H327.969V4.52477ZM393.443 171.387L392.611 175.754L400.523 177.261L397.581 169.763L393.443 171.387ZM386.769 170.116L382.557 168.693L380.924 173.528L385.937 174.482L386.769 170.116ZM442.707 4.52477V0.0795555H439.517L438.496 3.10211L442.707 4.52477ZM478.94 4.52477L483.1 6.09163L485.364 0.0795555H478.94V4.52477ZM388.676 244.171L384.54 245.8L388.768 256.535L392.835 245.738L388.676 244.171ZM182.402 8.96998H221.813V0.0795555H182.402V8.96998ZM217.62 6.00094L277.373 175.724L285.759 172.771L226.006 3.0486L217.62 6.00094ZM283.177 170.104L277.456 167.88L274.234 176.166L279.955 178.39L283.177 170.104ZM279.988 173.634L325.12 57.6254L316.834 54.402L271.702 170.411L279.988 173.634ZM316.766 57.4368L332.34 103.523L340.762 100.676L325.188 54.5906L316.766 57.4368ZM332.477 100.321L270.182 243.028L278.33 246.585L340.625 103.878L332.477 100.321ZM278.408 243.219L186.554 2.9375L178.25 6.11204L270.104 246.394L278.408 243.219ZM294.279 8.96998H327.969V0.0795555H294.279V8.96998ZM323.831 6.14846L389.305 173.011L397.581 169.763L332.108 2.90107L323.831 6.14846ZM394.275 167.02L387.6 165.749L385.937 174.482L392.611 175.754L394.275 167.02ZM390.98 171.538L446.919 5.94743L438.496 3.10211L382.557 168.693L390.98 171.538ZM442.707 8.96998H478.94V0.0795555H442.707V8.96998ZM474.78 2.95791L384.516 242.604L392.835 245.738L483.1 6.09163L474.78 2.95791ZM392.811 242.542L298.415 2.89563L290.143 6.1539L384.54 245.8L392.811 242.542ZM523.672 3.25345V-1.19176H519.227V3.25345H523.672ZM557.681 3.25345H562.126V-1.19176H557.681V3.25345ZM557.681 234V238.445H562.126V234H557.681ZM523.672 234H519.227V238.445H523.672V234ZM523.672 7.69867H557.681V-1.19176H523.672V7.69867ZM553.235 3.25345V234H562.126V3.25345H553.235ZM557.681 229.555H523.672V238.445H557.681V229.555ZM528.118 234V3.25345H519.227V234H528.118ZM792.415 216.519L794.933 220.182L798.04 218.046L796.44 214.633L792.415 216.519ZM777.159 225.101L779.095 229.102L779.121 229.09L779.147 229.077L777.159 225.101ZM753.639 233.364L752.538 229.058L752.525 229.061L752.513 229.064L753.639 233.364ZM724.081 236.543L724.168 232.098L724.151 232.098L724.133 232.098L724.081 236.543ZM675.453 227.008L673.687 231.087L673.698 231.092L673.709 231.097L675.453 227.008ZM639.22 201.899L635.951 204.911L635.966 204.927L635.981 204.943L639.22 201.899ZM616.018 165.03L611.861 166.605L611.875 166.643L611.891 166.681L616.018 165.03ZM616.336 72.8588L620.488 74.4464L620.492 74.4363L620.495 74.4262L616.336 72.8588ZM639.855 34.7189L636.65 31.6391L636.634 31.6556L636.618 31.6723L639.855 34.7189ZM676.088 9.6101L674.352 5.51792L674.341 5.52271L674.33 5.52756L676.088 9.6101ZM760.314 6.43178L758.908 10.6489L758.908 10.6489L760.314 6.43178ZM789.237 19.7808L793.335 21.5021L794.775 18.0745L791.656 16.0514L789.237 19.7808ZM775.888 51.564L773.364 55.2234L777.868 58.3293L779.986 53.2854L775.888 51.564ZM753.004 39.4864L751.172 43.5364L751.229 43.5625L751.287 43.5868L753.004 39.4864ZM692.298 40.122L694.103 44.1841L694.123 44.1751L694.144 44.1658L692.298 40.122ZM666.871 58.2385L663.642 55.1838L663.639 55.1863L666.871 58.2385ZM649.708 85.2543L653.811 86.964L653.818 86.9491L653.824 86.9341L649.708 85.2543ZM649.072 152.635L644.9 154.168L644.9 154.168L649.072 152.635ZM665.282 179.651L662.005 182.654L662.027 182.679L662.05 182.703L665.282 179.651ZM691.026 197.449L689.286 201.54L689.286 201.54L691.026 197.449ZM755.864 198.403L754.23 194.269L754.213 194.275L754.196 194.282L755.864 198.403ZM778.112 186.007L782.137 184.121L779.72 178.963L775.305 182.561L778.112 186.007ZM789.897 212.856C786.762 215.012 781.893 217.764 775.171 221.125L779.147 229.077C785.986 225.657 791.288 222.688 794.933 220.182L789.897 212.856ZM775.223 221.099C768.985 224.117 761.439 226.781 752.538 229.058L754.741 237.671C764.062 235.286 772.196 232.441 779.095 229.102L775.223 221.099ZM752.513 229.064C744.072 231.275 734.635 232.304 724.168 232.098L723.994 240.987C735.14 241.206 745.408 240.115 754.766 237.665L752.513 229.064ZM724.133 232.098C706.618 231.892 690.995 228.804 677.196 222.919L673.709 231.097C688.726 237.501 705.523 240.77 724.029 240.988L724.133 232.098ZM677.218 222.928C663.542 217.009 651.976 208.979 642.458 198.854L635.981 204.943C646.381 216.008 658.97 224.717 673.687 231.087L677.218 222.928ZM642.488 198.886C632.9 188.482 625.455 176.655 620.145 163.379L611.891 166.681C617.599 180.951 625.622 193.703 635.951 204.911L642.488 198.886ZM620.175 163.456C615.077 149.998 612.517 135.702 612.517 120.534H603.627C603.627 136.725 606.364 152.093 611.861 166.605L620.175 163.456ZM612.517 120.534C612.517 103.633 615.195 88.288 620.488 74.4464L612.184 71.2713C606.458 86.2465 603.627 102.684 603.627 120.534H612.517ZM620.495 74.4262C625.809 60.3256 633.345 48.1221 643.092 37.7655L636.618 31.6723C626.024 42.9283 617.881 56.1514 612.176 71.2914L620.495 74.4262ZM643.061 37.7986C653.032 27.42 664.618 19.3912 677.847 13.6926L674.33 5.52756C660.013 11.6947 647.443 20.4051 636.65 31.6391L643.061 37.7986ZM677.824 13.7023C691.213 8.02219 705.872 5.156 721.856 5.156V-3.73443C704.785 -3.73443 688.933 -0.667735 674.352 5.51792L677.824 13.7023ZM721.856 5.156C735.657 5.156 747.992 7.01001 758.908 10.6489L761.72 2.21468C749.752 -1.77444 736.448 -3.73443 721.856 -3.73443V5.156ZM758.908 10.6489C770.091 14.3764 779.369 18.6789 786.818 23.5101L791.656 16.0514C783.424 10.712 773.421 6.11519 761.72 2.21468L758.908 10.6489ZM785.138 18.0594L771.789 49.8427L779.986 53.2854L793.335 21.5021L785.138 18.0594ZM778.411 47.9047C771.947 43.4468 764.03 39.283 754.72 35.3859L751.287 43.5868C760.2 47.3177 767.538 51.2057 773.364 55.2234L778.411 47.9047ZM754.836 35.4363C745.291 31.1185 734.696 29.0023 723.127 29.0023V37.8928C733.595 37.8928 742.917 39.8024 751.172 43.5364L754.836 35.4363ZM723.127 29.0023C711.69 29.0023 700.783 31.3617 690.452 36.0783L694.144 44.1658C703.306 39.983 712.952 37.8928 723.127 37.8928V29.0023ZM690.492 36.06C680.402 40.5444 671.447 46.9323 663.642 55.1838L670.1 61.2933C677.127 53.865 685.123 48.1752 694.103 44.1841L690.492 36.06ZM663.639 55.1863C656.033 63.2401 650.023 72.7191 645.592 83.5745L653.824 86.9341C657.868 77.0244 663.301 68.4929 670.103 61.2907L663.639 55.1863ZM645.605 83.5446C641.12 94.307 638.906 106.019 638.906 118.627H647.797C647.797 107.079 649.82 96.5429 653.811 86.964L645.605 83.5446ZM638.906 118.627C638.906 131.381 640.887 143.243 644.9 154.168L653.245 151.102C649.63 141.262 647.797 130.451 647.797 118.627H638.906ZM644.9 154.168C648.9 165.056 654.595 174.57 662.005 182.654L668.559 176.647C661.984 169.475 656.873 160.978 653.245 151.102L644.9 154.168ZM662.05 182.703C669.688 190.79 678.782 197.07 689.286 201.54L692.767 193.359C683.353 189.353 675.284 183.767 668.514 176.598L662.05 182.703ZM689.286 201.54C699.874 206.045 711.709 208.251 724.717 208.251V199.361C712.721 199.361 702.096 197.329 692.767 193.359L689.286 201.54ZM724.717 208.251C737.023 208.251 747.994 206.384 757.532 202.523L754.196 194.282C745.936 197.626 736.141 199.361 724.717 199.361V208.251ZM757.499 202.537C766.904 198.818 774.752 194.48 780.92 189.453L775.305 182.561C770.031 186.858 763.047 190.783 754.23 194.269L757.499 202.537ZM774.088 187.894L788.39 218.406L796.44 214.633L782.137 184.121L774.088 187.894ZM843.367 3.25345V-1.19176H838.922V3.25345H843.367ZM994.974 3.25345H999.419V-1.19176H994.974V3.25345ZM994.974 35.9902V40.4354H999.419V35.9902H994.974ZM877.376 35.9902V31.545H872.93V35.9902H877.376ZM877.376 101.782H872.93V106.227H877.376V101.782ZM981.943 101.782H986.388V97.3364H981.943V101.782ZM981.943 134.518V138.964H986.388V134.518H981.943ZM877.376 134.518V130.073H872.93V134.518H877.376ZM877.376 201.263H872.93V205.708H877.376V201.263ZM999.423 201.263H1003.87V196.818H999.423V201.263ZM999.423 234V238.445H1003.87V234H999.423ZM843.367 234H838.922V238.445H843.367V234ZM843.367 7.69867H994.974V-1.19176H843.367V7.69867ZM990.528 3.25345V35.9902H999.419V3.25345H990.528ZM994.974 31.545H877.376V40.4354H994.974V31.545ZM872.93 35.9902V101.782H881.821V35.9902H872.93ZM877.376 106.227H981.943V97.3364H877.376V106.227ZM977.497 101.782V134.518H986.388V101.782H977.497ZM981.943 130.073H877.376V138.964H981.943V130.073ZM872.93 134.518V201.263H881.821V134.518H872.93ZM877.376 205.708H999.423V196.818H877.376V205.708ZM994.978 201.263V234H1003.87V201.263H994.978ZM999.423 229.555H843.367V238.445H999.423V229.555ZM847.813 234V3.25345H838.922V234H847.813ZM218.625 559.946L215.493 563.1L216.793 564.391H218.625V559.946ZM40.9566 383.549L42.3213 379.318L37.8247 386.703L40.9566 383.549ZM50.8094 386.727L55.2546 386.701L55.236 383.484L52.1741 382.496L50.8094 386.727ZM51.7629 552V556.445H56.2339L56.2081 551.974L51.7629 552ZM17.437 552H12.9918V556.445H17.437V552ZM17.437 313.943V309.498H12.9918V313.943H17.437ZM19.0262 313.943L22.1807 310.811L20.8768 309.498H19.0262V313.943ZM194.47 490.658L193.271 494.939L209.493 499.481L197.624 487.526L194.47 490.658ZM186.524 488.433L182.079 488.45L182.092 491.809L185.325 492.714L186.524 488.433ZM185.888 321.253V316.808H181.426L181.443 321.27L185.888 321.253ZM219.579 321.253H224.024V316.808H219.579V321.253ZM219.579 559.946V564.391H224.024V559.946H219.579ZM221.757 556.791L44.0886 380.394L37.8247 386.703L215.493 563.1L221.757 556.791ZM39.5919 387.779L49.4447 390.958L52.1741 382.496L42.3213 379.318L39.5919 387.779ZM46.3643 386.753L47.3178 552.026L56.2081 551.974L55.2546 386.701L46.3643 386.753ZM51.7629 547.555H17.437V556.445H51.7629V547.555ZM21.8822 552V313.943H12.9918V552H21.8822ZM17.437 318.389H19.0262V309.498H17.437V318.389ZM15.8716 317.075L191.315 493.79L197.624 487.526L22.1807 310.811L15.8716 317.075ZM195.668 486.378L187.723 484.153L185.325 492.714L193.271 494.939L195.668 486.378ZM190.969 488.417L190.334 321.237L181.443 321.27L182.079 488.45L190.969 488.417ZM185.888 325.699H219.579V316.808H185.888V325.699ZM215.133 321.253V559.946H224.024V321.253H215.133ZM219.579 555.501H218.625V564.391H219.579V555.501ZM261.158 552L257.063 550.27L254.454 556.445H261.158V552ZM362.546 312.036V307.591H359.599L358.452 310.306L362.546 312.036ZM364.453 312.036L368.548 310.306L367.401 307.591H364.453V312.036ZM465.842 552V556.445H472.546L469.937 550.27L465.842 552ZM427.066 552L422.931 553.631L424.041 556.445H427.066V552ZM353.329 365.114L350.874 361.408L347.873 363.397L349.194 366.746L353.329 365.114ZM377.802 348.905L381.915 350.591L387.399 337.217L375.348 345.199L377.802 348.905ZM294.53 552V556.445H297.512L298.643 553.686L294.53 552ZM322.817 465.55V461.104H319.657L318.619 464.089L322.817 465.55ZM404.818 465.55L408.942 463.891L407.821 461.104H404.818V465.55ZM416.578 494.79V499.235H423.157L420.702 493.131L416.578 494.79ZM312.646 494.79L308.448 493.33L306.394 499.235H312.646V494.79ZM265.252 553.73L366.641 313.766L358.452 310.306L257.063 550.27L265.252 553.73ZM362.546 316.482H364.453V307.591H362.546V316.482ZM360.359 313.766L461.747 553.73L469.937 550.27L368.548 310.306L360.359 313.766ZM465.842 547.555H427.066V556.445H465.842V547.555ZM431.201 550.369L357.464 363.483L349.194 366.746L422.931 553.631L431.201 550.369ZM355.784 368.82L380.257 352.611L375.348 345.199L350.874 361.408L355.784 368.82ZM373.689 347.219L290.417 550.314L298.643 553.686L381.915 350.591L373.689 347.219ZM294.53 547.555H261.158V556.445H294.53V547.555ZM322.817 469.995H404.818V461.104H322.817V469.995ZM400.694 467.208L412.454 496.449L420.702 493.131L408.942 463.891L400.694 467.208ZM416.578 490.345H312.646V499.235H416.578V490.345ZM316.845 496.25L327.016 467.01L318.619 464.089L308.448 493.33L316.845 496.25ZM507.222 552H502.777V556.445H507.222V552ZM507.222 313.625V309.18H502.777V313.625H507.222ZM507.54 313.625L511.172 311.062L509.844 309.18H507.54V313.625ZM630.223 487.48L629.279 491.824L640.442 494.25L633.855 484.917L630.223 487.48ZM615.603 484.302L611.987 481.716L608.058 487.21L614.659 488.645L615.603 484.302ZM737.651 313.625V309.18H735.365L734.035 311.04L737.651 313.625ZM738.287 313.625H742.732V309.18H738.287V313.625ZM738.287 552V556.445H742.732V552H738.287ZM704.596 552H700.151V556.445H704.596V552ZM704.596 390.223L709.006 389.662L700.151 390.223H704.596ZM706.821 407.704L710.451 410.27L711.449 408.858L711.231 407.143L706.821 407.704ZM621.642 528.163V532.608H623.943L625.271 530.729L621.642 528.163ZM621.006 528.163L617.399 530.761L618.73 532.608H621.006V528.163ZM534.238 407.704L530.055 406.198L529.262 408.402L530.631 410.302L534.238 407.704ZM539.959 391.812H544.404L535.776 390.307L539.959 391.812ZM539.959 552V556.445H544.404V552H539.959ZM511.667 552V313.625H502.777V552H511.667ZM507.222 318.071H507.54V309.18H507.222V318.071ZM503.908 316.188L626.591 490.043L633.855 484.917L511.172 311.062L503.908 316.188ZM631.168 483.136L616.547 479.958L614.659 488.645L629.279 491.824L631.168 483.136ZM619.219 486.887L741.267 316.211L734.035 311.04L611.987 481.716L619.219 486.887ZM737.651 318.071H738.287V309.18H737.651V318.071ZM733.841 313.625V552H742.732V313.625H733.841ZM738.287 547.555H704.596V556.445H738.287V547.555ZM709.041 552V390.223H700.151V552H709.041ZM700.187 390.784L702.411 408.265L711.231 407.143L709.006 389.662L700.187 390.784ZM703.192 405.137L618.012 525.596L625.271 530.729L710.451 410.27L703.192 405.137ZM621.642 523.717H621.006V532.608H621.642V523.717ZM624.613 525.564L537.845 405.106L530.631 410.302L617.399 530.761L624.613 525.564ZM538.42 409.21L544.141 393.318L535.776 390.307L530.055 406.198L538.42 409.21ZM535.514 391.812V552H544.404V391.812H535.514ZM539.959 547.555H507.222V556.445H539.959V547.555ZM803.018 321.253V316.808H798.572V321.253H803.018ZM954.624 321.253H959.069V316.808H954.624V321.253ZM954.624 353.99V358.435H959.069V353.99H954.624ZM837.026 353.99V349.545H832.581V353.99H837.026ZM837.026 419.782H832.581V424.227H837.026V419.782ZM941.593 419.782H946.038V415.336H941.593V419.782ZM941.593 452.518V456.964H946.038V452.518H941.593ZM837.026 452.518V448.073H832.581V452.518H837.026ZM837.026 519.263H832.581V523.708H837.026V519.263ZM959.074 519.263H963.519V514.818H959.074V519.263ZM959.074 552V556.445H963.519V552H959.074ZM803.018 552H798.572V556.445H803.018V552ZM803.018 325.699H954.624V316.808H803.018V325.699ZM950.179 321.253V353.99H959.069V321.253H950.179ZM954.624 349.545H837.026V358.435H954.624V349.545ZM832.581 353.99V419.782H841.471V353.99H832.581ZM837.026 424.227H941.593V415.336H837.026V424.227ZM937.147 419.782V452.518H946.038V419.782H937.147ZM941.593 448.073H837.026V456.964H941.593V448.073ZM832.581 452.518V519.263H841.471V452.518H832.581ZM837.026 523.708H959.074V514.818H837.026V523.708ZM954.628 519.263V552H963.519V519.263H954.628ZM959.074 547.555H803.018V556.445H959.074V547.555ZM807.463 552V321.253H798.572V552H807.463ZM1011.28 552H1006.84V556.445H1011.28V552ZM1011.28 321.253V316.808H1006.84V321.253H1011.28ZM1133.97 331.742L1135.74 327.665L1135.74 327.665L1133.97 331.742ZM1172.74 359.393L1169.36 362.276L1169.38 362.294L1169.39 362.312L1172.74 359.393ZM1194.36 397.533L1190.12 398.881L1190.13 398.91L1190.14 398.939L1194.36 397.533ZM1192.13 486.209L1188.07 484.397L1188.07 484.397L1192.13 486.209ZM1167.02 521.806L1170.03 525.077L1170.05 525.061L1170.07 525.045L1167.02 521.806ZM1130.47 544.372L1132.01 548.542L1132.04 548.532L1132.07 548.521L1130.47 544.372ZM1045.29 519.263H1040.85V523.708H1045.29V519.263ZM1114.58 513.86L1113.15 509.651L1113.14 509.656L1113.12 509.66L1114.58 513.86ZM1141.91 497.968L1138.96 494.651L1138.93 494.671L1138.91 494.692L1141.91 497.968ZM1160.03 472.224L1164.13 473.934L1164.13 473.934L1160.03 472.224ZM1159.08 400.394L1155.01 402.184L1155.03 402.234L1155.05 402.283L1159.08 400.394ZM1140.33 374.332L1137.37 377.649L1137.39 377.672L1137.42 377.694L1140.33 374.332ZM1113.94 359.076L1112.46 363.264L1112.51 363.284L1112.57 363.302L1113.94 359.076ZM1045.29 353.99V349.545H1040.85V353.99H1045.29ZM1015.73 552V321.253H1006.84V552H1015.73ZM1011.28 325.699H1075.49V316.808H1011.28V325.699ZM1075.49 325.699C1097.94 325.699 1116.8 329.131 1132.2 335.819L1135.74 327.665C1118.93 320.368 1098.8 316.808 1075.49 316.808V325.699ZM1132.2 335.819C1147.78 342.587 1160.12 351.43 1169.36 362.276L1176.13 356.511C1165.87 344.473 1152.36 334.882 1135.74 327.665L1132.2 335.819ZM1169.39 362.312C1178.96 373.312 1185.86 385.494 1190.12 398.881L1198.59 396.185C1193.95 381.603 1186.44 368.359 1176.1 356.475L1169.39 362.312ZM1190.14 398.939C1194.66 412.488 1196.9 426.104 1196.9 439.805H1205.79C1205.79 425.113 1203.38 410.548 1198.57 396.128L1190.14 398.939ZM1196.9 439.805C1196.9 456.43 1193.93 471.268 1188.07 484.397L1196.19 488.02C1202.62 473.603 1205.79 457.506 1205.79 439.805H1196.9ZM1188.07 484.397C1182.16 497.652 1174.13 509.027 1163.98 518.567L1170.07 525.045C1181.11 514.667 1189.82 502.311 1196.19 488.02L1188.07 484.397ZM1164.01 518.535C1153.84 527.893 1142.14 535.122 1128.88 540.223L1132.07 548.521C1146.35 543.028 1159.02 535.213 1170.03 525.077L1164.01 518.535ZM1128.93 540.202C1115.68 545.096 1101.58 547.555 1086.61 547.555V556.445C1102.58 556.445 1117.72 553.819 1132.01 548.542L1128.93 540.202ZM1086.61 547.555H1011.28V556.445H1086.61V547.555ZM1045.29 523.708H1080.25V514.818H1045.29V523.708ZM1080.25 523.708C1093.18 523.708 1105.13 521.845 1116.04 518.06L1113.12 509.66C1103.27 513.079 1092.33 514.818 1080.25 514.818V523.708ZM1116.01 518.069C1127.14 514.285 1136.8 508.687 1144.92 501.245L1138.91 494.692C1131.77 501.235 1123.21 506.231 1113.15 509.651L1116.01 518.069ZM1144.87 501.286C1153.23 493.828 1159.65 484.688 1164.13 473.934L1155.93 470.514C1151.93 480.101 1146.27 488.124 1138.96 494.651L1144.87 501.286ZM1164.13 473.934C1168.64 463.128 1170.83 450.876 1170.83 437.262H1161.94C1161.94 449.923 1159.9 460.979 1155.93 470.514L1164.13 473.934ZM1170.83 437.262C1170.83 422.564 1168.31 409.602 1163.1 398.505L1155.05 402.283C1159.59 411.951 1161.94 423.567 1161.94 437.262H1170.83ZM1163.15 398.604C1158.25 387.476 1151.63 378.229 1143.23 370.969L1137.42 377.694C1144.7 383.995 1150.58 392.122 1155.01 402.184L1163.15 398.604ZM1143.28 371.014C1135 363.623 1125.67 358.223 1115.32 354.849L1112.57 363.302C1121.72 366.285 1129.97 371.055 1137.37 377.649L1143.28 371.014ZM1115.43 354.887C1105.43 351.33 1095.18 349.545 1084.7 349.545V358.435C1094.15 358.435 1103.39 360.041 1112.46 363.264L1115.43 354.887ZM1084.7 349.545H1045.29V358.435H1084.7V349.545ZM1040.85 353.99V519.263H1049.74V353.99H1040.85Z" fill="white" mask="url(#path-1-outside-1_809_16)"/>
</svg>
