<svg width="64" height="60" viewBox="0 0 64 60" fill="none" xmlns="http://www.w3.org/2000/svg">
<path fill-rule="evenodd" clip-rule="evenodd" d="M25.5569 0.352302L25.382 0.309692L25.2094 0.360931L20.3596 1.80071L20.3181 1.81303L20.2786 1.8306L16.1866 3.64928L15.968 3.74642L15.8611 3.96034L13.0573 9.56792L12.943 9.79658L13.0108 10.0431L14.4506 15.2717L15.7361 14.9178L14.3642 9.93555L16.9467 4.77055L20.7806 3.0666L25.4163 1.69036L30.9269 3.03269L33.2092 5.95689L33.3673 6.15949L33.6205 6.20352C33.8556 6.2444 34.2605 6.35533 34.6522 6.54709C35.0549 6.74427 35.3586 6.98522 35.505 7.24147C35.5919 7.3935 35.6635 7.51108 35.7225 7.60792C35.9063 7.90996 35.9674 8.01032 35.9868 8.32515C36.0179 8.83044 35.8923 9.73841 35.4325 11.8457C35.1684 13.0563 34.8257 13.9576 34.4835 14.6145C35.2354 9.19128 33.1353 6.75987 31.5115 6.27514C30.468 5.92363 27.3107 5.52035 22.198 6.25074C20.5705 6.48324 19.3652 6.83609 18.4797 7.3682C17.5661 7.91719 17.0268 8.63655 16.7034 9.51189C16.3934 10.3511 16.285 11.3296 16.1934 12.3836C16.1778 12.5626 16.1627 12.745 16.1472 12.9312C16.0697 13.8647 15.9846 14.8909 15.7991 16.0503C15.4109 18.476 15.9391 21.2403 16.7147 23.6621C17.3997 25.801 18.2976 27.7333 19.0094 29.0283C17.9957 29.8417 16.5549 30.9208 15.0939 31.863C14.2517 32.4061 13.4132 32.897 12.6528 33.2645C11.8792 33.6384 11.2392 33.8584 10.78 33.9067C10.3723 33.9496 9.93962 34.0721 9.65359 34.4033C9.33188 34.7758 9.34641 35.2243 9.4468 35.5618C9.54376 35.8877 9.74219 36.2059 9.95934 36.4904C10.0761 36.6434 10.2075 36.7983 10.3488 36.9531L6.37773 42.1999L6.29557 42.3084L6.26255 42.4405L4.68772 48.7398L0.852539 56.711L2.05404 57.2891L5.91872 49.2566L5.94823 49.1953L5.96473 49.1292L7.52305 42.896L11.3118 37.89C11.8878 38.4003 12.5154 38.89 13.0596 39.2839C13.1688 39.7725 13.282 40.3285 13.3931 40.9359L11 39.5C10.1666 40.5 8.49998 42.6 8.49998 43C8.49998 43.4 7.49998 48.5 6.99998 51L13.5 55L13.6847 54.5381C13.5199 55.1682 13.3132 55.7423 13.0589 56.244L14.2482 56.8468C15.4545 54.4667 15.6752 50.9086 15.5111 47.5408C15.3577 44.3942 14.8606 41.2938 14.4112 39.2216L16.4633 38.0377C16.4853 38.2968 16.5185 38.5601 16.5652 38.8203C16.6837 39.4803 16.8979 40.173 17.2775 40.7208C17.6714 41.2895 18.2658 41.725 19.0837 41.745C19.5224 41.7558 19.9849 41.6452 20.4723 41.4205C20.4158 42.0734 20.3391 42.8211 20.2401 43.6367C18.3428 44.4962 16.6377 42.2754 16 41C16.6667 44.5 17.5 52.5 15.5 56.5C13.5 60.5 16.3333 60.1667 18 59.5L17 56.5C17.1931 56.2683 17.4417 55.8754 17.7197 55.309C17.6015 55.6465 17.479 55.9782 17.3521 56.3024L18.5937 56.7883C20.7444 51.2921 21.6606 43.8571 21.878 40.5256L34.3278 31.1883L42.5175 35.5006L42.6633 35.5774H42.8281H45.0997L50.0501 36.7443L51.4064 39.0693V41.6171V41.8307L51.5306 42.0046L54.9218 46.7523L58.3156 52.6349L58.4014 52.7836L58.5483 52.8724L61.8638 54.8755V57H63.1971V54.4994V54.1232L62.8752 53.9287L59.3847 51.8199L56.0605 46.058L56.0444 46.0299L56.0256 46.0036L52.7397 41.4034V38.8891V38.7088L52.6489 38.5532L51.0576 35.8251L50.9133 35.5779L50.6347 35.5122L45.3302 34.2618L45.2548 34.244H45.1772H42.9929L34.6727 29.8631L32.0414 27.0968C32.2431 26.2298 32.5482 24.8496 32.9047 23.1167C34.7718 21.5813 35.5787 20.0721 35.7302 18.7307C35.8514 17.6569 35.5439 16.7562 35.1194 16.1265C35.7193 15.2927 36.3251 14.0095 36.7352 12.13C37.1848 10.0695 37.3623 8.96936 37.3176 8.24325C37.2764 7.57375 37.029 7.17556 36.8042 6.81394C36.7552 6.73501 36.7072 6.65783 36.6627 6.57995C36.3242 5.98748 35.7438 5.59695 35.2384 5.34956C34.8393 5.15417 34.4338 5.02216 34.1104 4.9445L31.8354 2.02963L31.6928 1.84693L31.4676 1.79209L25.5569 0.352302ZM33.0775 14.9829L33.0499 15.1447C30.3523 14.3768 27.2907 14.9034 26.036 15.2767L25.5595 15.4185V15.8235C25.5372 15.8177 25.5115 15.8101 25.482 15.8C25.3132 15.7423 25.0627 15.6172 24.7147 15.3713C24.2288 15.0279 23.5857 14.8098 22.9224 14.6645C22.2476 14.5168 21.4943 14.4326 20.7464 14.3897C19.5313 14.3199 18.2909 14.357 17.352 14.4253C17.4025 13.9294 17.4411 13.4638 17.477 13.0302L17.477 13.03C17.4922 12.8473 17.5068 12.6703 17.5217 12.4991C17.6148 11.4288 17.7148 10.6219 17.9542 9.97394C18.1802 9.36213 18.5313 8.89273 19.1664 8.51106C19.8297 8.11252 20.8314 7.79284 22.3865 7.57068C27.4344 6.84955 30.354 7.28776 31.0936 7.54134L31.1083 7.54637L31.1232 7.55071C31.8645 7.76693 34.0206 9.44258 33.0775 14.9829ZM22.6372 15.967C23.2269 16.0961 23.6654 16.2648 23.9385 16.4555C23.8662 16.5318 23.8 16.622 23.7428 16.7284L23.6738 16.8567L23.6646 17.0021C23.6493 17.2446 23.4396 18.0673 22.6794 18.727C22.6231 18.7759 22.4355 18.8638 22.0142 18.8908C21.621 18.916 21.131 18.8821 20.5942 18.8051C19.6627 18.6715 18.6664 18.4195 17.9401 18.199C17.8165 17.8439 17.6749 17.3737 17.5715 16.8892C17.4811 16.4655 17.43 16.0753 17.4271 15.7567C18.3194 15.691 19.5116 15.6543 20.67 15.7208C21.3758 15.7614 22.0541 15.8394 22.6372 15.967ZM17.9845 23.2554C17.5726 21.9693 17.2492 20.6287 17.097 19.3303L17.2214 19.3708C18.0049 19.6258 19.238 19.9576 20.405 20.125C20.987 20.2084 21.5778 20.2548 22.0995 20.2214C22.5931 20.1897 23.1545 20.0802 23.5533 19.734C24.4428 18.9621 24.8299 18.0137 24.9524 17.3995C24.9747 17.4 25.0015 17.4018 25.0333 17.4058C25.2032 17.4273 25.4004 17.4958 25.5595 17.5693V18.1726C25.5595 18.9554 26.1762 19.4323 26.6111 19.6762C27.0876 19.9435 27.6361 20.1003 28.0005 20.1681L28.0609 20.1793H28.1224H32.1313C31.9634 21.0464 31.8004 21.8624 31.6465 22.6147C31.2347 24.628 30.8882 26.1825 30.6857 27.0381C29.975 28.169 27.7993 30.3415 24.4898 30.3415C21.7617 30.3415 20.8481 29.662 20.6098 29.3383L20.505 28.9949L20.482 28.9196L20.4421 28.8517C19.7452 27.6658 18.7319 25.5889 17.9845 23.2554ZM26.8928 18.1726V16.4299C28.1726 16.132 30.4586 15.8571 32.4772 16.3711L31.8509 18.846H28.1872C27.922 18.7909 27.5555 18.6771 27.2634 18.5133C26.9082 18.3141 26.8928 18.1798 26.8928 18.1726ZM33.371 20.7892C33.5886 19.6744 33.8155 18.47 34.0428 17.2035C34.082 17.1786 34.1214 17.1521 34.161 17.1238C34.3471 17.4959 34.4718 17.9918 34.4052 18.5811C34.3368 19.1873 34.06 19.9393 33.371 20.7892ZM24.7308 31.6716C27.9919 31.5838 30.2745 29.7282 31.3866 28.343L33.2656 30.3183L21.5669 39.0923L20.5927 36.2236L21.1346 35.2299L21.7539 34.0947L24.7308 31.6716ZM19.2539 36.4278L20.4391 39.9177C19.8303 40.309 19.4002 40.4191 19.1163 40.4121C18.8196 40.4048 18.585 40.2668 18.3735 39.9615C18.1475 39.6354 17.9797 39.1536 17.8776 38.5847C17.8003 38.1542 17.7659 37.7039 17.7626 37.2881L19.2539 36.4278ZM20.512 33.587L20.0539 34.4269L16.7683 36.3224L13.6939 38.0961C13.0367 37.6123 12.2872 37.0069 11.6916 36.4236C11.4206 36.1582 11.1912 35.9068 11.0192 35.6814C10.881 35.5003 10.798 35.3593 10.7539 35.259C10.7948 35.2496 10.849 35.2401 10.9196 35.2327C11.6121 35.1598 12.4195 34.8582 13.233 34.465C14.0597 34.0654 14.948 33.5437 15.8165 32.9836C17.1717 32.1096 18.504 31.1259 19.5176 30.3276L20.512 33.587ZM21.5796 32.5173L21.1846 31.2226C21.6209 31.3738 22.1371 31.4934 22.7416 31.5716L21.5796 32.5173ZM23.5 41C23 45 21.7 53.7 20.5 56.5C19.3 59.3 38.3333 57.6667 48 56.5L54.5 49L49.5 40.5L49 37.5L43.5 37L35 32.26L23.5 41Z" fill="#221818"/>
</svg>
