<svg width="70" height="65" viewBox="0 0 70 65" fill="none" xmlns="http://www.w3.org/2000/svg">
<path d="M34.4977 38.1116C21.8418 32.5507 17.3196 21.0933 17 16.7788C28.5053 12.3844 52.3789 6.23206 51.9954 16.7786C51.6119 27.3252 40.0906 35.8745 34.4977 38.1116Z" fill="#1B998B"/>
<path d="M17 4.7939C17 2.1463 19.1463 0 21.7939 0H47.2015C49.8491 0 51.9954 2.1463 51.9954 4.7939V16.2992C51.9954 18.9468 49.8491 21.0931 47.2015 21.0931H21.7939C19.1463 21.0931 17 18.9468 17 16.2992V4.7939Z" fill="#1B998B"/>
<path d="M34.7374 3.59546H21.0748V18.9359C22.0336 25.8391 30.5827 32.0392 34.7374 34.2764V26.6062C30.327 26.0309 28.9049 22.6911 28.7451 21.0932C30.8544 22.6272 33.6189 22.8509 34.7374 22.771V3.59546Z" fill="white"/>
<path d="M32.5802 10.5465C28.9368 8.24547 24.6702 9.58776 22.9924 10.5465C23.3919 12.0646 24.9579 15.0049 28.026 14.6214C31.0941 14.2379 32.3405 11.745 32.5802 10.5465Z" fill="#1B998B"/>
<path d="M46.2428 10.3789C42.5994 8.07787 38.3328 9.42016 36.655 10.3789C37.0545 11.897 38.6205 14.8373 41.6886 14.4538C44.7567 14.0703 46.0031 11.5774 46.2428 10.3789Z" fill="white"/>
<path d="M17.4977 64.1116C4.84183 58.5507 0.319593 47.0933 0 42.7788C11.5053 38.3844 35.3789 32.2321 34.9954 42.7786C34.6119 53.3252 23.0906 61.8745 17.4977 64.1116Z" fill="#1B998B"/>
<path d="M0 30.7939C0 28.1463 2.1463 26 4.7939 26H30.2015C32.8491 26 34.9954 28.1463 34.9954 30.7939V42.2992C34.9954 44.9468 32.8491 47.0931 30.2015 47.0931H4.7939C2.1463 47.0931 0 44.9468 0 42.2992V30.7939Z" fill="#1B998B"/>
<path d="M17.7374 29.5955H4.07483V44.9359C5.03361 51.8391 13.5827 58.0392 17.7374 60.2764V52.6062C13.327 52.0309 11.9049 48.6911 11.7451 47.0932C13.8544 48.6272 16.6189 48.8509 17.7374 48.771V29.5955Z" fill="white"/>
<path d="M15.5802 36.5464C11.9368 34.2453 7.67023 35.5876 5.99237 36.5464C6.39186 38.0645 7.95787 41.0048 11.026 40.6213C14.0941 40.2377 15.3405 37.7449 15.5802 36.5464Z" fill="#1B998B"/>
<path d="M29.2428 36.3789C25.5994 34.0779 21.3328 35.4202 19.655 36.3789C20.0545 37.897 21.6205 40.8373 24.6886 40.4538C27.7567 40.0703 29.0031 37.5774 29.2428 36.3789Z" fill="white"/>
<path d="M52.4977 64.1116C39.8418 58.5507 35.3196 47.0933 35 42.7788C46.5053 38.3844 70.3789 32.2321 69.9954 42.7786C69.6119 53.3252 58.0906 61.8745 52.4977 64.1116Z" fill="#1B998B"/>
<path d="M35 30.7939C35 28.1463 37.1463 26 39.7939 26H65.2015C67.8491 26 69.9954 28.1463 69.9954 30.7939V42.2992C69.9954 44.9468 67.8491 47.0931 65.2015 47.0931H39.7939C37.1463 47.0931 35 44.9468 35 42.2992V30.7939Z" fill="#1B998B"/>
<path d="M52.7374 29.5955H39.0748V44.9359C40.0336 51.8391 48.5827 58.0392 52.7374 60.2764V52.6062C48.327 52.0309 46.9049 48.6911 46.7451 47.0932C48.8544 48.6272 51.6189 48.8509 52.7374 48.771V29.5955Z" fill="white"/>
<path d="M50.5802 36.5464C46.9368 34.2453 42.6702 35.5876 40.9924 36.5464C41.3919 38.0645 42.9579 41.0048 46.026 40.6213C49.0941 40.2377 50.3405 37.7449 50.5802 36.5464Z" fill="#1B998B"/>
<path d="M64.2428 36.3789C60.5995 34.0779 56.3329 35.4202 54.655 36.3789C55.0545 37.897 56.6205 40.8373 59.6886 40.4538C62.7567 40.0703 64.0031 37.5774 64.2428 36.3789Z" fill="white"/>
</svg>
