<svg width="61" height="55" viewBox="0 0 61 55" fill="none" xmlns="http://www.w3.org/2000/svg">
<path d="M0 30.0092H2.62963H3.38096V48.7922C3.98202 52.6991 6.6367 53.9263 7.8889 54.0515C20.7866 54.3019 47.7091 54.6526 52.217 54.0515C56.725 53.4504 57.3511 50.2949 57.1006 48.7922V30.0092H60.1059V23.9986H57.1006V17.6123H47.7091V4.0885C47.108 0.782713 44.4533 0.206673 43.2011 0.331876C35.4375 0.0814345 19.1588 -0.269183 16.1535 0.331876C13.1482 0.932935 12.1464 3.08673 12.0212 4.0885V18.3637H3.38096V23.9986H0V30.0092Z" fill="#C5D86D"/>
<path d="M42.0742 5.9668H18.0319V18.3636H24.0425V23.9986H18.0319V30.3848H42.0742V23.9986H35.688V18.3636H42.0742V5.9668Z" fill="white"/>
<rect x="9.01587" y="39.0249" width="6.01059" height="6.01059" fill="white"/>
<rect x="21.0371" y="39.0249" width="6.01059" height="6.01059" fill="white"/>
<rect x="33.0583" y="39.0249" width="6.01059" height="6.01059" fill="white"/>
<rect x="45.0795" y="39.0249" width="6.01059" height="6.01059" fill="white"/>
</svg>
